<?xml version="1.0" encoding="UTF-8"?>
<svg id="Layer_1" data-name="Layer 1" xmlns="http://www.w3.org/2000/svg" viewBox="0 0 108 108">
  <g id="CareGuidanceSolutions">
    <g id="Bells">
      <path d="M9.47,48.52c0,18.74,11.59,34.77,27.99,41.32,5.1,2.04,10.67,3.16,16.49,3.16l16.63,11.04-3.31-13.07c18.06-5.66,31.16-22.53,31.16-42.46,0-13.88-6.35-26.27-16.31-34.42-7.67-6.28-17.48-10.05-28.17-10.05C29.38,4.05,9.46,23.96,9.46,48.52h0Z" fill="#fff"/>
      <path d="M9.47,48.52c0,18.74,11.59,34.77,27.99,41.32,5.1,2.04,10.67,3.16,16.49,3.16l16.63,11.04-3.31-13.07c18.06-5.66,31.16-22.53,31.16-42.46,0-13.88-6.35-26.27-16.31-34.42-7.67-6.28-17.48-10.05-28.17-10.05C29.38,4.05,9.46,23.96,9.46,48.52h0Z" fill="#fff"/>
      <path d="M70.58,104.05l-16.63-11.04c-5.83,0-11.39-1.12-16.49-3.16-16.4-6.55-27.99-22.58-27.99-41.32,0-13.98,6.46-26.46,16.54-34.61l44.38,75.94c-1.02.41-2.07.78-3.12,1.11l3.31,13.07h0Z" isolation="isolate" opacity=".12"/>
      <path d="M9.47,48.52c0,18.74,11.59,34.77,27.99,41.32,5.1,2.04,10.67,3.16,16.49,3.16l16.63,11.04-3.31-13.07c18.06-5.66,31.16-22.53,31.16-42.46,0-13.88-6.35-26.27-16.31-34.42-7.67-6.28-17.48-10.05-28.17-10.05C29.38,4.05,9.46,23.96,9.46,48.52h0Z" fill="none" stroke="#044872" stroke-miterlimit="10" stroke-width="1.89"/>
      <g>
        <g>
          <path d="M30.24,64.28l-.08-3.12s16.81-5,21.79-.13c0,0,3.5,1.69,6.8-.89,0,0,4.07-6.08,21.45-4.63l.68,2.35s-2.33,1.68-2.66,3.56c-.33,1.88-.19,8.93-7.61,10.04-8.14,1.22-11.81-8.44-11.81-8.44,0,0-.86-1.31-2.95-1.17-2.09.14-3.05,2.06-3.05,2.06,0,0,.93,9.03-7.83,10.36-9.45,1.44-11.35-7.33-11.35-7.33,0,0-.36-1.74-3.4-2.68h0Z" fill="none" stroke="#044872" stroke-miterlimit="10" stroke-width="1.89"/>
          <path d="M33.93,67.91s-2.71-7.51,2.52-8.2" fill="none" stroke="#044872" stroke-miterlimit="10" stroke-width="1.89"/>
          <path d="M78.07,62.72s.75-7.01-4-7.41" fill="none" stroke="#044872" stroke-miterlimit="10" stroke-width="1.89"/>
          <path d="M51.21,60.44s1.44.77,1.6,3.49" fill="none" stroke="#044872" stroke-miterlimit="10" stroke-width="1.89"/>
          <path d="M59.89,59.05s-2.02,1.4-1.08,3.99" fill="none" stroke="#044872" stroke-miterlimit="10" stroke-width="1.89"/>
        </g>
        <polygon points="32.94 65.29 33.37 60.52 30.16 61.17 30.71 63.87 32.94 65.29" fill="#044872"/>
        <polygon points="76.48 55.32 79.12 60.13 80.89 57.88 80.06 55.23 76.48 55.32" fill="#044872"/>
      </g>
      <g>
        <path d="M39.93,30.97s6.42-3.57,13.38-3.83c6.48-.24,11.07,1.5,11.07,1.5,0,0,3.49-15.7-14.04-14.27-13.01,1.06-12.87,12.98-10.41,16.6Z" fill="#e87722" stroke="#044872" stroke-miterlimit="10" stroke-width="1.89"/>
        <path d="M81.59,46.92s-7.61.07-13.23-9.65c0,0-11.95,18.14-40.85,14.11,0,0,1.78-22.31,25.39-23.97,22.05-1.55,28.69,19.51,28.69,19.51h0Z" fill="#e87722" stroke="#044872" stroke-miterlimit="10" stroke-width="1.89"/>
      </g>
    </g>
  </g>
</svg>