<?xml version="1.0" encoding="UTF-8"?>
<svg id="Layer_1" data-name="Layer 1" xmlns="http://www.w3.org/2000/svg" viewBox="0 0 108 108">
  <g id="CareAdministration">
    <g id="RevenueCycleTechnology">
      <g id="AlphaVerify">
        <rect x="4" y="16.46" width="100" height="70.78" fill="#fff" stroke="#013d5b" stroke-miterlimit="10" stroke-width="2.21"/>
        <rect x="11.75" y="24.21" width="84.5" height="47.53" fill="#80c242" stroke="#013d5b" stroke-miterlimit="10" stroke-width="2.21"/>
        <rect x="39.35" y="87.24" width="29.29" height="9.46" fill="#fff" stroke="#013d5b" stroke-miterlimit="10" stroke-width="2.21"/>
        <rect x="28.38" y="96.71" width="51.23" height="4.73" fill="#fff" stroke="#013d5b" stroke-miterlimit="10" stroke-width="2.21"/>
        <polygon points="68.64 96.71 64.28 96.71 39.35 87.24 68.64 87.24 68.64 96.71" fill="#054872" isolation="isolate" opacity=".12"/>
        <path d="M66.79,53.41c0-5.24-3.97-7.03-7.98-8.16-3.97-1.04-8.1-1.59-8.22-3.58,0-1.59,1.95-1.92,3.14-1.92.91-.03,1.81.22,2.58.72.8.45,1.22,1.37,1.03,2.27h8.26c-.18-6.19-4.65-8.72-10.03-9.17v-3.71h-3.13v3.7c-5.33.4-10.11,3.24-10.11,9.3,0,5.71,5.12,6.95,9.6,8.22,4.88,1.39,6.12,1.83,6.12,3.26,0,2.11-2.18,2.58-3.62,2.58-1.63,0-3.53-.36-4.17-2.06-.21-.6-.32-1.23-.32-1.87h-8.74c0,8.09,7.38,9.86,11.23,10.15v3.55h3.13v-3.58c5.75-.45,11.24-3.02,11.24-9.68Z" fill="#fff"/>
      </g>
    </g>
  </g>
</svg>