<?xml version="1.0" encoding="UTF-8"?>
<svg id="Layer_1" data-name="Layer 1" xmlns="http://www.w3.org/2000/svg" viewBox="0 0 108 108">
  <g id="CareAdministration">
    <g id="RevenueCycleTechnology">
      <g id="alphaCoding">
        <g>
          <polygon points="41.12 44.43 41.12 39.03 8.36 39.03 8.36 97.42 83.1 97.42 83.1 44.43 41.12 44.43" fill="#fff"/>
          <polygon points="41.12 44.43 41.12 39.03 8.36 39.03 8.36 97.42 83.1 97.42 83.1 44.43 41.12 44.43" stroke="#044872" stroke-miterlimit="10" stroke-width="2.07"/>
          <g>
            <rect x="18.65" y="5.19" width="49.44" height="64" fill="#fff" stroke="#044872" stroke-miterlimit="10" stroke-width="2.07"/>
            <rect x="24.72" y="11.17" width="49.44" height="64" fill="#fff"/>
            <g>
              <line x1="66.51" y1="35.93" x2="31.82" y2="35.93" fill="none" stroke="#044872" stroke-miterlimit="10" stroke-width="2.07"/>
              <line x1="66.51" y1="43.53" x2="31.82" y2="43.53" fill="none" stroke="#044872" stroke-miterlimit="10" stroke-width="2.07"/>
              <line x1="66.51" y1="20.65" x2="31.82" y2="20.65" fill="none" stroke="#044872" stroke-miterlimit="10" stroke-width="2.07"/>
              <line x1="66.51" y1="28.29" x2="31.82" y2="28.29" fill="none" stroke="#044872" stroke-miterlimit="10" stroke-width="2.07"/>
              <line x1="66.51" y1="58.4" x2="31.82" y2="58.4" fill="none" stroke="#044872" stroke-miterlimit="10" stroke-width="2.07"/>
              <line x1="60.58" y1="66.04" x2="31.82" y2="66.04" fill="none" stroke="#044872" stroke-miterlimit="10" stroke-width="2.07"/>
            </g>
            <rect x="24.72" y="11.17" width="49.44" height="64" fill="none" stroke="#044872" stroke-miterlimit="10" stroke-width="2.07"/>
          </g>
          <polygon points="49.62 49.82 48.4 53.82 21.08 53.82 8.81 97.42 83.59 97.42 97.08 49.82 49.62 49.82" fill="#fff"/>
          <polygon points="39.28 97.68 83.14 97.68 97.08 49.82 82.02 49.82 39.28 97.68" isolation="isolate" opacity=".12"/>
          <polygon points="49.62 49.82 48.4 53.82 21.08 53.82 8.81 97.42 83.59 97.42 97.08 49.82 49.62 49.82" fill="none" stroke="#044872" stroke-miterlimit="10" stroke-width="2.07"/>
        </g>
        <g>
          <circle cx="85.71" cy="84.34" r="7.06" fill="#e87722"/>
          <path d="M84.31,80.61c3.91.31,6.79,3.73,6.47,7.6-.04.4-.13.85-.22,1.21,1.21-1.17,2.02-2.74,2.16-4.49.31-3.91-2.61-7.28-6.47-7.6-3.46-.27-6.52,2.02-7.37,5.26,1.39-1.39,3.37-2.16,5.44-1.98h0Z" isolation="isolate" opacity=".12"/>
          <path d="M106.15,78.13v-.09c-.67-2.43-1.8-4.63-3.19-6.56l-4.09,1.8c-1.62-2.02-3.69-3.64-6.02-4.76l.4-4.54c-2.25-.85-4.63-1.39-7.1-1.44l-1.17,4.36c-1.35.04-2.7.22-4.04.63s-2.61.94-3.78,1.62l-3.33-3.19c-2.07,1.35-3.82,3.06-5.3,4.94l2.7,3.69c-1.39,2.16-2.34,4.63-2.65,7.24l-4.4.63c-.18,2.38.04,4.85.72,7.28t.04.09l4.63.18c.81,2.16,2.02,4.04,3.55,5.62l-2.29,3.87c1.84,1.75,4,3.15,6.34,4.13l3.01-3.51c1.84.58,3.78.9,5.75.81l1.62,4.27c1.26-.13,2.52-.36,3.78-.67,1.26-.36,2.43-.85,3.6-1.39l-.85-4.49c1.71-.99,3.24-2.25,4.45-3.73l4.4,1.39c1.48-2.07,2.56-4.4,3.24-6.83l-3.96-2.07c.45-2.16.49-4.4.04-6.65l3.91-2.61h0ZM87.64,91.17c-3.78,1.08-7.69-1.12-8.72-4.85-1.08-3.78,1.12-7.69,4.85-8.72,3.78-1.08,7.69,1.12,8.72,4.85,1.08,3.73-1.12,7.64-4.85,8.72Z" fill="#fff" stroke="#044872" stroke-miterlimit="10" stroke-width="2.07"/>
        </g>
      </g>
    </g>
  </g>
</svg>