<?xml version="1.0" encoding="UTF-8"?>
<svg id="Layer_1" data-name="Layer 1" xmlns="http://www.w3.org/2000/svg" xmlns:xlink="http://www.w3.org/1999/xlink" viewBox="0 0 108 108">
  <defs>
    <clipPath id="clippath">
      <path d="M19.04,57.12c-.53,16.72,14.56,34.38,34.38,34.38,15.14,0,31.15-11.65,33.68-28.23l-10.33-13.73,9.73-.05,1.94-26.62-1.79-8.45-69.1.83,1.49,41.87Z" fill="none"/>
    </clipPath>
  </defs>
  <g id="CareAdministration">
    <g id="RevenueCycleServices">
      <g id="Back-OfficeRevenueCycle">
        <path d="M87.4,62.44c-2.94,18.75-20.53,31.57-39.28,28.63-18.75-2.94-31.57-20.53-28.63-39.28,2.94-18.75,20.53-31.57,39.28-28.63,14.01,2.2,25.24,12.78,28.26,26.63h-9.94l15.15,18.58,15.15-18.58h-8.58c-4.03-25.08-27.63-42.15-52.71-38.12C21.01,15.71,3.95,39.31,7.98,64.39c4.03,25.08,27.63,42.15,52.71,38.12,21.34-3.43,37.41-21.25,38.63-42.82" fill="#00a2c5" stroke="#044872" stroke-miterlimit="10" stroke-width="2.15"/>
        <polygon points="87.95 64.72 87.11 67.61 92.64 74.52 97.26 68.28 97.82 63.27 92.19 69.99 87.95 64.72" fill="#231f20" isolation="isolate" opacity=".2"/>
        <g clip-path="url(#clippath)">
          <g>
            <rect x="20.58" y="18.3" width="64.58" height="90.61" fill="#fff"/>
            <line x1="75.52" y1="65.18" x2="30.22" y2="65.18" fill="none" stroke="#044872" stroke-miterlimit="10" stroke-width="2.15"/>
            <line x1="75.52" y1="75.15" x2="30.22" y2="75.15" fill="none" stroke="#044872" stroke-miterlimit="10" stroke-width="2.15"/>
            <line x1="75.52" y1="55.21" x2="30.22" y2="55.21" fill="none" stroke="#044872" stroke-miterlimit="10" stroke-width="2.15"/>
            <line x1="75.52" y1="45.24" x2="56.07" y2="45.24" fill="none" stroke="#044872" stroke-miterlimit="10" stroke-width="2.15"/>
            <line x1="75.52" y1="35.27" x2="56.07" y2="35.27" fill="none" stroke="#044872" stroke-miterlimit="10" stroke-width="2.15"/>
            <line x1="67.77" y1="98.11" x2="30.22" y2="98.11" fill="none" stroke="#044872" stroke-miterlimit="10" stroke-width="2.15"/>
            <rect x="38.38" y="45.53" width="1.8" height="4.44" fill="#84bd00"/>
            <rect x="38.38" y="28.72" width="1.8" height="3.48" fill="#84bd00"/>
            <path d="M36.95,42.07c0,.37.06.73.18,1.08.37.99,1.47,1.19,2.41,1.19.83,0,2.08-.28,2.08-1.49,0-.82-.71-1.08-3.53-1.87-2.59-.73-5.54-1.44-5.54-4.74,0-3.78,3.23-5.41,6.6-5.41,3.55,0,6.71,1.37,6.83,5.34h-4.77c.11-.52-.13-1.04-.59-1.3-.44-.28-.96-.43-1.49-.41-.69,0-1.81.18-1.81,1.1.07,1.15,2.45,1.47,4.74,2.06,2.34.66,4.61,1.7,4.61,4.72,0,4.26-3.9,5.64-7.56,5.64-1.83,0-7.2-.67-7.2-5.89h5.04Z" fill="#84bd00"/>
            <polygon points="85.16 108.91 20.58 108.91 19.96 18.3 29.29 18.3 85.16 108.91" isolation="isolate" opacity=".12"/>
            <rect x="20.58" y="18.3" width="64.58" height="90.61" fill="none" stroke="#044872" stroke-miterlimit="10" stroke-width="2.15"/>
          </g>
        </g>
        <path d="M87.02,49.79h-9.94l15.15,18.58-4.84-5.94c-2.94,18.76-20.53,31.59-39.29,28.65-18.76-2.94-31.59-20.53-28.65-39.29.26-1.64.63-3.25,1.12-4.83" fill="none" stroke="#044872" stroke-miterlimit="10" stroke-width="2.15"/>
      </g>
    </g>
  </g>
</svg>