<?xml version="1.0" encoding="UTF-8"?>
<svg id="Layer_1" data-name="Layer 1" xmlns="http://www.w3.org/2000/svg" viewBox="0 0 108 108">
  <g id="CareAdministration">
    <g id="RevenueCycleTechnology">
      <g id="Benny">
        <g>
          <path d="M10.84,48.09c-.04,23.82,19.25,43.11,43.07,43.15h.08l16.14,10.7-3.22-12.69c22.75-7.12,35.39-31.34,28.27-54.08C88.06,12.42,63.85-.23,41.1,6.89,23.09,12.58,10.84,29.24,10.84,48.09Z" fill="#fff"/>
          <path d="M10.84,48.09c-.04,23.82,19.25,43.11,43.07,43.15h.08l16.14,10.7-3.22-12.69c22.75-7.12,35.39-31.34,28.27-54.08C88.06,12.42,63.85-.23,41.1,6.89,23.09,12.58,10.84,29.24,10.84,48.09Z" fill="#fff"/>
          <g isolation="isolate" opacity=".12">
            <path d="M70.09,101.93l-16.14-10.7c-23.82,0-43.15-19.33-43.15-43.15.04-13.04,5.93-25.37,16.1-33.56l43.03,73.65c-.99.4-1.99.76-3.02,1.07l3.18,12.69h0Z"/>
          </g>
          <path d="M71.6,104l-17.89-11.85c-24.2-.15-43.83-19.87-43.78-44.06,0-19.33,12.42-36.23,30.9-42.07,23.2-7.26,47.98,5.69,55.23,28.87,7.17,22.92-5.39,47.38-28.05,54.96l3.59,14.15h0ZM53.98,5.83c-4.17,0-8.41.62-12.6,1.93C23.66,13.35,11.75,29.56,11.75,48.09h0c-.04,23.25,18.87,42.19,42.15,42.23h.35l14.4,9.54-2.85-11.23.83-.26c22.22-6.95,34.63-30.7,27.67-52.94-5.64-18.03-22.35-29.61-40.33-29.61h0Z" fill="#044872"/>
        </g>
        <g>
          <path d="M78.48,31.7c-4.02-5.09-9.9-8.27-16.26-9.82-1.19-.28-2.43-.56-3.66-.76l1.11,1.91s-.44,0-2.86-.48c-6.36-1.27-11.29-2.23-11.29-2.23l.68,3.02c-1.87.08-5.13.12-9.5-1.75-.6-.28-1.75-.95-3.02-1.83l2.39,8.55s-2.51-2.86-3.38-3.62-4.14-4.06-4.14-4.06c0,0,.2,7.4.56,12.17.32,4.18.64,4.81.72,4.89l-4.22-5.33s1.67,9.19,3.74,12.84c1.51,2.7,1.39,2.58,1.51,2.7l-1.91-.6.2,2.03c.16,1.71-.4,4.25.99,5.25.8-.24,3.58-.72,4.1-.6l.08.08.32.32,4.85,4.61,9.78-13.36,1.15,5.41c3.14-4.25,7.44-7.52,12.37-9.38.76-.28,1.51-.56,2.31-.84l.56-.2,9.23,13.88c.28-.16,1.27-.76,2.62-.4.52.12,2.19.87,2.47,1.15,0,0-.16-5.81-.16-5.85,0-.76,1.03-2.43,1.31-3.22,1.11-3.38,1.63-6.96.04-10.26-.76-1.55-1.67-2.98-2.66-4.25h0Z" fill="#262626"/>
          <path d="M78.24,40.89c-.2-.84-4.37-7.95-14.71-10.82-2.74-.76-5.65-1.15-8.67-1.15h-1.07c-4.97.12-9.5,1.23-13.44,3.34-3.34,1.75-5.53,3.82-6.84,5.25-.32.36-.64.72-.91,1.07-.44.6-.8,1.15-1.03,1.59-.16.32-.2.48-.2.48-.04.16-.04.32-.04.44,0,.08.04.2.04.28.04.16.12.32.2.48.24.44.64.72.8.84.08.04.12.08.12.08l.12.08s.44.4.99.24c.2-.04.36-.12.56-.28.12-.08.32-.28.52-.48l.2-.2c.8-.8,1.95-1.99,3.62-3.26,1.11-.84,2.27-1.63,3.46-2.27,1.91-1.03,3.9-1.83,6-2.39,2.19-.56,4.45-.84,6.8-.84h.12c1.27,0,2.54.08,3.82.28.52.08.99.16,1.51.24,7.99,1.59,12.65,6.32,14.63,8.35l.72.72.08.04c.16.12.32.2.48.24.56.12.99-.24.99-.24l.12-.08s.87-.56,1.07-1.39c0-.12,0-.4-.04-.64h0Z" fill="#72be44"/>
          <path d="M78.24,40.89c-.2-.84-4.37-7.95-14.71-10.82-2.74-.76-5.65-1.15-8.67-1.15h-1.07c-4.97.12-9.5,1.23-13.44,3.34-3.34,1.75-5.53,3.82-6.84,5.25-.32.36-.64.72-.91,1.07-.44.6-.8,1.15-1.03,1.59-.16.32-.2.48-.2.48-.04.16-.04.32-.04.44,0,.08.04.2.04.28.04.16.12.32.2.48.24.44.64.72.8.84.08.04.12.08.12.08l.12.08s.44.4.99.24c.2-.04.36-.12.56-.28.12-.08.32-.28.52-.48l.2-.2c.8-.8,1.95-1.99,3.62-3.26,1.11-.84,2.27-1.63,3.46-2.27,1.91-1.03,3.9-1.83,6-2.39,2.19-.56,4.45-.84,6.8-.84h.12c1.27,0,2.54.08,3.82.28.52.08.99.16,1.51.24,7.99,1.59,12.65,6.32,14.63,8.35l.72.72.08.04c.16.12.32.2.48.24.56.12.99-.24.99-.24l.12-.08s.87-.56,1.07-1.39c0-.12,0-.4-.04-.64h0Z" fill="#72be44"/>
          <path d="M39.91,44.63s-5.05-6.16-.52-10.74c0,0,1.19,1.87,3.5,1.63,0,0,0-1.67,1.75-3.42,0,0,1.99,5.93,7.16,4.25l-11.89,8.27Z" fill="#262626"/>
          <path d="M39.91,44.63s-5.05-6.16-.52-10.74c0,0,1.19,1.87,3.5,1.63,0,0,0-1.67,1.75-3.42,0,0,1.99,5.93,7.16,4.25l-11.89,8.27Z" fill="#262626"/>
          <g>
            <path d="M31.6,41.25c.84.64.72.6,1.95,1.19-.36.56-1.47,3.1-1.59,3.34-.99,2.19-1.91,5.93-2.35,8.31-.24,1.31-.6.68-1.35,1.75-.84,1.03-1.47,1.39-1.47,1.39-.76-6.92,3.86-14.91,4.81-15.99Z" fill="#ced1d2"/>
            <path d="M26.03,58.71l-.15-1.38c-.79-7.26,3.96-15.48,5.04-16.69l.56-.63.96.73c.51.39.52.4,1.51.88l.93.45-.56.87c-.23.36-.97,1.98-1.28,2.68-.14.3-.23.51-.26.58-.9,1.98-1.81,5.58-2.26,8.07-.18.98-.49,1.34-1.02,1.65-.16.1-.28.17-.49.46l-.04.05c-.92,1.14-1.65,1.57-1.73,1.61l-1.21.68h0ZM31.79,42.53c-1.29,2-4.01,7.42-4.17,12.62.38-.5.72-.7.93-.82.02-.01.04-.02.06-.04.02-.04.05-.15.1-.37.37-2,1.29-6.05,2.41-8.53.04-.09.13-.28.25-.54.33-.72.66-1.45.93-2.02-.21-.11-.36-.2-.51-.31h0Z" fill="#044872"/>
          </g>
          <g>
            <path d="M77.76,41.21c-.84.64-.8.64-2.03,1.27.36.56,1.47,3.1,1.59,3.34.99,2.19,1.91,5.93,2.35,8.31.24,1.31.6.68,1.35,1.75.84,1.03,1.47,1.39,1.47,1.39.8-6.96-3.74-14.99-4.73-16.07h0Z" fill="#ced1d2"/>
            <path d="M83.25,58.74l-1.2-.68c-.08-.04-.82-.48-1.73-1.61l-.04-.05c-.21-.29-.33-.37-.49-.46-.52-.31-.84-.67-1.02-1.65-.46-2.49-1.36-6.08-2.28-8.1-.02-.03-.11-.24-.25-.54-.31-.7-1.05-2.33-1.28-2.69l-.54-.85.89-.46c1.05-.54,1.09-.57,1.69-1.03l.87-.66.56.61c1.04,1.13,5.81,9.39,4.97,16.79l-.16,1.37h0ZM80.66,54.34s.04.02.06.04c.21.13.55.33.94.84-.13-5.26-2.87-10.76-4.1-12.72-.18.12-.35.23-.6.37.28.57.61,1.31.95,2.05.12.26.2.45.23.5,1.14,2.51,2.06,6.55,2.43,8.55.04.22.08.33.1.37h0Z" fill="#044872"/>
          </g>
          <g>
            <path d="M26.27,59.38c.44-1.39,1.19-2.66,2.27-3.66.91-.87,2.07-1.43,3.34-1.55,2.94-.32,3.3,3.18,3.5,5.33.28,2.78.6,5.53.8,8.35.12,1.55.44,3.18-.28,4.61-.68,1.39-2.74,1.55-4.06,1.15-1.87-.56-3.46-2.03-4.41-3.66-1.59-2.94-2.23-7.16-1.15-10.58Z" fill="#72be44"/>
            <path d="M33.19,74.73c-.56,0-1.11-.08-1.62-.24-1.94-.58-3.78-2.1-4.94-4.07-1.85-3.42-2.33-7.85-1.24-11.31h0c.5-1.59,1.37-2.99,2.52-4.06,1.08-1.03,2.42-1.65,3.88-1.79.99-.11,1.86.13,2.56.7,1.55,1.27,1.78,3.79,1.94,5.46.07.7.14,1.41.22,2.12.21,2.03.43,4.14.58,6.26.02.23.04.48.06.72.13,1.37.28,2.93-.44,4.37-.63,1.3-2.07,1.86-3.52,1.86h0ZM27.14,59.65c-.93,2.97-.5,6.94,1.09,9.87.91,1.55,2.36,2.77,3.87,3.22.94.29,2.54.21,2.97-.68.49-.98.38-2.15.26-3.38-.02-.25-.05-.51-.07-.76-.15-2.09-.37-4.18-.58-6.2-.08-.71-.15-1.42-.22-2.13-.12-1.29-.32-3.43-1.28-4.22-.31-.26-.7-.35-1.22-.3-1.05.1-2.02.55-2.81,1.3-.93.85-1.62,1.98-2.03,3.27h0Z" fill="#044872"/>
          </g>
          <g>
            <path d="M83.17,59.38c-.44-1.39-1.19-2.66-2.27-3.66-.91-.87-2.07-1.43-3.34-1.55-2.94-.32-3.3,3.18-3.5,5.33-.28,2.78-.6,5.53-.8,8.35-.12,1.55-.44,3.18.28,4.61.68,1.39,2.74,1.55,4.06,1.15,1.87-.56,3.46-2.03,4.41-3.66,1.63-2.94,2.27-7.16,1.15-10.58Z" fill="#72be44"/>
            <path d="M76.25,74.73c-1.45,0-2.89-.56-3.53-1.86-.72-1.43-.56-2.99-.43-4.36.02-.24.05-.49.06-.72.15-2.1.37-4.2.58-6.22.08-.72.15-1.43.22-2.15.16-1.66.39-4.18,1.94-5.45.7-.57,1.56-.81,2.57-.7,1.44.14,2.78.76,3.87,1.8,1.14,1.05,2,2.45,2.51,4.04,1.13,3.48.65,7.91-1.22,11.3-1.17,1.99-3.01,3.52-4.95,4.09-.51.16-1.06.23-1.61.23h0ZM77.2,55.06c-.39,0-.69.1-.95.31-.96.78-1.16,2.93-1.27,4.21-.07.73-.15,1.44-.22,2.16-.21,2.01-.43,4.09-.57,6.17-.02.26-.04.51-.07.77-.12,1.24-.23,2.4.25,3.37.43.89,2.03.97,2.97.69,1.51-.45,2.96-1.66,3.89-3.24,1.61-2.9,2.04-6.86,1.07-9.83h0c-.41-1.3-1.11-2.42-2.02-3.27-.8-.76-1.77-1.21-2.8-1.31-.1-.01-.19-.02-.28-.02h0Z" fill="#044872"/>
          </g>
        </g>
      </g>
    </g>
  </g>
</svg>