<?xml version="1.0" encoding="UTF-8"?>
<svg id="Layer_1" data-name="Layer 1" xmlns="http://www.w3.org/2000/svg" viewBox="0 0 108 108">
  <g id="CareAdministration">
    <g id="RevenueCycleTechnology">
      <g id="RevConnect">
        <g>
          <rect x="18.47" y="8" width="71.94" height="93.09" fill="#fff"/>
          <path d="M91.32,102H17.56V7.1h73.76v94.91h0ZM19.38,100.18h70.12V8.92H19.38v91.26Z" fill="#044872"/>
        </g>
        <rect x="29.23" y="63.19" width="50.44" height="1.82" fill="#044872"/>
        <rect x="29.23" y="74.29" width="50.44" height="1.82" fill="#044872"/>
        <rect x="29.23" y="52.08" width="50.44" height="1.82" fill="#044872"/>
        <rect x="58" y="41.01" width="21.66" height="1.82" fill="#044872"/>
        <rect x="58" y="29.9" width="21.66" height="1.82" fill="#044872"/>
        <rect x="58" y="18.79" width="21.66" height="1.82" fill="#044872"/>
        <rect x="29.23" y="85.39" width="41.82" height="1.82" fill="#044872"/>
        <path d="M49.42,35.51c0-4.15-3.12-5.53-6.28-6.48-3.12-.83-6.4-1.26-6.48-2.85,0-1.26,1.54-1.5,2.49-1.5.71-.04,1.42.16,2.05.55.63.36.95,1.07.83,1.78h6.52c-.16-4.9-3.67-6.91-7.9-7.23v-2.92h-2.45v2.88c-4.23.32-7.99,2.57-7.99,7.35-.04,4.51,4.03,5.49,7.59,6.48,3.87,1.11,4.83,1.47,4.83,2.57,0,1.66-1.74,2.05-2.85,2.05-1.26,0-2.8-.27-3.28-1.62-.16-.48-.27-.99-.27-1.47h-7c0,6.36,5.81,7.78,8.86,8.02v2.8h2.45v-2.8c4.54-.32,8.89-2.37,8.89-7.63h0Z" fill="#82bb02"/>
        <g isolation="isolate" opacity=".12">
          <polygon points="83.05 101.09 17.8 101.09 17.8 8 28.19 8 83.05 101.09"/>
        </g>
        <g>
          <circle cx="83.45" cy="86.31" r="20" fill="#82bb02"/>
          <path d="M83.45,107.1c-11.47,0-20.8-9.33-20.8-20.8s9.33-20.8,20.8-20.8,20.8,9.33,20.8,20.8-9.33,20.8-20.8,20.8ZM83.45,67.1c-10.6,0-19.2,8.62-19.2,19.2s8.62,19.2,19.2,19.2,19.2-8.62,19.2-19.2-8.62-19.2-19.2-19.2Z" fill="#044872"/>
        </g>
        <g>
          <polygon points="80.1 96.35 71.95 88.2 76.02 84.13 80.1 88.24 92.06 76.26 96.14 80.34 80.1 96.35" fill="#fff"/>
          <path d="M80.1,97.46l-9.27-9.26,5.19-5.19,4.08,4.11,11.97-11.98,5.19,5.19-17.17,17.12h0ZM73.07,88.2l7.02,7.02,14.93-14.89-2.95-2.95-11.98,11.98-4.08-4.11s-2.95,2.95-2.95,2.95Z" fill="#044872"/>
        </g>
      </g>
    </g>
  </g>
</svg>