<?xml version="1.0" encoding="UTF-8"?>
<svg id="Layer_1" data-name="Layer 1" xmlns="http://www.w3.org/2000/svg" viewBox="0 0 605.18 582.7">
  <g id="careFabric" pointer-events="none">
    <g id="CareAdministration">
      <polygon id="polygon14" points="133.64 362.7 134.64 371.4 141.14 371.4 141.64 362.7 133.64 362.7" fill="#fff"/>
      <polygon id="polygon15" points="140.24 368.1 141.34 367 141.54 365 133.84 364 140.24 368.1" isolation="isolate" opacity=".1"/>
      <polygon id="polygon16" points="133.64 362.7 134.64 371.4 141.14 371.4 141.64 362.7 133.64 362.7" fill="none" stroke="#013d5b" stroke-miterlimit="17.1" stroke-width=".9"/>
      <path id="path16" d="M129.54,347.2h0c-1.3.3-1.6,1.5-1.5,2.9.3,1.1.8,2,1.6,2.8l-.2-5.7h.1Z" fill="#fff" stroke="#013d5b" stroke-miterlimit="17.1" stroke-width=".9"/>
      <path id="path17" d="M148.64,349.2h0c1.1.7,1.3,1.8.7,3.1-.5,1-1.1,2-2.1,2.6l1.5-5.7h-.1Z" fill="#fff" stroke="#013d5b" stroke-miterlimit="17.1" stroke-width=".9"/>
      <path id="path18" d="M140.34,337.8c-5.1-.7-9.8,2.8-10.6,8-.2,4.7,0,9.3.7,14,.2,2,1.6,3.6,3.6,4.1l6,1.3c2.3.5,4.6-.8,5.2-3.1,1.6-4.6,2.8-9.3,3.8-14,.3-5.4-3.6-10-8.7-10.3Z" fill="#fff" stroke="#013d5b" stroke-miterlimit="17.1" stroke-width=".9"/>
      <polygon id="polygon18" points="141.34 367 157.34 371.4 157.34 379.4 116.84 377.6 116.84 371.4 134.14 367.1 137.74 370.4 141.34 367" fill="#00a2c5" stroke="#013d5b" stroke-miterlimit="17.1" stroke-width=".9"/>
      <rect id="rect18" x="135.16" y="379.77" width="1.6" height="1.6" transform="translate(-248.04 506.52) rotate(-88.5)" fill="#013d5b"/>
      <circle id="circle18" cx="144.64" cy="379.1" r="2.1" fill="#fff" stroke="#013d5b" stroke-miterlimit="17.1" stroke-width=".9"/>
      <path id="path19" d="M138.24,349l-1,4.1c-.2.3.2.8.5.8h1.5" fill="#fff" stroke="#013d5b" stroke-miterlimit="17.1" stroke-width=".9"/>
      <polygon id="polygon19" points="152.14 366.7 153.14 375.8 159.94 375.8 160.44 366.7 152.14 366.7" fill="#fff"/>
      <polygon id="polygon20" points="158.84 372.4 159.64 371.2 159.74 369.1 152.24 368.1 158.84 372.4" isolation="isolate" opacity=".1"/>
      <polygon id="polygon21" points="152.14 366.7 153.14 375.8 159.94 375.8 160.44 366.7 152.14 366.7" fill="none" stroke="#013d5b" stroke-miterlimit="17.1" stroke-width=".9"/>
      <polygon id="polygon22" points="160.14 371.2 176.64 375.8 176.64 384 134.84 382.2 134.84 375.8 152.64 371.4 156.24 374.7 160.14 371.2" fill="#00a2c5" stroke="#013d5b" stroke-miterlimit="17.1" stroke-width=".9"/>
      <polygon id="polygon23" points="134.84 375.8 152.64 371.4 155.04 383 134.84 382.2 134.84 375.8" fill="#fff"/>
      <polygon id="polygon24" points="134.84 375.8 152.64 371.4 155.04 383 134.84 382.2 134.84 375.8" fill="#fff"/>
      <polygon id="polygon25" points="134.84 375.8 152.64 371.4 155.04 383 134.84 382.2 134.84 375.8" fill="none" stroke="#013d5b" stroke-miterlimit="17.1" stroke-width=".9"/>
      <polygon id="polygon26" points="156.34 383.1 160.14 371.2 176.64 375.8 176.64 384 156.34 383.1" fill="#fff"/>
      <polygon id="polygon27" points="156.34 383.1 160.14 371.2 176.64 375.8 176.64 384 156.34 383.1" fill="#fff"/>
      <polygon id="polygon28" points="156.34 383.1 160.14 371.2 176.64 375.8 176.64 384 156.34 383.1" fill="none" stroke="#013d5b" stroke-miterlimit="17.1" stroke-width=".9"/>
      <path id="path28" d="M152.14,386.6v-1.8c-.3-3.6-2.9-8.2-5.4-7.8-2.5.4-4.1,5.2-3.8,8.8,0,.7.2,1.1.3,1.8" fill="none" stroke="#013d5b" stroke-miterlimit="17.1" stroke-width=".9"/>
      <rect id="rect28" x="150.56" y="384.91" width="1.6" height="1.6" transform="translate(-238.18 526.92) rotate(-88.5)" fill="#013d5b"/>
      <rect id="rect29" x="143.11" y="385.55" width="1.6" height="1.6" transform="translate(-68.61 33.07) rotate(-10.6)" fill="#013d5b"/>
      <line id="line29" x1="146.54" y1="376.9" x2="145.94" y2="372.9" fill="none" stroke="#013d5b" stroke-miterlimit="17.1" stroke-width=".9"/>
      <circle id="circle29" cx="163.34" cy="383.6" r="2.1" fill="#fff" stroke="#013d5b" stroke-miterlimit="17.1" stroke-width=".9"/>
      <line id="line30" x1="163.34" y1="381.5" x2="164.34" y2="372.4" fill="none" stroke="#013d5b" stroke-miterlimit="17.1" stroke-width=".9"/>
      <path id="path30" d="M165.54,352.5h0c1.3.5,1.6,1.5,1.3,3.1-.3,1.1-1,2-1.8,2.8l.5-5.9Z" fill="#fff" stroke="#013d5b" stroke-miterlimit="17.1" stroke-width=".9"/>
      <path id="path31" d="M145.54,353.6h0c-1.1.7-1.3,1.8-1,3.3.5,1.1,1.1,2.1,2,2.8l-1-6h0v-.1Z" fill="#fff" stroke="#013d5b" stroke-miterlimit="17.1" stroke-width=".9"/>
      <path id="path32" d="M154.84,342.2c5.4-.5,10,3.4,10.4,8.8-.2,4.9-.7,9.6-1.5,14.4-.3,2-2,3.6-3.9,3.9l-6.7.2c-2.3.3-4.6-1.1-5.2-3.4-1.3-4.6-2.3-9.1-2.8-13.9.2-5.6,4.4-10,9.6-10h.1Z" fill="#fff" stroke="#013d5b" stroke-miterlimit="17.1" stroke-width=".9"/>
      <path id="path33" d="M156.54,353.8l.8,4.2c.2.3-.2.8-.7.8h-1.6" fill="#fff" stroke="#013d5b" stroke-miterlimit="17.1" stroke-width=".9"/>
      <path id="path34" d="M140.64,396.7c-.2-.8-.8-1.3-1.6-1.3-1.5,0-2,1.3-2,2.6s.5,2.4,2,2.4,1.6-.7,1.6-1.6h1.6c0,1.8-1.5,3.1-3.3,3.1h0c-2.1-.2-3.8-2-3.8-4.2.2-2,1.6-3.6,3.8-3.8,1.6-.2,3.1,1.1,3.3,2.8h-1.6Z" fill="#044973"/>
      <path id="path35" d="M143.14,397.8c0-1.5,1.3-1.8,2.6-1.8s2.4.2,2.4,1.5v2.8c0,.5,0,.8.2,1.3h-1.5c0-.2-.2-.3-.2-.5-.5.5-1.1.7-1.8.7-1,0-1.8-.5-1.8-1.6,0-2.4,3.8-1.1,3.6-2.4,0-.7-.5-.7-1-.7s-1,.2-1,.8h-1.6s0,0,0,0h.1v-.1ZM146.74,399c-.3.2-.8.3-1.3.3-.5.2-1,.2-1,.8s.5.7,1,.7,1.1-.3,1.1-1v-.2l.2-.7h0v.1Z" fill="#044973"/>
      <path id="path36" d="M149.34,396.2h1.5v1h0c.3-.7,1-1.1,1.8-1.1h.3v1.5h-.5c-1.1,0-1.5.8-1.5,1.8v2.4h-1.5l-.2-5.6h.1Z" fill="#044973"/>
      <path id="path37" d="M154.74,399.3c0,1,.5,1.5,1.3,1.5s1-.3,1.1-.7h1.3c-.3,1.1-1.3,2-2.6,1.8-1.5,0-2.8-1.1-2.8-2.6v-.3c-.2-1.5,1-2.8,2.6-2.9,1.5-.2,2.8,1,2.9,2.6v.8l-3.9-.2h.1ZM157.14,398.3c-.2-.8-.5-1.1-1.1-1.1s-1.1.5-1.3,1.1v.2h2.4v-.2h0Z" fill="#044973"/>
      <path id="path38" d="M112.94,406.8h1.6l2.8,7.5h-1.6l-.5-1.6h-2.8l-.7,1.6h-1.6l2.8-7.5ZM112.74,411.4h2l-1-2.8h0l-1,2.8Z" fill="#044973"/>
      <path id="path39" d="M121.74,413.7h0c-.3.5-1,.8-1.6.8-1.6,0-2.4-1.5-2.4-2.9-.2-1.5.8-2.6,2.3-2.8h.2c.7,0,1.3.3,1.6.8h0v-2.8h1.5v7.5h-1.5v-.7h-.1v.1ZM120.44,409.9c-1,0-1.3.8-1.3,1.8s.3,1.8,1.3,1.8,1.3-.8,1.3-1.8-.3-2-1.3-1.8Z" fill="#044973"/>
      <path id="path40" d="M124.34,408.9h1.5v.7h0c.3-.5,1-.8,1.6-.8s1.3.3,1.6,1c.3-.5,1-.8,1.6-1,1-.2,1.8.5,2,1.5v4.1h-1.5v-3.1c0-.7,0-1.3-1-1.3s-1,.7-1,1.3v3.1h-1.5v-3.1c0-.7,0-1.3-1-1.3s-1,.2-1,1.3v3.1h-1.5v-5.4h.2v-.1Z" fill="#044973"/>
      <path id="path41" d="M135.44,408h-1.5v-1.3h1.5v1.3ZM134.04,408.8h1.5v5.4h-1.5v-5.4Z" fill="#044973"/>
      <path id="path42" d="M136.64,408.9h1.5v.8h0c.3-.5,1-1,1.6-1,1.6,0,2,1,2,2.3v3.3h-1.5v-3.1c0-1-.3-1.3-1-1.3s-1.1.5-1.1,1.5v2.9h-1.5v-5.4h0Z" fill="#044973"/>
      <path id="path43" d="M144.44,408h-1.5v-1.3h1.5v1.3ZM142.94,408.8h1.5v5.4h-1.5v-5.4Z" fill="#044973"/>
      <path id="path44" d="M146.74,412.5c0,.7.5,1,1.1,1s1-.2,1-.7-.7-.7-1.6-.8c-.9-.1-1.8-.5-1.8-1.5,0-1.5,1.1-1.8,2.3-1.8s2.3.3,2.4,1.8h-1.5c0-.7-.5-.7-1-.7s-.8,0-.8.5.8.7,1.6.8c.8.1,1.6.5,1.6,1.5,0,1.5-1.3,2-2.4,2s-2.4-.5-2.6-2l1.6-.2h0v.1h.1Z" fill="#044973"/>
      <path id="path45" d="M153.24,408.9h1.1v1h-1.1v2.6c0,.5.2.7.7.7h.5v1.1h-.8c-1,0-1.8-.2-1.8-1.3v-3.3h-1v-1h1v-1.6h1.5v1.8h-.1Z" fill="#044973"/>
      <path id="path46" d="M155.04,408.9h1.5v1h0c.3-.7,1-1.1,1.8-1.1h.3v1.5h-.5c-1.1,0-1.5.8-1.5,1.8v2.4h-1.5l-.2-5.6h.1Z" fill="#044973"/>
      <path id="path47" d="M158.94,410.6c.2-1.5,1.3-1.8,2.6-1.8s2.4.2,2.4,1.5v2.8c0,.5,0,.8.2,1.1h-1.5c0-.2-.2-.3-.2-.5-.5.5-1.1.7-1.8.7-1,0-1.8-.5-1.8-1.6,0-2.4,3.8-1.1,3.6-2.3,0-.7-.5-.7-1-.7s-1,.2-1,.8h-1.6.1ZM162.44,411.7c-.3.2-.8.3-1.3.3-.5.2-.8.3-.8.8s.5.7,1,.7,1.1-.3,1.1-1v-.8Z" fill="#044973"/>
      <path id="path48" d="M166.94,408.9h1.1v1h-1.1v2.6c0,.5.2.7.7.7h.5v1.1h-.8c-1,0-1.8-.2-1.8-1.3v-3.3h-1v-1h1v-1.6h1.5v1.8h-.1Z" fill="#044973"/>
      <path id="path49" d="M170.44,408h-1.5v-1.3h1.5v1.3ZM168.94,408.8h1.5v5.4h-1.5v-5.4Z" fill="#044973"/>
      <path id="path50" d="M174.14,408.8c1.6,0,2.9,1.1,2.9,2.8s-1.1,2.9-2.8,2.9-2.9-1.1-2.9-2.8h0c-.2-1.5,1-2.8,2.4-2.9h.4ZM174.14,413.4c1,0,1.3-.8,1.3-1.8s-.3-1.8-1.3-1.8-1.3.8-1.3,1.8.3,1.8,1.3,1.8Z" fill="#044973"/>
      <path id="path51" d="M178.04,408.9h1.5v.8h0c.3-.5,1-1,1.6-1,1.6,0,2,1,2,2.3v3.3h-1.5v-3.1c0-1-.2-1.3-1-1.3s-1.1.5-1.1,1.5v2.9h-1.5v-5.4h0Z" fill="#044973"/>
    </g>
    <g id="PopulationHealthManagement">
      <g id="Population_Health" data-name="Population Health">
        <path id="path52" d="M181.34,198c-1.6,0-2.9,1.1-2.9,2.8.3,1.5.8,2.9,1.5,4.4h2.8c.8-1.3,1.3-2.8,1.6-4.4,0-1.5-1.5-2.8-2.9-2.8h-.1Z" fill="#fff" stroke="#013d5b" stroke-miterlimit="17.1" stroke-width=".9"/>
        <polygon id="polygon52" points="184.14 227.9 182.94 235.1 179.24 235.1 178.24 227.9 174.44 227.9 176.44 206.8 181.14 204.5 186.54 206.3 188.64 227.9 184.14 227.9" fill="#fff"/>
        <polygon id="polygon53" points="174.44 227.9 175.14 219.7 175.34 218.9 187.24 216.3 188.64 227.9 174.44 227.9" fill="#84bd00"/>
        <path id="path53" d="M176.44,206.8l2.6-1.3c1.3-.7,2.8-.7,4.1-.3l3.3,1.1,2.1,21.4h-4.6l-1.1,7.3h-3.8l-1-7.3h-3.8l2.1-20.9h.1Z" fill="none" stroke="#013d5b" stroke-miterlimit="17.1" stroke-width=".9"/>
        <line id="line53" x1="178.24" y1="227.9" x2="188.64" y2="227.9" fill="none" stroke="#013d5b" stroke-miterlimit="17.1" stroke-width=".9"/>
        <path id="path54" d="M162.54,198.5c-1.6,0-2.9,1.1-2.9,2.8.3,1.5.8,2.9,1.5,4.4h2.8c.8-1.3,1.3-2.8,1.6-4.4,0-1.6-1.3-2.9-2.9-2.8h-.1Z" fill="#fff" stroke="#013d5b" stroke-miterlimit="17.1" stroke-width=".9"/>
        <polygon id="polygon54" points="165.54 228.2 164.34 235.4 160.64 235.4 159.44 228.2 155.74 228.2 157.84 207.1 162.44 204.9 167.74 206.7 169.94 228.2 165.54 228.2" fill="#fff"/>
        <polygon id="polygon55" points="155.74 228.2 156.54 220 156.54 219.2 168.64 216.6 169.94 228.2 155.74 228.2" fill="#84bd00"/>
        <path id="path55" d="M157.84,207.1l2.6-1.3c1.3-.7,2.8-.7,4.1-.3l3.3,1.1,2.1,21.6h-4.6l-1.1,7.3h-3.8l-1-7.3h-3.8l2.1-21.1h.1Z" fill="none" stroke="#013d5b" stroke-miterlimit="17.1" stroke-width=".9"/>
        <line id="line55" x1="159.44" y1="228.2" x2="169.94" y2="228.2" fill="none" stroke="#013d5b" stroke-miterlimit="17.1" stroke-width=".9"/>
        <path id="path56" d="M172.84,197.2c1.6,0,2.9,1.1,2.9,2.8-.3,1.5-.8,2.9-1.5,4.4h-2.8c-.8-1.3-1.3-2.8-1.6-4.4.2-1.6,1.5-2.9,2.9-2.8h.1Z" fill="#fff" stroke="#013d5b" stroke-miterlimit="17.1" stroke-width=".9"/>
        <polygon id="polygon56" points="166.14 206.2 173.04 203.6 179.34 206.7 175.34 236 170.44 236 166.14 206.2" fill="#fff"/>
        <polygon id="polygon57" points="177.54 219.7 168.24 221.5 170.44 236 175.34 236 177.54 219.7" fill="#4795be"/>
        <path id="path57" d="M175.34,204.7l4.2,2.1-4.1,29.4h-4.9l-4.4-29.9,4.7-1.8c1.3-.7,2.9-.5,4.4.2h.1Z" fill="none" stroke="#013d5b" stroke-miterlimit="17.1" stroke-width=".9"/>
        <path id="path58" d="M185.94,204.2c1.6,0,2.9,1.1,2.9,2.8-.3,1.5-.8,2.9-1.5,4.4h-2.8c-.8-1.3-1.3-2.8-1.6-4.4.2-1.6,1.5-2.8,2.9-2.8h.1Z" fill="#fff" stroke="#013d5b" stroke-miterlimit="17.1" stroke-width=".9"/>
        <polygon id="polygon58" points="179.24 213.2 186.24 210.6 192.44 213.8 188.34 243.1 183.44 243.1 179.24 213.2" fill="#fff"/>
        <polygon id="polygon59" points="190.64 226.7 181.34 228.5 183.44 243.1 188.34 243.1 190.64 226.7" fill="#00a2c5"/>
        <path id="path59" d="M188.34,211.7l4.2,2.1-4.2,29.4h-4.9l-4.2-29.9,4.7-1.8c1.3-.7,2.9-.5,4.4.2h0Z" fill="none" stroke="#013d5b" stroke-miterlimit="17.1" stroke-width=".9"/>
        <path id="path60" d="M177.74,207.5c-1.6,0-2.9,1.1-2.9,2.8.3,1.5.8,2.9,1.5,4.2h2.8c.8-1.3,1.3-2.8,1.6-4.2,0-1.6-1.3-2.8-2.9-2.8h-.1Z" fill="#fff" stroke="#013d5b" stroke-miterlimit="17.1" stroke-width=".9"/>
        <polygon id="polygon60" points="185.94 237.4 180.64 237.4 179.34 244.5 175.64 244.5 174.64 237.2 169.94 237.2 173.34 226.6 172.54 216.6 177.54 213.4 182.94 216.9 182.14 224 185.94 237.4" fill="#fff"/>
        <polygon id="polygon61" points="173.34 226.6 182.14 224 185.94 237.4 169.94 237.2 173.34 226.6" fill="#84bd00"/>
        <path id="path61" d="M172.54,216.8c1-.7,2-1.3,2.9-1.8,1.3-.7,2.8-.8,4.2-.3,1.3.5,2.3,1.3,3.3,2.3l-1,7,3.8,13.2h-5.4l-1.1,7.3h-3.8l-1-7.3h-4.7l3.6-10.8-.8-9.6h0Z" fill="none" stroke="#013d5b" stroke-miterlimit="17.1" stroke-width=".9"/>
        <line id="line61" x1="174.64" y1="237.2" x2="185.14" y2="237.2" fill="none" stroke="#013d5b" stroke-miterlimit="17.1" stroke-width=".9"/>
        <path id="path62" d="M158.44,205.5c-1.6,0-2.9,1.1-2.9,2.8.3,1.5.8,2.9,1.5,4.2h2.8c.8-1.3,1.3-2.8,1.6-4.2,0-1.6-1.3-2.8-2.9-2.8h-.1Z" fill="#fff" stroke="#013d5b" stroke-miterlimit="17.1" stroke-width=".9"/>
        <polygon id="polygon62" points="166.64 235.4 161.24 235.4 160.14 242.6 156.34 242.6 155.34 235.2 150.64 235.2 154.04 224.6 153.24 214.7 158.44 211.2 163.04 214.3 162.74 222 166.64 235.4" fill="#fff"/>
        <polygon id="polygon63" points="154.04 224.6 162.74 222 166.64 235.4 150.64 235.2 154.04 224.6" fill="#f57f29"/>
        <path id="path63" d="M153.24,214.8c1-.7,2-1.3,2.9-1.8,1.3-.7,2.8-.8,4.2-.3,1.3.5,2.3,1.3,3.3,2.3l-1,7,3.8,13.2h-5.4l-1.1,7.3h-3.8l-1-7.3h-4.6l3.4-10.9-.8-9.5h.1Z" fill="none" stroke="#013d5b" stroke-miterlimit="17.1" stroke-width=".9"/>
        <line id="line63" x1="155.34" y1="235.2" x2="165.84" y2="235.2" fill="none" stroke="#013d5b" stroke-miterlimit="17.1" stroke-width=".9"/>
        <path id="path64" d="M168.44,205.5c1.6,0,2.9,1.1,2.9,2.8-.3,1.5-.8,2.9-1.5,4.4h-2.8c-.8-1.3-1.3-2.8-1.6-4.4,0-1.6,1.5-2.8,2.9-2.8h.1Z" fill="#fff" stroke="#013d5b" stroke-miterlimit="17.1" stroke-width=".9"/>
        <polygon id="polygon64" points="161.54 214.7 168.64 211.9 174.94 215.1 170.84 244.5 166.04 244.5 161.54 214.7" fill="#fff"/>
        <polygon id="polygon65" points="173.14 228 163.84 229.8 166.04 244.5 170.84 244.5 173.14 228" fill="#00a2c5"/>
        <path id="path65" d="M170.84,213l4.2,2.1-4.2,29.4h-4.9l-4.2-29.9,4.7-1.8c1.3-.5,2.9-.5,4.4.2Z" fill="none" stroke="#013d5b" stroke-miterlimit="17.1" stroke-width=".9"/>
      </g>
      <path id="path66" d="M127.44,251.4h3.4c1.3,0,2.4,1.1,2.4,2.4s-1.1,2.4-2.4,2.4h-1.8v2.8h-1.6v-7.7h0v.1ZM129.14,254.8h1.3c.8,0,1.5-.2,1.5-1.1s-.7-1.1-1.5-1.1h-1.3v2.3h0s0,0,0,0h0v-.1Z" fill="#044973"/>
      <path id="path67" d="M137.14,253.4c1.6,0,2.9,1.3,2.9,2.8s-1.3,2.9-2.8,2.9-2.9-1.3-2.9-2.8h0c-.2-1.5,1-2.8,2.4-2.9,0-.2.2-.2.3,0h.1ZM137.14,257.9c1,0,1.3-.8,1.3-1.8s-.3-1.8-1.3-1.8-1.3.8-1.3,1.8.2,1.8,1.3,1.8Z" fill="#044973"/>
      <path id="path68" d="M140.84,253.4h1.5v.7h0c.3-.5,1-.8,1.6-.8,1.8,0,2.4,1.3,2.4,2.9.2,1.3-.8,2.6-2.1,2.8h-.2c-.7,0-1.3-.3-1.6-.8h0v2.6h-1.6v-7.4h0ZM144.94,256.1c0-.8-.3-1.8-1.3-1.8s-1.3.8-1.3,1.8.3,1.8,1.3,1.8,1.1-.8,1.3-1.8Z" fill="#044973"/>
      <path id="path69" d="M152.44,258.9h-1.5v-.8h0c-.3.5-1,1-1.6,1-1.6,0-2-1-2-2.3v-3.3h1.5v3.1c0,1,.3,1.3,1,1.3s1.1-.5,1.1-1.6v-2.9h1.5v5.6h0v-.1Z" fill="#044973"/>
      <path id="path70" d="M153.54,251.4h1.5v7.5h-1.5v-7.5Z" fill="#044973"/>
      <path id="path71" d="M156.24,255.1c.2-1.3,1.3-1.8,2.6-1.8s2.4.3,2.4,1.6v2.8c0,.5,0,.8.2,1.1h-1.5c0-.2-.2-.3-.2-.5-.5.5-1.1.7-1.8.7-1,0-1.8-.5-1.8-1.6,0-2.4,3.6-1.1,3.6-2.3s-.5-.7-1-.7-1,.2-1,.8l-1.6-.2h.1v.1ZM159.64,256.3c-.3.2-.8.3-1.3.3-.5.2-.8.3-.8.8s.5.7,1,.7,1.1-.3,1.3-1v-.8h-.2Z" fill="#044973"/>
      <path id="path72" d="M164.24,253.4h1.1v1h-1.1v2.8c0,.5.2.7.7.7h.5v1.1h-.8c-1,0-1.6-.2-1.6-1.3v-3.3h-1v-1h1v-1.6h1.5l-.2,1.6h-.1Z" fill="#044973"/>
      <path id="path73" d="M167.44,252.5h-1.5v-1.3h1.5v1.3ZM166.04,253.4h1.5v5.4h-1.5v-5.4Z" fill="#044973"/>
      <path id="path74" d="M171.34,253.4c1.6,0,2.9,1.3,2.9,2.8s-1.3,2.9-2.8,2.9-2.9-1.3-2.9-2.8h0c-.2-1.5,1-2.8,2.4-2.9,0-.2.2-.2.3,0h.1ZM171.34,257.9c1,0,1.3-.8,1.3-1.8s-.3-1.8-1.3-1.8-1.3.8-1.3,1.8.3,1.8,1.3,1.8Z" fill="#044973"/>
      <path id="path75" d="M175.14,253.4h1.5v.8h0c.3-.5,1-1,1.6-1,1.6,0,2,1,2,2.3v3.4h-1.5v-3.1c0-.8-.3-1.3-1-1.3s-1.1.5-1.1,1.6v2.9h-1.5v-5.7h0v.1Z" fill="#044973"/>
      <path id="path76" d="M184.44,251.4h1.6v2.9h3.1v-2.9h1.6v7.5h-1.6v-3.3h-3.1v3.3h-1.6v-7.5Z" fill="#044973"/>
      <path id="path77" d="M193.44,256.5c0,1,.5,1.3,1.3,1.3s1-.3,1.1-.7h1.3c-.3,1.1-1.3,2-2.6,1.8-1.5,0-2.8-1.1-2.8-2.6v-.3c-.2-1.5,1-2.8,2.6-2.9,1.5-.2,2.8,1,2.9,2.6v.8h-3.9.1ZM195.84,255.6c-.2-.8-.5-1.1-1.1-1.1s-1.1.5-1.3,1.1h2.4Z" fill="#044973"/>
      <path id="path78" d="M198.14,255.1c.2-1.3,1.3-1.8,2.6-1.8s2.4.3,2.4,1.6v2.8c0,.5,0,.8.2,1.1h-1.5c0-.2-.2-.3-.2-.5-.5.5-1.1.7-1.8.7-1,0-1.8-.5-1.8-1.6,0-2.4,3.6-1.1,3.6-2.3s-.5-.7-1-.7-1,.2-1,.8l-1.6-.2h.1v.1ZM201.54,256.3c-.3.2-.8.3-1.3.3-.5.2-.8.3-.8.8s.5.7,1,.7,1.1-.3,1.3-1v-.8h-.2Z" fill="#044973"/>
      <path id="path79" d="M204.34,251.4h1.5v7.5h-1.5v-7.5Z" fill="#044973"/>
      <path id="path80" d="M208.94,253.4h1.1v1h-1.1v2.8c0,.5.2.7.7.7h.5v1.1h-.8c-1,0-1.8-.2-1.8-1.3v-3.3h-1v-1h1v-1.6h1.5v1.6h-.1Z" fill="#044973"/>
      <path id="path81" d="M210.74,251.4h1.5v2.8h0c.3-.5,1-1,1.6-1,1.6,0,2,1,2,2.3v3.4h-1.5v-3.1c0-.8-.2-1.3-1-1.3s-1.1.5-1.1,1.6v2.9h-1.5v-7.7h0v.1Z" fill="#044973"/>
      <path id="path82" d="M139.34,264h2.3l1.8,5.2h0l1.6-5.2h2.3v7.5h-1.6v-5.4h0l-1.8,5.4h-1.3l-1.8-5.2h0v5.2h-1.6l.2-7.5h-.1Z" fill="#044973"/>
      <path id="path83" d="M148.64,267.7c0-1.3,1.3-1.8,2.6-1.8s2.4.2,2.4,1.5v2.8c0,.5,0,.8.2,1.1h-1.6c0-.2-.2-.3-.2-.5-.5.5-1.1.7-1.8.7-1,0-1.8-.5-1.8-1.6,0-2.4,3.8-1.1,3.6-2.3,0-.7-.5-.7-1-.7s-1,.2-1,.8h-1.5.1ZM152.14,268.9c-.3.2-.8.3-1.3.3-.5.2-.8.3-.8.8s.5.7,1,.7,1.1-.3,1.1-1v-.8Z" fill="#044973"/>
      <path id="path84" d="M154.74,266.1h1.5v.8h0c.3-.5,1-1,1.6-1,1.6,0,2,.8,2,2.3v3.4h-1.5v-3.1c0-1-.3-1.3-1-1.3s-1.1.5-1.1,1.6v2.9h-1.5v-5.7h0v.1Z" fill="#044973"/>
      <path id="path85" d="M160.94,267.7c0-1.3,1.3-1.8,2.6-1.8s2.4.2,2.4,1.5v2.8c0,.5,0,.8.2,1.1h-1.5c0-.2-.2-.3-.2-.5-.5.5-1.1.7-1.8.7-1,0-1.8-.5-1.8-1.6,0-2.4,3.8-1.1,3.6-2.3,0-.7-.5-.7-1-.7s-1,.2-1,.8h-1.6.1ZM164.34,268.9c-.3.2-.8.3-1.3.3-.5.2-1,.3-1,.8s.5.7,1,.7,1.1-.3,1.1-1v-.3l.2-.5Z" fill="#044973"/>
      <path id="path86" d="M172.34,271.1c0,1-.3,2.4-2.8,2.4s-2.3-.5-2.4-1.8h1.5c.2.5.7.8,1.1.7.8,0,1.1-.5,1.1-1.3v-.7h0c-.3.5-1,.8-1.6.8-1.6,0-2.3-1.3-2.3-2.8-.2-1.3.8-2.6,2.1-2.6h.2c.7,0,1.3.3,1.6.8h0v-.7h1.5v5.2h0ZM170.84,268.7c0-.8-.3-1.6-1.3-1.6s-1.3.7-1.3,1.5.3,1.6,1.3,1.6,1.3-.5,1.3-1.5c0,.2,0,0,0,0Z" fill="#044973"/>
      <path id="path87" d="M174.84,269.2c0,1,.5,1.3,1.3,1.3s1-.2,1.1-.7h1.3c-.3,1.1-1.3,2-2.6,1.8-1.5,0-2.8-1-2.8-2.4v-.3c-.2-1.5,1-2.8,2.6-2.9,1.5-.2,2.8,1,2.9,2.6v.8h-3.9v-.2h.1ZM177.14,268.2c-.2-.8-.5-1.1-1.1-1.1s-1.1.5-1.3,1.1h2.4Z" fill="#044973"/>
      <path id="path88" d="M179.54,266.1h1.5v.7h0c.3-.5,1-.8,1.6-.8s1.3.3,1.6,1c.3-.5,1-.8,1.6-1,1-.2,1.8.5,2,1.5v4.1h-1.5v-3.1c0-.7,0-1.3-1-1.3s-1,.7-1,1.3v3.1h-1.5v-3.1c0-.7,0-1.3-1-1.3s-1,.2-1,1.3v3.1h-1.5v-5.4h.2v-.1Z" fill="#044973"/>
      <path id="path89" d="M190.34,269.2c0,1,.5,1.3,1.3,1.3s1-.3,1.1-.7h1.3c-.3,1.1-1.3,2-2.6,1.8-1.5,0-2.8-1-2.8-2.4v-.3c-.2-1.5,1-2.8,2.6-2.9,1.5-.2,2.8,1,2.9,2.6v.8h-3.9v-.2h.1ZM192.74,268.2c-.2-.8-.5-1.1-1.1-1.1s-1.1.5-1.3,1.1h2.4Z" fill="#044973"/>
      <path id="path90" d="M195.24,266.1h1.5v.8h0c.3-.5,1-1,1.6-1,1.6,0,2,.8,2,2.3v3.4h-1.5v-3.1c0-1-.3-1.3-1-1.3s-1.1.5-1.1,1.6v2.9h-1.5v-5.7h0v.1Z" fill="#044973"/>
      <path id="path91" d="M203.34,266.1h1.1v1h-1.1v2.8c0,.5.2.7.7.7h.5v1.1h-.8c-1,0-1.8-.2-1.8-1.3v-3.3h-1v-1h1v-1.6h1.5v1.6h-.1Z" fill="#044973"/>
    </g>
    <g id="WorkForceManagement">
      <circle id="circle91" cx="435.18" cy="220.75" r="21.1" fill="#fff"/>
      <path id="path92" d="M425.94,209.4c-1.8,0-3.4,1.5-3.4,3.3.3,1.8,1,3.4,1.8,5.1h3.3c1-1.6,1.6-3.3,1.8-5.1,0-1.8-1.5-3.3-3.3-3.3h-.2,0Z" fill="#fff" stroke="#013d5b" stroke-miterlimit="17.1" stroke-width=".9"/>
      <path id="path93" d="M419.84,220s4.1-2.6,6-2.6,6.2,2.9,6.2,2.9l-1.5,10.9-9.8.3-1-11.6h.1v.1Z" fill="#fff"/>
      <polygon id="polygon93" points="420.84 229 431.14 226.1 430.44 231.5 420.84 231.5 420.84 229" fill="#81c241"/>
      <path id="path94" d="M419.84,220.4c1.1-.8,2.3-1.5,3.4-2.1,1.5-.7,3.3-.8,4.9-.3,1.5.7,2.8,1.5,3.8,2.6l-1.5,10.9h-9.8l-.8-11.1Z" fill="none" stroke="#013d5b" stroke-miterlimit="17.1" stroke-width=".9"/>
      <path id="path95" d="M444.84,210.2c-1.8,0-3.4,1.5-3.4,3.3.3,1.8,1,3.4,1.8,5.1h3.3c1-1.6,1.6-3.3,1.8-5.1,0-1.8-1.5-3.3-3.3-3.3h-.2,0Z" fill="#fff" stroke="#013d5b" stroke-miterlimit="17.1" stroke-width=".9"/>
      <path id="path96" d="M438.84,220.9s4.1-2.6,6-2.6,6.2,2.9,6.2,2.9l-1.5,10.9-9.8.3-1-11.6h.1v.1Z" fill="#fff"/>
      <polygon id="polygon96" points="439.74 229.8 450.04 226.9 449.44 232.3 439.74 232.3 439.74 229.8" fill="#f47f28"/>
      <path id="path97" d="M438.84,221.2c1.1-.8,2.3-1.5,3.4-2.1,1.5-.7,3.3-.8,4.9-.3,1.5.7,2.8,1.5,3.8,2.6l-1.5,10.9h-9.8l-.8-11.1h0Z" fill="none" stroke="#013d5b" stroke-miterlimit="17.1" stroke-width=".9"/>
      <path id="path98" d="M435.54,209.9c1.8,0,3.4,1.5,3.4,3.3-.3,1.8-1,3.4-1.8,5.1h-3.3c-1-1.6-1.6-3.3-2-5.1,0-1.8,1.5-3.3,3.3-3.3h.4Z" fill="#fff" stroke="#013d5b" stroke-miterlimit="17.1" stroke-width=".9"/>
      <path id="path99" d="M435.54,218.1c2.3,0,7.7,3.1,7.7,3.1l-1.8,12.7h-11.9l-2-13.4s5.7-2.4,8-2.4h0Z" fill="#fff"/>
      <polygon id="polygon99" points="442.04 228.5 428.84 231.1 429.54 233.9 441.44 233.9 442.04 228.5" fill="#00a2c5"/>
      <path id="path100" d="M438.34,218.7l4.9,2.4-1.8,12.7h-11.9l-2-13.4,5.6-2.1c1.6-.5,3.6-.5,5.2.3h0v.1Z" fill="none" stroke="#013d5b" stroke-miterlimit="17.1" stroke-width=".9"/>
      <g id="Learning_Services" data-name="Learning Services">
        <circle id="circle101" cx="450.24" cy="236.7" r="6.9" fill="#84bd00" stroke="#013d5b" stroke-miterlimit="17.1" stroke-width=".9"/>
        <polygon id="polygon101" points="453.34 233.4 455.14 235.4 448.64 241.1 445.14 237.8 446.94 236 448.74 237.7 453.34 233.4" fill="#fff" stroke="#013d5b" stroke-miterlimit="17.1" stroke-width=".9"/>
      </g>
      <path id="path101" d="M435.54,197.4c-13.2,0-24,10.8-24,24s10.8,24,24,24,24-10.8,24-24h0c-.2-13.4-10.8-24-24-24ZM435.54,242.2c-11.6,0-21.1-9.5-21.1-21.1s9.5-21.1,21.1-21.1,21.1,9.5,21.1,21.1h0c-.2,11.6-9.5,21.1-21.1,21.1h0Z" fill="#00a2c5" stroke="#013d5b" stroke-miterlimit="17.1" stroke-width=".9"/>
      <path id="path102" d="M416.44,259.6h-1.6l-1.3-5.1h0l-1.3,5.1h-1.6l-2-7.5h1.6l1.1,5.1h0l1.3-5.1h1.6l1.3,5.2h0l1.1-5.2h1.6l-2,7.5h.2,0Z" fill="#044973"/>
      <path id="path103" d="M421.64,254c1.6,0,2.9,1.1,2.9,2.8s-1.1,2.9-2.8,2.9-2.9-1.1-2.9-2.8h0c-.2-1.5,1-2.8,2.4-2.9h.4ZM421.64,258.6c1,0,1.3-.8,1.3-1.8s-.3-1.8-1.3-1.8-1.3.8-1.3,1.8.3,1.8,1.3,1.8Z" fill="#044973"/>
      <path id="path104" d="M425.54,254.2h1.5v1h0c.3-.7,1-1.1,1.8-1.1h.3v1.3h-.5c-1.1,0-1.5.8-1.5,1.8v2.4h-1.5l-.2-5.4h.1Z" fill="#044973"/>
      <path id="path105" d="M429.84,252h1.5v4.1l2-2h1.8l-2.1,2,2.3,3.4h-1.8l-1.5-2.4-.7.5v1.8h-1.5v-7.4h0Z" fill="#044973"/>
      <path id="path106" d="M436.04,255.1h-.8v-1h.8v-.5c0-1,.7-1.6,1.6-1.6h1v1.1h-.5c-.3,0-.5.2-.5.7v.3h1v1h-1v4.4h-1.5v-4.4h-.2.1Z" fill="#044973"/>
      <path id="path107" d="M441.74,254c1.6,0,2.9,1.1,2.9,2.8s-1.1,2.9-2.8,2.9-2.9-1.1-2.9-2.8h0c-.2-1.5,1-2.8,2.4-2.9h.4,0ZM441.74,258.6c1,0,1.3-.8,1.3-1.8s-.3-1.8-1.3-1.8-1.3.8-1.3,1.8.3,1.8,1.3,1.8Z" fill="#044973"/>
      <path id="path108" d="M445.64,254.2h1.5v1h0c.3-.7,1-1.1,1.8-1.1h.3v1.3h-.5c-1.1,0-1.5.8-1.5,1.8v2.4h-1.5l-.2-5.4h.1Z" fill="#044973"/>
      <path id="path109" d="M453.54,256c0-.5-.5-1-1-1h0c-1,0-1.3,1-1.3,1.8s.3,1.8,1.3,1.8,1.1-.5,1.1-1.1h1.5c-.2,1.3-1.3,2.3-2.6,2.3h0c-1.5,0-2.6-1-2.8-2.4v-.3c-.2-1.5,1-2.8,2.4-2.9h.3c1.3-.2,2.4.8,2.6,2h-1.6v-.2h.1Z" fill="#044973"/>
      <path id="path110" d="M456.94,257.3c0,1,.5,1.3,1.3,1.3s1-.3,1.1-.7h1.3c-.3,1.1-1.3,2-2.6,1.8-1.5,0-2.8-1-2.8-2.4v-.3c-.2-1.5,1-2.8,2.6-2.9,1.5-.2,2.8,1,2.9,2.6v.8h-3.9v-.2h.1ZM459.34,256.3c-.2-.8-.5-1.1-1.1-1.1s-1.1.5-1.3,1.1v.2h2.4v-.2h0Z" fill="#044973"/>
      <path id="path111" d="M402.54,264.8h2.3l1.8,5.2h0l1.6-5.2h2.3v7.5h-1.6v-5.4h0l-1.8,5.4h-1.3l-1.8-5.2h0v5.2h-1.6l.2-7.5h-.1Z" fill="#044973"/>
      <path id="path112" d="M412.04,268.5c0-1.5,1.3-1.8,2.6-1.8s2.4.3,2.4,1.6v2.8c0,.5,0,.8.2,1.1h-1.5c0-.2-.2-.3-.2-.5-.5.5-1.1.7-1.8.7-1,0-1.8-.5-1.8-1.6,0-2.4,3.8-1.1,3.6-2.3,0-.7-.5-.8-1-.8s-1,.3-1,.7v.2h-1.6.1v-.1ZM415.44,269.5c-.3.2-.8.3-1.3.3s-.8.3-.8.8.5.7,1,.7,1.1-.3,1.1-1v-.8h0Z" fill="#044973"/>
      <path id="path113" d="M418.04,266.7h1.5v.8h0c.3-.5,1-1,1.6-1,1.6,0,2,1,2,2.3v3.4h-1.5v-3.1c0-1-.3-1.3-1-1.3s-1.1.5-1.1,1.6v2.9h-1.5v-5.7h0v.1Z" fill="#044973"/>
      <path id="path114" d="M424.24,268.5c.2-1.5,1.3-1.8,2.6-1.8s2.4.3,2.4,1.6v2.8c0,.5,0,.8.2,1.1h-1.5c0-.2-.2-.3-.2-.5-.5.5-1.1.7-1.8.7-1,0-1.8-.5-1.8-1.6,0-2.4,3.8-1.1,3.6-2.3,0-.7-.5-.8-1-.8s-1,.3-1,.8h-1.6.1,0ZM427.74,269.5c-.3.2-.8.3-1.3.3s-.8.3-.8.8.5.7,1,.7,1.1-.3,1.1-1v-.8h0Z" fill="#044973"/>
      <path id="path115" d="M435.54,272c0,1-.3,2.4-2.8,2.4s-2.3-.5-2.4-1.8h1.5c.2.5.7.8,1.1.8.8,0,1.3-.5,1.1-1.3v-.7h0c-.3.5-1,.8-1.6.8-1.6,0-2.3-1.3-2.3-2.8-.2-1.3.8-2.6,2.1-2.6h.2c.7,0,1.3.3,1.6.8h0v-1h1.5v5.4h0ZM434.24,269.5c0-.8-.3-1.6-1.3-1.6s-1.1.7-1.1,1.6.3,1.6,1.1,1.6,1.3-.7,1.3-1.3v-.3h0Z" fill="#044973"/>
      <path id="path116" d="M438.04,269.8c0,1,.5,1.3,1.3,1.3s1-.3,1.1-.7h1.3c-.3,1.1-1.3,2-2.6,1.8-1.5,0-2.8-1.1-2.8-2.6v-.3c-.2-1.5,1-2.8,2.6-2.9,1.5-.2,2.8,1,2.9,2.6v.8h-3.9.1ZM440.44,268.9c-.2-.8-.5-1.1-1.1-1.1s-1.1.5-1.3,1.1v.2h2.4v-.2Z" fill="#044973"/>
      <path id="path117" d="M442.84,266.7h1.5v.7h0c.3-.5,1-.8,1.6-.8s1.3.3,1.6,1c.3-.5,1-1,1.6-1,1-.2,1.8.5,2,1.5v4.1h-1.5v-3.1c0-.7,0-1.3-1-1.3s-1,.7-1,1.3v3.1h-1.5v-2.9c0-.7,0-1.3-1-1.3s-1,.2-1,1.3v3.1h-1.5v-5.6h.2v-.1h0Z" fill="#044973"/>
      <path id="path118" d="M453.64,269.8c0,1,.5,1.3,1.3,1.3s1-.3,1.1-.7h1.5c-.3,1.1-1.3,2-2.6,1.8-1.5,0-2.8-1.1-2.8-2.6v-.3c-.2-1.5,1-2.8,2.6-2.9,1.5-.2,2.8,1,2.9,2.6v.8h-4.1.1ZM456.14,268.9c-.2-.8-.5-1.1-1.1-1.1s-1.1.5-1.3,1.1v.2h2.4v-.2h0Z" fill="#044973"/>
      <path id="path119" d="M458.54,266.7h1.5v.8h0c.3-.5,1-1,1.6-1,1.6,0,2,1,2,2.3v3.4h-1.5v-3.1c0-1-.2-1.3-1-1.3s-1.1.5-1.1,1.6v2.9h-1.5v-5.7h0v.1Z" fill="#044973"/>
      <path id="path120" d="M466.54,266.7h1.1v1h-1.1v2.8c0,.5.2.7.7.7h.5v1.1h-.8c-1,0-1.6-.2-1.6-1.3v-3.3h-1v-1h1v-1.6h1.5l-.2,1.6h-.1Z" fill="#044973"/>
    </g>
    <g id="CareGuidanceSolutions">
      <circle id="circle120" cx="458.84" cy="359.3" r="24.3" fill="#00a2c5" stroke="#044872" stroke-miterlimit="17.1" stroke-width=".9"/>
      <circle id="circle121" cx="458.62" cy="358.91" r="20.1" transform="translate(-72 598.9) rotate(-62.38)" fill="#fff" stroke="#044872" stroke-miterlimit="17.1" stroke-width=".9"/>
      <line id="line121" x1="475.34" y1="359.3" x2="469.34" y2="359.3" fill="none" stroke="#044872" stroke-miterlimit="17.1" stroke-width=".9"/>
      <line id="line122" x1="448.44" y1="359.3" x2="442.44" y2="359.3" fill="none" stroke="#044872" stroke-miterlimit="17.1" stroke-width=".9"/>
      <line id="line123" x1="458.84" y1="375.8" x2="458.84" y2="369.8" fill="none" stroke="#044872" stroke-miterlimit="17.1" stroke-width=".9"/>
      <line id="line124" x1="458.84" y1="348.7" x2="458.84" y2="342.8" fill="none" stroke="#044872" stroke-miterlimit="17.1" stroke-width=".9"/>
      <polygon id="polygon124" points="451.84 346.7 462.14 357.5 455.74 361.1 451.84 346.7" fill="#e87722"/>
      <polygon id="polygon125" points="451.84 346.7 462.14 357.5 466.04 371.7 455.74 361.1 451.84 346.7" fill="none" stroke="#044872" stroke-miterlimit="17.1" stroke-width=".9"/>
      <circle id="circle125" cx="458.84" cy="359.3" r="1.3" fill="#fff" stroke="#044872" stroke-miterlimit="17.1" stroke-width=".9"/>
      <path id="path125" d="M425.74,397.5c-.2-.8-.8-1.3-1.6-1.3-1.5,0-2,1.3-2,2.6s.5,2.4,2,2.4,1.6-.7,1.6-1.5v-.2h1.6c0,1.8-1.5,3.1-3.3,3.1h0c-2.1-.2-3.8-2-3.8-4.2.2-2,1.6-3.6,3.8-3.8,1.6-.2,3.1,1.1,3.3,2.8h-1.6v.1Z" fill="#044973"/>
      <path id="path126" d="M428.34,398.7c0-1.5,1.3-1.8,2.6-1.8s2.4.2,2.4,1.6v2.8c0,.5,0,.8.2,1.3h-1.5c0-.2-.2-.3-.2-.5-.5.5-1.1.7-1.8.7-1,0-1.8-.5-1.8-1.6,0-2.4,3.6-1.1,3.6-2.4s-.5-.7-1-.7-1,.2-1,.8l-1.6-.2h.1,0ZM431.74,399.8c-.2.2-.8.2-1.3.3-.5.2-.8.2-.8.8s.5.7,1,.7,1.1-.3,1.1-1v-.8h0Z" fill="#044973"/>
      <path id="path127" d="M434.44,397h1.5v1h0c.3-.7,1-1.1,1.8-1.1h.3v1.5h-.5c-1.1,0-1.5.8-1.5,1.8v2.4h-1.5l-.2-5.6h.1Z" fill="#044973"/>
      <path id="path128" d="M439.74,400.1c0,1,.5,1.5,1.3,1.5s1-.3,1.1-.7h1.3c-.3,1.1-1.3,2-2.6,1.8-1.5,0-2.8-1.1-2.8-2.6v-.3c-.2-1.5,1-2.8,2.6-2.9,1.5-.2,2.8,1,2.9,2.6v.8l-3.9-.2h.1ZM442.24,399.1c-.2-.8-.5-1.1-1.1-1.1s-1.1.5-1.3,1.1h2.4,0Z" fill="#044973"/>
      <path id="path129" d="M450.24,401.6c-.5.7-1.3,1-2.1,1-2.1-.2-3.8-2-3.8-4.2.2-2,1.6-3.6,3.8-3.8,1.6-.2,2.9,1.1,3.1,2.6h-1.6c-.2-.8-.8-1.3-1.6-1.3-1.5,0-2,1.3-2,2.6s.5,2.4,2,2.4c.8.2,1.6-.5,1.8-1.5v-.2h-1.6v-1.3h3.1v4.1h-1v-.5h0l-.1.1Z" fill="#044973"/>
      <path id="path130" d="M457.74,402.6h-1.5v-.8h0c-.3.5-1,1-1.6,1-1.6,0-2-1-2-2.3v-3.4h1.5v3.1c0,1,.2,1.3,1,1.3s1.1-.5,1.1-1.6v-2.9h1.5v5.7h0v-.1Z" fill="#044973"/>
      <path id="path131" d="M460.34,396.2h-1.5v-1.3h1.5v1.3ZM458.84,397h1.5v5.4h-1.5v-5.4Z" fill="#044973"/>
      <path id="path132" d="M465.44,401.8h0c-.3.5-1,.8-1.6.8-1.6,0-2.4-1.5-2.4-2.9-.2-1.3.8-2.6,2.1-2.8h.2c.7,0,1.3.3,1.6.8h0v-2.8h1.5v7.5h-1.5l.2-.7h0l-.1.1ZM464.14,398c-1,0-1.3.8-1.3,1.8s.3,1.8,1.3,1.8,1.3-.8,1.3-1.8-.3-1.8-1.3-1.8Z" fill="#044973"/>
      <path id="path133" d="M468.04,398.7c0-1.5,1.3-1.8,2.6-1.8s2.4.2,2.4,1.6v2.8c0,.5,0,.8.2,1.3h-1.5c0-.2-.2-.3-.2-.5-.5.5-1.1.7-1.8.7-1,0-1.8-.5-1.8-1.6,0-2.4,3.8-1.1,3.6-2.4,0-.7-.5-.7-1-.7s-1,.2-1,.8l-1.6-.2h.1ZM471.44,399.8c-.2.2-.8.2-1.3.3-.5.2-.8.2-.8.8s.5.7,1,.7,1.1-.3,1.1-1v-.8Z" fill="#044973"/>
      <path id="path134" d="M474.04,397h1.5v.8h0c.3-.5,1-1,1.6-1,1.6,0,2,1,2,2.3v3.4h-1.5v-3.1c0-1-.3-1.3-1-1.3s-1.1.5-1.1,1.6v2.9h-1.5v-5.7h0v.1Z" fill="#044973"/>
      <path id="path135" d="M484.04,399c0-.5-.5-1-1.1-1h0c-1,0-1.3,1-1.3,1.8s.3,1.8,1.3,1.8,1.1-.5,1.1-1.1h1.5c-.2,1.3-1.3,2.3-2.6,2.3s-2.8-1.1-2.8-2.4v-.3c-.2-1.5,1-2.8,2.4-2.9h.3c1.3-.2,2.4.8,2.6,2.1h0l-1.5-.2h0l.1-.1Z" fill="#044973"/>
      <path id="path136" d="M487.64,400.1c0,1,.5,1.5,1.3,1.5s1-.3,1.1-.7h1.3c-.3,1.1-1.3,2-2.6,1.8-1.5,0-2.8-1.1-2.8-2.6v-.3c0-1.5,1.1-2.8,2.6-2.9,1.5,0,2.8,1.1,2.9,2.6v.7h-3.9.1v-.1ZM490.04,399.1c-.2-.8-.5-1.1-1.1-1.1s-1.1.5-1.3,1.1h2.4,0Z" fill="#044973"/>
      <path id="path137" d="M494.34,395.1h-.7v2.1h-.7v-2.1h-.7v-.5h2.1v.5h-.2.2ZM497.54,397.2h-.7v-1.8h0l-.7,1.8h-.5l-.7-1.8h0v1.8h-.7v-2.6h.8l.7,1.6.7-1.6h.8l.2,2.6h.1Z" fill="#044973"/>
      <path id="path138" d="M437.34,412.7c0,1,.8,1.5,1.6,1.5s1.5-.2,1.5-1-1.1-1-2.3-1.3c-1.1-.3-2.3-.7-2.3-2.1.2-1.3,1.3-2.4,2.8-2.3h0c1.6,0,3.1.7,3.1,2.4h-1.6c0-.8-.7-1.1-1.5-1.1s-1.1.2-1.1.8.3.7,2.3,1.1c.5.2,2.3.5,2.3,2.1s-1.1,2.4-3.1,2.4-3.3-.8-3.3-2.6h1.6v.1Z" fill="#044973"/>
      <path id="path139" d="M445.54,409.6c1.6,0,2.9,1.1,2.9,2.8s-1.1,2.9-2.8,2.9-2.9-1.1-2.9-2.8h0c-.2-1.5,1-2.8,2.4-2.9h.4,0ZM445.54,414.2c1,0,1.3-.8,1.3-1.8s-.3-1.8-1.3-1.8-1.3.8-1.3,1.8.3,1.8,1.3,1.8Z" fill="#044973"/>
      <path id="path140" d="M449.44,407.6h1.5v7.5h-1.5v-7.5Z" fill="#044973"/>
      <path id="path141" d="M457.24,415.1h-1.5v-.8h0c-.3.5-1,1-1.6,1-1.6,0-2-1-2-2.3v-3.4h1.5v3.1c0,.8.3,1.3,1,1.3s1.1-.5,1.1-1.6v-2.9h1.5v5.7h0v-.1Z" fill="#044973"/>
      <path id="path142" d="M460.24,409.8h1.1v1h-1.1v2.8c0,.5.2.7.7.7h.5v1.1h-.8c-1,0-1.8-.2-1.8-1.3v-3.3h-.8v-1h.8v-1.6h1.5v1.6h-.1Z" fill="#044973"/>
      <path id="path143" d="M463.64,408.9h-1.5v-1.3h1.5v1.3ZM462.14,409.8h1.5v5.4h-1.5v-5.4Z" fill="#044973"/>
      <path id="path144" d="M467.34,409.6c1.6,0,2.9,1.1,2.9,2.8s-1.1,2.9-2.8,2.9-2.9-1.1-2.9-2.8h0c-.2-1.5,1-2.8,2.4-2.9h.4,0ZM467.34,414.2c1,0,1.3-.8,1.3-1.8s-.3-1.8-1.3-1.8-1.3.8-1.3,1.8.3,1.8,1.3,1.8Z" fill="#044973"/>
      <path id="path145" d="M471.14,409.8h1.5v.7h0c.3-.5,1-1,1.6-1,1.6,0,2,1,2,2.3v3.3h-1.5v-2.9c0-.8-.2-1.3-1-1.3s-1.1.5-1.1,1.6v2.9h-1.5v-5.6Z" fill="#044973"/>
      <path id="path146" d="M478.64,413.4c0,.7.7,1,1.1,1s1-.2,1-.7-.7-.7-1.6-.8c-.9-.1-1.8-.5-1.8-1.5,0-1.5,1.1-1.8,2.4-1.8s2.3.3,2.4,1.8h-1.5c0-.7-.5-.8-1-.8s-.8,0-.8.5.8.7,1.6.8c.8.1,1.8.5,1.8,1.5,0,1.5-1.3,2-2.4,2s-2.4-.5-2.6-2h1.4,0Z" fill="#044973"/>
    </g>
    <g id="DataSolutions">
      <path id="path147" d="M362.24,505.8h3.3c1.8-.2,3.3,1.3,3.4,3.1v.7c.3,1.8-.8,3.4-2.6,3.8h-4.1v-7.6h0ZM363.84,512h1.5c1,0,1.8-.7,1.8-2.3s-.5-2.4-2.1-2.4h-1.1v4.7h-.1,0Z" fill="#044973"/>
      <path id="path148" d="M369.74,509.5c.2-1.5,1.3-1.8,2.6-1.8s2.4.2,2.4,1.6v2.8c0,.5,0,.8.2,1.1h-1.5c0-.2-.2-.3-.2-.5-.5.5-1.1.7-1.8.7-1,0-1.8-.5-1.8-1.6,0-2.4,3.8-1.1,3.6-2.4,0-.7-.5-.8-1-.8s-1,.2-1,.8l-1.6.2h.1v-.1ZM373.14,510.7c-.2.2-.8.2-1.3.3s-.8.2-.8.8.5.7,1,.7,1.1-.3,1.1-1v-.8h0Z" fill="#044973"/>
      <path id="path149" d="M377.74,507.9h1.1v1h-1.1v2.6c0,.5.2.7.7.7h.5v1.1h-.8c-1,0-1.6-.2-1.6-1.3v-3.3h-1v-1h1v-1.6h1.5l-.2,1.8h-.1Z" fill="#044973"/>
      <path id="path150" d="M379.54,509.5c.2-1.5,1.3-1.8,2.6-1.8s2.4.2,2.4,1.6v2.8c0,.5,0,.8.2,1.1h-1.5c0-.2-.2-.3-.2-.5-.5.5-1.1.7-1.8.7-1,0-1.8-.5-1.8-1.6,0-2.4,3.8-1.1,3.6-2.4,0-.7-.5-.8-1-.8s-1,.2-1,.8l-1.6.2h.1v-.1ZM382.94,510.7c-.2.2-.8.2-1.3.3s-.8.2-.8.8.5.7,1,.7,1.1-.3,1.1-1v-.8h0Z" fill="#044973"/>
      <path id="path151" d="M351.64,523.4c0,1,.8,1.5,1.6,1.5s1.5-.2,1.5-1-1.1-1-2.3-1.3c-1.1-.3-2.3-.8-2.3-2.1s1.5-2.3,2.8-2.3,2.9.7,2.9,2.4h-1.6c0-.8-.7-1.1-1.5-1.1s-1.1.2-1.1.8.3.7,2.3,1.1c.5.2,2.3.5,2.3,2.1s-1.1,2.4-3.1,2.4-3.3-.8-3.3-2.6h1.8v.1Z" fill="#044973"/>
      <path id="path152" d="M359.74,520.3c1.6,0,2.9,1.1,2.9,2.8s-1.1,2.9-2.8,2.9-2.9-1.1-2.9-2.8h0c-.2-1.5,1-2.8,2.4-2.9h.4ZM359.74,525c1,0,1.3-.8,1.3-1.8s-.3-1.8-1.3-1.8-1.3.8-1.3,1.8.3,1.8,1.3,1.8Z" fill="#044973"/>
      <path id="path153" d="M363.74,518.5h1.5v7.5h-1.5v-7.5Z" fill="#044973"/>
      <path id="path154" d="M371.34,526h-1.5v-.8h0c-.3.5-1,1-1.6,1-1.6,0-2-.8-2-2.3v-3.3h1.5v3.1c0,.8.3,1.3,1,1.3s1.1-.5,1.1-1.6v-2.9h1.5v5.6h0v-.1Z" fill="#044973"/>
      <path id="path155" d="M374.44,520.5h1.1v1h-1.1v2.8c0,.5.2.7.7.7h.5v1.1h-.8c-1,0-1.8-.2-1.8-1.3v-3.3h-1v-1h1v-1.6h1.5v1.6h-.1Z" fill="#044973"/>
      <path id="path156" d="M377.74,519.6h-1.5v-1.3h1.5v1.3ZM376.24,520.5h1.5v5.4h-1.5v-5.4Z" fill="#044973"/>
      <path id="path157" d="M381.64,520.3c1.6,0,2.9,1.1,2.9,2.8s-1.1,2.9-2.8,2.9-2.9-1.1-2.9-2.8h0c-.2-1.5,1-2.8,2.4-2.9h.4ZM381.64,525c1,0,1.3-.8,1.3-1.8s-.3-1.8-1.3-1.8-1.3.8-1.3,1.8.3,1.8,1.3,1.8Z" fill="#044973"/>
      <path id="path158" d="M385.44,520.5h1.5v.8h0c.3-.5,1-1,1.6-1,1.6,0,2,.8,2,2.3v3.4h-1.5v-3.1c0-.8-.2-1.3-1-1.3s-1.1.5-1.1,1.6v2.9h-1.5v-5.7h0v.1Z" fill="#044973"/>
      <path id="path159" d="M392.94,524.2c0,.7.7,1,1.1,1s1-.2,1-.7-.7-.7-1.6-.8-1.6-.5-1.6-1.5c0-1.5,1.1-1.8,2.4-1.8s2.3.3,2.4,1.8h-1.5c0-.7-.5-.8-1-.8s-.8,0-.8.5.8.7,1.6.8c.8,0,1.8.5,1.8,1.5,0,1.5-1.3,2-2.4,2s-2.4-.5-2.6-2h1.2Z" fill="#044973"/>
      <path id="path160" d="M371.24,456.3c-10.4,0-19.1,3.1-19.1,7v24.8c0,3.9,8.5,7,19.1,7s19.1-3.1,19.1-7v-24.8c0-3.9-8.5-7-19.1-7Z" fill="#fff" stroke="#013d5b" stroke-miterlimit="17.1"/>
      <path id="path161" d="M390.34,488.8s-1.8,5.1-13.2,5.7l5.4-25.5c3.3-.3,6-2,8-4.6v24.3h-.2v.1Z" isolation="isolate" opacity=".1"/>
      <path id="path162" d="M352.14,463.3v24.8c0,3.9,8.5,7,19.1,7s19.1-3.1,19.1-7v-24.8" fill="none" stroke="#013d5b" stroke-miterlimit="17.1"/>
      <path id="path163" d="M390.34,480.1c0,3.9-8.5,7-19.1,7s-19.1-3.1-19.1-7" fill="none" stroke="#013d5b" stroke-miterlimit="17.1"/>
      <path id="path164" d="M390.34,472.1c0,3.9-8.5,7-19.1,7s-19.1-3.1-19.1-7" fill="none" stroke="#013d5b" stroke-miterlimit="17.1"/>
      <ellipse id="ellipse164" cx="371.24" cy="463.3" rx="19.1" ry="7" fill="none" stroke="#013d5b" stroke-miterlimit="17.1"/>
      <line id="line164" x1="390.34" y1="495.3" x2="390.34" y2="454.8" fill="none" stroke="#013d5b" stroke-miterlimit="17.1"/>
      <polygon id="polygon164" points="393.74 456 390.14 450.1 386.54 456 393.74 456" fill="#00a2c5" stroke="#013d5b" stroke-miterlimit="17.1"/>
      <polyline id="polyline164" points="382.64 469.5 382.64 479.1 390.34 486.3" fill="none" stroke="#013d5b" stroke-miterlimit="17.1"/>
      <polyline id="polyline165" points="397.14 465.6 397.14 472.5 390.34 479" fill="none" stroke="#013d5b" stroke-miterlimit="17.1"/>
      <circle id="circle165" cx="382.64" cy="468.5" r="3.3" fill="#f57f29" stroke="#013d5b" stroke-miterlimit="17.1"/>
      <circle id="circle166" cx="390.34" cy="492.5" r="4.1" fill="#00a2c5" stroke="#013d5b" stroke-miterlimit="17.1"/>
      <rect id="rect166" x="393.94" y="460.5" width="6" height="6" fill="#84bd00" stroke="#013d5b" stroke-miterlimit="17.1"/>
    </g>
    <g id="PlexusServices">
      <circle id="circle167" cx="230.14" cy="474.2" r="21.6" fill="#fff" stroke="#044872" stroke-miterlimit="17.1" stroke-width=".9"/>
      <path id="path166" d="M214.44,489.1c3.6,3.9,13.6.3,22.2-7.8,8.6-8.1,12.7-18,9-21.7" fill="none" stroke="#044872" stroke-miterlimit="17.1" stroke-width="1.1"/>
      <path id="path167" d="M245.04,489.9c3.9-3.6.3-13.6-7.8-22.2-8.1-8.6-18-12.7-21.9-9" fill="none" stroke="#044872" stroke-miterlimit="17.1" stroke-width=".9"/>
      <path id="path168" d="M215.34,458.6c-3.9,3.6-.3,13.6,7.8,22.2,8.2,8.7,18,12.7,21.7,9" fill="none" stroke="#044872" stroke-miterlimit="17.1" stroke-width=".9"/>
      <path id="path169" d="M245.64,459.4c-3.6-3.9-13.6-.3-22.2,7.8-8.7,8.2-12.7,18-9,21.7" fill="none" stroke="#044872" stroke-miterlimit="17.1" stroke-width=".9"/>
      <circle id="circle169" cx="215.64" cy="458.6" r="4.2" fill="#84bd00" stroke="#044872" stroke-miterlimit="17.1" stroke-width=".9"/>
      <circle id="circle170" cx="242.54" cy="474.2" r="4.2" fill="#00a2c5" stroke="#044872" stroke-miterlimit="17.1" stroke-width=".9"/>
      <circle id="circle171" cx="222.84" cy="480.3" r="4.2" fill="#e87722" stroke="#044872" stroke-miterlimit="17.1" stroke-width=".9"/>
      <path id="path171" d="M211.04,505.1h3.4c1.3,0,2.4,1.1,2.4,2.4s-1.1,2.4-2.4,2.4h-1.8v2.6h-1.6v-7.5h0v.1ZM212.64,508.7h1.3c.8,0,1.5-.2,1.5-1.1s-.7-1.1-1.5-1.1h-1.3v2.3h0v-.1Z" fill="#044973"/>
      <path id="path172" d="M218.04,505.1h1.5v7.5h-1.5v-7.5Z" fill="#044973"/>
      <path id="path173" d="M221.84,510.3c0,1,.5,1.3,1.3,1.3s1-.3,1.1-.7h1.3c-.3,1.1-1.3,2-2.6,1.8-1.5,0-2.8-1-2.8-2.4v-.3c-.2-1.5,1-2.8,2.6-2.9,1.6-.2,2.8,1,2.9,2.6v.8h-3.9v-.2h.1ZM224.24,509.4c-.2-.8-.5-1.1-1.1-1.1s-1.1.5-1.3,1.1h2.4Z" fill="#044973"/>
      <path id="path174" d="M228.24,509.8l-1.8-2.6h1.6l1,1.5,1-1.5h1.6l-1.8,2.6,2,2.9h-1.6l-1.1-1.6-1.1,1.6h-1.6l2-2.9h-.2Z" fill="#044973"/>
      <path id="path175" d="M237.54,512.6h-1.5v-.8h0c-.3.5-1,.8-1.6.8-1.6,0-2-.8-2-2.3v-3.4h1.5v3.1c0,.8.3,1.3,1,1.3s1.1-.5,1.1-1.6v-2.8h1.5v5.7Z" fill="#044973"/>
      <path id="path176" d="M239.74,510.8c0,.7.7,1,1.1,1s1-.2,1-.7-.7-.7-1.6-.8-1.8-.5-1.8-1.5c0-1.5,1.1-1.8,2.4-1.8s2.3.3,2.4,1.8h-1.5c0-.7-.5-.8-1-.8s-.8,0-.8.5.8.7,1.6.8c.8,0,1.8.5,1.8,1.5,0,1.5-1.3,2-2.4,2s-2.4-.5-2.6-2h1.4Z" fill="#044973"/>
      <path id="path177" d="M246.14,505.3h-.7v2h-.7v-2h-.7v-.5h2.1v.5h-.2.2ZM249.44,507.2h-.7v-1.8h0l-.7,1.8h-.5l-.7-1.8h0v1.8h-.7v-2.4h.8l.7,1.6.7-1.6h.8l.2,2.4h.1Z" fill="#044973"/>
      <path id="path178" d="M210.54,522.9c0,1,.8,1.5,1.6,1.5s1.5-.2,1.5-1-1.1-1-2.3-1.3c-1.1-.3-2.3-.8-2.3-2.1s1.5-2.3,2.8-2.3,3.1.7,3.1,2.4h-1.6c0-.8-.7-1.1-1.5-1.1s-1.1.2-1.1.8.3.7,2.3,1.1c.5.2,2.3.5,2.3,2.3s-1,2.4-3.1,2.4-3.3-.8-3.3-2.6h1.6v-.2h0v.1Z" fill="#044973"/>
      <path id="path179" d="M217.24,522.9c0,1,.5,1.5,1.3,1.5s1-.3,1.1-.7h1.3c-.3,1.1-1.3,2-2.6,1.8-1.5,0-2.8-1.1-2.8-2.6v-.3c-.2-1.5,1-2.8,2.6-2.9,1.6-.2,2.8,1,2.9,2.6v.8h-3.9v-.2h.1ZM219.74,522.1c-.2-.8-.5-1.1-1.1-1.1s-1.1.5-1.3,1.1v.2h2.4v-.2Z" fill="#044973"/>
      <path id="path180" d="M222.14,519.8h1.5v1h0c.3-.7,1-1.1,1.8-1.1h.3v1.5h-.5c-1.1,0-1.5.8-1.5,1.8v2.4h-1.5l-.2-5.6h.1Z" fill="#044973"/>
      <path id="path181" d="M229.14,525.4h-1.6l-1.8-5.6h1.6l1.1,3.8h0l1.1-3.8h1.5l-2,5.6h.1,0Z" fill="#044973"/>
      <path id="path182" d="M233.24,519h-1.5v-1.3h1.5v1.3ZM231.74,519.8h1.5v5.4h-1.5v-5.4Z" fill="#044973"/>
      <path id="path183" d="M238.14,521.8c0-.5-.5-1-1-1h0c-1,0-1.3,1-1.3,1.8s.3,1.8,1.3,1.8,1.1-.5,1.1-1h1.5c-.2,1.3-1.3,2.3-2.6,2.3s-2.6-1-2.8-2.4v-.3c-.2-1.5,1-2.8,2.4-2.9h.3c1.3-.2,2.4.8,2.6,2h-1.6v-.2h.1v-.1Z" fill="#044973"/>
      <path id="path184" d="M241.74,522.9c0,1,.5,1.5,1.3,1.5s1-.3,1.1-.7h1.3c-.3,1.1-1.3,2-2.6,1.8-1.5,0-2.8-1.1-2.8-2.6v-.3c-.2-1.5,1-2.8,2.6-2.9,1.6-.2,2.8,1,2.9,2.6v.8h-3.9v-.2h.1ZM244.24,522.1c-.2-.8-.5-1.1-1.1-1.1s-1.1.5-1.3,1.1h2.4Z" fill="#044973"/>
      <path id="path185" d="M247.64,523.6c0,.7.5,1,1.1,1s1-.2,1-.7-.7-.7-1.6-.8-1.8-.5-1.8-1.5c0-1.5,1.1-1.8,2.3-1.8s2.3.3,2.4,1.8h-1.5c0-.7-.5-.8-1-.8s-.8,0-.8.5.8.7,1.6.8c.8,0,1.8.5,1.8,1.5,0,1.5-1.3,2-2.4,2s-2.4-.5-2.6-2h1.5Z" fill="#044973"/>
    </g>
    <g id="CareRecord">
      <rect id="rect185" x="276.04" y="147.4" width="50.9" height="36.1" fill="#fff" stroke="#044872" stroke-miterlimit="17.1" stroke-width=".9"/>
      <rect id="rect186" x="279.94" y="151.3" width="43.1" height="24.3" fill="#00a2c5" stroke="#044872" stroke-miterlimit="17.1" stroke-width=".9"/>
      <rect id="rect187" x="294.04" y="183.5" width="14.9" height="4.9" fill="#fff" stroke="#044872" stroke-miterlimit="17.1" stroke-width=".9"/>
      <polygon id="polygon187" points="309.04 188.2 306.74 188.2 294.04 183.5 309.04 183.5 309.04 188.2" isolation="isolate" opacity=".1"/>
      <rect id="rect188" x="288.44" y="188.2" width="26.1" height="2.4" fill="#fff" stroke="#044872" stroke-miterlimit="17.1" stroke-width=".9"/>
      <rect id="rect189" x="284.34" y="155.1" width="34.3" height="16.7" fill="#fff" stroke="#044872" stroke-miterlimit="17.1" stroke-width=".9"/>
      <polygon id="polygon189" points="290.84 161.8 287.74 161.8 287.74 165.2 290.84 165.2 290.84 168.1 294.14 168.1 294.14 165.2 297.24 165.2 297.24 161.8 294.14 161.8 294.14 158.8 290.84 158.8 290.84 161.8" fill="#e87722"/>
      <polygon id="polygon190" points="290.84 161.8 287.74 161.8 287.74 165.2 290.84 165.2 290.84 168.1 294.14 168.1 294.14 165.2 297.24 165.2 297.24 161.8 294.14 161.8 294.14 158.8 290.84 158.8 290.84 161.8" fill="none" stroke="#023d5b" stroke-miterlimit="17.1" stroke-width=".9"/>
      <line id="line190" x1="300.64" y1="160" x2="313.14" y2="160" fill="none" stroke="#044872" stroke-miterlimit="17.1" stroke-width=".9"/>
      <line id="line191" x1="300.64" y1="163.4" x2="313.14" y2="163.4" fill="none" stroke="#044872" stroke-miterlimit="17.1" stroke-width=".9"/>
      <line id="line192" x1="300.64" y1="166.8" x2="309.04" y2="166.8" fill="none" stroke="#044872" stroke-miterlimit="17.1" stroke-width=".9"/>
      <path id="path192" d="M273.74,200.6c-.2-.8-.8-1.3-1.6-1.3-1.5,0-2,1.3-2,2.6s.5,2.4,2,2.4,1.6-.7,1.6-1.6h1.6c-.2,1.8-1.5,3.1-3.3,3.1-2.1-.2-3.8-2-3.8-4.2.2-2,1.6-3.6,3.8-3.8,1.6-.2,3.1,1.1,3.3,2.8h-1.6Z" fill="#044973"/>
      <path id="path193" d="M276.34,201.8c.2-1.5,1.3-1.8,2.6-1.8s2.4.3,2.4,1.6v2.8c0,.5,0,.8.2,1.3h-1.5c0-.2-.2-.3-.2-.5-.5.5-1.1.7-1.8.7-1,0-1.8-.5-1.8-1.6,0-2.4,3.8-1.1,3.6-2.4,0-.7-.5-.7-1-.7s-1,.2-1,.8l-1.6-.2h.1,0ZM279.74,202.9c-.3.2-.8.3-1.3.3s-.8.3-.8.8.5.7,1,.7,1.1-.3,1.1-1v-.8h0Z" fill="#044973"/>
      <path id="path194" d="M282.54,200.1h1.5v1h0c.3-.7,1-1.1,1.8-1.1h.3v1.5h-.5c-1.1,0-1.5.8-1.5,1.8v2.4h-1.5l-.2-5.6h.1Z" fill="#044973"/>
      <path id="path195" d="M287.74,203.2c0,1,.5,1.3,1.3,1.3s1-.3,1.1-.7h1.3c-.3,1.1-1.3,2-2.6,1.8-1.5,0-2.8-1.1-2.8-2.6v-.3c0-1.5,1.1-2.8,2.6-2.9,1.5,0,2.8,1.1,2.9,2.6v.7l-3.9.2h.1v-.1ZM290.24,202.2c-.2-.8-.5-1.1-1.1-1.1s-1.1.5-1.3,1.1h2.4Z" fill="#044973"/>
      <path id="path196" d="M292.84,198.2h4.1c1.1,0,2.1.8,2.1,2v.2c0,.8-.5,1.6-1.1,2h0c.8.2,1,1,1.1,1.8,0,.7,0,1.1.3,1.8h-1.6c-.2-.7-.2-1.1-.3-1.8-.2-.8-.5-1.1-1.3-1.1h-1.6v2.9h-1.6v-7.7h-.1v-.1ZM294.44,201.6h1.8c.7,0,1.1-.3,1.1-1.1s-.3-1-1.1-1h-1.8v2.1Z" fill="#044973"/>
      <path id="path197" d="M301.54,203.2c0,1,.5,1.3,1.3,1.3s1-.3,1.1-.7h1.3c-.3,1.1-1.3,2-2.6,1.8-1.5,0-2.8-1.1-2.8-2.6v-.3c-.2-1.5,1-2.8,2.6-2.9,1.5-.2,2.8,1,2.9,2.6v.8h-3.9.1ZM303.94,202.2c-.2-.8-.5-1.1-1.1-1.1s-1.1.5-1.3,1.1h2.4Z" fill="#044973"/>
      <path id="path198" d="M310.04,202.1c0-.5-.5-1-1-1h0c-1,0-1.3,1-1.3,1.8s.3,1.8,1.3,1.8,1.1-.5,1.1-1.1h1.5c-.2,1.3-1.3,2.3-2.6,2.3s-2.8-1.1-2.8-2.4v-.3c-.2-1.5,1-2.8,2.4-2.9h.3c1.3-.2,2.4.8,2.6,2.1h-1.6v-.2s.1,0,.1-.1h0Z" fill="#044973"/>
      <path id="path199" d="M315.04,200c1.6,0,2.9,1.1,2.9,2.8s-1.1,2.9-2.8,2.9-2.9-1.1-2.9-2.8v-.2c-.2-1.5,1-2.8,2.4-2.9.1,0,.2.2.3.2h.1ZM315.04,204.7c1,0,1.3-.8,1.3-1.8s-.3-1.8-1.3-1.8-1.3.8-1.3,1.8.3,1.8,1.3,1.8Z" fill="#044973"/>
      <path id="path200" d="M318.84,200.1h1.5v1h0c.3-.7,1-1.1,1.8-1.1h.3v1.5h-.5c-1.1,0-1.5.8-1.5,1.8v2.4h-1.6v-5.6h0Z" fill="#044973"/>
      <path id="path201" d="M326.84,204.9h0c-.3.5-1,.8-1.6.8-1.5,0-2.6-1.3-2.4-2.8v-.2c-.2-1.5.8-2.6,2.3-2.8h.2c.7,0,1.3.3,1.6.8h0v-2.6h1.5v7.5h-1.5v-.8h-.1v.1ZM325.54,201.1c-1,0-1.3.8-1.3,1.8s.3,1.8,1.3,1.8,1.3-.8,1.3-1.8-.3-1.8-1.3-1.8Z" fill="#044973"/>
      <path id="path202" d="M331.24,198.2h-.7v2h-.7v-2h-.7v-.5h2.1v.5h-.2.2ZM334.44,200.1h-.7v-1.8h0l-.7,1.8h-.5l-.7-1.8h0v1.8h-.7v-2.4h.8l.7,1.6.7-1.6h.8l.2,2.4h.1Z" fill="#044973"/>
    </g>
    <g id="CareWheel">
      <path id="path724" d="M195.14,130.9l1.1,2.2-1.1-2.2h0ZM196.44,133.1h-.1v.2c-66.1,33.7-110.2,91-124.1,161.2l5.9,1.3v-.2l8.4,1.7v.3l3.3.7.8.2c12.8-64.8,53-117.5,114.3-148.6l-4.4-8.6-4.1-8.1v-.1Z" fill="#f0f1f1"/>
      <path id="path723" d="M471.34,478.4c-42.5,53.4-101.7,82-167.3,81.6v3.5h.4v8.5h-.4v7c71.4.2,136-31,182.1-88.8h0s.1-.2.2-.2l-4.4-3.4h.1c0,.1-.3.5-.3.5l-6.7-5.3.3-.3-3.9-3.1h-.1Z" fill="#f0f1f1"/>
      <path id="path722" d="M402.64,129.7l-2.4,5h.1l-3.6,7.8h-.2l-2,4.1c62.7,29.2,104.9,80.9,119.6,145.8l12.3-2.6,1-.2h0l5.1-1.3c-16.1-70.4-62.3-127-130-158.6h.1Z" fill="#f0f1f1"/>
      <path id="path721" d="M68.74,294c-15.4,70.8,2,142,49.8,199.9l.2-.2v-.2c-.1,0,0-.1,0-.1l.2.2.3-.2v-.1h0c-47.3-57.4-64.7-128.4-49.5-198.7l-.8-.2v-.1h0v-.2h0l-.2-.1Z" fill="#e77722"/>
      <path id="path720" d="M119.24,493.4l-.3.2.2.2h-.2c0,.1-.2,0-.2,0l-.2.2c45.2,56.7,110,89.1,185.3,88.4v-1c-74.7.7-139.5-31.8-184.7-88h.1Z" fill="#0092b1"/>
      <path id="path719" d="M536.04,287.7h0v.3l-.8.2c15.7,73.8-1.9,145-47.1,203l.8.7c45.5-58.7,62.9-129.7,47.1-204.2h0ZM486.14,490l-.2.2h0l.2-.2h0Z" fill="#753bbc"/>
      <path id="path718" d="M300.04,103.4c-35.5.6-71.1,9.4-105.2,26.8l1.5,2.9h.1l-1.2-2.3c33.8-17.2,69.3-26.1,104.8-26.6,35.3-.6,70.5,7.1,103.6,23.1l.3-.7c-33.3-16-68.5-23.7-104-23.1h0l.1-.1ZM195.74,129.8h0c0,.1-.4.4-.4.4h0c0-.1.4-.4.4-.4Z" fill="#0076a7"/>
      <path id="path717" d="M195.74,129.8l-.4.2h0c0,.1.4,0,.4,0h0v-.2ZM207.34,152.7l-.4.2,3.8,7.6.4-.2-3.8-7.6ZM214.94,167.9l-.4.2,3.8,7.6.4-.2-3.8-7.6ZM222.64,183l-.4.2,3.8,7.6.4-.2-3.8-7.6ZM230.34,198.2l-.4.2,3.8,7.6.4-.2-3.8-7.6ZM237.94,213.4l-.4.2,3.8,7.6.4-.2-3.8-7.6ZM245.64,228.6l-.4.2,3.8,7.6.4-.2-3.8-7.6ZM253.24,243.7l-.4.2,3.8,7.6.4-.2-3.8-7.6ZM260.94,258.9l-.4.2,3.8,7.6.4-.2-3.8-7.6ZM268.64,274.1l-.4.2,3.8,7.6.4-.2-3.8-7.6ZM276.24,289.3l-.4.2,3.8,7.6.4-.2-3.8-7.6ZM283.94,304.4l-.4.2,3.8,7.6.4-.2-3.8-7.6ZM291.54,319.6l-.4.2,3.8,7.6.4-.2-3.8-7.6ZM299.24,334.8l-.4.2,3.6,7.1h.3l.1-.2-3.6-7.1Z" fill="#a6a7aa"/>
      <path id="path716" d="M400.24,134.7l-3.7,7.7h.2c0,.1,3.6-7.6,3.6-7.6h-.1v-.1ZM392.74,149.9l-3.6,7.7.5.2,3.6-7.7-.5-.2ZM385.54,165.3l-3.6,7.7.5.2,3.6-7.7-.5-.2ZM378.34,180.7l-3.6,7.7.5.2,3.6-7.7-.5-.2ZM371.14,196.1l-3.6,7.7.5.2,3.6-7.7-.5-.2ZM363.94,211.5l-3.6,7.7.5.2,3.6-7.7-.5-.2ZM356.64,226.9l-3.6,7.7.5.2,3.6-7.7-.5-.2ZM349.44,242.3l-3.6,7.7.5.2,3.6-7.7-.5-.2ZM342.24,257.7l-3.6,7.7.5.2,3.6-7.7-.5-.2ZM335.04,273.1l-3.6,7.7.5.2,3.6-7.7-.5-.2ZM327.84,288.5l-3.6,7.7.5.2,3.6-7.7-.5-.2ZM320.64,303.9l-3.6,7.7.5.2,3.6-7.7-.5-.2ZM313.44,319.3l-3.6,7.7.5.2,3.6-7.7-.5-.2ZM306.24,334.7l-3.5,7.5h.2v.3h.2l3.6-7.6-.5-.2h0Z" fill="#a6a7aa"/>
      <path id="path715" d="M535.94,287.7l-3.2.7,2.4-.5v.3l.8-.2v-.3ZM532.64,288.5v-.2l-5.1,1.2h0l5.2-1h-.1ZM514.24,292.6l-3.5.8v.5c.1,0,3.6-.8,3.6-.8,0-.2,0-.3-.1-.5ZM502.44,295.4l-8.4,2v.5c.1,0,8.5-2,8.5-2v-.5h-.1ZM485.64,299.3l-8.4,2v.5c.1,0,8.5-2,8.5-2v-.5h-.1ZM468.94,303.3l-8.4,2v.5c.1,0,8.5-2,8.5-2v-.5h-.1ZM452.14,307.2l-8.4,2v.5c.1,0,8.5-2,8.5-2v-.5h-.1ZM435.44,311.1l-8.4,2v.5c.1,0,8.5-2,8.5-2v-.5h-.1ZM418.64,315.1l-8.4,2v.5c.1,0,8.5-2,8.5-2v-.5h-.1ZM401.94,319l-8.4,2v.5c.1,0,8.5-2,8.5-2v-.5h-.1ZM385.14,322.9l-8.4,2v.5c.1,0,8.5-2,8.5-2v-.5h-.1ZM368.44,326.9l-8.4,2v.5c.1,0,8.5-2,8.5-2v-.5h-.1ZM351.64,330.8l-8.4,2v.5c.1,0,8.5-2,8.5-2v-.5h-.1ZM334.94,334.7l-8.4,2v.5c.1,0,8.5-2,8.5-2v-.5h-.1ZM318.24,338.6l-8.4,2v.5c.1,0,8.5-2,8.5-2v-.5h-.1Z" fill="#a6a7aa"/>
      <path id="path714" d="M302.24,342.6l-6.2,5.1.3.4,6.2-5.1v-.3h-.3v-.1ZM289.54,353.1l-6.6,5.4.3.4,6.6-5.4-.3-.4ZM276.44,363.9l-6.6,5.4.3.4,6.6-5.4-.3-.4ZM263.24,374.7l-6.6,5.4.3.4,6.6-5.4-.3-.4ZM250.14,385.5l-6.6,5.4.3.4,6.6-5.4-.3-.4ZM237.04,396.3l-6.6,5.4.3.4,6.6-5.4-.3-.4ZM223.94,407.1l-6.6,5.4.3.4,6.6-5.4-.3-.4ZM210.74,417.9l-6.6,5.4.3.4,6.6-5.4-.3-.4ZM197.64,428.7l-6.6,5.4.3.4,6.6-5.4-.3-.4ZM184.54,439.5l-6.6,5.4.3.4,6.6-5.4-.3-.4ZM171.34,450.3l-6.6,5.4.3.4,6.6-5.4-.3-.4ZM158.24,461.1l-6.6,5.4.3.4,6.6-5.4-.3-.4ZM145.14,471.9l-6.6,5.4.3.4,6.6-5.4-.3-.4ZM132.04,482.7l-4.6,3.8,4.7-3.7h0l-.1-.1ZM118.84,493.5h-.2c0,.1.3.5.3.5h.2c0-.1-.3-.5-.3-.5Z" fill="#a6a7aa"/>
      <path id="path713" d="M68.94,293.8v.5c-.1,0,0,0,0,0v-.5h0ZM78.14,295.7v.2l8.3,1.8v-.3l-8.3-1.7ZM94.84,299.1v.5c-.1,0,8.2,1.7,8.2,1.7v-.5c.1,0-8.2-1.7-8.2-1.7ZM111.44,302.6v.5c-.1,0,8.2,1.7,8.2,1.7v-.5c.1,0-8.2-1.7-8.2-1.7ZM128.14,306v.5c-.1,0,8.2,1.7,8.2,1.7v-.5c.1,0-8.2-1.7-8.2-1.7ZM144.74,309.5v.5c-.1,0,8.2,1.7,8.2,1.7v-.5c.1,0-8.2-1.7-8.2-1.7ZM161.44,312.9v.5c-.1,0,8.2,1.7,8.2,1.7v-.5c.1,0-8.2-1.7-8.2-1.7ZM178.04,316.4v.5c-.1,0,8.2,1.7,8.2,1.7v-.5c.1,0-8.2-1.7-8.2-1.7h0ZM194.74,319.8v.5c-.1,0,8.2,1.7,8.2,1.7v-.5c.1,0-8.2-1.7-8.2-1.7ZM211.34,323.3v.5c-.1,0,8.2,1.7,8.2,1.7v-.5c.1,0-8.2-1.7-8.2-1.7ZM227.94,326.7v.5c-.1,0,8.2,1.7,8.2,1.7v-.5c.1,0-8.2-1.7-8.2-1.7ZM244.64,330.2v.5c-.1,0,8.2,1.7,8.2,1.7v-.5c.1,0-8.2-1.7-8.2-1.7ZM261.24,333.6v.5c-.1,0,8.2,1.7,8.2,1.7v-.5c.1,0-8.2-1.7-8.2-1.7ZM277.94,337.1v.5c-.1,0,8.2,1.7,8.2,1.7v-.5c.1,0-8.2-1.7-8.2-1.7ZM294.54,340.5v.5c-.1,0,8,1.7,8,1.7v-.2h.2v-.2l-8.3-1.7.1-.1Z" fill="#a6a7aa"/>
      <path id="path712" d="M302.34,343.8l-.3.4.6.5v-.6l-.3-.2v-.1ZM303.14,344.4v.6l5.5,4.4.3-.4-5.8-4.7v.1ZM315.64,354.4l-.3.4,6.7,5.3.3-.4-6.7-5.3ZM328.94,365l-.3.4,6.7,5.3.3-.4-6.7-5.3ZM342.24,375.5l-.3.4,6.7,5.3.3-.4-6.7-5.3ZM355.54,386.1l-.3.4,6.7,5.3.3-.4-6.7-5.3ZM368.84,396.7l-.3.4,6.7,5.3.3-.4-6.7-5.3ZM382.14,407.3l-.3.4,6.7,5.3.3-.4-6.7-5.3ZM395.44,417.9l-.3.4,6.7,5.3.3-.4-6.7-5.3ZM408.74,428.5l-.3.4,6.7,5.3.3-.4-6.7-5.3ZM422.04,439l-.3.4,6.7,5.3.3-.4-6.7-5.3ZM435.34,449.6l-.3.4,6.7,5.3.3-.4-6.7-5.3ZM448.64,460.2l-.3.4,6.7,5.3.3-.4-6.7-5.3ZM461.94,470.8l-.3.4,6.7,5.3.3-.4-6.7-5.3ZM475.24,481.4l-.3.3,6.7,5.3.3-.4h-.1c0-.1-6.6-5.2-6.6-5.2h0ZM488.84,492.1c-.1.1-.2.3-.3.4h0l.3-.3h0v-.1Z" fill="#a6a7aa"/>
      <path id="path711" d="M303.14,342.5h-.5v8.5h.5v-8.5ZM303.14,359.5h-.5v8.5h.5v-8.5ZM303.24,376.5h-.5v8.5h.5v-8.5ZM303.34,393.5h-.5v8.5h.5v-8.5ZM303.44,410.5h-.5v8.5h.5v-8.5ZM303.54,427.5h-.5v8.5h.5v-8.5ZM303.64,444.5h-.5v8.5h.5v-8.5ZM303.74,461.5h-.5v8.5h.5v-8.5ZM303.84,478.5h-.5v8.5h.5v-8.5ZM303.94,495.5h-.5v8.5h.5v-8.5ZM304.04,512.5h-.5v8.5h.5v-8.5ZM304.14,529.5h-.5v8.5h.5v-8.5ZM304.24,546.5h-.5v8.5h.5v-8.5ZM304.34,563.5h-.5v8.5h.5v-8.5ZM303.94,582.4v.3h.5v-.3h-.5Z" fill="#a6a7aa"/>
      <path id="path710" d="M300.04,104.2c-35.4.6-71,9.5-104.8,26.6l9.7,19.1c62.1-31.6,129.1-32.5,189.5-3.3l8.2-16.9h-.1l1.1-2.4c-33-15.9-68.2-23.6-103.6-23.1h0Z" fill="#f0f1f1"/>
      <path id="path709" d="M69.54,294.5c-15.2,70.3,2.2,141.3,49.5,198.7l8.3-6.7,8.3-6.8c-43.7-52.9-59.1-116.8-45.1-181.1l-18.4-4v.5l-2.5-.5-.1-.1Z" fill="#f0f1f1"/>
      <path id="path708" d="M135.74,479.8l-16.7,13.4c45.1,56.3,110.1,88.9,184.8,88.2v-2.4h0l-.2-19c-68.6.7-126.6-28.5-168-80.2h.1Z" fill="#f0f1f1"/>
      <path id="path707" d="M535.14,288l-2.4.5-18.5,4c14.6,68.1-1.3,132.2-43.1,185.8l15.1,11.8.1-.1,1.8,1.4c45.2-58,62.8-129.4,47-203.3v-.1Z" fill="#f0f1f1"/>
      <path id="path706" d="M194.84,130.4c-67.2,34.2-112.1,92.6-126.1,164l3.3.7c13.8-70.4,57.9-127.8,124.3-161.6l-1.5-3v-.1Z" fill="#83bc00"/>
      <path id="path705" d="M486.34,489.8c-46.1,58-110.9,89.4-182.4,89.2v3.4c72.5.2,138.3-31.7,185-90.4l-2.7-2.1.1-.1Z" fill="#f3d03e"/>
      <path id="path704" d="M403.94,126.6l-1.4,3.1c67.8,31.6,114.1,88.3,130.2,158.8l3.3-.8c-16.3-71.5-63.4-129.2-132-161.2l-.1.1Z" fill="#c2dd8a"/>
    </g>
    <g id="Stationary_Center" data-name="Stationary Center">
      <circle id="circle208" cx="303.94" cy="343.6" r="111" fill="#fff"/>
      <g id="Solutions-2">
        <polygon id="polygon208" points="273.44 295.1 304.74 273.8 334.44 295.1 334.44 327.8 304.14 352.3 273.44 327.8 273.44 295.1" fill="#fff" stroke="#013d5b" stroke-miterlimit="17.1" stroke-width="2"/>
        <polygon id="polygon209" points="304.74 273.8 273.44 327.8 334.44 327.8 304.74 273.8" fill="none" stroke="#013d5b" stroke-miterlimit="17.1" stroke-width="2"/>
        <polyline id="polyline209" points="273.44 295.1 304.44 311 304.14 352.3" fill="none" stroke="#013d5b" stroke-miterlimit="17.1" stroke-width="2"/>
        <line id="line209" x1="304.44" y1="311" x2="334.44" y2="295.1" fill="none" stroke="#013d5b" stroke-miterlimit="17.1" stroke-width="2"/>
        <circle id="circle209" cx="304.44" cy="273.8" r="10.4" fill="#84bd00" stroke="#013d5b" stroke-miterlimit="17.1" stroke-width="2"/>
        <circle id="circle210" cx="273.44" cy="327.8" r="10.4" fill="#f57f29" stroke="#013d5b" stroke-miterlimit="17.1" stroke-width="2"/>
        <circle id="circle211" cx="273.44" cy="295.1" r="7.3" fill="#fff" stroke="#013d5b" stroke-miterlimit="17.1" stroke-width="2"/>
        <circle id="circle212" cx="334.44" cy="295.1" r="7.3" fill="#fff" stroke="#013d5b" stroke-miterlimit="17.1" stroke-width="2"/>
        <circle id="circle213" cx="304.44" cy="352.3" r="7.3" fill="#fff" stroke="#013d5b" stroke-miterlimit="17.1" stroke-width="2"/>
        <circle id="circle214" cx="334.44" cy="327.8" r="10.4" fill="#00a2c5" stroke="#013d5b" stroke-miterlimit="17.1" stroke-width="2"/>
        <path id="path214" d="M304.44,319.3c-4.6,0-8.3-3.8-8.3-8.3s3.8-8.3,8.3-8.3,8.3,3.8,8.3,8.3h0c0,4.6-3.8,8.3-8.3,8.3Z" fill="#013d5b"/>
        <path id="path215" d="M304.44,303.6c4.1,0,7.3,3.3,7.3,7.3s-3.3,7.3-7.3,7.3-7.3-3.3-7.3-7.3h0c0-4.1,3.3-7.3,7.3-7.3M304.44,301.7c-5.1,0-9.3,4.1-9.3,9.3s4.1,9.3,9.3,9.3,9.3-4.1,9.3-9.3h0c0-5.1-4.2-9.3-9.3-9.3Z" fill="#fff"/>
      </g>
      <path id="path216" d="M254.04,378.4c-.3-1.6-1.8-2.9-3.6-2.9-3.3,0-4.6,2.8-4.6,5.7s1.3,5.6,4.6,5.6,3.8-1.6,3.8-3.6h3.4c-.2,3.8-3.3,6.9-7.2,6.7h-.2c-5.1,0-8.2-3.8-8.2-8.7s3.1-8.7,8.2-8.7c3.6-.2,6.7,2.4,7.2,5.9h-3.4,0Z" fill="#044872"/>
      <path id="path217" d="M259.54,381.2c.2-3.1,2.9-3.9,5.6-3.9s5.2.5,5.2,3.4v6.2c0,1,.2,1.8.3,2.6h-3.3c-.2-.3-.2-.8-.2-1.1-1.1,1-2.6,1.5-4.1,1.5-2.3,0-4.1-1.1-4.1-3.6,0-5.4,8.2-2.6,8-5.2,0-1.5-1-1.6-2.1-1.6s-2.1.5-2.1,1.8h-3.3.1s0,0,0,0h0v-.1ZM267.24,383.6c-.8.5-1.8.7-2.8.7-1,.2-2,.5-2,1.8s1,1.5,2,1.5c1.3.2,2.6-.8,2.6-2.1v-.7l.2-1.1h0v-.1Z" fill="#044872"/>
      <path id="path218" d="M272.94,377.4h3.1v2.3h0c.7-1.5,2.1-2.4,3.8-2.6.2,0,.5,0,.7.2v3.1c-.3,0-.8-.2-1.1-.2-2.4,0-3.3,1.8-3.3,3.9v5.4h-3.3l.2-12.1h-.1Z" fill="#044872"/>
      <path id="path219" d="M284.64,384.3c.2,2.1,1.1,3.1,2.9,3.1s2.1-.5,2.6-1.5h2.9c-.7,2.4-2.9,4.2-5.6,4.1-3.3.2-5.9-2.3-6-5.6v-.8c-.2-3.3,2.4-6.2,5.7-6.4h.5c4.1,0,6,3.4,5.9,7.2l-9-.2h.1s0,0,0,0h0v.1ZM290.04,382.2c-.3-1.6-1-2.6-2.6-2.6-1.5-.2-2.6,1-2.8,2.4v.2h5.4Z" fill="#044872"/>
      <path id="path220" d="M295.64,372.9h11.6v3.1h-8v3.8h6.9v2.9h-6.9v6.9h-3.6v-16.7h0Z" fill="#044872"/>
      <path id="path221" d="M308.84,381.2c.2-3.1,2.9-3.9,5.6-3.9s5.2.5,5.2,3.4v6.2c0,1,.2,1.8.5,2.6h-3.3c-.2-.3-.2-.8-.2-1.1-1.1,1-2.6,1.5-4.1,1.5-2.3,0-4.1-1.1-4.1-3.6,0-5.4,8.2-2.6,8-5.2,0-1.5-1-1.6-2.1-1.6s-2.1.5-2.1,1.8h-3.4s0,0,0,0h0v-.1ZM316.34,383.6c-.8.5-1.8.7-2.8.7-1,.2-2,.5-2,1.8s1,1.5,2,1.5c1.3.2,2.6-.8,2.6-2.1v-1.8h.2v-.1Z" fill="#044872"/>
      <path id="path222" d="M322.24,372.9h3.3v6h0c.8-1.1,2.3-1.8,3.8-1.8,2.4,0,4.9,2,4.9,6.4s-2.6,6.4-4.9,6.4c-1.5.2-3.1-.5-3.9-1.8h0v1.5h-3.1v-16.7h-.1,0ZM328.14,379.6c-2,0-2.8,1.8-2.8,3.9s.8,3.8,2.8,3.8,2.8-1.8,2.8-3.8-.8-3.9-2.8-3.9Z" fill="#044872"/>
      <path id="path223" d="M336.24,377.4h3.1v2.3h0c.7-1.5,2.1-2.4,3.8-2.6.2,0,.5,0,.7.2v3.1c-.3,0-.8-.2-1.1-.2-2.4,0-3.3,1.8-3.3,3.9v5.4h-3.3l.2-12.1h-.1Z" fill="#044872"/>
      <path id="path224" d="M348.64,375.6h-3.3v-2.8h3.3v2.8ZM345.44,377.4h3.3v11.9h-3.3v-11.9Z" fill="#044872"/>
      <path id="path225" d="M359.44,381.7c0-1.1-1.1-2.1-2.3-2.1h-.2c-2.1,0-2.8,2.1-2.8,3.9s.7,3.8,2.8,3.8,2.6-1,2.6-2.3v-.2h3.1c-.2,2.9-2.8,5.1-5.7,4.9h0c-3.3.2-5.9-2.3-6-5.6v-.7c0-3.8,2.3-6.5,6-6.5s5.4,1.5,5.6,4.6l-3.1.2h0Z" fill="#044872"/>
      <path id="path226" d="M256.64,400.6h7.5c4.1,0,5.7,2.6,5.7,5.2s-1.6,5.2-5.7,5.2h-3.8v5.9h-3.6v-16.3h-.2.1ZM260.24,408.5h2.8c1.6,0,3.1-.3,3.1-2.4s-1.5-2.4-3.1-2.4h-2.8v4.9h0v-.1Z" fill="#044872"/>
      <path id="path227" d="M271.74,400.6h3.3v16.5h-3.3v-16.5Z" fill="#044872"/>
      <path id="path228" d="M277.54,408.9c.2-3.1,2.9-3.9,5.6-3.9s5.2.5,5.2,3.4v6.2c0,1,0,1.8.3,2.6h-3.3c-.2-.3-.2-.8-.2-1.1-1.1,1-2.4,1.6-4.1,1.5-2.3,0-4.1-1.1-4.1-3.6,0-5.4,8.2-2.4,8-5.2,0-1.5-1-1.6-2.1-1.6s-2.1.5-2.1,1.8h-3.3.1v-.1ZM285.14,411.4c-.8.5-1.8.7-2.8.7-1,.2-2,.5-2,1.8s1,1.5,2,1.5c1.3.2,2.6-.8,2.6-2.1v-1.8h.2v-.1Z" fill="#044872"/>
      <path id="path229" d="M295.14,405.2h2.4v2.1h-2.4v5.9c0,1.1.3,1.5,1.5,1.5s.7,0,1-.2v2.6c-.7.2-1.3.2-2,.2-2,0-3.8-.5-3.8-2.9v-7h-2v-2.1h2v-3.6h3.3v3.6h0v-.1Z" fill="#044872"/>
      <path id="path230" d="M299.84,407.3h-2v-2.1h2v-1c-.2-2,1.5-3.6,3.4-3.6h2.4v2.4c-.3,0-.8,0-1.1-.2-1,0-1.3.3-1.3,1.3v.7h2.3v2.1h-2.3v9.8h-3.3l-.2-9.5h.1v.1h0Z" fill="#044872"/>
      <path id="path231" d="M312.64,404.9c3.4,0,6.4,2.6,6.4,6.2s-2.6,6.4-6.2,6.4-6.4-2.6-6.4-6.2v-.2c-.3-3.3,2.1-6,5.4-6.4.3.2.5.2.8.2h0ZM312.64,415c2.3,0,2.9-2,2.9-3.8s-.7-3.9-2.9-3.9-2.9,2-2.9,3.9.7,3.8,2.9,3.8Z" fill="#044872"/>
      <path id="path232" d="M320.94,405.2h3.1v2.3h0c.7-1.5,2.1-2.6,3.8-2.6s.5,0,.7.2v3.1c-.3,0-.8-.2-1.1-.2-2.4,0-3.3,1.8-3.3,3.9v5.4h-3.3l.2-12.1h-.1Z" fill="#044872"/>
      <path id="path233" d="M330.04,405.2h3.1v1.6h0c.8-1.3,2.1-2,3.6-2,1.5-.2,2.9.7,3.4,2,.8-1.1,2.1-2,3.6-2,2.1-.3,4.1,1.1,4.4,3.3v9h-3.3v-6.7c0-1.6-.2-2.9-2-2.9s-2.1,1.5-2.1,3.1v6.7h-3.3v-6.9c0-1.5.2-2.9-2-2.9s-2.3.3-2.3,2.8v6.9h-3.3v-11.9h.2v-.1h0Z" fill="#044872"/>
      <path id="path234" d="M368.24,375.1c0,1.3-1,2.4-2.4,2.6-1.3,0-2.4-1-2.6-2.4,0-1.3,1-2.4,2.4-2.6h.2c1.3,0,2.4,1.1,2.4,2.4ZM364.04,375.1c0,1,1,1.8,2,1.8s1.8-1,1.8-2-.8-1.8-1.8-1.8-2,.8-2,2ZM365.54,376.5h-.5v-2.4c.3,0,.7-.2,1-.2s.7,0,.8.2c.1.2.2.3.2.5,0,.3-.2.5-.5.5h0c.2.2.3.3.5.7,0,.2,0,.5.2.7h-.7c-.2-.2-.2-.3-.2-.7s-.2-.3-.5-.3h-.3v1.1h0v-.1ZM365.54,375h.3c.3,0,.5-.2.5-.3s-.2-.3-.5-.3h-.3v.7h0v-.1Z" fill="#044872"/>
      <path id="path235" d="M303.94,234.6c60.2,0,109.1,48.8,109.1,109.1s-48.8,109.1-109.1,109.1-109.1-48.8-109.1-109.1h0c0-60.2,48.8-109.1,109.1-109.1h0M303.94,230.8c-62.4,0-112.8,50.6-112.8,112.8s50.6,112.8,112.8,112.8,112.8-50.6,112.8-112.8h0c0-62.4-50.4-112.8-112.8-112.8h0Z" fill="#044872"/>
    </g>
  </g>
</svg>