<?xml version="1.0" encoding="UTF-8"?>
<svg xmlns="http://www.w3.org/2000/svg" viewBox="0 0 478.42 479.31">
  <g id="Layer_1" data-name="Layer 1" pointer-events="none">
    <g id="CareAdministration">
      <polygon id="polygon14" points="70.31 259.31 71.31 268.01 77.81 268.01 78.31 259.31 70.31 259.31" fill="#fff"/>
      <polygon id="polygon15" points="76.91 264.71 78.01 263.61 78.21 261.61 70.51 260.61 76.91 264.71" isolation="isolate" opacity=".1"/>
      <polygon id="polygon16" points="70.31 259.31 71.31 268.01 77.81 268.01 78.31 259.31 70.31 259.31" fill="none" stroke="#013d5b" stroke-miterlimit="17.1" stroke-width=".9"/>
      <path id="path16" d="M66.21,243.81h0c-1.3.3-1.6,1.5-1.5,2.9.3,1.1.8,2,1.6,2.8l-.2-5.7h.1Z" fill="#fff" stroke="#013d5b" stroke-miterlimit="17.1" stroke-width=".9"/>
      <path id="path17" d="M85.31,245.81h0c1.1.7,1.3,1.8.7,3.1-.5,1-1.1,2-2.1,2.6l1.5-5.7h-.1Z" fill="#fff" stroke="#013d5b" stroke-miterlimit="17.1" stroke-width=".9"/>
      <path id="path18" d="M77.01,234.41c-5.1-.7-9.8,2.8-10.6,8-.2,4.7,0,9.3.7,14,.2,2,1.6,3.6,3.6,4.1l6,1.3c2.3.5,4.6-.8,5.2-3.1,1.6-4.6,2.8-9.3,3.8-14,.3-5.4-3.6-10-8.7-10.3Z" fill="#fff" stroke="#013d5b" stroke-miterlimit="17.1" stroke-width=".9"/>
      <polygon id="polygon18" points="78.01 263.61 94.01 268.01 94.01 276.01 53.51 274.21 53.51 268.01 70.81 263.71 74.41 267.01 78.01 263.61" fill="#00a2c5" stroke="#013d5b" stroke-miterlimit="17.1" stroke-width=".9"/>
      <rect id="rect18" x="71.83" y="276.37" width="1.6" height="1.6" transform="translate(-206.35 342.52) rotate(-88.5)" fill="#013d5b"/>
      <circle id="circle18" cx="81.31" cy="275.71" r="2.1" fill="#fff" stroke="#013d5b" stroke-miterlimit="17.1" stroke-width=".9"/>
      <path id="path19" d="M74.91,245.61l-1,4.1c-.2.3.2.8.5.8h1.5" fill="#fff" stroke="#013d5b" stroke-miterlimit="17.1" stroke-width=".9"/>
      <polygon id="polygon19" points="88.81 263.31 89.81 272.41 96.61 272.41 97.11 263.31 88.81 263.31" fill="#fff"/>
      <polygon id="polygon20" points="95.51 269.01 96.31 267.81 96.41 265.71 88.91 264.71 95.51 269.01" isolation="isolate" opacity=".1"/>
      <polygon id="polygon21" points="88.81 263.31 89.81 272.41 96.61 272.41 97.11 263.31 88.81 263.31" fill="none" stroke="#013d5b" stroke-miterlimit="17.1" stroke-width=".9"/>
      <polygon id="polygon22" points="96.81 267.81 113.31 272.41 113.31 280.61 71.51 278.81 71.51 272.41 89.31 268.01 92.91 271.31 96.81 267.81" fill="#00a2c5" stroke="#013d5b" stroke-miterlimit="17.1" stroke-width=".9"/>
      <polygon id="polygon23" points="71.51 272.41 89.31 268.01 91.71 279.61 71.51 278.81 71.51 272.41" fill="#fff"/>
      <polygon id="polygon24" points="71.51 272.41 89.31 268.01 91.71 279.61 71.51 278.81 71.51 272.41" fill="#fff"/>
      <polygon id="polygon25" points="71.51 272.41 89.31 268.01 91.71 279.61 71.51 278.81 71.51 272.41" fill="none" stroke="#013d5b" stroke-miterlimit="17.1" stroke-width=".9"/>
      <polygon id="polygon26" points="93.01 279.71 96.81 267.81 113.31 272.41 113.31 280.61 93.01 279.71" fill="#fff"/>
      <polygon id="polygon27" points="93.01 279.71 96.81 267.81 113.31 272.41 113.31 280.61 93.01 279.71" fill="#fff"/>
      <polygon id="polygon28" points="93.01 279.71 96.81 267.81 113.31 272.41 113.31 280.61 93.01 279.71" fill="none" stroke="#013d5b" stroke-miterlimit="17.1" stroke-width=".9"/>
      <path id="path28" d="M88.81,283.21v-1.8c-.3-3.6-2.9-8.2-5.4-7.8-2.5.4-4.1,5.2-3.8,8.8,0,.7.2,1.1.3,1.8" fill="none" stroke="#013d5b" stroke-miterlimit="17.1" stroke-width=".9"/>
      <rect id="rect28" x="87.23" y="281.52" width="1.6" height="1.6" transform="translate(-196.5 362.92) rotate(-88.5)" fill="#013d5b"/>
      <rect id="rect29" x="79.78" y="282.16" width="1.6" height="1.6" transform="translate(-50.68 19.65) rotate(-10.6)" fill="#013d5b"/>
      <line id="line29" x1="83.21" y1="273.51" x2="82.61" y2="269.51" fill="none" stroke="#013d5b" stroke-miterlimit="17.1" stroke-width=".9"/>
      <circle id="circle29" cx="100.01" cy="280.21" r="2.1" fill="#fff" stroke="#013d5b" stroke-miterlimit="17.1" stroke-width=".9"/>
      <line id="line30" x1="100.01" y1="278.11" x2="101.01" y2="269.01" fill="none" stroke="#013d5b" stroke-miterlimit="17.1" stroke-width=".9"/>
      <path id="path30" d="M102.21,249.11h0c1.3.5,1.6,1.5,1.3,3.1-.3,1.1-1,2-1.8,2.8l.5-5.9Z" fill="#fff" stroke="#013d5b" stroke-miterlimit="17.1" stroke-width=".9"/>
      <path id="path31" d="M82.21,250.21h0c-1.1.7-1.3,1.8-1,3.3.5,1.1,1.1,2.1,2,2.8l-1-6h0v-.1Z" fill="#fff" stroke="#013d5b" stroke-miterlimit="17.1" stroke-width=".9"/>
      <path id="path32" d="M91.51,238.81c5.4-.5,10,3.4,10.4,8.8-.2,4.9-.7,9.6-1.5,14.4-.3,2-2,3.6-3.9,3.9l-6.7.2c-2.3.3-4.6-1.1-5.2-3.4-1.3-4.6-2.3-9.1-2.8-13.9.2-5.6,4.4-10,9.6-10h.1Z" fill="#fff" stroke="#013d5b" stroke-miterlimit="17.1" stroke-width=".9"/>
      <path id="path33" d="M93.21,250.41l.8,4.2c.2.3-.2.8-.7.8h-1.6" fill="#fff" stroke="#013d5b" stroke-miterlimit="17.1" stroke-width=".9"/>
      <path id="path34" d="M77.31,293.31c-.2-.8-.8-1.3-1.6-1.3-1.5,0-2,1.3-2,2.6s.5,2.4,2,2.4,1.6-.7,1.6-1.6h1.6c0,1.8-1.5,3.1-3.3,3.1h0c-2.1-.2-3.8-2-3.8-4.2.2-2,1.6-3.6,3.8-3.8,1.6-.2,3.1,1.1,3.3,2.8h-1.6Z" fill="#044973"/>
      <path id="path35" d="M79.81,294.41c0-1.5,1.3-1.8,2.6-1.8s2.4.2,2.4,1.5v2.8c0,.5,0,.8.2,1.3h-1.5c0-.2-.2-.3-.2-.5-.5.5-1.1.7-1.8.7-1,0-1.8-.5-1.8-1.6,0-2.4,3.8-1.1,3.6-2.4,0-.7-.5-.7-1-.7s-1,.2-1,.8h-1.6q0-.07,0,0l.1-.1ZM83.41,295.61c-.3.2-.8.3-1.3.3-.5.2-1,.2-1,.8s.5.7,1,.7,1.1-.3,1.1-1v-.2l.2-.7h0v.1h0Z" fill="#044973"/>
      <path id="path36" d="M86.01,292.81h1.5v1h0c.3-.7,1-1.1,1.8-1.1h.3v1.5h-.5c-1.1,0-1.5.8-1.5,1.8v2.4h-1.5l-.2-5.6h.1Z" fill="#044973"/>
      <path id="path37" d="M91.41,295.91c0,1,.5,1.5,1.3,1.5s1-.3,1.1-.7h1.3c-.3,1.1-1.3,2-2.6,1.8-1.5,0-2.8-1.1-2.8-2.6v-.3c-.2-1.5,1-2.8,2.6-2.9,1.5-.2,2.8,1,2.9,2.6v.8l-3.9-.2h.1ZM93.81,294.91c-.2-.8-.5-1.1-1.1-1.1s-1.1.5-1.3,1.1v.2h2.4v-.2h0Z" fill="#044973"/>
      <path id="path38" d="M49.61,303.41h1.6l2.8,7.5h-1.6l-.5-1.6h-2.8l-.7,1.6h-1.6l2.8-7.5ZM49.41,308.01h2l-1-2.8h0l-1,2.8Z" fill="#044973"/>
      <path id="path39" d="M58.41,310.31h0c-.3.5-1,.8-1.6.8-1.6,0-2.4-1.5-2.4-2.9-.2-1.5.8-2.6,2.3-2.8h.2c.7,0,1.3.3,1.6.8h0v-2.8h1.5v7.5h-1.5v-.7h0l-.1.1ZM57.11,306.51c-1,0-1.3.8-1.3,1.8s.3,1.8,1.3,1.8,1.3-.8,1.3-1.8-.3-2-1.3-1.8Z" fill="#044973"/>
      <path id="path40" d="M61.01,305.51h1.5v.7h0c.3-.5,1-.8,1.6-.8s1.3.3,1.6,1c.3-.5,1-.8,1.6-1,1-.2,1.8.5,2,1.5v4.1h-1.5v-3.1c0-.7,0-1.3-1-1.3s-1,.7-1,1.3v3.1h-1.5v-3.1c0-.7,0-1.3-1-1.3s-1,.2-1,1.3v3.1h-1.5v-5.4h.2v-.1Z" fill="#044973"/>
      <path id="path41" d="M72.11,304.61h-1.5v-1.3h1.5v1.3ZM70.71,305.41h1.5v5.4h-1.5v-5.4Z" fill="#044973"/>
      <path id="path42" d="M73.31,305.51h1.5v.8h0c.3-.5,1-1,1.6-1,1.6,0,2,1,2,2.3v3.3h-1.5v-3.1c0-1-.3-1.3-1-1.3s-1.1.5-1.1,1.5v2.9h-1.5v-5.4h0Z" fill="#044973"/>
      <path id="path43" d="M81.11,304.61h-1.5v-1.3h1.5v1.3ZM79.61,305.41h1.5v5.4h-1.5v-5.4Z" fill="#044973"/>
      <path id="path44" d="M83.41,309.11c0,.7.5,1,1.1,1s1-.2,1-.7-.7-.7-1.6-.8c-.9-.1-1.8-.5-1.8-1.5,0-1.5,1.1-1.8,2.3-1.8s2.3.3,2.4,1.8h-1.5c0-.7-.5-.7-1-.7s-.8,0-.8.5.8.7,1.6.8c.8.1,1.6.5,1.6,1.5,0,1.5-1.3,2-2.4,2s-2.4-.5-2.6-2l1.6-.2h0c0,.07,0,.1,0,.1h.1Z" fill="#044973"/>
      <path id="path45" d="M89.91,305.51h1.1v1h-1.1v2.6c0,.5.2.7.7.7h.5v1.1h-.8c-1,0-1.8-.2-1.8-1.3v-3.3h-1v-1h1v-1.6h1.5v1.8h-.1Z" fill="#044973"/>
      <path id="path46" d="M91.71,305.51h1.5v1h0c.3-.7,1-1.1,1.8-1.1h.3v1.5h-.5c-1.1,0-1.5.8-1.5,1.8v2.4h-1.5l-.2-5.6h.1Z" fill="#044973"/>
      <path id="path47" d="M95.61,307.21c.2-1.5,1.3-1.8,2.6-1.8s2.4.2,2.4,1.5v2.8c0,.5,0,.8.2,1.1h-1.5c0-.2-.2-.3-.2-.5-.5.5-1.1.7-1.8.7-1,0-1.8-.5-1.8-1.6,0-2.4,3.8-1.1,3.6-2.3,0-.7-.5-.7-1-.7s-1,.2-1,.8h-1.6.1ZM99.11,308.31c-.3.2-.8.3-1.3.3-.5.2-.8.3-.8.8s.5.7,1,.7,1.1-.3,1.1-1v-.8Z" fill="#044973"/>
      <path id="path48" d="M103.61,305.51h1.1v1h-1.1v2.6c0,.5.2.7.7.7h.5v1.1h-.8c-1,0-1.8-.2-1.8-1.3v-3.3h-1v-1h1v-1.6h1.5v1.8h-.1Z" fill="#044973"/>
      <path id="path49" d="M107.11,304.61h-1.5v-1.3h1.5v1.3ZM105.61,305.41h1.5v5.4h-1.5v-5.4Z" fill="#044973"/>
      <path id="path50" d="M110.81,305.41c1.6,0,2.9,1.1,2.9,2.8s-1.1,2.9-2.8,2.9-2.9-1.1-2.9-2.8h0c-.2-1.5,1-2.8,2.4-2.9h.4ZM110.81,310.01c1,0,1.3-.8,1.3-1.8s-.3-1.8-1.3-1.8-1.3.8-1.3,1.8.3,1.8,1.3,1.8Z" fill="#044973"/>
      <path id="path51" d="M114.71,305.51h1.5v.8h0c.3-.5,1-1,1.6-1,1.6,0,2,1,2,2.3v3.3h-1.5v-3.1c0-1-.2-1.3-1-1.3s-1.1.5-1.1,1.5v2.9h-1.5v-5.4h0Z" fill="#044973"/>
    </g>
    <g id="PopulationHealthManagement">
      <g id="Population_Health" data-name="Population Health">
        <path id="path52" d="M118.01,94.61c-1.6,0-2.9,1.1-2.9,2.8.3,1.5.8,2.9,1.5,4.4h2.8c.8-1.3,1.3-2.8,1.6-4.4,0-1.5-1.5-2.8-2.9-2.8h-.1Z" fill="#fff" stroke="#013d5b" stroke-miterlimit="17.1" stroke-width=".9"/>
        <polygon id="polygon52" points="120.81 124.51 119.61 131.71 115.91 131.71 114.91 124.51 111.11 124.51 113.11 103.41 117.81 101.11 123.21 102.91 125.31 124.51 120.81 124.51" fill="#fff"/>
        <polygon id="polygon53" points="111.11 124.51 111.81 116.31 112.01 115.51 123.91 112.91 125.31 124.51 111.11 124.51" fill="#84bd00"/>
        <path id="path53" d="M113.11,103.41l2.6-1.3c1.3-.7,2.8-.7,4.1-.3l3.3,1.1,2.1,21.4h-4.6l-1.1,7.3h-3.8l-1-7.3h-3.8l2.1-20.9h.1Z" fill="none" stroke="#013d5b" stroke-miterlimit="17.1" stroke-width=".9"/>
        <line id="line53" x1="114.91" y1="124.51" x2="125.31" y2="124.51" fill="none" stroke="#013d5b" stroke-miterlimit="17.1" stroke-width=".9"/>
        <path id="path54" d="M99.21,95.11c-1.6,0-2.9,1.1-2.9,2.8.3,1.5.8,2.9,1.5,4.4h2.8c.8-1.3,1.3-2.8,1.6-4.4,0-1.6-1.3-2.9-2.9-2.8h-.1Z" fill="#fff" stroke="#013d5b" stroke-miterlimit="17.1" stroke-width=".9"/>
        <polygon id="polygon54" points="102.21 124.81 101.01 132.01 97.31 132.01 96.11 124.81 92.41 124.81 94.51 103.71 99.11 101.51 104.41 103.31 106.61 124.81 102.21 124.81" fill="#fff"/>
        <polygon id="polygon55" points="92.41 124.81 93.21 116.61 93.21 115.81 105.31 113.21 106.61 124.81 92.41 124.81" fill="#84bd00"/>
        <path id="path55" d="M94.51,103.71l2.6-1.3c1.3-.7,2.8-.7,4.1-.3l3.3,1.1,2.1,21.6h-4.6l-1.1,7.3h-3.8l-1-7.3h-3.8l2.1-21.1h.1Z" fill="none" stroke="#013d5b" stroke-miterlimit="17.1" stroke-width=".9"/>
        <line id="line55" x1="96.11" y1="124.81" x2="106.61" y2="124.81" fill="none" stroke="#013d5b" stroke-miterlimit="17.1" stroke-width=".9"/>
        <path id="path56" d="M109.51,93.81c1.6,0,2.9,1.1,2.9,2.8-.3,1.5-.8,2.9-1.5,4.4h-2.8c-.8-1.3-1.3-2.8-1.6-4.4.2-1.6,1.5-2.9,2.9-2.8h.1Z" fill="#fff" stroke="#013d5b" stroke-miterlimit="17.1" stroke-width=".9"/>
        <polygon id="polygon56" points="102.81 102.81 109.71 100.21 116.01 103.31 112.01 132.61 107.11 132.61 102.81 102.81" fill="#fff"/>
        <polygon id="polygon57" points="114.21 116.31 104.91 118.11 107.11 132.61 112.01 132.61 114.21 116.31" fill="#4795be"/>
        <path id="path57" d="M112.01,101.31l4.2,2.1-4.1,29.4h-4.9l-4.4-29.9,4.7-1.8c1.3-.7,2.9-.5,4.4.2h.1Z" fill="none" stroke="#013d5b" stroke-miterlimit="17.1" stroke-width=".9"/>
        <path id="path58" d="M122.61,100.81c1.6,0,2.9,1.1,2.9,2.8-.3,1.5-.8,2.9-1.5,4.4h-2.8c-.8-1.3-1.3-2.8-1.6-4.4.2-1.6,1.5-2.8,2.9-2.8h.1Z" fill="#fff" stroke="#013d5b" stroke-miterlimit="17.1" stroke-width=".9"/>
        <polygon id="polygon58" points="115.91 109.81 122.91 107.21 129.11 110.41 125.01 139.71 120.11 139.71 115.91 109.81" fill="#fff"/>
        <polygon id="polygon59" points="127.31 123.31 118.01 125.11 120.11 139.71 125.01 139.71 127.31 123.31" fill="#00a2c5"/>
        <path id="path59" d="M125.01,108.31l4.2,2.1-4.2,29.4h-4.9l-4.2-29.9,4.7-1.8c1.3-.7,2.9-.5,4.4.2h0Z" fill="none" stroke="#013d5b" stroke-miterlimit="17.1" stroke-width=".9"/>
        <path id="path60" d="M114.41,104.11c-1.6,0-2.9,1.1-2.9,2.8.3,1.5.8,2.9,1.5,4.2h2.8c.8-1.3,1.3-2.8,1.6-4.2,0-1.6-1.3-2.8-2.9-2.8h-.1Z" fill="#fff" stroke="#013d5b" stroke-miterlimit="17.1" stroke-width=".9"/>
        <polygon id="polygon60" points="122.61 134.01 117.31 134.01 116.01 141.11 112.31 141.11 111.31 133.81 106.61 133.81 110.01 123.21 109.21 113.21 114.21 110.01 119.61 113.51 118.81 120.61 122.61 134.01" fill="#fff"/>
        <polygon id="polygon61" points="110.01 123.21 118.81 120.61 122.61 134.01 106.61 133.81 110.01 123.21" fill="#84bd00"/>
        <path id="path61" d="M109.21,113.41c1-.7,2-1.3,2.9-1.8,1.3-.7,2.8-.8,4.2-.3,1.3.5,2.3,1.3,3.3,2.3l-1,7,3.8,13.2h-5.4l-1.1,7.3h-3.8l-1-7.3h-4.7l3.6-10.8-.8-9.6h0Z" fill="none" stroke="#013d5b" stroke-miterlimit="17.1" stroke-width=".9"/>
        <line id="line61" x1="111.31" y1="133.81" x2="121.81" y2="133.81" fill="none" stroke="#013d5b" stroke-miterlimit="17.1" stroke-width=".9"/>
        <path id="path62" d="M95.11,102.11c-1.6,0-2.9,1.1-2.9,2.8.3,1.5.8,2.9,1.5,4.2h2.8c.8-1.3,1.3-2.8,1.6-4.2,0-1.6-1.3-2.8-2.9-2.8h-.1Z" fill="#fff" stroke="#013d5b" stroke-miterlimit="17.1" stroke-width=".9"/>
        <polygon id="polygon62" points="103.31 132.01 97.91 132.01 96.81 139.21 93.01 139.21 92.01 131.81 87.31 131.81 90.71 121.21 89.91 111.31 95.11 107.81 99.71 110.91 99.41 118.61 103.31 132.01" fill="#fff"/>
        <polygon id="polygon63" points="90.71 121.21 99.41 118.61 103.31 132.01 87.31 131.81 90.71 121.21" fill="#f57f29"/>
        <path id="path63" d="M89.91,111.41c1-.7,2-1.3,2.9-1.8,1.3-.7,2.8-.8,4.2-.3,1.3.5,2.3,1.3,3.3,2.3l-1,7,3.8,13.2h-5.4l-1.1,7.3h-3.8l-1-7.3h-4.6l3.4-10.9-.8-9.5h.1Z" fill="none" stroke="#013d5b" stroke-miterlimit="17.1" stroke-width=".9"/>
        <line id="line63" x1="92.01" y1="131.81" x2="102.51" y2="131.81" fill="none" stroke="#013d5b" stroke-miterlimit="17.1" stroke-width=".9"/>
        <path id="path64" d="M105.11,102.11c1.6,0,2.9,1.1,2.9,2.8-.3,1.5-.8,2.9-1.5,4.4h-2.8c-.8-1.3-1.3-2.8-1.6-4.4,0-1.6,1.5-2.8,2.9-2.8h.1Z" fill="#fff" stroke="#013d5b" stroke-miterlimit="17.1" stroke-width=".9"/>
        <polygon id="polygon64" points="98.21 111.31 105.31 108.51 111.61 111.71 107.51 141.11 102.71 141.11 98.21 111.31" fill="#fff"/>
        <polygon id="polygon65" points="109.81 124.61 100.51 126.41 102.71 141.11 107.51 141.11 109.81 124.61" fill="#00a2c5"/>
        <path id="path65" d="M107.51,109.61l4.2,2.1-4.2,29.4h-4.9l-4.2-29.9,4.7-1.8c1.3-.5,2.9-.5,4.4.2Z" fill="none" stroke="#013d5b" stroke-miterlimit="17.1" stroke-width=".9"/>
      </g>
      <path id="path66" d="M64.11,148.01h3.4c1.3,0,2.4,1.1,2.4,2.4s-1.1,2.4-2.4,2.4h-1.8v2.8h-1.6v-7.7h0v.1ZM65.81,151.41h1.3c.8,0,1.5-.2,1.5-1.1s-.7-1.1-1.5-1.1h-1.3v2.3h0q0-.07,0,0v-.1Z" fill="#044973"/>
      <path id="path67" d="M73.81,150.01c1.6,0,2.9,1.3,2.9,2.8s-1.3,2.9-2.8,2.9-2.9-1.3-2.9-2.8h0c-.2-1.5,1-2.8,2.4-2.9,0-.2.2-.2.3,0h.1ZM73.81,154.51c1,0,1.3-.8,1.3-1.8s-.3-1.8-1.3-1.8-1.3.8-1.3,1.8.2,1.8,1.3,1.8Z" fill="#044973"/>
      <path id="path68" d="M77.51,150.01h1.5v.7h0c.3-.5,1-.8,1.6-.8,1.8,0,2.4,1.3,2.4,2.9.2,1.3-.8,2.6-2.1,2.8h-.2c-.7,0-1.3-.3-1.6-.8h0v2.6h-1.6v-7.4h0ZM81.61,152.71c0-.8-.3-1.8-1.3-1.8s-1.3.8-1.3,1.8.3,1.8,1.3,1.8,1.1-.8,1.3-1.8Z" fill="#044973"/>
      <path id="path69" d="M89.11,155.51h-1.5v-.8h0c-.3.5-1,1-1.6,1-1.6,0-2-1-2-2.3v-3.3h1.5v3.1c0,1,.3,1.3,1,1.3s1.1-.5,1.1-1.6v-2.9h1.5v5.6h0v-.1Z" fill="#044973"/>
      <path id="path70" d="M90.21,148.01h1.5v7.5h-1.5v-7.5Z" fill="#044973"/>
      <path id="path71" d="M92.91,151.71c.2-1.3,1.3-1.8,2.6-1.8s2.4.3,2.4,1.6v2.8c0,.5,0,.8.2,1.1h-1.5c0-.2-.2-.3-.2-.5-.5.5-1.1.7-1.8.7-1,0-1.8-.5-1.8-1.6,0-2.4,3.6-1.1,3.6-2.3s-.5-.7-1-.7-1,.2-1,.8l-1.6-.2h0q0,.07,0,0l.1.1ZM96.31,152.91c-.3.2-.8.3-1.3.3-.5.2-.8.3-.8.8s.5.7,1,.7,1.1-.3,1.3-1v-.8h-.2Z" fill="#044973"/>
      <path id="path72" d="M100.91,150.01h1.1v1h-1.1v2.8c0,.5.2.7.7.7h.5v1.1h-.8c-1,0-1.6-.2-1.6-1.3v-3.3h-1v-1h1v-1.6h1.5l-.2,1.6h-.1Z" fill="#044973"/>
      <path id="path73" d="M104.11,149.11h-1.5v-1.3h1.5v1.3ZM102.71,150.01h1.5v5.4h-1.5v-5.4Z" fill="#044973"/>
      <path id="path74" d="M108.01,150.01c1.6,0,2.9,1.3,2.9,2.8s-1.3,2.9-2.8,2.9-2.9-1.3-2.9-2.8h0c-.2-1.5,1-2.8,2.4-2.9,0-.2.2-.2.3,0h.1ZM108.01,154.51c1,0,1.3-.8,1.3-1.8s-.3-1.8-1.3-1.8-1.3.8-1.3,1.8.3,1.8,1.3,1.8Z" fill="#044973"/>
      <path id="path75" d="M111.81,150.01h1.5v.8h0c.3-.5,1-1,1.6-1,1.6,0,2,1,2,2.3v3.4h-1.5v-3.1c0-.8-.3-1.3-1-1.3s-1.1.5-1.1,1.6v2.9h-1.5v-5.7h0v.1Z" fill="#044973"/>
      <path id="path76" d="M121.11,148.01h1.6v2.9h3.1v-2.9h1.6v7.5h-1.6v-3.3h-3.1v3.3h-1.6v-7.5Z" fill="#044973"/>
      <path id="path77" d="M130.11,153.11c0,1,.5,1.3,1.3,1.3s1-.3,1.1-.7h1.3c-.3,1.1-1.3,2-2.6,1.8-1.5,0-2.8-1.1-2.8-2.6v-.3c-.2-1.5,1-2.8,2.6-2.9,1.5-.2,2.8,1,2.9,2.6v.8h-3.9.1ZM132.51,152.21c-.2-.8-.5-1.1-1.1-1.1s-1.1.5-1.3,1.1h2.4Z" fill="#044973"/>
      <path id="path78" d="M134.81,151.71c.2-1.3,1.3-1.8,2.6-1.8s2.4.3,2.4,1.6v2.8c0,.5,0,.8.2,1.1h-1.5c0-.2-.2-.3-.2-.5-.5.5-1.1.7-1.8.7-1,0-1.8-.5-1.8-1.6,0-2.4,3.6-1.1,3.6-2.3s-.5-.7-1-.7-1,.2-1,.8l-1.6-.2h.1q0,.07,0,0v.1ZM138.21,152.91c-.3.2-.8.3-1.3.3-.5.2-.8.3-.8.8s.5.7,1,.7,1.1-.3,1.3-1v-.8h-.2Z" fill="#044973"/>
      <path id="path79" d="M141.01,148.01h1.5v7.5h-1.5v-7.5Z" fill="#044973"/>
      <path id="path80" d="M145.61,150.01h1.1v1h-1.1v2.8c0,.5.2.7.7.7h.5v1.1h-.8c-1,0-1.8-.2-1.8-1.3v-3.3h-1v-1h1v-1.6h1.5v1.6h-.1Z" fill="#044973"/>
      <path id="path81" d="M147.41,148.01h1.5v2.8h0c.3-.5,1-1,1.6-1,1.6,0,2,1,2,2.3v3.4h-1.5v-3.1c0-.8-.2-1.3-1-1.3s-1.1.5-1.1,1.6v2.9h-1.5v-7.7h0v.1Z" fill="#044973"/>
      <path id="path82" d="M76.01,160.61h2.3l1.8,5.2h0l1.6-5.2h2.3v7.5h-1.6v-5.4h0l-1.8,5.4h-1.3l-1.8-5.2h0v5.2h-1.6l.2-7.5h-.1Z" fill="#044973"/>
      <path id="path83" d="M85.31,164.31c0-1.3,1.3-1.8,2.6-1.8s2.4.2,2.4,1.5v2.8c0,.5,0,.8.2,1.1h-1.6c0-.2-.2-.3-.2-.5-.5.5-1.1.7-1.8.7-1,0-1.8-.5-1.8-1.6,0-2.4,3.8-1.1,3.6-2.3,0-.7-.5-.7-1-.7s-1,.2-1,.8h-1.5.1ZM88.81,165.51c-.3.2-.8.3-1.3.3-.5.2-.8.3-.8.8s.5.7,1,.7,1.1-.3,1.1-1v-.8Z" fill="#044973"/>
      <path id="path84" d="M91.41,162.71h1.5v.8h0c.3-.5,1-1,1.6-1,1.6,0,2,.8,2,2.3v3.4h-1.5v-3.1c0-1-.3-1.3-1-1.3s-1.1.5-1.1,1.6v2.9h-1.5v-5.7h0v.1Z" fill="#044973"/>
      <path id="path85" d="M97.61,164.31c0-1.3,1.3-1.8,2.6-1.8s2.4.2,2.4,1.5v2.8c0,.5,0,.8.2,1.1h-1.5c0-.2-.2-.3-.2-.5-.5.5-1.1.7-1.8.7-1,0-1.8-.5-1.8-1.6,0-2.4,3.8-1.1,3.6-2.3,0-.7-.5-.7-1-.7s-1,.2-1,.8h-1.6.1ZM101.01,165.51c-.3.2-.8.3-1.3.3-.5.2-1,.3-1,.8s.5.7,1,.7,1.1-.3,1.1-1v-.3l.2-.5Z" fill="#044973"/>
      <path id="path86" d="M109.01,167.71c0,1-.3,2.4-2.8,2.4s-2.3-.5-2.4-1.8h1.5c.2.5.7.8,1.1.7.8,0,1.1-.5,1.1-1.3v-.7h0c-.3.5-1,.8-1.6.8-1.6,0-2.3-1.3-2.3-2.8-.2-1.3.8-2.6,2.1-2.6h.2c.7,0,1.3.3,1.6.8h0v-.7h1.5v5.2h0ZM107.51,165.31c0-.8-.3-1.6-1.3-1.6s-1.3.7-1.3,1.5.3,1.6,1.3,1.6,1.3-.5,1.3-1.5c0,.2,0,0,0,0Z" fill="#044973"/>
      <path id="path87" d="M111.51,165.81c0,1,.5,1.3,1.3,1.3s1-.2,1.1-.7h1.3c-.3,1.1-1.3,2-2.6,1.8-1.5,0-2.8-1-2.8-2.4v-.3c-.2-1.5,1-2.8,2.6-2.9,1.5-.2,2.8,1,2.9,2.6v.8h-3.9v-.2h.1ZM113.81,164.81c-.2-.8-.5-1.1-1.1-1.1s-1.1.5-1.3,1.1h2.4Z" fill="#044973"/>
      <path id="path88" d="M116.21,162.71h1.5v.7h0c.3-.5,1-.8,1.6-.8s1.3.3,1.6,1c.3-.5,1-.8,1.6-1,1-.2,1.8.5,2,1.5v4.1h-1.5v-3.1c0-.7,0-1.3-1-1.3s-1,.7-1,1.3v3.1h-1.5v-3.1c0-.7,0-1.3-1-1.3s-1,.2-1,1.3v3.1h-1.5v-5.4l.2-.1Z" fill="#044973"/>
      <path id="path89" d="M127.01,165.81c0,1,.5,1.3,1.3,1.3s1-.3,1.1-.7h1.3c-.3,1.1-1.3,2-2.6,1.8-1.5,0-2.8-1-2.8-2.4v-.3c-.2-1.5,1-2.8,2.6-2.9,1.5-.2,2.8,1,2.9,2.6v.8h-3.9v-.2h.1ZM129.41,164.81c-.2-.8-.5-1.1-1.1-1.1s-1.1.5-1.3,1.1h2.4Z" fill="#044973"/>
      <path id="path90" d="M131.91,162.71h1.5v.8h0c.3-.5,1-1,1.6-1,1.6,0,2,.8,2,2.3v3.4h-1.5v-3.1c0-1-.3-1.3-1-1.3s-1.1.5-1.1,1.6v2.9h-1.5v-5.7h0v.1Z" fill="#044973"/>
      <path id="path91" d="M140.01,162.71h1.1v1h-1.1v2.8c0,.5.2.7.7.7h.5v1.1h-.8c-1,0-1.8-.2-1.8-1.3v-3.3h-1v-1h1v-1.6h1.5v1.6h-.1Z" fill="#044973"/>
    </g>
    <g id="WorkForceManagement">
      <circle id="circle91" cx="372.07" cy="117.72" r="21.1" transform="translate(102.94 400.32) rotate(-63.95)" fill="#fff"/>
      <path id="path92" d="M362.61,106.01c-1.8,0-3.4,1.5-3.4,3.3.3,1.8,1,3.4,1.8,5.1h3.3c1-1.6,1.6-3.3,1.8-5.1,0-1.8-1.5-3.3-3.3-3.3h-.2,0Z" fill="#fff" stroke="#013d5b" stroke-miterlimit="17.1" stroke-width=".9"/>
      <path id="path93" d="M356.51,116.61s4.1-2.6,6-2.6,6.2,2.9,6.2,2.9l-1.5,10.9-9.8.3-1-11.6h.1v.1Z" fill="#fff"/>
      <polygon id="polygon93" points="357.51 125.61 367.81 122.71 367.11 128.11 357.51 128.11 357.51 125.61" fill="#81c241"/>
      <path id="path94" d="M356.51,117.01c1.1-.8,2.3-1.5,3.4-2.1,1.5-.7,3.3-.8,4.9-.3,1.5.7,2.8,1.5,3.8,2.6l-1.5,10.9h-9.8l-.8-11.1Z" fill="none" stroke="#013d5b" stroke-miterlimit="17.1" stroke-width=".9"/>
      <path id="path95" d="M381.51,106.81c-1.8,0-3.4,1.5-3.4,3.3.3,1.8,1,3.4,1.8,5.1h3.3c1-1.6,1.6-3.3,1.8-5.1,0-1.8-1.5-3.3-3.3-3.3h-.2,0Z" fill="#fff" stroke="#013d5b" stroke-miterlimit="17.1" stroke-width=".9"/>
      <path id="path96" d="M375.51,117.51s4.1-2.6,6-2.6,6.2,2.9,6.2,2.9l-1.5,10.9-9.8.3-1-11.6h.1s0,0,0,0v.1Z" fill="#fff"/>
      <polygon id="polygon96" points="376.41 126.41 386.71 123.51 386.11 128.91 376.41 128.91 376.41 126.41" fill="#f47f28"/>
      <path id="path97" d="M375.51,117.81c1.1-.8,2.3-1.5,3.4-2.1,1.5-.7,3.3-.8,4.9-.3,1.5.7,2.8,1.5,3.8,2.6l-1.5,10.9h-9.8l-.8-11.1h0Z" fill="none" stroke="#013d5b" stroke-miterlimit="17.1" stroke-width=".9"/>
      <path id="path98" d="M372.21,106.51c1.8,0,3.4,1.5,3.4,3.3-.3,1.8-1,3.4-1.8,5.1h-3.3c-1-1.6-1.6-3.3-2-5.1,0-1.8,1.5-3.3,3.3-3.3h.4Z" fill="#fff" stroke="#013d5b" stroke-miterlimit="17.1" stroke-width=".9"/>
      <path id="path99" d="M372.21,114.71c2.3,0,7.7,3.1,7.7,3.1l-1.8,12.7h-11.9l-2-13.4s5.7-2.4,8-2.4h0Z" fill="#fff"/>
      <polygon id="polygon99" points="378.71 125.11 365.51 127.71 366.21 130.51 378.11 130.51 378.71 125.11" fill="#00a2c5"/>
      <path id="path100" d="M375.01,115.31l4.9,2.4-1.8,12.7h-11.9l-2-13.4,5.6-2.1c1.6-.5,3.6-.5,5.2.3h0v.1Z" fill="none" stroke="#013d5b" stroke-miterlimit="17.1" stroke-width=".9"/>
      <g id="Learning_Services" data-name="Learning Services">
        <circle id="circle101" cx="386.91" cy="133.31" r="6.9" fill="#84bd00" stroke="#013d5b" stroke-miterlimit="17.1" stroke-width=".9"/>
        <polygon id="polygon101" points="390.01 130.01 391.81 132.01 385.31 137.71 381.81 134.41 383.61 132.61 385.41 134.31 390.01 130.01" fill="#fff" stroke="#013d5b" stroke-miterlimit="17.1" stroke-width=".9"/>
      </g>
      <path id="path101" d="M372.21,94.01c-13.2,0-24,10.8-24,24s10.8,24,24,24,24-10.8,24-24h0c-.2-13.4-10.8-24-24-24ZM372.21,138.81c-11.6,0-21.1-9.5-21.1-21.1s9.5-21.1,21.1-21.1,21.1,9.5,21.1,21.1h0c-.2,11.6-9.5,21.1-21.1,21.1h0Z" fill="#00a2c5" stroke="#013d5b" stroke-miterlimit="17.1" stroke-width=".9"/>
      <path id="path102" d="M353.11,156.21h-1.6l-1.3-5.1h0l-1.3,5.1h-1.6l-2-7.5h1.6l1.1,5.1h0l1.3-5.1h1.6l1.3,5.2h0l1.1-5.2h1.6l-2,7.5h.2,0Z" fill="#044973"/>
      <path id="path103" d="M358.31,150.61c1.6,0,2.9,1.1,2.9,2.8s-1.1,2.9-2.8,2.9-2.9-1.1-2.9-2.8h0c-.2-1.5,1-2.8,2.4-2.9h.4ZM358.31,155.21c1,0,1.3-.8,1.3-1.8s-.3-1.8-1.3-1.8-1.3.8-1.3,1.8.3,1.8,1.3,1.8Z" fill="#044973"/>
      <path id="path104" d="M362.21,150.81h1.5v1h0c.3-.7,1-1.1,1.8-1.1h.3v1.3h-.5c-1.1,0-1.5.8-1.5,1.8v2.4h-1.5l-.2-5.4h.1Z" fill="#044973"/>
      <path id="path105" d="M366.51,148.61h1.5v4.1l2-2h1.8l-2.1,2,2.3,3.4h-1.8l-1.5-2.4-.7.5v1.8h-1.5v-7.4Z" fill="#044973"/>
      <path id="path106" d="M372.71,151.71h-.8v-1h.8v-.5c0-1,.7-1.6,1.6-1.6h1v1.1h-.5c-.3,0-.5.2-.5.7v.3h1v1h-1v4.4h-1.5v-4.4h-.2.1Z" fill="#044973"/>
      <path id="path107" d="M378.41,150.61c1.6,0,2.9,1.1,2.9,2.8s-1.1,2.9-2.8,2.9-2.9-1.1-2.9-2.8h0c-.2-1.5,1-2.8,2.4-2.9h.4ZM378.41,155.21c1,0,1.3-.8,1.3-1.8s-.3-1.8-1.3-1.8-1.3.8-1.3,1.8.3,1.8,1.3,1.8Z" fill="#044973"/>
      <path id="path108" d="M382.31,150.81h1.5v1h0c.3-.7,1-1.1,1.8-1.1h.3v1.3h-.5c-1.1,0-1.5.8-1.5,1.8v2.4h-1.5l-.2-5.4h.1Z" fill="#044973"/>
      <path id="path109" d="M390.21,152.61c0-.5-.5-1-1-1h0c-1,0-1.3,1-1.3,1.8s.3,1.8,1.3,1.8,1.1-.5,1.1-1.1h1.5c-.2,1.3-1.3,2.3-2.6,2.3h0c-1.5,0-2.6-1-2.8-2.4v-.3c-.2-1.5,1-2.8,2.4-2.9h.3c1.3-.2,2.4.8,2.6,2h-1.6v-.2h.1Z" fill="#044973"/>
      <path id="path110" d="M393.61,153.91c0,1,.5,1.3,1.3,1.3s1-.3,1.1-.7h1.3c-.3,1.1-1.3,2-2.6,1.8-1.5,0-2.8-1-2.8-2.4v-.3c-.2-1.5,1-2.8,2.6-2.9,1.5-.2,2.8,1,2.9,2.6v.8h-3.9v-.2h.1ZM396.01,152.91c-.2-.8-.5-1.1-1.1-1.1s-1.1.5-1.3,1.1v.2h2.4v-.2h0Z" fill="#044973"/>
      <path id="path111" d="M339.21,161.41h2.3l1.8,5.2h0l1.6-5.2h2.3v7.5h-1.6v-5.4h0l-1.8,5.4h-1.3l-1.8-5.2h0v5.2h-1.6l.2-7.5h-.1Z" fill="#044973"/>
      <path id="path112" d="M348.71,165.11c0-1.5,1.3-1.8,2.6-1.8s2.4.3,2.4,1.6v2.8c0,.5,0,.8.2,1.1h-1.5c0-.2-.2-.3-.2-.5-.5.5-1.1.7-1.8.7-1,0-1.8-.5-1.8-1.6,0-2.4,3.8-1.1,3.6-2.3,0-.7-.5-.8-1-.8s-1,.3-1,.7v.2h-1.6.1q0-.07,0,0v-.1ZM352.11,166.11c-.3.2-.8.3-1.3.3s-.8.3-.8.8.5.7,1,.7,1.1-.3,1.1-1v-.8h0Z" fill="#044973"/>
      <path id="path113" d="M354.71,163.31h1.5v.8h0c.3-.5,1-1,1.6-1,1.6,0,2,1,2,2.3v3.4h-1.5v-3.1c0-1-.3-1.3-1-1.3s-1.1.5-1.1,1.6v2.9h-1.5v-5.7h0v.1Z" fill="#044973"/>
      <path id="path114" d="M360.91,165.11c.2-1.5,1.3-1.8,2.6-1.8s2.4.3,2.4,1.6v2.8c0,.5,0,.8.2,1.1h-1.5c0-.2-.2-.3-.2-.5-.5.5-1.1.7-1.8.7-1,0-1.8-.5-1.8-1.6,0-2.4,3.8-1.1,3.6-2.3,0-.7-.5-.8-1-.8s-1,.3-1,.8h-1.6.1,0ZM364.41,166.11c-.3.2-.8.3-1.3.3s-.8.3-.8.8.5.7,1,.7,1.1-.3,1.1-1v-.8h0Z" fill="#044973"/>
      <path id="path115" d="M372.21,168.61c0,1-.3,2.4-2.8,2.4s-2.3-.5-2.4-1.8h1.5c.2.5.7.8,1.1.8.8,0,1.3-.5,1.1-1.3v-.7h0c-.3.5-1,.8-1.6.8-1.6,0-2.3-1.3-2.3-2.8-.2-1.3.8-2.6,2.1-2.6h.2c.7,0,1.3.3,1.6.8h0v-1h1.5v5.4h0ZM370.91,166.11c0-.8-.3-1.6-1.3-1.6s-1.1.7-1.1,1.6.3,1.6,1.1,1.6,1.3-.7,1.3-1.3v-.3h0Z" fill="#044973"/>
      <path id="path116" d="M374.71,166.41c0,1,.5,1.3,1.3,1.3s1-.3,1.1-.7h1.3c-.3,1.1-1.3,2-2.6,1.8-1.5,0-2.8-1.1-2.8-2.6v-.3c-.2-1.5,1-2.8,2.6-2.9,1.5-.2,2.8,1,2.9,2.6v.8h-3.9.1ZM377.11,165.51c-.2-.8-.5-1.1-1.1-1.1s-1.1.5-1.3,1.1v.2h2.4v-.2Z" fill="#044973"/>
      <path id="path117" d="M379.51,163.31h1.5v.7h0c.3-.5,1-.8,1.6-.8s1.3.3,1.6,1c.3-.5,1-1,1.6-1,1-.2,1.8.5,2,1.5v4.1h-1.5v-3.1c0-.7,0-1.3-1-1.3s-1,.7-1,1.3v3.1h-1.5v-2.9c0-.7,0-1.3-1-1.3s-1,.2-1,1.3v3.1h-1.5v-5.6h.2v-.1h0Z" fill="#044973"/>
      <path id="path118" d="M390.31,166.41c0,1,.5,1.3,1.3,1.3s1-.3,1.1-.7h1.5c-.3,1.1-1.3,2-2.6,1.8-1.5,0-2.8-1.1-2.8-2.6v-.3c-.2-1.5,1-2.8,2.6-2.9,1.5-.2,2.8,1,2.9,2.6v.8h-4.1.1ZM392.81,165.51c-.2-.8-.5-1.1-1.1-1.1s-1.1.5-1.3,1.1v.2h2.4v-.2h0Z" fill="#044973"/>
      <path id="path119" d="M395.21,163.31h1.5v.8h0c.3-.5,1-1,1.6-1,1.6,0,2,1,2,2.3v3.4h-1.5v-3.1c0-1-.2-1.3-1-1.3s-1.1.5-1.1,1.6v2.9h-1.5v-5.7h0v.1Z" fill="#044973"/>
      <path id="path120" d="M403.21,163.31h1.1v1h-1.1v2.8c0,.5.2.7.7.7h.5v1.1h-.8c-1,0-1.6-.2-1.6-1.3v-3.3h-1v-1h1v-1.6h1.5l-.2,1.6h-.1Z" fill="#044973"/>
    </g>
    <g id="CareGuidanceSolutions">
      <circle id="circle120" cx="395.51" cy="255.91" r="24.3" fill="#00a2c5" stroke="#044872" stroke-miterlimit="17.1" stroke-width=".9"/>
      <circle id="circle121" cx="395.42" cy="255.7" r="20.1" transform="translate(27.89 550.09) rotate(-71.58)" fill="#fff" stroke="#044872" stroke-miterlimit="17.1" stroke-width=".9"/>
      <line id="line121" x1="412.01" y1="255.91" x2="406.01" y2="255.91" fill="none" stroke="#044872" stroke-miterlimit="17.1" stroke-width=".9"/>
      <line id="line122" x1="385.11" y1="255.91" x2="379.11" y2="255.91" fill="none" stroke="#044872" stroke-miterlimit="17.1" stroke-width=".9"/>
      <line id="line123" x1="395.51" y1="272.41" x2="395.51" y2="266.41" fill="none" stroke="#044872" stroke-miterlimit="17.1" stroke-width=".9"/>
      <line id="line124" x1="395.51" y1="245.31" x2="395.51" y2="239.41" fill="none" stroke="#044872" stroke-miterlimit="17.1" stroke-width=".9"/>
      <polygon id="polygon124" points="388.51 243.31 398.81 254.11 392.41 257.71 388.51 243.31" fill="#e87722"/>
      <polygon id="polygon125" points="388.51 243.31 398.81 254.11 402.71 268.31 392.41 257.71 388.51 243.31" fill="none" stroke="#044872" stroke-miterlimit="17.1" stroke-width=".9"/>
      <circle id="circle125" cx="395.51" cy="255.91" r="1.3" fill="#fff" stroke="#044872" stroke-miterlimit="17.1" stroke-width=".9"/>
      <path id="path125" d="M362.41,294.11c-.2-.8-.8-1.3-1.6-1.3-1.5,0-2,1.3-2,2.6s.5,2.4,2,2.4,1.6-.7,1.6-1.5v-.2h1.6c0,1.8-1.5,3.1-3.3,3.1h0c-2.1-.2-3.8-2-3.8-4.2.2-2,1.6-3.6,3.8-3.8,1.6-.2,3.1,1.1,3.3,2.8h-1.6v.1Z" fill="#044973"/>
      <path id="path126" d="M365.01,295.31c0-1.5,1.3-1.8,2.6-1.8s2.4.2,2.4,1.6v2.8c0,.5,0,.8.2,1.3h-1.5c0-.2-.2-.3-.2-.5-.5.5-1.1.7-1.8.7-1,0-1.8-.5-1.8-1.6,0-2.4,3.6-1.1,3.6-2.4s-.5-.7-1-.7-1,.2-1,.8l-1.6-.2h.1,0ZM368.41,296.41c-.2.2-.8.2-1.3.3-.5.2-.8.2-.8.8s.5.7,1,.7,1.1-.3,1.1-1v-.8h0Z" fill="#044973"/>
      <path id="path127" d="M371.11,293.61h1.5v1h0c.3-.7,1-1.1,1.8-1.1h.3v1.5h-.5c-1.1,0-1.5.8-1.5,1.8v2.4h-1.5l-.2-5.6h.1Z" fill="#044973"/>
      <path id="path128" d="M376.41,296.71c0,1,.5,1.5,1.3,1.5s1-.3,1.1-.7h1.3c-.3,1.1-1.3,2-2.6,1.8-1.5,0-2.8-1.1-2.8-2.6v-.3c-.2-1.5,1-2.8,2.6-2.9,1.5-.2,2.8,1,2.9,2.6v.8l-3.9-.2h.1ZM378.91,295.71c-.2-.8-.5-1.1-1.1-1.1s-1.1.5-1.3,1.1h2.4Z" fill="#044973"/>
      <path id="path129" d="M386.91,298.21c-.5.7-1.3,1-2.1,1-2.1-.2-3.8-2-3.8-4.2.2-2,1.6-3.6,3.8-3.8,1.6-.2,2.9,1.1,3.1,2.6h-1.6c-.2-.8-.8-1.3-1.6-1.3-1.5,0-2,1.3-2,2.6s.5,2.4,2,2.4c.8.2,1.6-.5,1.8-1.5v-.2h-1.6v-1.3h3.1v4.1h-1v-.5h-.1q0,.07,0,0v.1Z" fill="#044973"/>
      <path id="path130" d="M394.41,299.21h-1.5v-.8h0c-.3.5-1,1-1.6,1-1.6,0-2-1-2-2.3v-3.4h1.5v3.1c0,1,.2,1.3,1,1.3s1.1-.5,1.1-1.6v-2.9h1.5v5.7h0v-.1Z" fill="#044973"/>
      <path id="path131" d="M397.01,292.81h-1.5v-1.3h1.5v1.3ZM395.51,293.61h1.5v5.4h-1.5v-5.4Z" fill="#044973"/>
      <path id="path132" d="M402.11,298.41h0c-.3.5-1,.8-1.6.8-1.6,0-2.4-1.5-2.4-2.9-.2-1.3.8-2.6,2.1-2.8h.2c.7,0,1.3.3,1.6.8h0v-2.8h1.5v7.5h-1.5l.2-.7h-.1v.1ZM400.81,294.61c-1,0-1.3.8-1.3,1.8s.3,1.8,1.3,1.8,1.3-.8,1.3-1.8-.3-1.8-1.3-1.8Z" fill="#044973"/>
      <path id="path133" d="M404.71,295.31c0-1.5,1.3-1.8,2.6-1.8s2.4.2,2.4,1.6v2.8c0,.5,0,.8.2,1.3h-1.5c0-.2-.2-.3-.2-.5-.5.5-1.1.7-1.8.7-1,0-1.8-.5-1.8-1.6,0-2.4,3.8-1.1,3.6-2.4,0-.7-.5-.7-1-.7s-1,.2-1,.8l-1.6-.2h.1ZM408.11,296.41c-.2.2-.8.2-1.3.3-.5.2-.8.2-.8.8s.5.7,1,.7,1.1-.3,1.1-1v-.8Z" fill="#044973"/>
      <path id="path134" d="M410.71,293.61h1.5v.8h0c.3-.5,1-1,1.6-1,1.6,0,2,1,2,2.3v3.4h-1.5v-3.1c0-1-.3-1.3-1-1.3s-1.1.5-1.1,1.6v2.9h-1.5v-5.7h0v.1Z" fill="#044973"/>
      <path id="path135" d="M420.71,295.61c0-.5-.5-1-1.1-1h0c-1,0-1.3,1-1.3,1.8s.3,1.8,1.3,1.8,1.1-.5,1.1-1.1h1.5c-.2,1.3-1.3,2.3-2.6,2.3s-2.8-1.1-2.8-2.4v-.3c-.2-1.5,1-2.8,2.4-2.9h.3c1.3-.2,2.4.8,2.6,2.1h0l-1.5-.2h.1q0-.07,0,0v-.1Z" fill="#044973"/>
      <path id="path136" d="M424.31,296.71c0,1,.5,1.5,1.3,1.5s1-.3,1.1-.7h1.3c-.3,1.1-1.3,2-2.6,1.8-1.5,0-2.8-1.1-2.8-2.6v-.3c0-1.5,1.1-2.8,2.6-2.9,1.5,0,2.8,1.1,2.9,2.6v.7h-3.9.1v-.1ZM426.71,295.71c-.2-.8-.5-1.1-1.1-1.1s-1.1.5-1.3,1.1h2.4Z" fill="#044973"/>
      <path id="path137" d="M431.01,291.71h-.7v2.1h-.7v-2.1h-.7v-.5h2.1v.5h-.2.2ZM434.21,293.81h-.7v-1.8h0l-.7,1.8h-.5l-.7-1.8h0v1.8h-.7v-2.6h.8l.7,1.6.7-1.6h.8l.2,2.6h.1Z" fill="#044973"/>
      <path id="path138" d="M374.01,309.31c0,1,.8,1.5,1.6,1.5s1.5-.2,1.5-1-1.1-1-2.3-1.3c-1.1-.3-2.3-.7-2.3-2.1.2-1.3,1.3-2.4,2.8-2.3h0c1.6,0,3.1.7,3.1,2.4h-1.6c0-.8-.7-1.1-1.5-1.1s-1.1.2-1.1.8.3.7,2.3,1.1c.5.2,2.3.5,2.3,2.1s-1.1,2.4-3.1,2.4-3.3-.8-3.3-2.6h1.6v.1Z" fill="#044973"/>
      <path id="path139" d="M382.21,306.21c1.6,0,2.9,1.1,2.9,2.8s-1.1,2.9-2.8,2.9-2.9-1.1-2.9-2.8h0c-.2-1.5,1-2.8,2.4-2.9h.4ZM382.21,310.81c1,0,1.3-.8,1.3-1.8s-.3-1.8-1.3-1.8-1.3.8-1.3,1.8.3,1.8,1.3,1.8Z" fill="#044973"/>
      <path id="path140" d="M386.11,304.21h1.5v7.5h-1.5v-7.5Z" fill="#044973"/>
      <path id="path141" d="M393.91,311.71h-1.5v-.8h0c-.3.5-1,1-1.6,1-1.6,0-2-1-2-2.3v-3.4h1.5v3.1c0,.8.3,1.3,1,1.3s1.1-.5,1.1-1.6v-2.9h1.5v5.7h0v-.1Z" fill="#044973"/>
      <path id="path142" d="M396.91,306.41h1.1v1h-1.1v2.8c0,.5.2.7.7.7h.5v1.1h-.8c-1,0-1.8-.2-1.8-1.3v-3.3h-.8v-1h.8v-1.6h1.5v1.6h-.1Z" fill="#044973"/>
      <path id="path143" d="M400.31,305.51h-1.5v-1.3h1.5v1.3ZM398.81,306.41h1.5v5.4h-1.5v-5.4Z" fill="#044973"/>
      <path id="path144" d="M404.01,306.21c1.6,0,2.9,1.1,2.9,2.8s-1.1,2.9-2.8,2.9-2.9-1.1-2.9-2.8h0c-.2-1.5,1-2.8,2.4-2.9h.4ZM404.01,310.81c1,0,1.3-.8,1.3-1.8s-.3-1.8-1.3-1.8-1.3.8-1.3,1.8.3,1.8,1.3,1.8Z" fill="#044973"/>
      <path id="path145" d="M407.81,306.41h1.5v.7h0c.3-.5,1-1,1.6-1,1.6,0,2,1,2,2.3v3.3h-1.5v-2.9c0-.8-.2-1.3-1-1.3s-1.1.5-1.1,1.6v2.9h-1.5v-5.6Z" fill="#044973"/>
      <path id="path146" d="M415.31,310.01c0,.7.7,1,1.1,1s1-.2,1-.7-.7-.7-1.6-.8c-.9-.1-1.8-.5-1.8-1.5,0-1.5,1.1-1.8,2.4-1.8s2.3.3,2.4,1.8h-1.5c0-.7-.5-.8-1-.8s-.8,0-.8.5.8.7,1.6.8c.8.1,1.8.5,1.8,1.5,0,1.5-1.3,2-2.4,2s-2.4-.5-2.6-2h1.4Z" fill="#044973"/>
    </g>
    <g id="DataSolutions">
      <path id="path147" d="M298.91,402.41h3.3c1.8-.2,3.3,1.3,3.4,3.1v.7c.3,1.8-.8,3.4-2.6,3.8h-4.1v-7.6h0ZM300.51,408.61h1.5c1,0,1.8-.7,1.8-2.3s-.5-2.4-2.1-2.4h-1.1v4.7h-.1,0Z" fill="#044973"/>
      <path id="path148" d="M306.41,406.11c.2-1.5,1.3-1.8,2.6-1.8s2.4.2,2.4,1.6v2.8c0,.5,0,.8.2,1.1h-1.5c0-.2-.2-.3-.2-.5-.5.5-1.1.7-1.8.7-1,0-1.8-.5-1.8-1.6,0-2.4,3.8-1.1,3.6-2.4,0-.7-.5-.8-1-.8s-1,.2-1,.8l-1.6.2h.1v-.1h0ZM309.81,407.31c-.2.2-.8.2-1.3.3s-.8.2-.8.8.5.7,1,.7,1.1-.3,1.1-1v-.8h0Z" fill="#044973"/>
      <path id="path149" d="M314.41,404.51h1.1v1h-1.1v2.6c0,.5.2.7.7.7h.5v1.1h-.8c-1,0-1.6-.2-1.6-1.3v-3.3h-1v-1h1v-1.6h1.5l-.2,1.8h-.1Z" fill="#044973"/>
      <path id="path150" d="M316.21,406.11c.2-1.5,1.3-1.8,2.6-1.8s2.4.2,2.4,1.6v2.8c0,.5,0,.8.2,1.1h-1.5c0-.2-.2-.3-.2-.5-.5.5-1.1.7-1.8.7-1,0-1.8-.5-1.8-1.6,0-2.4,3.8-1.1,3.6-2.4,0-.7-.5-.8-1-.8s-1,.2-1,.8l-1.6.2h.1v-.1h0ZM319.61,407.31c-.2.2-.8.2-1.3.3s-.8.2-.8.8.5.7,1,.7,1.1-.3,1.1-1v-.8h0Z" fill="#044973"/>
      <path id="path151" d="M288.31,420.01c0,1,.8,1.5,1.6,1.5s1.5-.2,1.5-1-1.1-1-2.3-1.3c-1.1-.3-2.3-.8-2.3-2.1s1.5-2.3,2.8-2.3,2.9.7,2.9,2.4h-1.6c0-.8-.7-1.1-1.5-1.1s-1.1.2-1.1.8.3.7,2.3,1.1c.5.2,2.3.5,2.3,2.1s-1.1,2.4-3.1,2.4-3.3-.8-3.3-2.6h1.8v.1h0Z" fill="#044973"/>
      <path id="path152" d="M296.41,416.91c1.6,0,2.9,1.1,2.9,2.8s-1.1,2.9-2.8,2.9-2.9-1.1-2.9-2.8h0c-.2-1.5,1-2.8,2.4-2.9h.4ZM296.41,421.61c1,0,1.3-.8,1.3-1.8s-.3-1.8-1.3-1.8-1.3.8-1.3,1.8.3,1.8,1.3,1.8Z" fill="#044973"/>
      <path id="path153" d="M300.41,415.11h1.5v7.5h-1.5v-7.5Z" fill="#044973"/>
      <path id="path154" d="M308.01,422.61h-1.5v-.8h0c-.3.5-1,1-1.6,1-1.6,0-2-.8-2-2.3v-3.3h1.5v3.1c0,.8.3,1.3,1,1.3s1.1-.5,1.1-1.6v-2.9h1.5v5.6h0v-.1Z" fill="#044973"/>
      <path id="path155" d="M311.11,417.11h1.1v1h-1.1v2.8c0,.5.2.7.7.7h.5v1.1h-.8c-1,0-1.8-.2-1.8-1.3v-3.3h-1v-1h1v-1.6h1.5v1.6h-.1Z" fill="#044973"/>
      <path id="path156" d="M314.41,416.21h-1.5v-1.3h1.5v1.3ZM312.91,417.11h1.5v5.4h-1.5v-5.4Z" fill="#044973"/>
      <path id="path157" d="M318.31,416.91c1.6,0,2.9,1.1,2.9,2.8s-1.1,2.9-2.8,2.9-2.9-1.1-2.9-2.8h0c-.2-1.5,1-2.8,2.4-2.9h.4ZM318.31,421.61c1,0,1.3-.8,1.3-1.8s-.3-1.8-1.3-1.8-1.3.8-1.3,1.8.3,1.8,1.3,1.8Z" fill="#044973"/>
      <path id="path158" d="M322.11,417.11h1.5v.8h0c.3-.5,1-1,1.6-1,1.6,0,2,.8,2,2.3v3.4h-1.5v-3.1c0-.8-.2-1.3-1-1.3s-1.1.5-1.1,1.6v2.9h-1.5v-5.7h0v.1Z" fill="#044973"/>
      <path id="path159" d="M329.61,420.81c0,.7.7,1,1.1,1s1-.2,1-.7-.7-.7-1.6-.8-1.6-.5-1.6-1.5c0-1.5,1.1-1.8,2.4-1.8s2.3.3,2.4,1.8h-1.5c0-.7-.5-.8-1-.8s-.8,0-.8.5.8.7,1.6.8c.8.1,1.8.5,1.8,1.5,0,1.5-1.3,2-2.4,2s-2.4-.5-2.6-2h1.2Z" fill="#044973"/>
      <path id="path160" d="M307.91,352.91c-10.4,0-19.1,3.1-19.1,7v24.8c0,3.9,8.5,7,19.1,7s19.1-3.1,19.1-7v-24.8c0-3.9-8.5-7-19.1-7Z" fill="#fff" stroke="#013d5b" stroke-miterlimit="17.1"/>
      <path id="path161" d="M327.01,385.41s-1.8,5.1-13.2,5.7l5.4-25.5c3.3-.3,6-2,8-4.6v24.3h-.2v.1Z" isolation="isolate" opacity=".1"/>
      <path id="path162" d="M288.81,359.91v24.8c0,3.9,8.5,7,19.1,7s19.1-3.1,19.1-7v-24.8" fill="none" stroke="#013d5b" stroke-miterlimit="17.1"/>
      <path id="path163" d="M327.01,376.71c0,3.9-8.5,7-19.1,7s-19.1-3.1-19.1-7" fill="none" stroke="#013d5b" stroke-miterlimit="17.1"/>
      <path id="path164" d="M327.01,368.71c0,3.9-8.5,7-19.1,7s-19.1-3.1-19.1-7" fill="none" stroke="#013d5b" stroke-miterlimit="17.1"/>
      <ellipse id="ellipse164" cx="307.91" cy="359.91" rx="19.1" ry="7" fill="none" stroke="#013d5b" stroke-miterlimit="17.1"/>
      <line id="line164" x1="327.01" y1="391.91" x2="327.01" y2="351.41" fill="none" stroke="#013d5b" stroke-miterlimit="17.1"/>
      <polygon id="polygon164" points="330.41 352.61 326.81 346.71 323.21 352.61 330.41 352.61" fill="#00a2c5" stroke="#013d5b" stroke-miterlimit="17.1"/>
      <polyline id="polyline164" points="319.31 366.11 319.31 375.71 327.01 382.91" fill="none" stroke="#013d5b" stroke-miterlimit="17.1"/>
      <polyline id="polyline165" points="333.81 362.21 333.81 369.11 327.01 375.61" fill="none" stroke="#013d5b" stroke-miterlimit="17.1"/>
      <circle id="circle165" cx="319.31" cy="365.11" r="3.3" fill="#f57f29" stroke="#013d5b" stroke-miterlimit="17.1"/>
      <circle id="circle166" cx="327.01" cy="389.11" r="4.1" fill="#00a2c5" stroke="#013d5b" stroke-miterlimit="17.1"/>
      <rect id="rect166" x="330.61" y="357.11" width="6" height="6" fill="#84bd00" stroke="#013d5b" stroke-miterlimit="17.1"/>
    </g>
    <g id="PlexusServices">
      <circle id="circle167" cx="166.81" cy="370.81" r="21.6" fill="#fff" stroke="#044872" stroke-miterlimit="17.1" stroke-width=".9"/>
      <path id="path166" d="M151.11,385.71c3.6,3.9,13.6.3,22.2-7.8,8.6-8.1,12.7-18,9-21.7" fill="none" stroke="#044872" stroke-miterlimit="17.1" stroke-width="1.1"/>
      <path id="path167" d="M181.71,386.51c3.9-3.6.3-13.6-7.8-22.2-8.1-8.6-18-12.7-21.9-9" fill="none" stroke="#044872" stroke-miterlimit="17.1" stroke-width=".9"/>
      <path id="path168" d="M152.01,355.21c-3.9,3.6-.3,13.6,7.8,22.2,8.2,8.7,18,12.7,21.7,9" fill="none" stroke="#044872" stroke-miterlimit="17.1" stroke-width=".9"/>
      <path id="path169" d="M182.31,356.01c-3.6-3.9-13.6-.3-22.2,7.8-8.7,8.2-12.7,18-9,21.7" fill="none" stroke="#044872" stroke-miterlimit="17.1" stroke-width=".9"/>
      <circle id="circle169" cx="152.31" cy="355.21" r="4.2" fill="#84bd00" stroke="#044872" stroke-miterlimit="17.1" stroke-width=".9"/>
      <circle id="circle170" cx="179.21" cy="370.81" r="4.2" fill="#00a2c5" stroke="#044872" stroke-miterlimit="17.1" stroke-width=".9"/>
      <circle id="circle171" cx="159.51" cy="376.91" r="4.2" fill="#e87722" stroke="#044872" stroke-miterlimit="17.1" stroke-width=".9"/>
      <path id="path171" d="M147.71,401.71h3.4c1.3,0,2.4,1.1,2.4,2.4s-1.1,2.4-2.4,2.4h-1.8v2.6h-1.6v-7.5h0v.1ZM149.31,405.31h1.3c.8,0,1.5-.2,1.5-1.1s-.7-1.1-1.5-1.1h-1.3v2.3h0q0-.07,0,0v-.1Z" fill="#044973"/>
      <path id="path172" d="M154.71,401.71h1.5v7.5h-1.5v-7.5Z" fill="#044973"/>
      <path id="path173" d="M158.51,406.91c0,1,.5,1.3,1.3,1.3s1-.3,1.1-.7h1.3c-.3,1.1-1.3,2-2.6,1.8-1.5,0-2.8-1-2.8-2.4v-.3c-.2-1.5,1-2.8,2.6-2.9,1.6-.2,2.8,1,2.9,2.6v.8h-3.9v-.2h.1ZM160.91,406.01c-.2-.8-.5-1.1-1.1-1.1s-1.1.5-1.3,1.1h2.4Z" fill="#044973"/>
      <path id="path174" d="M164.91,406.41l-1.8-2.6h1.6l1,1.5,1-1.5h1.6l-1.8,2.6,2,2.9h-1.6l-1.1-1.6-1.1,1.6h-1.6l2-2.9h-.2Z" fill="#044973"/>
      <path id="path175" d="M174.21,409.21h-1.5v-.8h0c-.3.5-1,.8-1.6.8-1.6,0-2-.8-2-2.3v-3.4h1.5v3.1c0,.8.3,1.3,1,1.3s1.1-.5,1.1-1.6v-2.8h1.5v5.7Z" fill="#044973"/>
      <path id="path176" d="M176.41,407.41c0,.7.7,1,1.1,1s1-.2,1-.7-.7-.7-1.6-.8-1.8-.5-1.8-1.5c0-1.5,1.1-1.8,2.4-1.8s2.3.3,2.4,1.8h-1.5c0-.7-.5-.8-1-.8s-.8,0-.8.5.8.7,1.6.8c.8.1,1.8.5,1.8,1.5,0,1.5-1.3,2-2.4,2s-2.4-.5-2.6-2h1.4Z" fill="#044973"/>
      <path id="path177" d="M182.81,401.91h-.7v2h-.7v-2h-.7v-.5h2.1v.5h-.2.2ZM186.11,403.81h-.7v-1.8h0l-.7,1.8h-.5l-.7-1.8h0v1.8h-.7v-2.4h.8l.7,1.6.7-1.6h.8l.2,2.4h.1Z" fill="#044973"/>
      <path id="path178" d="M147.21,419.51c0,1,.8,1.5,1.6,1.5s1.5-.2,1.5-1-1.1-1-2.3-1.3c-1.1-.3-2.3-.8-2.3-2.1s1.5-2.3,2.8-2.3,3.1.7,3.1,2.4h-1.6c0-.8-.7-1.1-1.5-1.1s-1.1.2-1.1.8.3.7,2.3,1.1c.5.2,2.3.5,2.3,2.3s-1,2.4-3.1,2.4-3.3-.8-3.3-2.6h1.6v-.2h0v.1Z" fill="#044973"/>
      <path id="path179" d="M153.91,419.51c0,1,.5,1.5,1.3,1.5s1-.3,1.1-.7h1.3c-.3,1.1-1.3,2-2.6,1.8-1.5,0-2.8-1.1-2.8-2.6v-.3c-.2-1.5,1-2.8,2.6-2.9,1.6-.2,2.8,1,2.9,2.6v.8h-3.9v-.2h.1ZM156.41,418.71c-.2-.8-.5-1.1-1.1-1.1s-1.1.5-1.3,1.1v.2h2.4v-.2Z" fill="#044973"/>
      <path id="path180" d="M158.81,416.41h1.5v1h0c.3-.7,1-1.1,1.8-1.1h.3v1.5h-.5c-1.1,0-1.5.8-1.5,1.8v2.4h-1.5l-.2-5.6h.1Z" fill="#044973"/>
      <path id="path181" d="M165.81,422.01h-1.6l-1.8-5.6h1.6l1.1,3.8h0l1.1-3.8h1.5l-2,5.6h.1,0Z" fill="#044973"/>
      <path id="path182" d="M169.91,415.61h-1.5v-1.3h1.5v1.3ZM168.41,416.41h1.5v5.4h-1.5v-5.4Z" fill="#044973"/>
      <path id="path183" d="M174.81,418.41c0-.5-.5-1-1-1h0c-1,0-1.3,1-1.3,1.8s.3,1.8,1.3,1.8,1.1-.5,1.1-1h1.5c-.2,1.3-1.3,2.3-2.6,2.3s-2.6-1-2.8-2.4v-.3c-.2-1.5,1-2.8,2.4-2.9h.3c1.3-.2,2.4.8,2.6,2h-1.6v-.2h.1q0-.07,0,0v-.1Z" fill="#044973"/>
      <path id="path184" d="M178.41,419.51c0,1,.5,1.5,1.3,1.5s1-.3,1.1-.7h1.3c-.3,1.1-1.3,2-2.6,1.8-1.5,0-2.8-1.1-2.8-2.6v-.3c-.2-1.5,1-2.8,2.6-2.9,1.6-.2,2.8,1,2.9,2.6v.8h-3.9v-.2h.1ZM180.91,418.71c-.2-.8-.5-1.1-1.1-1.1s-1.1.5-1.3,1.1h2.4Z" fill="#044973"/>
      <path id="path185" d="M184.31,420.21c0,.7.5,1,1.1,1s1-.2,1-.7-.7-.7-1.6-.8-1.8-.5-1.8-1.5c0-1.5,1.1-1.8,2.3-1.8s2.3.3,2.4,1.8h-1.5c0-.7-.5-.8-1-.8s-.8,0-.8.5.8.7,1.6.8c.8.1,1.8.5,1.8,1.5,0,1.5-1.3,2-2.4,2s-2.4-.5-2.6-2h1.5Z" fill="#044973"/>
    </g>
    <g id="CareRecord">
      <rect id="rect185" x="212.71" y="44.01" width="50.9" height="36.1" fill="#fff" stroke="#044872" stroke-miterlimit="17.1" stroke-width=".9"/>
      <rect id="rect186" x="216.61" y="47.91" width="43.1" height="24.3" fill="#00a2c5" stroke="#044872" stroke-miterlimit="17.1" stroke-width=".9"/>
      <rect id="rect187" x="230.71" y="80.11" width="14.9" height="4.9" fill="#fff" stroke="#044872" stroke-miterlimit="17.1" stroke-width=".9"/>
      <polygon id="polygon187" points="245.71 84.81 243.41 84.81 230.71 80.11 245.71 80.11 245.71 84.81" isolation="isolate" opacity=".1"/>
      <rect id="rect188" x="225.11" y="84.81" width="26.1" height="2.4" fill="#fff" stroke="#044872" stroke-miterlimit="17.1" stroke-width=".9"/>
      <rect id="rect189" x="221.01" y="51.71" width="34.3" height="16.7" fill="#fff" stroke="#044872" stroke-miterlimit="17.1" stroke-width=".9"/>
      <polygon id="polygon189" points="227.51 58.41 224.41 58.41 224.41 61.81 227.51 61.81 227.51 64.71 230.81 64.71 230.81 61.81 233.91 61.81 233.91 58.41 230.81 58.41 230.81 55.41 227.51 55.41 227.51 58.41" fill="#e87722"/>
      <polygon id="polygon190" points="227.51 58.41 224.41 58.41 224.41 61.81 227.51 61.81 227.51 64.71 230.81 64.71 230.81 61.81 233.91 61.81 233.91 58.41 230.81 58.41 230.81 55.41 227.51 55.41 227.51 58.41" fill="none" stroke="#023d5b" stroke-miterlimit="17.1" stroke-width=".9"/>
      <line id="line190" x1="237.31" y1="56.61" x2="249.81" y2="56.61" fill="none" stroke="#044872" stroke-miterlimit="17.1" stroke-width=".9"/>
      <line id="line191" x1="237.31" y1="60.01" x2="249.81" y2="60.01" fill="none" stroke="#044872" stroke-miterlimit="17.1" stroke-width=".9"/>
      <line id="line192" x1="237.31" y1="63.41" x2="245.71" y2="63.41" fill="none" stroke="#044872" stroke-miterlimit="17.1" stroke-width=".9"/>
      <path id="path192" d="M210.41,97.21c-.2-.8-.8-1.3-1.6-1.3-1.5,0-2,1.3-2,2.6s.5,2.4,2,2.4,1.6-.7,1.6-1.6h1.6c-.2,1.8-1.5,3.1-3.3,3.1-2.1-.2-3.8-2-3.8-4.2.2-2,1.6-3.6,3.8-3.8,1.6-.2,3.1,1.1,3.3,2.8h-1.6Z" fill="#044973"/>
      <path id="path193" d="M213.01,98.41c.2-1.5,1.3-1.8,2.6-1.8s2.4.3,2.4,1.6v2.8c0,.5,0,.8.2,1.3h-1.5c0-.2-.2-.3-.2-.5-.5.5-1.1.7-1.8.7-1,0-1.8-.5-1.8-1.6,0-2.4,3.8-1.1,3.6-2.4,0-.7-.5-.7-1-.7s-1,.2-1,.8l-1.6-.2h.1,0ZM216.41,99.51c-.3.2-.8.3-1.3.3s-.8.3-.8.8.5.7,1,.7,1.1-.3,1.1-1v-.8h0Z" fill="#044973"/>
      <path id="path194" d="M219.21,96.71h1.5v1h0c.3-.7,1-1.1,1.8-1.1h.3v1.5h-.5c-1.1,0-1.5.8-1.5,1.8v2.4h-1.5l-.2-5.6h.1Z" fill="#044973"/>
      <path id="path195" d="M224.41,99.81c0,1,.5,1.3,1.3,1.3s1-.3,1.1-.7h1.3c-.3,1.1-1.3,2-2.6,1.8-1.5,0-2.8-1.1-2.8-2.6v-.3c0-1.5,1.1-2.8,2.6-2.9,1.5,0,2.8,1.1,2.9,2.6v.7l-3.9.2h.1s0,0,0,0v-.1ZM226.91,98.81c-.2-.8-.5-1.1-1.1-1.1s-1.1.5-1.3,1.1h2.4Z" fill="#044973"/>
      <path id="path196" d="M229.51,94.81h4.1c1.1,0,2.1.8,2.1,2v.2c0,.8-.5,1.6-1.1,2h0c.8.2,1,1,1.1,1.8,0,.7,0,1.1.3,1.8h-1.6c-.2-.7-.2-1.1-.3-1.8-.2-.8-.5-1.1-1.3-1.1h-1.6v2.9h-1.6v-7.7h-.1v-.1ZM231.11,98.21h1.8c.7,0,1.1-.3,1.1-1.1s-.3-1-1.1-1h-1.8v2.1Z" fill="#044973"/>
      <path id="path197" d="M238.21,99.81c0,1,.5,1.3,1.3,1.3s1-.3,1.1-.7h1.3c-.3,1.1-1.3,2-2.6,1.8-1.5,0-2.8-1.1-2.8-2.6v-.3c-.2-1.5,1-2.8,2.6-2.9,1.5-.2,2.8,1,2.9,2.6v.8h-3.9.1ZM240.61,98.81c-.2-.8-.5-1.1-1.1-1.1s-1.1.5-1.3,1.1h2.4Z" fill="#044973"/>
      <path id="path198" d="M246.71,98.71c0-.5-.5-1-1-1h0c-1,0-1.3,1-1.3,1.8s.3,1.8,1.3,1.8,1.1-.5,1.1-1.1h1.5c-.2,1.3-1.3,2.3-2.6,2.3s-2.8-1.1-2.8-2.4v-.3c-.2-1.5,1-2.8,2.4-2.9h.3c1.3-.2,2.4.8,2.6,2.1h-1.6v-.2s.1,0,.1-.1h0Z" fill="#044973"/>
      <path id="path199" d="M251.71,96.61c1.6,0,2.9,1.1,2.9,2.8s-1.1,2.9-2.8,2.9-2.9-1.1-2.9-2.8v-.2c-.2-1.5,1-2.8,2.4-2.9.1,0,.2.2.3.2h.1ZM251.71,101.31c1,0,1.3-.8,1.3-1.8s-.3-1.8-1.3-1.8-1.3.8-1.3,1.8.3,1.8,1.3,1.8Z" fill="#044973"/>
      <path id="path200" d="M255.51,96.71h1.5v1h0c.3-.7,1-1.1,1.8-1.1h.3v1.5h-.5c-1.1,0-1.5.8-1.5,1.8v2.4h-1.6v-5.6h0Z" fill="#044973"/>
      <path id="path201" d="M263.51,101.51h0c-.3.5-1,.8-1.6.8-1.5,0-2.6-1.3-2.4-2.8v-.2c-.2-1.5.8-2.6,2.3-2.8h.2c.7,0,1.3.3,1.6.8h0v-2.6h1.5v7.5h-1.5v-.8h-.1v.1ZM262.21,97.71c-1,0-1.3.8-1.3,1.8s.3,1.8,1.3,1.8,1.3-.8,1.3-1.8-.3-1.8-1.3-1.8Z" fill="#044973"/>
      <path id="path202" d="M267.91,94.81h-.7v2h-.7v-2h-.7v-.5h2.1v.5h-.2.2ZM271.11,96.71h-.7v-1.8h0l-.7,1.8h-.5l-.7-1.8h0v1.8h-.7v-2.4h.8l.7,1.6.7-1.6h.8l.2,2.4h.1Z" fill="#044973"/>
    </g>
    <g id="CareRecord_divs" data-name="CareRecord divs">
      <g id="g253">
        <path id="path236" d="M253.81,11.71h0c0-.4,0-.6-.3-.7-.2,0-.4.2-.4.4,0,.9,2,.6,1.8,2.3,0,1-.7,1.4-1.8,1.3-1,0-1.5-.4-1.5-1.4v-.2h1.2v.2c0,.4.1.6.4.6s.4-.2.4-.4c0-.9-1.9-.6-1.8-2.3,0-.9.6-1.4,1.6-1.3,1,0,1.5.6,1.4,1.5h-1.1.1Z" fill="#808387"/>
        <path id="path237" d="M256.21,10.61l1.8.2c.9,0,1.3.7,1.2,1.5,0,1-.7,1.4-1.6,1.3h-.4v1.7c-.1,0-1.3-.1-1.3-.1l.4-4.6h-.1ZM257.31,12.71h.2c.3,0,.5-.1.5-.6s-.1-.6-.4-.6h-.2v1.2h-.1Z" fill="#808387"/>
        <path id="path238" d="M260.41,11.01l2.7.3v1c-.1,0-1.6-.2-1.6-.2v.8h1.4c0,.1-.1,1-.1,1h-1.5c0-.1-.1.8-.1.8l1.6.2v1c-.1,0-2.9-.3-2.9-.3l.6-4.6h-.1Z" fill="#808387"/>
        <path id="path239" d="M266.01,13.01c0-.6,0-.7-.2-.7-.4,0-.4.3-.6,1.5-.1,1.2-.1,1.6.2,1.6s.4-.2.5-1.1h1.2v.5c-.2,1.3-1,1.5-1.8,1.4-1.3-.2-1.6-.8-1.3-2.6.3-1.8.7-2.3,2-2.2,1.1.1,1.4.7,1.3,1.6v.3h-1.2v-.4s-.1.1-.1,0v.1Z" fill="#808387"/>
        <path id="path240" d="M268.51,11.91l1.2.2-.6,4.6-1.2-.2.6-4.6Z" fill="#808387"/>
        <path id="path241" d="M271.71,12.41l1.5.2.4,4.8-1.3-.2v-.8h-1c0-.1-.2.7-.2.7l-1.3-.2,1.8-4.5h.1ZM272.31,13.41h0l-.6,1.9h.7c0,.1,0-1.9,0-1.9h-.1Z" fill="#808387"/>
        <path id="path242" d="M275.21,12.91l1.2.2-.6,3.6,1.5.2-.2,1-2.7-.4.8-4.6h0Z" fill="#808387"/>
        <path id="path243" d="M278.81,14.61l-.9-.2.2-1,3,.6-.2,1-.9-.2-.7,3.5-1.2-.2.7-3.5h0Z" fill="#808387"/>
        <path id="path244" d="M282.31,17.01l-.6-3,1.3.2v1.7h.1l.8-1.5,1.3.2-1.7,2.6-.4,1.8-1.2-.2.4-1.8h0Z" fill="#808387"/>
        <path id="path245" d="M288.31,15.41l1.8.4c.9.2,1.2.9,1,1.7-.2.9-.8,1.3-1.8,1h-.4c0-.1-.4,1.6-.4,1.6l-1.2-.2,1-4.5ZM289.11,17.61h.2c.3.1.5,0,.6-.4,0-.4,0-.6-.3-.7h-.2l-.3,1h0v.1Z" fill="#808387"/>
        <path id="path246" d="M292.51,16.41l1.8.4c.9.2,1.1.8.9,1.5-.1.6-.5.9-1,.8h0c.6.2.6.6.5,1.2v.4c-.1.2-.2.6-.2.6,0,0,0,.1.1.2h0l-1.3-.2c0-.2,0-.7.1-.9v-.3c.2-.5.1-.7-.2-.7h-.3l-.4,1.8-1.2-.3,1.2-4.5ZM293.21,18.61h.2c.3.1.6,0,.6-.4.1-.4,0-.6-.4-.7h-.2l-.2,1h0v.1Z" fill="#808387"/>
        <path id="path247" d="M297.61,17.71l1.5.4v4.8c-.1,0-1.3-.3-1.3-.3v-.8c.1,0-.8-.2-.8-.2l-.3.7-1.2-.3,2.2-4.2h-.1v-.1h0ZM298.11,18.81h0l-.8,1.8.7.2.2-2h-.1Z" fill="#808387"/>
        <path id="path248" d="M302.41,20.51c.1-.5.1-.7-.1-.7-.4-.1-.5.2-.8,1.4s-.4,1.5,0,1.6c.3,0,.4-.1.7-1l1.1.3v.3c-.5,1.3-1.3,1.3-2.1,1.1-1.3-.4-1.4-1.1-.9-2.8s1-2.2,2.3-1.8c1,.3,1.3,1,1,1.8v.3l-1.2-.3v-.2c.1,0,0,0,0,0h0Z" fill="#808387"/>
        <path id="path249" d="M305.31,21.01l-.8-.2.3-1,2.9.9-.3,1-.8-.2-1,3.5-1.2-.4,1-3.5h0s-.1-.1-.1,0v-.1Z" fill="#808387"/>
        <path id="path250" d="M308.61,20.91l1.2.4-1.4,4.4-1.2-.4,1.4-4.4Z" fill="#808387"/>
        <path id="path251" d="M312.21,23.51c.2-.5.1-.7-.1-.7-.4-.1-.5.2-.9,1.4s-.5,1.5-.1,1.6c.3.1.4-.1.7-1l1.1.4v.3c-.5,1.2-1.3,1.3-2.1,1-1.3-.4-1.3-1.2-.8-2.8.6-1.7,1.2-2.1,2.3-1.8,1,.4,1.2,1,1,1.9v.3c-.1,0-1.2-.4-1.2-.4v-.3h.1v.1Z" fill="#808387"/>
        <path id="path252" d="M314.91,23.01l2.6.9-.3.9-1.5-.5-.2.7,1.3.5-.3.9-1.3-.5-.3.8,1.5.6-.3.9-2.6-.9,1.4-4.4h0v.1h0Z" fill="#808387"/>
        <path id="path253" d="M319.91,26.21h0c.2-.4.1-.6,0-.7-.2-.1-.4,0-.5.2-.3.8,1.7,1.2,1.1,2.7-.4.9-1,1.2-2.1.7-.9-.4-1.3-.8-1-1.8h0c0-.1,1.2.3,1.2.3h0c-.2.5-.1.7.1.8.2,0,.4,0,.6-.3.3-.8-1.6-1.1-1-2.6.3-.8,1-1.2,2-.8s1.3.9.9,1.9l-1.2-.5h0s-.1.1-.1,0v.1Z" fill="#808387"/>
      </g>
      <g id="g263">
        <path id="path254" d="M165.71,22.51l2.6-.8.3.9-1.5.5.2.7,1.3-.4.3.9-1.3.4.3.8,1.5-.5.3.9-2.7.8-1.5-4.3h.2v.1h0Z" fill="#828185"/>
        <path id="path255" d="M169.51,21.31l1.3-.4,1.6,2.5h0l-.8-2.7,1.1-.3,1.4,4.5-1.3.4-1.6-2.5h0l.8,2.7-1.1.3-1.3-4.4h-.1v-.1Z" fill="#828185"/>
        <path id="path256" d="M174.71,20.71l-.8.2-.3-1,2.9-.8.3,1-.8.2,1,3.5-1.2.4-1.1-3.5h0Z" fill="#828185"/>
        <path id="path257" d="M177.41,18.91l2.7-.7.2,1-1.5.4.2.8,1.4-.4.2.9-1.4.4.2.9,1.5-.4.2,1-2.7.7-1.2-4.6h.2Z" fill="#828185"/>
        <path id="path258" d="M181.31,17.91l1.8-.5c.9-.2,1.3.2,1.5.9.2.6,0,1-.5,1.3h0c.6,0,.8.2,1,.8v.4c.2.2.2.6.4.6h.2c0,.1-1.2.5-1.2.5-.2-.2-.3-.7-.3-.8v-.3c-.2-.5-.3-.6-.6-.6h-.3l.4,1.9-1.2.3-1.2-4.5h0ZM183.01,19.51h.2c.3-.1.4-.4.4-.7-.1-.4-.3-.5-.6-.4h-.2l.2,1.2h0v-.1Z" fill="#828185"/>
        <path id="path259" d="M185.61,16.81l1.8-.4c.9-.2,1.5.3,1.6,1.1.2.9-.2,1.5-1.2,1.8h-.4c0,.1.4,1.8.4,1.8l-1.2.3-1.1-4.6h.1ZM187.21,18.51h.2c.3-.1.4-.4.3-.7,0-.4-.3-.5-.6-.4h-.2l.3,1.2h0v-.1Z" fill="#828185"/>
        <path id="path260" d="M189.71,15.81l1.8-.4c.9-.2,1.3.2,1.5.9.1.6,0,1-.6,1.2h0c.6,0,.8.2,1,.8v.4c.1.2.2.6.2.6h.2c0,.1-1.3.4-1.3.4-.2-.2-.2-.7-.3-.8v-.3c-.2-.5-.3-.6-.6-.6h-.3l.4,1.9-1.2.2-.9-4.5h0v.2h.1,0ZM191.31,17.51h.2c.4-.1.4-.4.4-.7s-.2-.5-.6-.4h-.2l.2,1.2h0v-.1Z" fill="#828185"/>
        <path id="path261" d="M194.01,14.91l1.2-.2.9,4.6-1.2.2-.9-4.6Z" fill="#828185"/>
        <path id="path262" d="M198.41,15.51h0c0-.4-.2-.6-.4-.5-.2,0-.3.2-.3.5.2.9,2,.1,2.3,1.8.2,1-.3,1.5-1.3,1.7s-1.6,0-1.8-1v-.2l1.2-.2h0c0,.5.2.6.5.6s.4-.2.3-.5c-.2-.9-2-.1-2.3-1.7-.2-.9.2-1.5,1.2-1.7s1.6.2,1.7,1.2h-1.1Z" fill="#828185"/>
        <path id="path263" d="M200.61,13.71l2.7-.4.2,1-1.5.2v.8c.1,0,1.5-.2,1.5-.2l.2.9-1.4.2v.9c.1,0,1.7-.2,1.7-.2l.2,1-2.7.5-.8-4.6h-.1q0-.07,0,0v-.1Z" fill="#828185"/>
      </g>
      <path id="path264" d="M237.61,16.81h-.5v-8.3h.5v8.3Z" fill="#a5a5a9"/>
    </g>
    <g id="CareWheel">
      <path id="path724" d="M131.82,27.54l1.11,2.19-1.11-2.19s0,0,0,0h0ZM133.12,29.75s-.09.05-.14.07l.1.2C66.85,63.73,22.77,120.98,8.87,191.17l5.93,1.29.04-.18,8.32,1.72-.06.27,3.38.74.83.16c12.78-64.76,53.04-117.5,114.35-148.63l-4.39-8.65-4.15-8.15Z" fill="#f0f1f1"/>
      <path id="path723" d="M407.97,374.98c-42.51,53.43-101.71,82.01-167.3,81.62l-.02,3.5h.39s.05,8.5.05,8.5h-.47s.07,7.01.07,7.01c71.33.18,135.95-31.03,182.02-88.81l-.04-.03c.05-.07.1-.13.16-.2l-4.37-3.41.14.11-.31.39-6.65-5.29.26-.33-3.91-3.05Z" fill="#f0f1f1"/>
      <path id="path722" d="M339.34,26.31l-2.41,4.99.14.07-3.61,7.7-.2-.09-1.97,4.23c62.71,29.2,104.93,80.93,119.65,145.82l12.3-2.63.95-.21v-.05s5.12-1.21,5.12-1.21c-16.11-70.38-62.35-127.02-129.98-158.61Z" fill="#f0f1f1"/>
      <path id="path721" d="M5.45,190.64c-15.4,70.78,2.04,141.96,49.83,199.92l.22-.17-.15-.18.17-.14.15.18.28-.22s-.06-.07-.09-.11c0,0-.01-.01-.02-.02-.03-.03-.05-.07-.08-.1h0C8.43,332.42-8.92,261.39,6.25,191.14l-.8-.16s.02-.08.03-.13h0s.04-.2.04-.2h-.05Z" fill="#e77722"/>
      <path id="path720" d="M55.95,390.03l-.28.22.17.21-.17.14-.17-.21-.22.17c45.19,56.67,110.04,89.14,185.32,88.44v-1c-74.68.7-139.54-31.84-184.65-87.98h0Z" fill="#0092b1"/>
      <path id="path719" d="M472.68,184.35l-.07.02.06.28-.84.2c15.71,73.79-1.95,145.05-47.08,203.01l.85.67c45.49-58.7,62.94-129.75,47.07-204.18h0ZM422.83,386.56c-.05.07-.1.13-.16.2l.04.03c.05-.07.11-.13.16-.2l-.04-.03Z" fill="#753bbc"/>
      <path id="path718" d="M236.67.03c-35.45.57-71.11,9.45-105.23,26.76l1.49,2.94.05.1s.09-.05.14-.07l-1.16-2.28C165.72,10.27,201.3,1.4,236.71.82c35.35-.57,70.53,7.12,103.58,23.06l.34-.72C307.36,7.21,272.12-.54,236.67.03h0ZM132.44,26.39l.06.13-.45.23-.06-.13.45-.22Z" fill="#0076a7"/>
      <path id="path717" d="M132.44,26.39l-.45.22.06.13.45-.23-.06-.13ZM143.99,49.28l-.45.22,3.83,7.59.45-.23-3.83-7.59ZM151.65,64.46l-.45.23,3.83,7.59.45-.22-3.83-7.59ZM159.31,79.64l-.45.22,3.83,7.59.45-.22-3.83-7.59ZM166.97,94.81l-.45.23,3.83,7.59.45-.22-3.83-7.59ZM174.63,109.99l-.45.22,3.83,7.59.45-.22-3.83-7.59ZM182.29,125.17l-.45.23,3.83,7.59.45-.23-3.83-7.59ZM189.95,140.35l-.45.22,3.83,7.59.45-.22-3.83-7.59ZM197.61,155.52l-.45.22,3.83,7.59.45-.23-3.83-7.59ZM205.27,170.7l-.45.23,3.83,7.59.45-.22-3.83-7.59ZM212.93,185.87l-.45.22,3.83,7.59.45-.22-3.83-7.59ZM220.59,201.05l-.45.23,3.83,7.59.45-.23-3.83-7.59ZM228.25,216.23l-.45.22,3.83,7.59.45-.22-3.83-7.59ZM235.91,231.4l-.45.22,3.6,7.12.32.07.13-.29-3.6-7.13Z" fill="#a6a7aa"/>
      <path id="path716" d="M336.93,31.3l-3.7,7.65.24.11,3.61-7.7-.14-.07ZM329.4,46.55l-3.6,7.7.45.21,3.6-7.7-.45-.21ZM322.19,61.95l-3.6,7.7.45.21,3.61-7.7-.45-.21ZM314.99,77.35l-3.61,7.7.45.21,3.61-7.7-.45-.21ZM307.78,92.74l-3.61,7.7.45.21,3.6-7.7-.45-.21ZM300.57,108.14l-3.6,7.7.45.21,3.6-7.7-.45-.21ZM293.36,123.53l-3.61,7.7.45.21,3.61-7.7-.45-.21ZM286.15,138.93l-3.61,7.7.45.21,3.61-7.7-.45-.21ZM278.94,154.32l-3.61,7.7.45.21,3.6-7.7-.45-.21ZM271.73,169.72l-3.6,7.7.45.21,3.6-7.7-.45-.21ZM264.52,185.11l-3.61,7.7.45.21,3.61-7.7-.45-.21ZM257.31,200.51l-3.61,7.7.45.21,3.61-7.7-.45-.21ZM250.1,215.91l-3.61,7.7.45.21,3.6-7.7-.45-.21ZM242.89,231.3l-3.52,7.52.19.04-.05.24h.25s0,.05,0,.05l3.58-7.65-.45-.21Z" fill="#a6a7aa"/>
      <path id="path715" d="M472.6,184.34l-3.24.74,2.42-.52c.02.09.04.18.06.28l.84-.2-.07-.3ZM469.36,185.08c-.01-.05-.02-.11-.04-.16l-5.13,1.21v.06s5.17-1.1,5.17-1.1ZM450.89,189.25l-3.46.81.12.49,3.44-.81c-.03-.16-.07-.33-.1-.49ZM439.07,192.02l-8.37,1.96.11.49,8.37-1.96-.11-.49ZM422.32,195.95l-8.37,1.96.12.49,8.37-1.96-.12-.49ZM405.58,199.88l-8.37,1.96.11.49,8.37-1.96-.11-.49ZM388.83,203.81l-8.37,1.96.12.49,8.37-1.96-.12-.49ZM372.09,207.74l-8.37,1.96.11.49,8.37-1.96-.11-.49ZM355.34,211.67l-8.37,1.96.12.49,8.37-1.96-.12-.49ZM338.6,215.6l-8.37,1.96.11.49,8.37-1.96-.11-.49ZM321.85,219.53l-8.37,1.96.12.49,8.37-1.96-.12-.49ZM305.11,223.46l-8.37,1.96.11.49,8.37-1.96-.11-.49ZM288.36,227.39l-8.37,1.96.12.49,8.37-1.96-.11-.49ZM271.61,231.32l-8.37,1.96.11.49,8.37-1.96-.11-.49ZM254.87,235.25l-8.37,1.96.12.49,8.37-1.96-.11-.49Z" fill="#a6a7aa"/>
      <path id="path714" d="M238.95,239.24l-6.16,5.07.32.39,6.16-5.07v-.32s-.32-.06-.32-.06ZM226.22,249.71l-6.56,5.4.32.39,6.57-5.4-.32-.39ZM213.09,260.51l-6.56,5.4.32.38,6.57-5.4-.32-.38ZM199.96,271.3l-6.56,5.4.32.39,6.57-5.4-.32-.38ZM186.83,282.1l-6.56,5.4.32.39,6.57-5.4-.32-.39ZM173.7,292.9l-6.56,5.4.32.39,6.57-5.4-.32-.39ZM160.57,303.69l-6.56,5.4.32.39,6.57-5.4-.32-.39ZM147.44,314.49l-6.56,5.4.32.38,6.57-5.4-.32-.38ZM134.31,325.29l-6.56,5.4.32.39,6.57-5.4-.32-.38ZM121.18,336.09l-6.56,5.4.32.39,6.57-5.4-.32-.39ZM108.04,346.88l-6.56,5.4.32.39,6.57-5.4-.32-.39ZM94.91,357.68l-6.56,5.4.32.39,6.57-5.4-.32-.39ZM81.78,368.48l-6.56,5.4.32.38,6.57-5.4-.32-.38ZM68.69,379.32l-4.61,3.81,4.67-3.74-.05-.07ZM55.52,390.07l-.17.14.32.38.17-.14-.32-.39Z" fill="#a6a7aa"/>
      <path id="path713" d="M5.56,190.36l-.1.49h0c.03-.16.06-.33.1-.49h0ZM14.84,192.28l-.04.18,8.3,1.81.06-.27-8.32-1.72ZM31.49,195.73l-.1.49,8.32,1.72.1-.49-8.32-1.72ZM48.13,199.18l-.1.49,8.32,1.72.1-.49-8.32-1.72ZM64.78,202.63l-.1.49,8.32,1.72.1-.49-8.32-1.72ZM81.42,206.08l-.1.49,8.32,1.72.1-.49-8.32-1.72ZM98.07,209.53l-.1.49,8.32,1.72.1-.49-8.32-1.73ZM114.72,212.98l-.1.49,8.32,1.72.1-.49-8.32-1.72ZM131.36,216.43l-.1.49,8.32,1.72.1-.49-8.32-1.73ZM148.01,219.88l-.1.49,8.32,1.72.1-.49-8.32-1.72ZM164.66,223.33l-.1.49,8.32,1.72.1-.49-8.32-1.73ZM181.3,226.78l-.1.49,8.32,1.72.1-.49-8.32-1.72ZM197.95,230.23l-.1.49,8.32,1.72.1-.49-8.32-1.73ZM214.59,233.69l-.1.49,8.32,1.72.1-.49-8.32-1.72ZM231.24,237.13l-.1.49,8.13,1.68v-.2s.25,0,.25,0l.05-.24-8.32-1.73Z" fill="#a6a7aa"/>
      <path id="path712" d="M238.97,240.41l-.31.39.62.49v-.64s-.31-.24-.31-.24ZM239.77,241.05v.64s5.54,4.4,5.54,4.4l.31-.39-5.85-4.65ZM252.27,250.99l-.31.39,6.65,5.29.31-.39-6.65-5.29ZM265.58,261.57l-.31.39,6.65,5.29.31-.39-6.65-5.29ZM278.88,272.15l-.31.39,6.65,5.29.31-.39-6.65-5.29ZM292.19,282.74l-.31.39,6.65,5.29.31-.39-6.65-5.29ZM305.5,293.32l-.31.39,6.65,5.29.31-.39-6.65-5.29ZM318.8,303.9l-.31.39,6.65,5.29.31-.39-6.65-5.29ZM332.11,314.48l-.31.39,6.65,5.29.31-.39-6.65-5.29ZM345.41,325.06l-.31.39,6.65,5.29.31-.39-6.65-5.29ZM358.72,335.64l-.31.39,6.65,5.29.31-.39-6.65-5.29ZM372.02,346.22l-.31.39,6.65,5.29.31-.39-6.65-5.29ZM385.33,356.81l-.31.39,6.65,5.29.31-.39-6.65-5.29ZM398.63,367.39l-.31.39,6.65,5.29.31-.39-6.65-5.29ZM411.89,378.03l-.26.33,6.65,5.29.31-.39-.14-.11-6.57-5.12ZM425.49,388.75c-.1.13-.21.26-.31.39l.07.06.31-.39-.07-.06Z" fill="#a6a7aa"/>
      <path id="path711" d="M239.76,239.1h-.5s.05,8.5.05,8.5h.5s-.05-8.5-.05-8.5ZM239.86,256.1h-.5s.05,8.5.05,8.5h.5s-.05-8.5-.05-8.5ZM239.96,273.1h-.5s.05,8.5.05,8.5h.5s-.05-8.5-.05-8.5ZM240.06,290.1h-.5s.05,8.5.05,8.5h.5s-.05-8.5-.05-8.5ZM240.16,307.1h-.5s.05,8.5.05,8.5h.5s-.05-8.5-.05-8.5ZM240.26,324.1h-.5s.05,8.5.05,8.5h.5s-.05-8.5-.05-8.5ZM240.36,341.1h-.5s.05,8.5.05,8.5h.5s-.05-8.5-.05-8.5ZM240.46,358.1h-.5s.05,8.5.05,8.5h.5s-.05-8.5-.05-8.5ZM240.55,375.1h-.5s.05,8.5.05,8.5h.5s-.05-8.5-.05-8.5ZM240.65,392.1h-.5s.05,8.5.05,8.5h.5s-.05-8.5-.05-8.5ZM240.75,409.1h-.5s.05,8.5.05,8.5h.5s-.05-8.5-.05-8.5ZM240.85,426.1h-.5s.05,8.5.05,8.5h.5s-.05-8.5-.05-8.5ZM240.95,443.1h-.5s.05,8.5.05,8.5h.5s-.05-8.5-.05-8.5ZM241.05,460.1h-.5s.01,2.2.01,2.2l.06,6.31h.47s-.05-8.5-.05-8.5ZM240.66,479.01v.3s.5,0,.5,0v-.3c-.17,0-.34,0-.5,0h0Z" fill="#a6a7aa"/>
      <path id="path710" d="M236.71.82c-35.41.58-70.99,9.45-104.76,26.65l9.71,19.07c62.07-31.61,129.09-32.5,189.49-3.3l8.18-16.93s-.1-.04-.14-.07l1.1-2.36C307.25,7.94,272.06.25,236.71.82Z" fill="#f0f1f1"/>
      <path id="path709" d="M6.25,191.14c-15.16,70.26,2.18,141.28,49.52,198.66l8.31-6.66,8.28-6.84c-43.67-52.86-59.12-116.78-45.09-181.11l-18.4-4.01c-.03.15-.06.31-.09.46l-2.53-.5Z" fill="#f0f1f1"/>
      <path id="path708" d="M72.46,376.41l-16.7,13.39c45.13,56.28,110.06,88.91,184.84,88.21v-2.4s.06,0,.08,0l-.19-19c-68.57.67-126.59-28.5-168.05-80.19h0Z" fill="#f0f1f1"/>
      <path id="path707" d="M471.77,184.57l-2.42.52-18.51,3.96c14.57,68.06-1.34,132.24-43.08,185.78l15.09,11.77s.08-.1.12-.14l1.77,1.41c45.19-58.04,62.84-129.4,47.02-203.29Z" fill="#f0f1f1"/>
      <path id="path706" d="M131.54,26.99C64.32,61.21,19.44,119.58,5.44,190.98l3.34.65C22.58,121.23,66.71,63.81,133.08,30.02l-1.54-3.03Z" fill="#83bc00"/>
      <path id="path705" d="M422.98,386.45c-46.1,58.03-110.87,89.36-182.37,89.16v3.4c72.49.2,138.33-31.67,185.03-90.44l-2.66-2.12Z" fill="#f3d03e"/>
      <path id="path704" d="M340.63,23.16l-1.44,3.08c67.76,31.6,114.07,88.34,130.16,158.84l3.31-.76c-16.31-71.5-63.4-129.16-132.04-161.16Z" fill="#c2dd8a"/>
    </g>
    <g id="Stationary_Center" data-name="Stationary Center">
      <circle id="circle208" cx="240.61" cy="240.21" r="111" fill="#fff"/>
      <g id="Solutions-2">
        <polygon id="polygon208" points="210.11 191.71 241.41 170.41 271.11 191.71 271.11 224.41 240.81 248.91 210.11 224.41 210.11 191.71" fill="#fff" stroke="#013d5b" stroke-miterlimit="17.1" stroke-width="2"/>
        <polygon id="polygon209" points="241.41 170.41 210.11 224.41 271.11 224.41 241.41 170.41" fill="none" stroke="#013d5b" stroke-miterlimit="17.1" stroke-width="2"/>
        <polyline id="polyline209" points="210.11 191.71 241.11 207.61 240.81 248.91" fill="none" stroke="#013d5b" stroke-miterlimit="17.1" stroke-width="2"/>
        <line id="line209" x1="241.11" y1="207.61" x2="271.11" y2="191.71" fill="none" stroke="#013d5b" stroke-miterlimit="17.1" stroke-width="2"/>
        <circle id="circle209" cx="241.11" cy="170.41" r="10.4" fill="#84bd00" stroke="#013d5b" stroke-miterlimit="17.1" stroke-width="2"/>
        <circle id="circle210" cx="210.11" cy="224.41" r="10.4" fill="#f57f29" stroke="#013d5b" stroke-miterlimit="17.1" stroke-width="2"/>
        <circle id="circle211" cx="210.11" cy="191.71" r="7.3" fill="#fff" stroke="#013d5b" stroke-miterlimit="17.1" stroke-width="2"/>
        <circle id="circle212" cx="271.11" cy="191.71" r="7.3" fill="#fff" stroke="#013d5b" stroke-miterlimit="17.1" stroke-width="2"/>
        <circle id="circle213" cx="241.11" cy="248.91" r="7.3" fill="#fff" stroke="#013d5b" stroke-miterlimit="17.1" stroke-width="2"/>
        <circle id="circle214" cx="271.11" cy="224.41" r="10.4" fill="#00a2c5" stroke="#013d5b" stroke-miterlimit="17.1" stroke-width="2"/>
        <path id="path214" d="M241.11,215.91c-4.6,0-8.3-3.8-8.3-8.3s3.8-8.3,8.3-8.3,8.3,3.8,8.3,8.3h0c0,4.6-3.8,8.3-8.3,8.3Z" fill="#013d5b"/>
        <path id="path215" d="M241.11,200.21c4.1,0,7.3,3.3,7.3,7.3s-3.3,7.3-7.3,7.3-7.3-3.3-7.3-7.3h0c0-4.1,3.3-7.3,7.3-7.3M241.11,198.31c-5.1,0-9.3,4.1-9.3,9.3s4.1,9.3,9.3,9.3,9.3-4.1,9.3-9.3h0c0-5.1-4.2-9.3-9.3-9.3Z" fill="#fff"/>
      </g>
      <path id="path216" d="M190.71,275.01c-.3-1.6-1.8-2.9-3.6-2.9-3.3,0-4.6,2.8-4.6,5.7s1.3,5.6,4.6,5.6,3.8-1.6,3.8-3.6h3.4c-.2,3.8-3.3,6.9-7.2,6.7h-.2c-5.1,0-8.2-3.8-8.2-8.7s3.1-8.7,8.2-8.7c3.6-.2,6.7,2.4,7.2,5.9h-3.4Z" fill="#044872"/>
      <path id="path217" d="M196.21,277.81c.2-3.1,2.9-3.9,5.6-3.9s5.2.5,5.2,3.4v6.2c0,1,.2,1.8.3,2.6h-3.3c-.2-.3-.2-.8-.2-1.1-1.1,1-2.6,1.5-4.1,1.5-2.3,0-4.1-1.1-4.1-3.6,0-5.4,8.2-2.6,8-5.2,0-1.5-1-1.6-2.1-1.6s-2.1.5-2.1,1.8h-3.3.1q0-.07,0,0v-.1ZM203.91,280.21c-.8.5-1.8.7-2.8.7-1,.2-2,.5-2,1.8s1,1.5,2,1.5c1.3.2,2.6-.8,2.6-2.1v-.7l.2-1.1h0q0-.07,0,0v-.1Z" fill="#044872"/>
      <path id="path218" d="M209.61,274.01h3.1v2.3h0c.7-1.5,2.1-2.4,3.8-2.6.2,0,.5,0,.7.2v3.1c-.3,0-.8-.2-1.1-.2-2.4,0-3.3,1.8-3.3,3.9v5.4h-3.3l.2-12.1h-.1Z" fill="#044872"/>
      <path id="path219" d="M221.31,280.91c.2,2.1,1.1,3.1,2.9,3.1s2.1-.5,2.6-1.5h2.9c-.7,2.4-2.9,4.2-5.6,4.1-3.3.2-5.9-2.3-6-5.6v-.8c-.2-3.3,2.4-6.2,5.7-6.4h.5c4.1,0,6,3.4,5.9,7.2l-9-.2h.1q0,.07,0,0v.1ZM226.71,278.81c-.3-1.6-1-2.6-2.6-2.6-1.5-.2-2.6,1-2.8,2.4v.2h5.4Z" fill="#044872"/>
      <path id="path220" d="M232.31,269.51h11.6v3.1h-8v3.8h6.9v2.9h-6.9v6.9h-3.6v-16.7h0Z" fill="#044872"/>
      <path id="path221" d="M245.51,277.81c.2-3.1,2.9-3.9,5.6-3.9s5.2.5,5.2,3.4v6.2c0,1,.2,1.8.5,2.6h-3.3c-.2-.3-.2-.8-.2-1.1-1.1,1-2.6,1.5-4.1,1.5-2.3,0-4.1-1.1-4.1-3.6,0-5.4,8.2-2.6,8-5.2,0-1.5-1-1.6-2.1-1.6s-2.1.5-2.1,1.8h-3.4q0-.07,0,0v-.1ZM253.01,280.21c-.8.5-1.8.7-2.8.7-1,.2-2,.5-2,1.8s1,1.5,2,1.5c1.3.2,2.6-.8,2.6-2.1v-1.8h.2v-.1Z" fill="#044872"/>
      <path id="path222" d="M258.91,269.51h3.3v6h0c.8-1.1,2.3-1.8,3.8-1.8,2.4,0,4.9,2,4.9,6.4s-2.6,6.4-4.9,6.4c-1.5.2-3.1-.5-3.9-1.8h0v1.5h-3.1v-16.7h-.1,0ZM264.81,276.21c-2,0-2.8,1.8-2.8,3.9s.8,3.8,2.8,3.8,2.8-1.8,2.8-3.8-.8-3.9-2.8-3.9Z" fill="#044872"/>
      <path id="path223" d="M272.91,274.01h3.1v2.3h0c.7-1.5,2.1-2.4,3.8-2.6.2,0,.5,0,.7.2v3.1c-.3,0-.8-.2-1.1-.2-2.4,0-3.3,1.8-3.3,3.9v5.4h-3.3l.2-12.1h-.1Z" fill="#044872"/>
      <path id="path224" d="M285.31,272.21h-3.3v-2.8h3.3v2.8ZM282.11,274.01h3.3v11.9h-3.3v-11.9Z" fill="#044872"/>
      <path id="path225" d="M296.11,278.31c0-1.1-1.1-2.1-2.3-2.1h-.2c-2.1,0-2.8,2.1-2.8,3.9s.7,3.8,2.8,3.8,2.6-1,2.6-2.3v-.2h3.1c-.2,2.9-2.8,5.1-5.7,4.9h0c-3.3.2-5.9-2.3-6-5.6v-.7c0-3.8,2.3-6.5,6-6.5s5.4,1.5,5.6,4.6l-3.1.2h0Z" fill="#044872"/>
      <path id="path226" d="M193.31,297.21h7.5c4.1,0,5.7,2.6,5.7,5.2s-1.6,5.2-5.7,5.2h-3.8v5.9h-3.6v-16.3h-.2.1ZM196.91,305.11h2.8c1.6,0,3.1-.3,3.1-2.4s-1.5-2.4-3.1-2.4h-2.8v4.9h0v-.1Z" fill="#044872"/>
      <path id="path227" d="M208.41,297.21h3.3v16.5h-3.3v-16.5Z" fill="#044872"/>
      <path id="path228" d="M214.21,305.51c.2-3.1,2.9-3.9,5.6-3.9s5.2.5,5.2,3.4v6.2c0,1,0,1.8.3,2.6h-3.3c-.2-.3-.2-.8-.2-1.1-1.1,1-2.4,1.6-4.1,1.5-2.3,0-4.1-1.1-4.1-3.6,0-5.4,8.2-2.4,8-5.2,0-1.5-1-1.6-2.1-1.6s-2.1.5-2.1,1.8h-3.3.1q0-.07,0,0v-.1ZM221.81,308.01c-.8.5-1.8.7-2.8.7-1,.2-2,.5-2,1.8s1,1.5,2,1.5c1.3.2,2.6-.8,2.6-2.1v-1.8h.2v-.1Z" fill="#044872"/>
      <path id="path229" d="M231.81,301.81h2.4v2.1h-2.4v5.9c0,1.1.3,1.5,1.5,1.5s.7,0,1-.2v2.6c-.7.2-1.3.2-2,.2-2,0-3.8-.5-3.8-2.9v-7h-2v-2.1h2v-3.6h3.3v3.6h0v-.1Z" fill="#044872"/>
      <path id="path230" d="M236.51,303.91h-2v-2.1h2v-1c-.2-2,1.5-3.6,3.4-3.6h2.4v2.4c-.3,0-.8,0-1.1-.2-1,0-1.3.3-1.3,1.3v.7h2.3v2.1h-2.3v9.8h-3.3l-.2-9.5h.1c0,.07,0,.1,0,.1h0Z" fill="#044872"/>
      <path id="path231" d="M249.31,301.51c3.4,0,6.4,2.6,6.4,6.2s-2.6,6.4-6.2,6.4-6.4-2.6-6.4-6.2v-.2c-.3-3.3,2.1-6,5.4-6.4.3.2.5.2.8.2h0ZM249.31,311.61c2.3,0,2.9-2,2.9-3.8s-.7-3.9-2.9-3.9-2.9,2-2.9,3.9.7,3.8,2.9,3.8Z" fill="#044872"/>
      <path id="path232" d="M257.61,301.81h3.1v2.3h0c.7-1.5,2.1-2.6,3.8-2.6s.5,0,.7.2v3.1c-.3,0-.8-.2-1.1-.2-2.4,0-3.3,1.8-3.3,3.9v5.4h-3.3l.2-12.1h-.1Z" fill="#044872"/>
      <path id="path233" d="M266.71,301.81h3.1v1.6h0c.8-1.3,2.1-2,3.6-2,1.5-.2,2.9.7,3.4,2,.8-1.1,2.1-2,3.6-2,2.1-.3,4.1,1.1,4.4,3.3v9h-3.3v-6.7c0-1.6-.2-2.9-2-2.9s-2.1,1.5-2.1,3.1v6.7h-3.3v-6.9c0-1.5.2-2.9-2-2.9s-2.3.3-2.3,2.8v6.9h-3.3v-11.9h.2c0-.07,0-.1,0-.1h0Z" fill="#044872"/>
      <path id="path234" d="M304.91,271.71c0,1.3-1,2.4-2.4,2.6-1.3,0-2.4-1-2.6-2.4,0-1.3,1-2.4,2.4-2.6h.2c1.3,0,2.4,1.1,2.4,2.4ZM300.71,271.71c0,1,1,1.8,2,1.8s1.8-1,1.8-2-.8-1.8-1.8-1.8-2,.8-2,2ZM302.21,273.11h-.5v-2.4c.3,0,.7-.2,1-.2s.7,0,.8.2c.1.2.2.3.2.5,0,.3-.2.5-.5.5h0c.2.2.3.3.5.7,0,.2,0,.5.2.7h-.7c-.2-.2-.2-.3-.2-.7s-.2-.3-.5-.3h-.3v1.1h0v-.1ZM302.21,271.61h.3c.3,0,.5-.2.5-.3s-.2-.3-.5-.3h-.3v.7h0v-.1Z" fill="#044872"/>
      <path id="path235" d="M240.61,131.21c60.2,0,109.1,48.8,109.1,109.1s-48.8,109.1-109.1,109.1-109.1-48.8-109.1-109.1h0c0-60.2,48.8-109.1,109.1-109.1h0M240.61,127.41c-62.4,0-112.8,50.6-112.8,112.8s50.6,112.8,112.8,112.8,112.8-50.6,112.8-112.8h0c0-62.4-50.4-112.8-112.8-112.8h0Z" fill="#044872"/>
    </g>
  </g>
</svg>