<?xml version="1.0" encoding="UTF-8"?>
<svg id="Layer_1" xmlns="http://www.w3.org/2000/svg" version="1.1" xmlns:inkscape="http://www.inkscape.org/namespaces/inkscape" xmlns:sodipodi="http://sodipodi.sourceforge.net/DTD/sodipodi-0.dtd" xmlns:svg="http://www.w3.org/2000/svg" xmlns:xlink="http://www.w3.org/1999/xlink" viewBox="0 0 750 750">
  <!-- Generator: Adobe Illustrator 29.8.2, SVG Export Plug-In . SVG Version: 2.1.1 Build 3)  -->
  <defs>
    <style>
      .st0, .st1, .st2, .st3, .st4, .st5, .st6 {
        fill: #84bd00;
      }

      .st0, .st1, .st7, .st4, .st8, .st9, .st10, .st6, .st11, .st12, .st13, .st14, .st15, .st16, .st17, .st18, .st19, .st20, .st21, .st22, .st23 {
        stroke-miterlimit: 17.1;
      }

      .st0, .st1, .st9, .st6, .st11, .st12, .st13, .st14, .st15, .st16, .st18, .st19, .st21, .st23 {
        stroke: #013d5b;
      }

      .st0, .st7, .st4, .st8, .st10, .st13, .st15, .st18, .st20, .st22 {
        stroke-width: .9px;
      }

      .st24 {
        fill: #f47f28;
      }

      .st1, .st9, .st14, .st16, .st21 {
        stroke-width: 2px;
      }

      .st25 {
        fill: #83bc00;
      }

      .st26 {
        fill: #0076a7;
      }

      .st27 {
        fill: #a6a7aa;
      }

      .st2, .st7, .st28, .st3, .st4, .st8, .st29, .st30, .st31, .st32, .st33, .st34, .st35, .st36, .st17, .st37, .st20, .st38, .st39, .st40, .st22 {
        stroke: #044872;
      }

      .st2, .st28, .st3, .st30, .st31, .st32, .st33, .st34, .st35, .st36, .st37, .st38, .st41, .st39 {
        stroke-miterlimit: 10;
      }

      .st2, .st33, .st38 {
        stroke-width: 1.8px;
      }

      .st7, .st42, .st29, .st10, .st32, .st11, .st13, .st16, .st34, .st17, .st37, .st41, .st39 {
        fill: none;
      }

      .st28 {
        fill-opacity: .1;
      }

      .st28, .st34, .st35, .st36 {
        stroke-width: 1.6px;
      }

      .st43 {
        fill: #4795be;
      }

      .st3, .st29, .st30, .st31, .st37 {
        stroke-width: 1.5px;
      }

      .st44, .st30, .st14, .st33, .st35, .st18, .st20, .st40, .st23 {
        fill: #fff;
      }

      .st45, .st8, .st31 {
        fill: #e87722;
      }

      .st46 {
        fill: #828185;
      }

      .st47 {
        fill: #013d5b;
      }

      .st48 {
        fill: #0092b1;
      }

      .st49 {
        fill: #a5a5a9;
      }

      .st9, .st50, .st12, .st15, .st36, .st38, .st22 {
        fill: #00a2c5;
      }

      .st51 {
        clip-path: url(#clippath-1);
      }

      .st29 {
        stroke-miterlimit: 3.3;
      }

      .st52 {
        fill: #044872;
      }

      .st53 {
        isolation: isolate;
        opacity: .1;
      }

      .st10 {
        stroke: #023d5b;
      }

      .st54 {
        fill: #00a1c4;
      }

      .st32 {
        stroke-dasharray: 0 0 7.9 5.9;
      }

      .st32, .st39 {
        stroke-width: 1.9px;
      }

      .st55 {
        fill: #e77722;
      }

      .st56 {
        fill: #f0f1f1;
      }

      .st57 {
        fill: #753bbc;
      }

      .st58 {
        display: none;
      }

      .st17 {
        stroke-width: 1.1px;
      }

      .st59 {
        fill: #f3d03e;
      }

      .st19, .st21, .st60 {
        fill: #f57f29;
      }

      .st61 {
        fill: #044973;
      }

      .st62 {
        fill: #c2dd8a;
      }

      .st63 {
        fill: #71c100;
      }

      .st64 {
        fill: #81c241;
      }

      .st41 {
        stroke: #231f20;
      }

      .st65 {
        fill: #808387;
      }

      .st66 {
        clip-path: url(#clippath);
      }

      .st40 {
        stroke-miterlimit: 17.1;
        stroke-width: .9px;
      }

      .st67 {
        fill: #00a4c9;
      }
    </style>
    <clipPath id="clippath">
      <rect class="st42" x="331.1" y="37.7" width="98" height="97.7"/>
    </clipPath>
    <clipPath id="clippath-1">
      <rect class="st42" x="331.1" y="37.7" width="98" height="97.7"/>
    </clipPath>
  </defs>
  <g id="careFabric" inkscape:version="1.4.2 (f4327f4, 2025-05-13)" pointer-events="none">
    <sodipodi:namedview id="namedview1" bordercolor="#eeeeee" borderopacity="1" inkscape:current-layer="Layer_1" inkscape:cx="374.54765" inkscape:cy="375" inkscape:deskcolor="#505050" inkscape:pagecheckerboard="0" inkscape:pageopacity="0" inkscape:showpageshadow="0" inkscape:window-height="1009" inkscape:window-maximized="1" inkscape:window-width="1920" inkscape:window-x="-8" inkscape:window-y="-8" inkscape:zoom="1.1053333" pagecolor="#505050"/>
    <g id="CareAdministration">
      <polygon id="polygon14" class="st44" points="206.1 394.7 207.1 403.4 213.6 403.4 214.1 394.7 206.1 394.7"/>
      <polygon id="polygon15" class="st53" points="212.7 400.1 213.8 399 214 397 206.3 396 212.7 400.1"/>
      <polygon id="polygon16" class="st13" points="206.1 394.7 207.1 403.4 213.6 403.4 214.1 394.7 206.1 394.7"/>
      <path id="path16" class="st18" d="M202,379.2h0c-1.3.3-1.6,1.5-1.5,2.9.3,1.1.8,2,1.6,2.8l-.2-5.7h0Z"/>
      <path id="path17" class="st18" d="M221.1,381.2h0c1.1.7,1.3,1.8.7,3.1-.5,1-1.1,2-2.1,2.6l1.5-5.7h0Z"/>
      <path id="path18" class="st18" d="M212.8,369.8c-5.1-.7-9.8,2.8-10.6,8-.2,4.7,0,9.3.7,14,.2,2,1.6,3.6,3.6,4.1l6,1.3c2.3.5,4.6-.8,5.2-3.1,1.6-4.6,2.8-9.3,3.8-14,.3-5.4-3.6-10-8.7-10.3Z"/>
      <polygon id="polygon18" class="st15" points="213.8 399 229.8 403.4 229.8 411.4 189.3 409.6 189.3 403.4 206.6 399.1 210.2 402.4 213.8 399"/>
      <rect id="rect18" class="st47" x="207.6" y="411.8" width="1.6" height="1.6" transform="translate(-209.5 610.1) rotate(-88.5)"/>
      <circle id="circle18" class="st18" cx="217.1" cy="411.1" r="2.1"/>
      <path id="path19" class="st18" d="M210.7,381l-1,4.1c-.2.3.2.8.5.8h1.5"/>
      <polygon id="polygon19" class="st44" points="224.6 398.7 225.6 407.8 232.4 407.8 232.9 398.7 224.6 398.7"/>
      <polygon id="polygon20" class="st53" points="231.3 404.4 232.1 403.2 232.2 401.1 224.7 400.1 231.3 404.4"/>
      <polygon id="polygon21" class="st13" points="224.6 398.7 225.6 407.8 232.4 407.8 232.9 398.7 224.6 398.7"/>
      <polygon id="polygon22" class="st15" points="232.6 403.2 249.1 407.8 249.1 416 207.3 414.2 207.3 407.8 225.1 403.4 228.7 406.7 232.6 403.2"/>
      <polygon id="polygon23" class="st44" points="207.3 407.8 225.1 403.4 227.5 415 207.3 414.2 207.3 407.8"/>
      <polygon id="polygon24" class="st44" points="207.3 407.8 225.1 403.4 227.5 415 207.3 414.2 207.3 407.8"/>
      <polygon id="polygon25" class="st13" points="207.3 407.8 225.1 403.4 227.5 415 207.3 414.2 207.3 407.8"/>
      <polygon id="polygon26" class="st44" points="228.8 415.1 232.6 403.2 249.1 407.8 249.1 416 228.8 415.1"/>
      <polygon id="polygon27" class="st44" points="228.8 415.1 232.6 403.2 249.1 407.8 249.1 416 228.8 415.1"/>
      <polygon id="polygon28" class="st13" points="228.8 415.1 232.6 403.2 249.1 407.8 249.1 416 228.8 415.1"/>
      <path id="path28" class="st13" d="M224.6,418.6v-1.8c-.3-3.6-2.9-8.2-5.4-7.8-2.5.4-4.1,5.2-3.8,8.8,0,.7.2,1.1.3,1.8"/>
      <rect id="rect28" class="st47" x="223" y="416.9" width="1.6" height="1.6" transform="translate(-199.6 630.5) rotate(-88.5)"/>
      <rect id="rect29" class="st47" x="215.6" y="417.6" width="1.6" height="1.6" transform="translate(-73.3 46.9) rotate(-10.6)"/>
      <line id="line29" class="st13" x1="219" y1="408.9" x2="218.4" y2="404.9"/>
      <circle id="circle29" class="st18" cx="235.8" cy="415.6" r="2.1"/>
      <line id="line30" class="st13" x1="235.8" y1="413.5" x2="236.8" y2="404.4"/>
      <path id="path30" class="st18" d="M238,384.5h0c1.3.5,1.6,1.5,1.3,3.1-.3,1.1-1,2-1.8,2.8l.5-5.9Z"/>
      <path id="path31" class="st18" d="M218,385.6h0c-1.1.7-1.3,1.8-1,3.3.5,1.1,1.1,2.1,2,2.8l-1-6h0Z"/>
      <path id="path32" class="st18" d="M227.3,374.2c5.4-.5,10,3.4,10.4,8.8-.2,4.9-.7,9.6-1.5,14.4-.3,2-2,3.6-3.9,3.9l-6.7.2c-2.3.3-4.6-1.1-5.2-3.4-1.3-4.6-2.3-9.1-2.8-13.9.2-5.6,4.4-10,9.6-10h0Z"/>
      <path id="path33" class="st18" d="M229,385.8l.8,4.2c.2.3-.2.8-.7.8h-1.6"/>
      <path id="path34" class="st61" d="M213.1,428.7c-.2-.8-.8-1.3-1.6-1.3-1.5,0-2,1.3-2,2.6s.5,2.4,2,2.4,1.6-.7,1.6-1.6h1.6c0,1.8-1.5,3.1-3.3,3.1h0c-2.1-.2-3.8-2-3.8-4.2.2-2,1.6-3.6,3.8-3.8,1.6-.2,3.1,1.1,3.3,2.8h-1.6Z"/>
      <path id="path35" class="st61" d="M215.6,429.8c0-1.5,1.3-1.8,2.6-1.8s2.4.2,2.4,1.5v2.8c0,.5,0,.8.2,1.3h-1.5c0-.2-.2-.3-.2-.5-.5.5-1.1.7-1.8.7-1,0-1.8-.5-1.8-1.6,0-2.4,3.8-1.1,3.6-2.4,0-.7-.5-.7-1-.7s-1,.2-1,.8h-1.6s0,0,0,0h.1ZM219.2,431c-.3.2-.8.3-1.3.3-.5.2-1,.2-1,.8s.5.7,1,.7,1.1-.3,1.1-1v-.2l.2-.7h0Z"/>
      <path id="path36" class="st61" d="M221.8,428.2h1.5v1h0c.3-.7,1-1.1,1.8-1.1h.3v1.5h-.5c-1.1,0-1.5.8-1.5,1.8v2.4h-1.5l-.2-5.6h0Z"/>
      <path id="path37" class="st61" d="M227.2,431.3c0,1,.5,1.5,1.3,1.5s1-.3,1.1-.7h1.3c-.3,1.1-1.3,2-2.6,1.8-1.5,0-2.8-1.1-2.8-2.6v-.3c-.2-1.5,1-2.8,2.6-2.9,1.5-.2,2.8,1,2.9,2.6v.8l-3.9-.2h0ZM229.6,430.3c-.2-.8-.5-1.1-1.1-1.1s-1.1.5-1.3,1.1v.2h2.4v-.2h0Z"/>
      <path id="path38" class="st61" d="M185.4,438.8h1.6l2.8,7.5h-1.6l-.5-1.6h-2.8l-.7,1.6h-1.6l2.8-7.5ZM185.2,443.4h2l-1-2.8h0l-1,2.8Z"/>
      <path id="path39" class="st61" d="M194.2,445.7h0c-.3.5-1,.8-1.6.8-1.6,0-2.4-1.5-2.4-2.9-.2-1.5.8-2.6,2.3-2.8h.2c.7,0,1.3.3,1.6.8h0v-2.8h1.5v7.5h-1.5v-.7h-.1ZM192.9,441.9c-1,0-1.3.8-1.3,1.8s.3,1.8,1.3,1.8,1.3-.8,1.3-1.8-.3-2-1.3-1.8Z"/>
      <path id="path40" class="st61" d="M196.8,440.9h1.5v.7h0c.3-.5,1-.8,1.6-.8s1.3.3,1.6,1c.3-.5,1-.8,1.6-1,1-.2,1.8.5,2,1.5v4.1h-1.5v-3.1c0-.7,0-1.3-1-1.3s-1,.7-1,1.3v3.1h-1.5v-3.1c0-.7,0-1.3-1-1.3s-1,.2-1,1.3v3.1h-1.5v-5.4h.2,0Z"/>
      <path id="path41" class="st61" d="M207.9,440h-1.5v-1.3h1.5v1.3ZM206.5,440.8h1.5v5.4h-1.5v-5.4Z"/>
      <path id="path42" class="st61" d="M209.1,440.9h1.5v.8h0c.3-.5,1-1,1.6-1,1.6,0,2,1,2,2.3v3.3h-1.5v-3.1c0-1-.3-1.3-1-1.3s-1.1.5-1.1,1.5v2.9h-1.5v-5.4h0Z"/>
      <path id="path43" class="st61" d="M216.9,440h-1.5v-1.3h1.5v1.3ZM215.4,440.8h1.5v5.4h-1.5v-5.4Z"/>
      <path id="path44" class="st61" d="M219.2,444.5c0,.7.5,1,1.1,1s1-.2,1-.7-.7-.7-1.6-.8c-.9-.1-1.8-.5-1.8-1.5,0-1.5,1.1-1.8,2.3-1.8s2.3.3,2.4,1.8h-1.5c0-.7-.5-.7-1-.7s-.8,0-.8.5.8.7,1.6.8c.8.1,1.6.5,1.6,1.5,0,1.5-1.3,2-2.4,2s-2.4-.5-2.6-2l1.6-.2h0c0,.1,0,.1,0,.1Z"/>
      <path id="path45" class="st61" d="M225.7,440.9h1.1v1h-1.1v2.6c0,.5.2.7.7.7h.5v1.1h-.8c-1,0-1.8-.2-1.8-1.3v-3.3h-1v-1h1v-1.6h1.5v1.8h0Z"/>
      <path id="path46" class="st61" d="M227.5,440.9h1.5v1h0c.3-.7,1-1.1,1.8-1.1h.3v1.5h-.5c-1.1,0-1.5.8-1.5,1.8v2.4h-1.5l-.2-5.6h0Z"/>
      <path id="path47" class="st61" d="M231.4,442.6c.2-1.5,1.3-1.8,2.6-1.8s2.4.2,2.4,1.5v2.8c0,.5,0,.8.2,1.1h-1.5c0-.2-.2-.3-.2-.5-.5.5-1.1.7-1.8.7-1,0-1.8-.5-1.8-1.6,0-2.4,3.8-1.1,3.6-2.3,0-.7-.5-.7-1-.7s-1,.2-1,.8h-1.6.1ZM234.9,443.7c-.3.2-.8.3-1.3.3-.5.2-.8.3-.8.8s.5.7,1,.7,1.1-.3,1.1-1v-.8Z"/>
      <path id="path48" class="st61" d="M239.4,440.9h1.1v1h-1.1v2.6c0,.5.2.7.7.7h.5v1.1h-.8c-1,0-1.8-.2-1.8-1.3v-3.3h-1v-1h1v-1.6h1.5v1.8h0Z"/>
      <path id="path49" class="st61" d="M242.9,440h-1.5v-1.3h1.5v1.3ZM241.4,440.8h1.5v5.4h-1.5v-5.4Z"/>
      <path id="path50" class="st61" d="M246.6,440.8c1.6,0,2.9,1.1,2.9,2.8s-1.1,2.9-2.8,2.9-2.9-1.1-2.9-2.8h0c-.2-1.5,1-2.8,2.4-2.9h.4ZM246.6,445.4c1,0,1.3-.8,1.3-1.8s-.3-1.8-1.3-1.8-1.3.8-1.3,1.8.3,1.8,1.3,1.8Z"/>
      <path id="path51" class="st61" d="M250.5,440.9h1.5v.8h0c.3-.5,1-1,1.6-1,1.6,0,2,1,2,2.3v3.3h-1.5v-3.1c0-1-.2-1.3-1-1.3s-1.1.5-1.1,1.5v2.9h-1.5v-5.4h0Z"/>
    </g>
    <g id="PopulationHealthManagement">
      <g id="Population_Health">
        <path id="path52" class="st18" d="M253.8,230c-1.6,0-2.9,1.1-2.9,2.8.3,1.5.8,2.9,1.5,4.4h2.8c.8-1.3,1.3-2.8,1.6-4.4,0-1.5-1.5-2.8-2.9-2.8h-.1Z"/>
        <polygon id="polygon52" class="st44" points="256.6 259.9 255.4 267.1 251.7 267.1 250.7 259.9 246.9 259.9 248.9 238.8 253.6 236.5 259 238.3 261.1 259.9 256.6 259.9"/>
        <polygon id="polygon53" class="st5" points="246.9 259.9 247.6 251.7 247.8 250.9 259.7 248.3 261.1 259.9 246.9 259.9"/>
        <path id="path53" class="st13" d="M248.9,238.8l2.6-1.3c1.3-.7,2.8-.7,4.1-.3l3.3,1.1,2.1,21.4h-4.6l-1.1,7.3h-3.8l-1-7.3h-3.8l2.1-20.9h.1Z"/>
        <line id="line53" class="st13" x1="250.7" y1="259.9" x2="261.1" y2="259.9"/>
        <path id="path54" class="st18" d="M235,230.5c-1.6,0-2.9,1.1-2.9,2.8.3,1.5.8,2.9,1.5,4.4h2.8c.8-1.3,1.3-2.8,1.6-4.4,0-1.6-1.3-2.9-2.9-2.8h-.1Z"/>
        <polygon id="polygon54" class="st44" points="238 260.2 236.8 267.4 233.1 267.4 231.9 260.2 228.2 260.2 230.3 239.1 234.9 236.9 240.2 238.7 242.4 260.2 238 260.2"/>
        <polygon id="polygon55" class="st5" points="228.2 260.2 229 252 229 251.2 241.1 248.6 242.4 260.2 228.2 260.2"/>
        <path id="path55" class="st13" d="M230.3,239.1l2.6-1.3c1.3-.7,2.8-.7,4.1-.3l3.3,1.1,2.1,21.6h-4.6l-1.1,7.3h-3.8l-1-7.3h-3.8l2.1-21.1h0Z"/>
        <line id="line55" class="st13" x1="231.9" y1="260.2" x2="242.4" y2="260.2"/>
        <path id="path56" class="st18" d="M245.3,229.2c1.6,0,2.9,1.1,2.9,2.8-.3,1.5-.8,2.9-1.5,4.4h-2.8c-.8-1.3-1.3-2.8-1.6-4.4.2-1.6,1.5-2.9,2.9-2.8h.1Z"/>
        <polygon id="polygon56" class="st44" points="238.6 238.2 245.5 235.6 251.8 238.7 247.8 268 242.9 268 238.6 238.2"/>
        <polygon id="polygon57" class="st43" points="250 251.7 240.7 253.5 242.9 268 247.8 268 250 251.7"/>
        <path id="path57" class="st13" d="M247.8,236.7l4.2,2.1-4.1,29.4h-4.9l-4.4-29.9,4.7-1.8c1.3-.7,2.9-.5,4.4.2h.1Z"/>
        <path id="path58" class="st18" d="M258.4,236.2c1.6,0,2.9,1.1,2.9,2.8-.3,1.5-.8,2.9-1.5,4.4h-2.8c-.8-1.3-1.3-2.8-1.6-4.4.2-1.6,1.5-2.8,2.9-2.8h.1Z"/>
        <polygon id="polygon58" class="st44" points="251.7 245.2 258.7 242.6 264.9 245.8 260.8 275.1 255.9 275.1 251.7 245.2"/>
        <polygon id="polygon59" class="st50" points="263.1 258.7 253.8 260.5 255.9 275.1 260.8 275.1 263.1 258.7"/>
        <path id="path59" class="st13" d="M260.8,243.7l4.2,2.1-4.2,29.4h-4.9l-4.2-29.9,4.7-1.8c1.3-.7,2.9-.5,4.4.2h0Z"/>
        <path id="path60" class="st18" d="M250.2,239.5c-1.6,0-2.9,1.1-2.9,2.8.3,1.5.8,2.9,1.5,4.2h2.8c.8-1.3,1.3-2.8,1.6-4.2,0-1.6-1.3-2.8-2.9-2.8h-.1Z"/>
        <polygon id="polygon60" class="st44" points="258.4 269.4 253.1 269.4 251.8 276.5 248.1 276.5 247.1 269.2 242.4 269.2 245.8 258.6 245 248.6 250 245.4 255.4 248.9 254.6 256 258.4 269.4"/>
        <polygon id="polygon61" class="st5" points="245.8 258.6 254.6 256 258.4 269.4 242.4 269.2 245.8 258.6"/>
        <path id="path61" class="st13" d="M245,248.8c1-.7,2-1.3,2.9-1.8,1.3-.7,2.8-.8,4.2-.3,1.3.5,2.3,1.3,3.3,2.3l-1,7,3.8,13.2h-5.4l-1.1,7.3h-3.8l-1-7.3h-4.7l3.6-10.8-.8-9.6h0Z"/>
        <line id="line61" class="st13" x1="247.1" y1="269.2" x2="257.6" y2="269.2"/>
        <path id="path62" class="st18" d="M230.9,237.5c-1.6,0-2.9,1.1-2.9,2.8.3,1.5.8,2.9,1.5,4.2h2.8c.8-1.3,1.3-2.8,1.6-4.2,0-1.6-1.3-2.8-2.9-2.8h-.1Z"/>
        <polygon id="polygon62" class="st44" points="239.1 267.4 233.7 267.4 232.6 274.6 228.8 274.6 227.8 267.2 223.1 267.2 226.5 256.6 225.7 246.7 230.9 243.2 235.5 246.3 235.2 254 239.1 267.4"/>
        <polygon id="polygon63" class="st60" points="226.5 256.6 235.2 254 239.1 267.4 223.1 267.2 226.5 256.6"/>
        <path id="path63" class="st13" d="M225.7,246.8c1-.7,2-1.3,2.9-1.8,1.3-.7,2.8-.8,4.2-.3,1.3.5,2.3,1.3,3.3,2.3l-1,7,3.8,13.2h-5.4l-1.1,7.3h-3.8l-1-7.3h-4.6l3.4-10.9-.8-9.5h.1Z"/>
        <line id="line63" class="st13" x1="227.8" y1="267.2" x2="238.3" y2="267.2"/>
        <path id="path64" class="st18" d="M240.9,237.5c1.6,0,2.9,1.1,2.9,2.8-.3,1.5-.8,2.9-1.5,4.4h-2.8c-.8-1.3-1.3-2.8-1.6-4.4,0-1.6,1.5-2.8,2.9-2.8h.1Z"/>
        <polygon id="polygon64" class="st44" points="234 246.7 241.1 243.9 247.4 247.1 243.3 276.5 238.5 276.5 234 246.7"/>
        <polygon id="polygon65" class="st50" points="245.6 260 236.3 261.8 238.5 276.5 243.3 276.5 245.6 260"/>
        <path id="path65" class="st13" d="M243.3,245l4.2,2.1-4.2,29.4h-4.9l-4.2-29.9,4.7-1.8c1.3-.5,2.9-.5,4.4.2Z"/>
      </g>
      <path id="path66" class="st61" d="M199.9,283.4h3.4c1.3,0,2.4,1.1,2.4,2.4s-1.1,2.4-2.4,2.4h-1.8v2.8h-1.6v-7.7h0ZM201.6,286.8h1.3c.8,0,1.5-.2,1.5-1.1s-.7-1.1-1.5-1.1h-1.3v2.3h0s0,0,0,0h0Z"/>
      <path id="path67" class="st61" d="M209.6,285.4c1.6,0,2.9,1.3,2.9,2.8s-1.3,2.9-2.8,2.9-2.9-1.3-2.9-2.8h0c-.2-1.5,1-2.8,2.4-2.9,0-.2.2-.2.3,0h.1ZM209.6,289.9c1,0,1.3-.8,1.3-1.8s-.3-1.8-1.3-1.8-1.3.8-1.3,1.8.2,1.8,1.3,1.8Z"/>
      <path id="path68" class="st61" d="M213.3,285.4h1.5v.7h0c.3-.5,1-.8,1.6-.8,1.8,0,2.4,1.3,2.4,2.9.2,1.3-.8,2.6-2.1,2.8h-.2c-.7,0-1.3-.3-1.6-.8h0v2.6h-1.6v-7.4h0ZM217.4,288.1c0-.8-.3-1.8-1.3-1.8s-1.3.8-1.3,1.8.3,1.8,1.3,1.8,1.1-.8,1.3-1.8Z"/>
      <path id="path69" class="st61" d="M224.9,290.9h-1.5v-.8h0c-.3.5-1,1-1.6,1-1.6,0-2-1-2-2.3v-3.3h1.5v3.1c0,1,.3,1.3,1,1.3s1.1-.5,1.1-1.6v-2.9h1.5v5.6h0Z"/>
      <path id="path70" class="st61" d="M226,283.4h1.5v7.5h-1.5v-7.5Z"/>
      <path id="path71" class="st61" d="M228.7,287.1c.2-1.3,1.3-1.8,2.6-1.8s2.4.3,2.4,1.6v2.8c0,.5,0,.8.2,1.1h-1.5c0-.2-.2-.3-.2-.5-.5.5-1.1.7-1.8.7-1,0-1.8-.5-1.8-1.6,0-2.4,3.6-1.1,3.6-2.3s-.5-.7-1-.7-1,.2-1,.8l-1.6-.2h.1ZM232.1,288.3c-.3.2-.8.3-1.3.3-.5.2-.8.3-.8.8s.5.7,1,.7,1.1-.3,1.3-1v-.8h-.2Z"/>
      <path id="path72" class="st61" d="M236.7,285.4h1.1v1h-1.1v2.8c0,.5.2.7.7.7h.5v1.1h-.8c-1,0-1.6-.2-1.6-1.3v-3.3h-1v-1h1v-1.6h1.5l-.2,1.6h0Z"/>
      <path id="path73" class="st61" d="M239.9,284.5h-1.5v-1.3h1.5v1.3ZM238.5,285.4h1.5v5.4h-1.5v-5.4Z"/>
      <path id="path74" class="st61" d="M243.8,285.4c1.6,0,2.9,1.3,2.9,2.8s-1.3,2.9-2.8,2.9-2.9-1.3-2.9-2.8h0c-.2-1.5,1-2.8,2.4-2.9,0-.2.2-.2.3,0h.1ZM243.8,289.9c1,0,1.3-.8,1.3-1.8s-.3-1.8-1.3-1.8-1.3.8-1.3,1.8.3,1.8,1.3,1.8Z"/>
      <path id="path75" class="st61" d="M247.6,285.4h1.5v.8h0c.3-.5,1-1,1.6-1,1.6,0,2,1,2,2.3v3.4h-1.5v-3.1c0-.8-.3-1.3-1-1.3s-1.1.5-1.1,1.6v2.9h-1.5v-5.7h0Z"/>
      <path id="path76" class="st61" d="M256.9,283.4h1.6v2.9h3.1v-2.9h1.6v7.5h-1.6v-3.3h-3.1v3.3h-1.6v-7.5Z"/>
      <path id="path77" class="st61" d="M265.9,288.5c0,1,.5,1.3,1.3,1.3s1-.3,1.1-.7h1.3c-.3,1.1-1.3,2-2.6,1.8-1.5,0-2.8-1.1-2.8-2.6v-.3c-.2-1.5,1-2.8,2.6-2.9,1.5-.2,2.8,1,2.9,2.6v.8h-3.9.1ZM268.3,287.6c-.2-.8-.5-1.1-1.1-1.1s-1.1.5-1.3,1.1h2.4Z"/>
      <path id="path78" class="st61" d="M270.6,287.1c.2-1.3,1.3-1.8,2.6-1.8s2.4.3,2.4,1.6v2.8c0,.5,0,.8.2,1.1h-1.5c0-.2-.2-.3-.2-.5-.5.5-1.1.7-1.8.7-1,0-1.8-.5-1.8-1.6,0-2.4,3.6-1.1,3.6-2.3s-.5-.7-1-.7-1,.2-1,.8l-1.6-.2h.1,0ZM274,288.3c-.3.2-.8.3-1.3.3-.5.2-.8.3-.8.8s.5.7,1,.7,1.1-.3,1.3-1v-.8h-.2Z"/>
      <path id="path79" class="st61" d="M276.8,283.4h1.5v7.5h-1.5v-7.5Z"/>
      <path id="path80" class="st61" d="M281.4,285.4h1.1v1h-1.1v2.8c0,.5.2.7.7.7h.5v1.1h-.8c-1,0-1.8-.2-1.8-1.3v-3.3h-1v-1h1v-1.6h1.5v1.6h-.1Z"/>
      <path id="path81" class="st61" d="M283.2,283.4h1.5v2.8h0c.3-.5,1-1,1.6-1,1.6,0,2,1,2,2.3v3.4h-1.5v-3.1c0-.8-.2-1.3-1-1.3s-1.1.5-1.1,1.6v2.9h-1.5v-7.7h0Z"/>
      <path id="path82" class="st61" d="M211.8,296h2.3l1.8,5.2h0l1.6-5.2h2.3v7.5h-1.6v-5.4h0l-1.8,5.4h-1.3l-1.8-5.2h0v5.2h-1.6l.2-7.5h0Z"/>
      <path id="path83" class="st61" d="M221.1,299.7c0-1.3,1.3-1.8,2.6-1.8s2.4.2,2.4,1.5v2.8c0,.5,0,.8.2,1.1h-1.6c0-.2-.2-.3-.2-.5-.5.5-1.1.7-1.8.7-1,0-1.8-.5-1.8-1.6,0-2.4,3.8-1.1,3.6-2.3,0-.7-.5-.7-1-.7s-1,.2-1,.8h-1.5.1ZM224.6,300.9c-.3.2-.8.3-1.3.3-.5.2-.8.3-.8.8s.5.7,1,.7,1.1-.3,1.1-1v-.8Z"/>
      <path id="path84" class="st61" d="M227.2,298.1h1.5v.8h0c.3-.5,1-1,1.6-1,1.6,0,2,.8,2,2.3v3.4h-1.5v-3.1c0-1-.3-1.3-1-1.3s-1.1.5-1.1,1.6v2.9h-1.5v-5.7h0Z"/>
      <path id="path85" class="st61" d="M233.4,299.7c0-1.3,1.3-1.8,2.6-1.8s2.4.2,2.4,1.5v2.8c0,.5,0,.8.2,1.1h-1.5c0-.2-.2-.3-.2-.5-.5.5-1.1.7-1.8.7-1,0-1.8-.5-1.8-1.6,0-2.4,3.8-1.1,3.6-2.3,0-.7-.5-.7-1-.7s-1,.2-1,.8h-1.6.1ZM236.8,300.9c-.3.2-.8.3-1.3.3-.5.2-1,.3-1,.8s.5.7,1,.7,1.1-.3,1.1-1v-.3l.2-.5Z"/>
      <path id="path86" class="st61" d="M244.8,303.1c0,1-.3,2.4-2.8,2.4s-2.3-.5-2.4-1.8h1.5c.2.5.7.8,1.1.7.8,0,1.1-.5,1.1-1.3v-.7h0c-.3.5-1,.8-1.6.8-1.6,0-2.3-1.3-2.3-2.8-.2-1.3.8-2.6,2.1-2.6h.2c.7,0,1.3.3,1.6.8h0v-.7h1.5v5.2h0ZM243.3,300.7c0-.8-.3-1.6-1.3-1.6s-1.3.7-1.3,1.5.3,1.6,1.3,1.6,1.3-.5,1.3-1.5c0,.2,0,0,0,0Z"/>
      <path id="path87" class="st61" d="M247.3,301.2c0,1,.5,1.3,1.3,1.3s1-.2,1.1-.7h1.3c-.3,1.1-1.3,2-2.6,1.8-1.5,0-2.8-1-2.8-2.4v-.3c-.2-1.5,1-2.8,2.6-2.9,1.5-.2,2.8,1,2.9,2.6v.8h-3.9v-.2h0ZM249.6,300.2c-.2-.8-.5-1.1-1.1-1.1s-1.1.5-1.3,1.1h2.4Z"/>
      <path id="path88" class="st61" d="M252,298.1h1.5v.7h0c.3-.5,1-.8,1.6-.8s1.3.3,1.6,1c.3-.5,1-.8,1.6-1,1-.2,1.8.5,2,1.5v4.1h-1.5v-3.1c0-.7,0-1.3-1-1.3s-1,.7-1,1.3v3.1h-1.5v-3.1c0-.7,0-1.3-1-1.3s-1,.2-1,1.3v3.1h-1.5v-5.4h.2,0Z"/>
      <path id="path89" class="st61" d="M262.8,301.2c0,1,.5,1.3,1.3,1.3s1-.3,1.1-.7h1.3c-.3,1.1-1.3,2-2.6,1.8-1.5,0-2.8-1-2.8-2.4v-.3c-.2-1.5,1-2.8,2.6-2.9,1.5-.2,2.8,1,2.9,2.6v.8h-3.9v-.2h.1ZM265.2,300.2c-.2-.8-.5-1.1-1.1-1.1s-1.1.5-1.3,1.1h2.4Z"/>
      <path id="path90" class="st61" d="M267.7,298.1h1.5v.8h0c.3-.5,1-1,1.6-1,1.6,0,2,.8,2,2.3v3.4h-1.5v-3.1c0-1-.3-1.3-1-1.3s-1.1.5-1.1,1.6v2.9h-1.5v-5.7h0Z"/>
      <path id="path91" class="st61" d="M275.8,298.1h1.1v1h-1.1v2.8c0,.5.2.7.7.7h.5v1.1h-.8c-1,0-1.8-.2-1.8-1.3v-3.3h-1v-1h1v-1.6h1.5v1.6h-.1Z"/>
    </g>
    <g id="WorkForceManagement">
      <circle id="circle91" class="st44" cx="507.6" cy="252.8" r="21.1"/>
      <path id="path92" class="st18" d="M498.4,241.4c-1.8,0-3.4,1.5-3.4,3.3.3,1.8,1,3.4,1.8,5.1h3.3c1-1.6,1.6-3.3,1.8-5.1,0-1.8-1.5-3.3-3.3-3.3h-.2,0Z"/>
      <path id="path93" class="st44" d="M492.3,252s4.1-2.6,6-2.6,6.2,2.9,6.2,2.9l-1.5,10.9-9.8.3-1-11.6h.1,0Z"/>
      <polygon id="polygon93" class="st64" points="493.3 261 503.6 258.1 502.9 263.5 493.3 263.5 493.3 261"/>
      <path id="path94" class="st13" d="M492.3,252.4c1.1-.8,2.3-1.5,3.4-2.1,1.5-.7,3.3-.8,4.9-.3,1.5.7,2.8,1.5,3.8,2.6l-1.5,10.9h-9.8l-.8-11.1Z"/>
      <path id="path95" class="st18" d="M517.3,242.2c-1.8,0-3.4,1.5-3.4,3.3.3,1.8,1,3.4,1.8,5.1h3.3c1-1.6,1.6-3.3,1.8-5.1,0-1.8-1.5-3.3-3.3-3.3h-.2,0Z"/>
      <path id="path96" class="st44" d="M511.3,252.9s4.1-2.6,6-2.6,6.2,2.9,6.2,2.9l-1.5,10.9-9.8.3-1-11.6h.1,0Z"/>
      <polygon id="polygon96" class="st24" points="512.2 261.8 522.5 258.9 521.9 264.3 512.2 264.3 512.2 261.8"/>
      <path id="path97" class="st13" d="M511.3,253.2c1.1-.8,2.3-1.5,3.4-2.1,1.5-.7,3.3-.8,4.9-.3,1.5.7,2.8,1.5,3.8,2.6l-1.5,10.9h-9.8l-.8-11.1h0Z"/>
      <path id="path98" class="st18" d="M508,241.9c1.8,0,3.4,1.5,3.4,3.3-.3,1.8-1,3.4-1.8,5.1h-3.3c-1-1.6-1.6-3.3-2-5.1,0-1.8,1.5-3.3,3.3-3.3h.4Z"/>
      <path id="path99" class="st44" d="M508,250.1c2.3,0,7.7,3.1,7.7,3.1l-1.8,12.7h-11.9l-2-13.4s5.7-2.4,8-2.4h0Z"/>
      <polygon id="polygon99" class="st50" points="514.5 260.5 501.3 263.1 502 265.9 513.9 265.9 514.5 260.5"/>
      <path id="path100" class="st13" d="M510.8,250.7l4.9,2.4-1.8,12.7h-11.9l-2-13.4,5.6-2.1c1.6-.5,3.6-.5,5.2.3h0Z"/>
      <g id="Learning_Services">
        <circle id="circle101" class="st0" cx="522.7" cy="268.7" r="6.9"/>
        <polygon id="polygon101" class="st18" points="525.8 265.4 527.6 267.4 521.1 273.1 517.6 269.8 519.4 268 521.2 269.7 525.8 265.4"/>
      </g>
      <path id="path101" class="st15" d="M508,229.4c-13.2,0-24,10.8-24,24s10.8,24,24,24,24-10.8,24-24h0c-.2-13.4-10.8-24-24-24ZM508,274.2c-11.6,0-21.1-9.5-21.1-21.1s9.5-21.1,21.1-21.1,21.1,9.5,21.1,21.1h0c-.2,11.6-9.5,21.1-21.1,21.1h0Z"/>
      <path id="path102" class="st61" d="M488.9,291.6h-1.6l-1.3-5.1h0l-1.3,5.1h-1.6l-2-7.5h1.6l1.1,5.1h0l1.3-5.1h1.6l1.3,5.2h0l1.1-5.2h1.6l-2,7.5h.2,0Z"/>
      <path id="path103" class="st61" d="M494.1,286c1.6,0,2.9,1.1,2.9,2.8s-1.1,2.9-2.8,2.9-2.9-1.1-2.9-2.8h0c-.2-1.5,1-2.8,2.4-2.9h.4ZM494.1,290.6c1,0,1.3-.8,1.3-1.8s-.3-1.8-1.3-1.8-1.3.8-1.3,1.8.3,1.8,1.3,1.8Z"/>
      <path id="path104" class="st61" d="M498,286.2h1.5v1h0c.3-.7,1-1.1,1.8-1.1h.3v1.3h-.5c-1.1,0-1.5.8-1.5,1.8v2.4h-1.5l-.2-5.4h.1Z"/>
      <path id="path105" class="st61" d="M502.3,284h1.5v4.1l2-2h1.8l-2.1,2,2.3,3.4h-1.8l-1.5-2.4-.7.5v1.8h-1.5v-7.4h0Z"/>
      <path id="path106" class="st61" d="M508.5,287.1h-.8v-1h.8v-.5c0-1,.7-1.6,1.6-1.6h1v1.1h-.5c-.3,0-.5.2-.5.7v.3h1v1h-1v4.4h-1.5v-4.4h-.2.1Z"/>
      <path id="path107" class="st61" d="M514.2,286c1.6,0,2.9,1.1,2.9,2.8s-1.1,2.9-2.8,2.9-2.9-1.1-2.9-2.8h0c-.2-1.5,1-2.8,2.4-2.9h.4,0ZM514.2,290.6c1,0,1.3-.8,1.3-1.8s-.3-1.8-1.3-1.8-1.3.8-1.3,1.8.3,1.8,1.3,1.8Z"/>
      <path id="path108" class="st61" d="M518.1,286.2h1.5v1h0c.3-.7,1-1.1,1.8-1.1h.3v1.3h-.5c-1.1,0-1.5.8-1.5,1.8v2.4h-1.5l-.2-5.4h.1Z"/>
      <path id="path109" class="st61" d="M526,288c0-.5-.5-1-1-1h0c-1,0-1.3,1-1.3,1.8s.3,1.8,1.3,1.8,1.1-.5,1.1-1.1h1.5c-.2,1.3-1.3,2.3-2.6,2.3h0c-1.5,0-2.6-1-2.8-2.4v-.3c-.2-1.5,1-2.8,2.4-2.9h.3c1.3-.2,2.4.8,2.6,2h-1.6v-.2h0Z"/>
      <path id="path110" class="st61" d="M529.4,289.3c0,1,.5,1.3,1.3,1.3s1-.3,1.1-.7h1.3c-.3,1.1-1.3,2-2.6,1.8-1.5,0-2.8-1-2.8-2.4v-.3c-.2-1.5,1-2.8,2.6-2.9,1.5-.2,2.8,1,2.9,2.6v.8h-3.9v-.2h.1ZM531.8,288.3c-.2-.8-.5-1.1-1.1-1.1s-1.1.5-1.3,1.1v.2h2.4v-.2h0Z"/>
      <path id="path111" class="st61" d="M475,296.8h2.3l1.8,5.2h0l1.6-5.2h2.3v7.5h-1.6v-5.4h0l-1.8,5.4h-1.3l-1.8-5.2h0v5.2h-1.6l.2-7.5h-.1Z"/>
      <path id="path112" class="st61" d="M484.5,300.5c0-1.5,1.3-1.8,2.6-1.8s2.4.3,2.4,1.6v2.8c0,.5,0,.8.2,1.1h-1.5c0-.2-.2-.3-.2-.5-.5.5-1.1.7-1.8.7-1,0-1.8-.5-1.8-1.6,0-2.4,3.8-1.1,3.6-2.3,0-.7-.5-.8-1-.8s-1,.3-1,.7v.2h-1.6.1,0ZM487.9,301.5c-.3.2-.8.3-1.3.3s-.8.3-.8.8.5.7,1,.7,1.1-.3,1.1-1v-.8h0Z"/>
      <path id="path113" class="st61" d="M490.5,298.7h1.5v.8h0c.3-.5,1-1,1.6-1,1.6,0,2,1,2,2.3v3.4h-1.5v-3.1c0-1-.3-1.3-1-1.3s-1.1.5-1.1,1.6v2.9h-1.5v-5.7h0Z"/>
      <path id="path114" class="st61" d="M496.7,300.5c.2-1.5,1.3-1.8,2.6-1.8s2.4.3,2.4,1.6v2.8c0,.5,0,.8.2,1.1h-1.5c0-.2-.2-.3-.2-.5-.5.5-1.1.7-1.8.7-1,0-1.8-.5-1.8-1.6,0-2.4,3.8-1.1,3.6-2.3,0-.7-.5-.8-1-.8s-1,.3-1,.8h-1.6.1,0ZM500.2,301.5c-.3.2-.8.3-1.3.3s-.8.3-.8.8.5.7,1,.7,1.1-.3,1.1-1v-.8h0Z"/>
      <path id="path115" class="st61" d="M508,304c0,1-.3,2.4-2.8,2.4s-2.3-.5-2.4-1.8h1.5c.2.5.7.8,1.1.8.8,0,1.3-.5,1.1-1.3v-.7h0c-.3.5-1,.8-1.6.8-1.6,0-2.3-1.3-2.3-2.8-.2-1.3.8-2.6,2.1-2.6h.2c.7,0,1.3.3,1.6.8h0v-1h1.5v5.4h0ZM506.7,301.5c0-.8-.3-1.6-1.3-1.6s-1.1.7-1.1,1.6.3,1.6,1.1,1.6,1.3-.7,1.3-1.3v-.3h0Z"/>
      <path id="path116" class="st61" d="M510.5,301.8c0,1,.5,1.3,1.3,1.3s1-.3,1.1-.7h1.3c-.3,1.1-1.3,2-2.6,1.8-1.5,0-2.8-1.1-2.8-2.6v-.3c-.2-1.5,1-2.8,2.6-2.9,1.5-.2,2.8,1,2.9,2.6v.8h-3.9.1ZM512.9,300.9c-.2-.8-.5-1.1-1.1-1.1s-1.1.5-1.3,1.1v.2h2.4v-.2Z"/>
      <path id="path117" class="st61" d="M515.3,298.7h1.5v.7h0c.3-.5,1-.8,1.6-.8s1.3.3,1.6,1c.3-.5,1-1,1.6-1,1-.2,1.8.5,2,1.5v4.1h-1.5v-3.1c0-.7,0-1.3-1-1.3s-1,.7-1,1.3v3.1h-1.5v-2.9c0-.7,0-1.3-1-1.3s-1,.2-1,1.3v3.1h-1.5v-5.6h.2q0-.1,0-.1Z"/>
      <path id="path118" class="st61" d="M526.1,301.8c0,1,.5,1.3,1.3,1.3s1-.3,1.1-.7h1.5c-.3,1.1-1.3,2-2.6,1.8-1.5,0-2.8-1.1-2.8-2.6v-.3c-.2-1.5,1-2.8,2.6-2.9,1.5-.2,2.8,1,2.9,2.6v.8h-4.1,0ZM528.6,300.9c-.2-.8-.5-1.1-1.1-1.1s-1.1.5-1.3,1.1v.2h2.4v-.2h0Z"/>
      <path id="path119" class="st61" d="M531,298.7h1.5v.8h0c.3-.5,1-1,1.6-1,1.6,0,2,1,2,2.3v3.4h-1.5v-3.1c0-1-.2-1.3-1-1.3s-1.1.5-1.1,1.6v2.9h-1.5v-5.7h0Z"/>
      <path id="path120" class="st61" d="M539,298.7h1.1v1h-1.1v2.8c0,.5.2.7.7.7h.5v1.1h-.8c-1,0-1.6-.2-1.6-1.3v-3.3h-1v-1h1v-1.6h1.5l-.2,1.6h-.1Z"/>
    </g>
    <g id="CareGuidanceSolutions">
      <circle id="circle120" class="st22" cx="531.3" cy="391.3" r="24.3"/>
      <circle id="circle121" class="st40" cx="531.1" cy="390.9" r="20.1" transform="translate(-61.5 680.3) rotate(-62.4)"/>
      <line id="line121" class="st7" x1="547.8" y1="391.3" x2="541.8" y2="391.3"/>
      <line id="line122" class="st7" x1="520.9" y1="391.3" x2="514.9" y2="391.3"/>
      <line id="line123" class="st7" x1="531.3" y1="407.8" x2="531.3" y2="401.8"/>
      <line id="line124" class="st7" x1="531.3" y1="380.7" x2="531.3" y2="374.8"/>
      <polygon id="polygon124" class="st45" points="524.3 378.7 534.6 389.5 528.2 393.1 524.3 378.7"/>
      <polygon id="polygon125" class="st7" points="524.3 378.7 534.6 389.5 538.5 403.7 528.2 393.1 524.3 378.7"/>
      <circle id="circle125" class="st20" cx="531.3" cy="391.3" r="1.3"/>
      <path id="path125" class="st61" d="M498.2,429.5c-.2-.8-.8-1.3-1.6-1.3-1.5,0-2,1.3-2,2.6s.5,2.4,2,2.4,1.6-.7,1.6-1.5v-.2h1.6c0,1.8-1.5,3.1-3.3,3.1h0c-2.1-.2-3.8-2-3.8-4.2.2-2,1.6-3.6,3.8-3.8,1.6-.2,3.1,1.1,3.3,2.8h-1.6Z"/>
      <path id="path126" class="st61" d="M500.8,430.7c0-1.5,1.3-1.8,2.6-1.8s2.4.2,2.4,1.6v2.8c0,.5,0,.8.2,1.3h-1.5c0-.2-.2-.3-.2-.5-.5.5-1.1.7-1.8.7-1,0-1.8-.5-1.8-1.6,0-2.4,3.6-1.1,3.6-2.4s-.5-.7-1-.7-1,.2-1,.8l-1.6-.2h.1,0ZM504.2,431.8c-.2.2-.8.2-1.3.3-.5.2-.8.2-.8.8s.5.7,1,.7,1.1-.3,1.1-1v-.8h0Z"/>
      <path id="path127" class="st61" d="M506.9,429h1.5v1h0c.3-.7,1-1.1,1.8-1.1h.3v1.5h-.5c-1.1,0-1.5.8-1.5,1.8v2.4h-1.5l-.2-5.6h.1Z"/>
      <path id="path128" class="st61" d="M512.2,432.1c0,1,.5,1.5,1.3,1.5s1-.3,1.1-.7h1.3c-.3,1.1-1.3,2-2.6,1.8-1.5,0-2.8-1.1-2.8-2.6v-.3c-.2-1.5,1-2.8,2.6-2.9,1.5-.2,2.8,1,2.9,2.6v.8l-3.9-.2h.1ZM514.7,431.1c-.2-.8-.5-1.1-1.1-1.1s-1.1.5-1.3,1.1h2.4,0Z"/>
      <path id="path129" class="st61" d="M522.7,433.6c-.5.7-1.3,1-2.1,1-2.1-.2-3.8-2-3.8-4.2.2-2,1.6-3.6,3.8-3.8,1.6-.2,2.9,1.1,3.1,2.6h-1.6c-.2-.8-.8-1.3-1.6-1.3-1.5,0-2,1.3-2,2.6s.5,2.4,2,2.4c.8.2,1.6-.5,1.8-1.5v-.2h-1.6v-1.3h3.1v4.1h-1v-.5h-.1Z"/>
      <path id="path130" class="st61" d="M530.2,434.6h-1.5v-.8h0c-.3.5-1,1-1.6,1-1.6,0-2-1-2-2.3v-3.4h1.5v3.1c0,1,.2,1.3,1,1.3s1.1-.5,1.1-1.6v-2.9h1.5v5.7h0Z"/>
      <path id="path131" class="st61" d="M532.8,428.2h-1.5v-1.3h1.5v1.3ZM531.3,429h1.5v5.4h-1.5v-5.4Z"/>
      <path id="path132" class="st61" d="M537.9,433.8h0c-.3.5-1,.8-1.6.8-1.6,0-2.4-1.5-2.4-2.9-.2-1.3.8-2.6,2.1-2.8h.2c.7,0,1.3.3,1.6.8h0v-2.8h1.5v7.5h-1.5l.2-.7h0ZM536.6,430c-1,0-1.3.8-1.3,1.8s.3,1.8,1.3,1.8,1.3-.8,1.3-1.8-.3-1.8-1.3-1.8Z"/>
      <path id="path133" class="st61" d="M540.5,430.7c0-1.5,1.3-1.8,2.6-1.8s2.4.2,2.4,1.6v2.8c0,.5,0,.8.2,1.3h-1.5c0-.2-.2-.3-.2-.5-.5.5-1.1.7-1.8.7-1,0-1.8-.5-1.8-1.6,0-2.4,3.8-1.1,3.6-2.4,0-.7-.5-.7-1-.7s-1,.2-1,.8l-1.6-.2h0ZM543.9,431.8c-.2.2-.8.2-1.3.3-.5.2-.8.2-.8.8s.5.7,1,.7,1.1-.3,1.1-1v-.8Z"/>
      <path id="path134" class="st61" d="M546.5,429h1.5v.8h0c.3-.5,1-1,1.6-1,1.6,0,2,1,2,2.3v3.4h-1.5v-3.1c0-1-.3-1.3-1-1.3s-1.1.5-1.1,1.6v2.9h-1.5v-5.7h0Z"/>
      <path id="path135" class="st61" d="M556.5,431c0-.5-.5-1-1.1-1h0c-1,0-1.3,1-1.3,1.8s.3,1.8,1.3,1.8,1.1-.5,1.1-1.1h1.5c-.2,1.3-1.3,2.3-2.6,2.3s-2.8-1.1-2.8-2.4v-.3c-.2-1.5,1-2.8,2.4-2.9h.3c1.3-.2,2.4.8,2.6,2.1h0l-1.5-.2h0Z"/>
      <path id="path136" class="st61" d="M560.1,432.1c0,1,.5,1.5,1.3,1.5s1-.3,1.1-.7h1.3c-.3,1.1-1.3,2-2.6,1.8-1.5,0-2.8-1.1-2.8-2.6v-.3c0-1.5,1.1-2.8,2.6-2.9,1.5,0,2.8,1.1,2.9,2.6v.7h-3.9.1ZM562.5,431.1c-.2-.8-.5-1.1-1.1-1.1s-1.1.5-1.3,1.1h2.4,0Z"/>
      <path id="path137" class="st61" d="M566.8,427.1h-.7v2.1h-.7v-2.1h-.7v-.5h2.1v.5h-.2.2ZM570,429.2h-.7v-1.8h0l-.7,1.8h-.5l-.7-1.8h0v1.8h-.7v-2.6h.8l.7,1.6.7-1.6h.8l.2,2.6h.1Z"/>
      <path id="path138" class="st61" d="M509.8,444.7c0,1,.8,1.5,1.6,1.5s1.5-.2,1.5-1-1.1-1-2.3-1.3c-1.1-.3-2.3-.7-2.3-2.1.2-1.3,1.3-2.4,2.8-2.3h0c1.6,0,3.1.7,3.1,2.4h-1.6c0-.8-.7-1.1-1.5-1.1s-1.1.2-1.1.8.3.7,2.3,1.1c.5.2,2.3.5,2.3,2.1s-1.1,2.4-3.1,2.4-3.3-.8-3.3-2.6h1.6,0Z"/>
      <path id="path139" class="st61" d="M518,441.6c1.6,0,2.9,1.1,2.9,2.8s-1.1,2.9-2.8,2.9-2.9-1.1-2.9-2.8h0c-.2-1.5,1-2.8,2.4-2.9h.4,0ZM518,446.2c1,0,1.3-.8,1.3-1.8s-.3-1.8-1.3-1.8-1.3.8-1.3,1.8.3,1.8,1.3,1.8Z"/>
      <path id="path140" class="st61" d="M521.9,439.6h1.5v7.5h-1.5v-7.5Z"/>
      <path id="path141" class="st61" d="M529.7,447.1h-1.5v-.8h0c-.3.5-1,1-1.6,1-1.6,0-2-1-2-2.3v-3.4h1.5v3.1c0,.8.3,1.3,1,1.3s1.1-.5,1.1-1.6v-2.9h1.5v5.7h0Z"/>
      <path id="path142" class="st61" d="M532.7,441.8h1.1v1h-1.1v2.8c0,.5.2.7.7.7h.5v1.1h-.8c-1,0-1.8-.2-1.8-1.3v-3.3h-.8v-1h.8v-1.6h1.5v1.6h-.1Z"/>
      <path id="path143" class="st61" d="M536.1,440.9h-1.5v-1.3h1.5v1.3ZM534.6,441.8h1.5v5.4h-1.5v-5.4Z"/>
      <path id="path144" class="st61" d="M539.8,441.6c1.6,0,2.9,1.1,2.9,2.8s-1.1,2.9-2.8,2.9-2.9-1.1-2.9-2.8h0c-.2-1.5,1-2.8,2.4-2.9h.4,0ZM539.8,446.2c1,0,1.3-.8,1.3-1.8s-.3-1.8-1.3-1.8-1.3.8-1.3,1.8.3,1.8,1.3,1.8Z"/>
      <path id="path145" class="st61" d="M543.6,441.8h1.5v.7h0c.3-.5,1-1,1.6-1,1.6,0,2,1,2,2.3v3.3h-1.5v-2.9c0-.8-.2-1.3-1-1.3s-1.1.5-1.1,1.6v2.9h-1.5v-5.6Z"/>
      <path id="path146" class="st61" d="M551.1,445.4c0,.7.7,1,1.1,1s1-.2,1-.7-.7-.7-1.6-.8c-.9-.1-1.8-.5-1.8-1.5,0-1.5,1.1-1.8,2.4-1.8s2.3.3,2.4,1.8h-1.5c0-.7-.5-.8-1-.8s-.8,0-.8.5.8.7,1.6.8c.8.1,1.8.5,1.8,1.5,0,1.5-1.3,2-2.4,2s-2.4-.5-2.6-2h1.4,0Z"/>
    </g>
    <g id="DataSolutions">
      <path id="path147" class="st61" d="M434.7,537.8h3.3c1.8-.2,3.3,1.3,3.4,3.1v.7c.3,1.8-.8,3.4-2.6,3.8h-4.1v-7.6h0ZM436.3,544h1.5c1,0,1.8-.7,1.8-2.3s-.5-2.4-2.1-2.4h-1.1v4.7h-.1,0Z"/>
      <path id="path148" class="st61" d="M442.2,541.5c.2-1.5,1.3-1.8,2.6-1.8s2.4.2,2.4,1.6v2.8c0,.5,0,.8.2,1.1h-1.5c0-.2-.2-.3-.2-.5-.5.5-1.1.7-1.8.7-1,0-1.8-.5-1.8-1.6,0-2.4,3.8-1.1,3.6-2.4,0-.7-.5-.8-1-.8s-1,.2-1,.8l-1.6.2h.1,0ZM445.6,542.7c-.2.2-.8.2-1.3.3s-.8.2-.8.8.5.7,1,.7,1.1-.3,1.1-1v-.8h0Z"/>
      <path id="path149" class="st61" d="M450.2,539.9h1.1v1h-1.1v2.6c0,.5.2.7.7.7h.5v1.1h-.8c-1,0-1.6-.2-1.6-1.3v-3.3h-1v-1h1v-1.6h1.5l-.2,1.8h-.1Z"/>
      <path id="path150" class="st61" d="M452,541.5c.2-1.5,1.3-1.8,2.6-1.8s2.4.2,2.4,1.6v2.8c0,.5,0,.8.2,1.1h-1.5c0-.2-.2-.3-.2-.5-.5.5-1.1.7-1.8.7-1,0-1.8-.5-1.8-1.6,0-2.4,3.8-1.1,3.6-2.4,0-.7-.5-.8-1-.8s-1,.2-1,.8l-1.6.2h.1,0ZM455.4,542.7c-.2.2-.8.2-1.3.3s-.8.2-.8.8.5.7,1,.7,1.1-.3,1.1-1v-.8h0Z"/>
      <path id="path151" class="st61" d="M424.1,555.4c0,1,.8,1.5,1.6,1.5s1.5-.2,1.5-1-1.1-1-2.3-1.3c-1.1-.3-2.3-.8-2.3-2.1s1.5-2.3,2.8-2.3,2.9.7,2.9,2.4h-1.6c0-.8-.7-1.1-1.5-1.1s-1.1.2-1.1.8.3.7,2.3,1.1c.5.2,2.3.5,2.3,2.1s-1.1,2.4-3.1,2.4-3.3-.8-3.3-2.6h1.8Z"/>
      <path id="path152" class="st61" d="M432.2,552.3c1.6,0,2.9,1.1,2.9,2.8s-1.1,2.9-2.8,2.9-2.9-1.1-2.9-2.8h0c-.2-1.5,1-2.8,2.4-2.9h.4ZM432.2,557c1,0,1.3-.8,1.3-1.8s-.3-1.8-1.3-1.8-1.3.8-1.3,1.8.3,1.8,1.3,1.8Z"/>
      <path id="path153" class="st61" d="M436.2,550.5h1.5v7.5h-1.5v-7.5Z"/>
      <path id="path154" class="st61" d="M443.8,558h-1.5v-.8h0c-.3.5-1,1-1.6,1-1.6,0-2-.8-2-2.3v-3.3h1.5v3.1c0,.8.3,1.3,1,1.3s1.1-.5,1.1-1.6v-2.9h1.5v5.6h0Z"/>
      <path id="path155" class="st61" d="M446.9,552.5h1.1v1h-1.1v2.8c0,.5.2.7.7.7h.5v1.1h-.8c-1,0-1.8-.2-1.8-1.3v-3.3h-1v-1h1v-1.6h1.5v1.6h-.1Z"/>
      <path id="path156" class="st61" d="M450.2,551.6h-1.5v-1.3h1.5v1.3ZM448.7,552.5h1.5v5.4h-1.5v-5.4Z"/>
      <path id="path157" class="st61" d="M454.1,552.3c1.6,0,2.9,1.1,2.9,2.8s-1.1,2.9-2.8,2.9-2.9-1.1-2.9-2.8h0c-.2-1.5,1-2.8,2.4-2.9h.4ZM454.1,557c1,0,1.3-.8,1.3-1.8s-.3-1.8-1.3-1.8-1.3.8-1.3,1.8.3,1.8,1.3,1.8Z"/>
      <path id="path158" class="st61" d="M457.9,552.5h1.5v.8h0c.3-.5,1-1,1.6-1,1.6,0,2,.8,2,2.3v3.4h-1.5v-3.1c0-.8-.2-1.3-1-1.3s-1.1.5-1.1,1.6v2.9h-1.5v-5.7h0Z"/>
      <path id="path159" class="st61" d="M465.4,556.2c0,.7.7,1,1.1,1s1-.2,1-.7-.7-.7-1.6-.8-1.6-.5-1.6-1.5c0-1.5,1.1-1.8,2.4-1.8s2.3.3,2.4,1.8h-1.5c0-.7-.5-.8-1-.8s-.8,0-.8.5.8.7,1.6.8c.8,0,1.8.5,1.8,1.5,0,1.5-1.3,2-2.4,2s-2.4-.5-2.6-2h1.2Z"/>
      <path id="path160" class="st23" d="M443.7,488.3c-10.4,0-19.1,3.1-19.1,7v24.8c0,3.9,8.5,7,19.1,7s19.1-3.1,19.1-7v-24.8c0-3.9-8.5-7-19.1-7Z"/>
      <path id="path161" class="st53" d="M462.8,520.8s-1.8,5.1-13.2,5.7l5.4-25.5c3.3-.3,6-2,8-4.6v24.3h-.2,0Z"/>
      <path id="path162" class="st11" d="M424.6,495.3v24.8c0,3.9,8.5,7,19.1,7s19.1-3.1,19.1-7v-24.8"/>
      <path id="path163" class="st11" d="M462.8,512.1c0,3.9-8.5,7-19.1,7s-19.1-3.1-19.1-7"/>
      <path id="path164" class="st11" d="M462.8,504.1c0,3.9-8.5,7-19.1,7s-19.1-3.1-19.1-7"/>
      <ellipse id="ellipse164" class="st11" cx="443.7" cy="495.3" rx="19.1" ry="7"/>
      <line id="line164" class="st11" x1="462.8" y1="527.3" x2="462.8" y2="486.8"/>
      <polygon id="polygon164" class="st12" points="466.2 488 462.6 482.1 459 488 466.2 488"/>
      <polyline id="polyline164" class="st11" points="455.1 501.5 455.1 511.1 462.8 518.3"/>
      <polyline id="polyline165" class="st11" points="469.6 497.6 469.6 504.5 462.8 511"/>
      <circle id="circle165" class="st19" cx="455.1" cy="500.5" r="3.3"/>
      <circle id="circle166" class="st12" cx="462.8" cy="524.5" r="4.1"/>
      <rect id="rect166" class="st6" x="466.4" y="492.5" width="6" height="6"/>
    </g>
    <g id="PlexusServices">
      <circle id="circle167" class="st20" cx="302.6" cy="506.2" r="21.6"/>
      <path id="path166" class="st17" d="M286.9,521.1c3.6,3.9,13.6.3,22.2-7.8,8.6-8.1,12.7-18,9-21.7"/>
      <path id="path167" class="st7" d="M317.5,521.9c3.9-3.6.3-13.6-7.8-22.2-8.1-8.6-18-12.7-21.9-9"/>
      <path id="path168" class="st7" d="M287.8,490.6c-3.9,3.6-.3,13.6,7.8,22.2,8.2,8.7,18,12.7,21.7,9"/>
      <path id="path169" class="st7" d="M318.1,491.4c-3.6-3.9-13.6-.3-22.2,7.8-8.7,8.2-12.7,18-9,21.7"/>
      <circle id="circle169" class="st4" cx="288.1" cy="490.6" r="4.2"/>
      <circle id="circle170" class="st22" cx="315" cy="506.2" r="4.2"/>
      <circle id="circle171" class="st8" cx="295.3" cy="512.3" r="4.2"/>
      <path id="path171" class="st61" d="M283.5,537.1h3.4c1.3,0,2.4,1.1,2.4,2.4s-1.1,2.4-2.4,2.4h-1.8v2.6h-1.6v-7.5h0ZM285.1,540.7h1.3c.8,0,1.5-.2,1.5-1.1s-.7-1.1-1.5-1.1h-1.3v2.3h0Z"/>
      <path id="path172" class="st61" d="M290.5,537.1h1.5v7.5h-1.5v-7.5Z"/>
      <path id="path173" class="st61" d="M294.3,542.3c0,1,.5,1.3,1.3,1.3s1-.3,1.1-.7h1.3c-.3,1.1-1.3,2-2.6,1.8-1.5,0-2.8-1-2.8-2.4v-.3c-.2-1.5,1-2.8,2.6-2.9,1.6-.2,2.8,1,2.9,2.6v.8h-3.9v-.2h.1ZM296.7,541.4c-.2-.8-.5-1.1-1.1-1.1s-1.1.5-1.3,1.1h2.4Z"/>
      <path id="path174" class="st61" d="M300.7,541.8l-1.8-2.6h1.6l1,1.5,1-1.5h1.6l-1.8,2.6,2,2.9h-1.6l-1.1-1.6-1.1,1.6h-1.6l2-2.9h-.2Z"/>
      <path id="path175" class="st61" d="M310,544.6h-1.5v-.8h0c-.3.5-1,.8-1.6.8-1.6,0-2-.8-2-2.3v-3.4h1.5v3.1c0,.8.3,1.3,1,1.3s1.1-.5,1.1-1.6v-2.8h1.5v5.7Z"/>
      <path id="path176" class="st61" d="M312.2,542.8c0,.7.7,1,1.1,1s1-.2,1-.7-.7-.7-1.6-.8-1.8-.5-1.8-1.5c0-1.5,1.1-1.8,2.4-1.8s2.3.3,2.4,1.8h-1.5c0-.7-.5-.8-1-.8s-.8,0-.8.5.8.7,1.6.8c.8,0,1.8.5,1.8,1.5,0,1.5-1.3,2-2.4,2s-2.4-.5-2.6-2h1.4Z"/>
      <path id="path177" class="st61" d="M318.6,537.3h-.7v2h-.7v-2h-.7v-.5h2.1v.5h-.2.2ZM321.9,539.2h-.7v-1.8h0l-.7,1.8h-.5l-.7-1.8h0v1.8h-.7v-2.4h.8l.7,1.6.7-1.6h.8l.2,2.4h.1Z"/>
      <path id="path178" class="st61" d="M283,554.9c0,1,.8,1.5,1.6,1.5s1.5-.2,1.5-1-1.1-1-2.3-1.3c-1.1-.3-2.3-.8-2.3-2.1s1.5-2.3,2.8-2.3,3.1.7,3.1,2.4h-1.6c0-.8-.7-1.1-1.5-1.1s-1.1.2-1.1.8.3.7,2.3,1.1c.5.2,2.3.5,2.3,2.3s-1,2.4-3.1,2.4-3.3-.8-3.3-2.6h1.6v-.2h0Z"/>
      <path id="path179" class="st61" d="M289.7,554.9c0,1,.5,1.5,1.3,1.5s1-.3,1.1-.7h1.3c-.3,1.1-1.3,2-2.6,1.8-1.5,0-2.8-1.1-2.8-2.6v-.3c-.2-1.5,1-2.8,2.6-2.9,1.6-.2,2.8,1,2.9,2.6v.8h-3.9v-.2h.1ZM292.2,554.1c-.2-.8-.5-1.1-1.1-1.1s-1.1.5-1.3,1.1v.2h2.4v-.2Z"/>
      <path id="path180" class="st61" d="M294.6,551.8h1.5v1h0c.3-.7,1-1.1,1.8-1.1h.3v1.5h-.5c-1.1,0-1.5.8-1.5,1.8v2.4h-1.5l-.2-5.6h.1Z"/>
      <path id="path181" class="st61" d="M301.6,557.4h-1.6l-1.8-5.6h1.6l1.1,3.8h0l1.1-3.8h1.5l-2,5.6h.1,0Z"/>
      <path id="path182" class="st61" d="M305.7,551h-1.5v-1.3h1.5v1.3ZM304.2,551.8h1.5v5.4h-1.5v-5.4Z"/>
      <path id="path183" class="st61" d="M310.6,553.8c0-.5-.5-1-1-1h0c-1,0-1.3,1-1.3,1.8s.3,1.8,1.3,1.8,1.1-.5,1.1-1h1.5c-.2,1.3-1.3,2.3-2.6,2.3s-2.6-1-2.8-2.4v-.3c-.2-1.5,1-2.8,2.4-2.9h.3c1.3-.2,2.4.8,2.6,2h-1.6v-.2h.1Z"/>
      <path id="path184" class="st61" d="M314.2,554.9c0,1,.5,1.5,1.3,1.5s1-.3,1.1-.7h1.3c-.3,1.1-1.3,2-2.6,1.8-1.5,0-2.8-1.1-2.8-2.6v-.3c-.2-1.5,1-2.8,2.6-2.9,1.6-.2,2.8,1,2.9,2.6v.8h-3.9v-.2h.1ZM316.7,554.1c-.2-.8-.5-1.1-1.1-1.1s-1.1.5-1.3,1.1h2.4Z"/>
      <path id="path185" class="st61" d="M320.1,555.6c0,.7.5,1,1.1,1s1-.2,1-.7-.7-.7-1.6-.8-1.8-.5-1.8-1.5c0-1.5,1.1-1.8,2.3-1.8s2.3.3,2.4,1.8h-1.5c0-.7-.5-.8-1-.8s-.8,0-.8.5.8.7,1.6.8c.8,0,1.8.5,1.8,1.5,0,1.5-1.3,2-2.4,2s-2.4-.5-2.6-2h1.5Z"/>
    </g>
    <g id="CareRecord">
      <rect id="rect185" class="st20" x="348.5" y="179.4" width="50.9" height="36.1"/>
      <rect id="rect186" class="st22" x="352.4" y="183.3" width="43.1" height="24.3"/>
      <rect id="rect187" class="st20" x="366.5" y="215.5" width="14.9" height="4.9"/>
      <polygon id="polygon187" class="st53" points="381.5 220.2 379.2 220.2 366.5 215.5 381.5 215.5 381.5 220.2"/>
      <rect id="rect188" class="st20" x="360.9" y="220.2" width="26.1" height="2.4"/>
      <rect id="rect189" class="st20" x="356.8" y="187.1" width="34.3" height="16.7"/>
      <polygon id="polygon189" class="st45" points="363.3 193.8 360.2 193.8 360.2 197.2 363.3 197.2 363.3 200.1 366.6 200.1 366.6 197.2 369.7 197.2 369.7 193.8 366.6 193.8 366.6 190.8 363.3 190.8 363.3 193.8"/>
      <polygon id="polygon190" class="st10" points="363.3 193.8 360.2 193.8 360.2 197.2 363.3 197.2 363.3 200.1 366.6 200.1 366.6 197.2 369.7 197.2 369.7 193.8 366.6 193.8 366.6 190.8 363.3 190.8 363.3 193.8"/>
      <line id="line190" class="st7" x1="373.1" y1="192" x2="385.6" y2="192"/>
      <line id="line191" class="st7" x1="373.1" y1="195.4" x2="385.6" y2="195.4"/>
      <line id="line192" class="st7" x1="373.1" y1="198.8" x2="381.5" y2="198.8"/>
      <path id="path192" class="st61" d="M346.2,232.6c-.2-.8-.8-1.3-1.6-1.3-1.5,0-2,1.3-2,2.6s.5,2.4,2,2.4,1.6-.7,1.6-1.6h1.6c-.2,1.8-1.5,3.1-3.3,3.1-2.1-.2-3.8-2-3.8-4.2.2-2,1.6-3.6,3.8-3.8,1.6-.2,3.1,1.1,3.3,2.8h-1.6Z"/>
      <path id="path193" class="st61" d="M348.8,233.8c.2-1.5,1.3-1.8,2.6-1.8s2.4.3,2.4,1.6v2.8c0,.5,0,.8.2,1.3h-1.5c0-.2-.2-.3-.2-.5-.5.5-1.1.7-1.8.7-1,0-1.8-.5-1.8-1.6,0-2.4,3.8-1.1,3.6-2.4,0-.7-.5-.7-1-.7s-1,.2-1,.8l-1.6-.2h.1,0ZM352.2,234.9c-.3.2-.8.3-1.3.3s-.8.3-.8.8.5.7,1,.7,1.1-.3,1.1-1v-.8h0Z"/>
      <path id="path194" class="st61" d="M355,232.1h1.5v1h0c.3-.7,1-1.1,1.8-1.1h.3v1.5h-.5c-1.1,0-1.5.8-1.5,1.8v2.4h-1.5l-.2-5.6h.1Z"/>
      <path id="path195" class="st61" d="M360.2,235.2c0,1,.5,1.3,1.3,1.3s1-.3,1.1-.7h1.3c-.3,1.1-1.3,2-2.6,1.8-1.5,0-2.8-1.1-2.8-2.6v-.3c0-1.5,1.1-2.8,2.6-2.9,1.5,0,2.8,1.1,2.9,2.6v.7l-3.9.2h.1ZM362.7,234.2c-.2-.8-.5-1.1-1.1-1.1s-1.1.5-1.3,1.1h2.4Z"/>
      <path id="path196" class="st61" d="M365.3,230.2h4.1c1.1,0,2.1.8,2.1,2v.2c0,.8-.5,1.6-1.1,2h0c.8.2,1,1,1.1,1.8,0,.7,0,1.1.3,1.8h-1.6c-.2-.7-.2-1.1-.3-1.8-.2-.8-.5-1.1-1.3-1.1h-1.6v2.9h-1.6v-7.7h-.1ZM366.9,233.6h1.8c.7,0,1.1-.3,1.1-1.1s-.3-1-1.1-1h-1.8v2.1Z"/>
      <path id="path197" class="st61" d="M374,235.2c0,1,.5,1.3,1.3,1.3s1-.3,1.1-.7h1.3c-.3,1.1-1.3,2-2.6,1.8-1.5,0-2.8-1.1-2.8-2.6v-.3c-.2-1.5,1-2.8,2.6-2.9,1.5-.2,2.8,1,2.9,2.6v.8h-3.9.1ZM376.4,234.2c-.2-.8-.5-1.1-1.1-1.1s-1.1.5-1.3,1.1h2.4Z"/>
      <path id="path198" class="st61" d="M382.5,234.1c0-.5-.5-1-1-1h0c-1,0-1.3,1-1.3,1.8s.3,1.8,1.3,1.8,1.1-.5,1.1-1.1h1.5c-.2,1.3-1.3,2.3-2.6,2.3s-2.8-1.1-2.8-2.4v-.3c-.2-1.5,1-2.8,2.4-2.9h.3c1.3-.2,2.4.8,2.6,2.1h-1.6v-.2s.1,0,.1-.1h0Z"/>
      <path id="path199" class="st61" d="M387.5,232c1.6,0,2.9,1.1,2.9,2.8s-1.1,2.9-2.8,2.9-2.9-1.1-2.9-2.8v-.2c-.2-1.5,1-2.8,2.4-2.9.1,0,.2.2.3.2h.1ZM387.5,236.7c1,0,1.3-.8,1.3-1.8s-.3-1.8-1.3-1.8-1.3.8-1.3,1.8.3,1.8,1.3,1.8Z"/>
      <path id="path200" class="st61" d="M391.3,232.1h1.5v1h0c.3-.7,1-1.1,1.8-1.1h.3v1.5h-.5c-1.1,0-1.5.8-1.5,1.8v2.4h-1.6v-5.6h0Z"/>
      <path id="path201" class="st61" d="M399.3,236.9h0c-.3.5-1,.8-1.6.8-1.5,0-2.6-1.3-2.4-2.8v-.2c-.2-1.5.8-2.6,2.3-2.8h.2c.7,0,1.3.3,1.6.8h0v-2.6h1.5v7.5h-1.5v-.8h-.1ZM398,233.1c-1,0-1.3.8-1.3,1.8s.3,1.8,1.3,1.8,1.3-.8,1.3-1.8-.3-1.8-1.3-1.8Z"/>
      <path id="path202" class="st61" d="M403.7,230.2h-.7v2h-.7v-2h-.7v-.5h2.1v.5h-.2.2ZM406.9,232.1h-.7v-1.8h0l-.7,1.8h-.5l-.7-1.8h0v1.8h-.7v-2.4h.8l.7,1.6.7-1.6h.8l.2,2.4h.1Z"/>
    </g>
    <g id="CareWheel" inkscape:label="CareWheel">
      <path id="path724" class="st56" d="M267.6,162.9l1.1,2.2-1.1-2.2h0ZM268.9,165.1h-.1v.2c-66.1,33.7-110.2,91-124.1,161.2l5.9,1.3v-.2l8.4,1.7v.3l3.3.7.8.2c12.8-64.8,53-117.5,114.3-148.6l-4.4-8.6-4.1-8.1h0Z"/>
      <path id="path723" class="st56" d="M543.8,510.4c-42.5,53.4-101.7,82-167.3,81.6v3.5h.4v8.5h-.4v7c71.4.2,136-31,182.1-88.8h0s0-.2.2-.2l-4.4-3.4h0c0,0-.3.5-.3.5l-6.7-5.3.3-.3-3.9-3.1h0Z"/>
      <path id="path722" class="st56" d="M475.1,161.7l-2.4,5h.1l-3.6,7.8h-.2l-2,4.1c62.7,29.2,104.9,80.9,119.6,145.8l12.3-2.6,1-.2h0l5.1-1.3c-16.1-70.4-62.3-127-130-158.6h.1Z"/>
      <path id="path721" class="st55" d="M141.2,326c-15.4,70.8,2,142,49.8,199.9l.2-.2v-.2c-.1,0,0,0,0,0l.2.2.3-.2h0c-47.3-57.5-64.7-128.5-49.5-198.8l-.8-.2h0v-.3h-.2Z"/>
      <path id="path720" class="st48" d="M191.7,525.4l-.3.2.2.2h-.2c0,0-.2,0-.2,0l-.2.2c45.2,56.7,110,89.1,185.3,88.4v-1c-74.7.7-139.5-31.8-184.7-88h.1Z"/>
      <path id="path719" class="st57" d="M608.5,319.7h0v.3l-.8.2c15.7,73.8-1.9,145-47.1,203l.8.7c45.5-58.7,62.9-129.7,47.1-204.2h0ZM558.6,522l-.2.2h0l.2-.2h0Z"/>
      <path id="path718" class="st26" d="M372.5,135.4c-35.5.6-71.1,9.4-105.2,26.8l1.5,2.9h.1l-1.2-2.3c33.8-17.2,69.3-26.1,104.8-26.6,35.3-.6,70.5,7.1,103.6,23.1l.3-.7c-33.3-16-68.5-23.7-104-23.1h.1ZM268.2,161.8h0c0,.1-.4.4-.4.4h0c0-.1.4-.4.4-.4Z"/>
      <path id="path717" class="st27" d="M268.2,161.8l-.4.2h0c0,.1.4,0,.4,0h0v-.2ZM279.8,184.7l-.4.2,3.8,7.6.4-.2-3.8-7.6ZM287.4,199.9l-.4.2,3.8,7.6.4-.2-3.8-7.6ZM295.1,215l-.4.2,3.8,7.6.4-.2-3.8-7.6ZM302.8,230.2l-.4.2,3.8,7.6.4-.2-3.8-7.6ZM310.4,245.4l-.4.2,3.8,7.6.4-.2-3.8-7.6ZM318.1,260.6l-.4.2,3.8,7.6.4-.2-3.8-7.6ZM325.7,275.7l-.4.2,3.8,7.6.4-.2-3.8-7.6ZM333.4,290.9l-.4.2,3.8,7.6.4-.2-3.8-7.6ZM341.1,306.1l-.4.2,3.8,7.6.4-.2-3.8-7.6ZM348.7,321.3l-.4.2,3.8,7.6.4-.2-3.8-7.6ZM356.4,336.4l-.4.2,3.8,7.6.4-.2-3.8-7.6ZM364,351.6l-.4.2,3.8,7.6.4-.2-3.8-7.6ZM371.7,366.8l-.4.2,3.6,7.1h.3v-.2c.1,0-3.5-7.1-3.5-7.1Z"/>
      <path id="path716" class="st27" d="M472.7,166.7l-3.7,7.7h.2c0,.1,3.6-7.6,3.6-7.6h-.1ZM465.2,181.9l-3.6,7.7.5.2,3.6-7.7-.5-.2ZM458,197.3l-3.6,7.7.5.2,3.6-7.7-.5-.2ZM450.8,212.7l-3.6,7.7.5.2,3.6-7.7-.5-.2ZM443.6,228.1l-3.6,7.7.5.2,3.6-7.7-.5-.2ZM436.4,243.5l-3.6,7.7.5.2,3.6-7.7-.5-.2ZM429.1,258.9l-3.6,7.7.5.2,3.6-7.7-.5-.2ZM421.9,274.3l-3.6,7.7.5.2,3.6-7.7-.5-.2ZM414.7,289.7l-3.6,7.7.5.2,3.6-7.7-.5-.2ZM407.5,305.1l-3.6,7.7.5.2,3.6-7.7-.5-.2ZM400.3,320.5l-3.6,7.7.5.2,3.6-7.7-.5-.2ZM393.1,335.9l-3.6,7.7.5.2,3.6-7.7-.5-.2ZM385.9,351.3l-3.6,7.7.5.2,3.6-7.7-.5-.2ZM378.7,366.7l-3.5,7.5h.2v.3h.2l3.6-7.6-.5-.2h0Z"/>
      <path id="path715" class="st27" d="M608.4,319.7l-3.2.7,2.4-.5v.3l.8-.2v-.3ZM605.1,320.5v-.2l-5.1,1.2h0l5.2-1h-.1ZM586.7,324.6l-3.5.8v.5c0,0,3.6-.8,3.6-.8,0-.2,0-.3,0-.5ZM574.9,327.4l-8.4,2v.5c0,0,8.5-2,8.5-2v-.5h0ZM558.1,331.3l-8.4,2v.5c0,0,8.5-2,8.5-2v-.5h0ZM541.4,335.3l-8.4,2v.5c0,0,8.5-2,8.5-2v-.5h0ZM524.6,339.2l-8.4,2v.5c0,0,8.5-2,8.5-2v-.5h0ZM507.9,343.1l-8.4,2v.5c.1,0,8.5-2,8.5-2v-.5h-.1ZM491.1,347.1l-8.4,2v.5c.1,0,8.5-2,8.5-2v-.5h-.1ZM474.4,351l-8.4,2v.5c.1,0,8.5-2,8.5-2v-.5h-.1ZM457.6,354.9l-8.4,2v.5c.1,0,8.5-2,8.5-2v-.5h-.1ZM440.9,358.9l-8.4,2v.5c.1,0,8.5-2,8.5-2v-.5h-.1ZM424.1,362.8l-8.4,2v.5c.1,0,8.5-2,8.5-2v-.5h-.1ZM407.4,366.7l-8.4,2v.5c.1,0,8.5-2,8.5-2v-.5h-.1ZM390.7,370.6l-8.4,2v.5c.1,0,8.5-2,8.5-2v-.5h-.1Z"/>
      <path id="path714" class="st27" d="M374.7,374.6l-6.2,5.1.3.4,6.2-5.1v-.3h-.3ZM362,385.1l-6.6,5.4.3.4,6.6-5.4-.3-.4ZM348.9,395.9l-6.6,5.4.3.4,6.6-5.4-.3-.4ZM335.7,406.7l-6.6,5.4.3.4,6.6-5.4-.3-.4ZM322.6,417.5l-6.6,5.4.3.4,6.6-5.4-.3-.4ZM309.5,428.3l-6.6,5.4.3.4,6.6-5.4-.3-.4ZM296.4,439.1l-6.6,5.4.3.4,6.6-5.4-.3-.4ZM283.2,449.9l-6.6,5.4.3.4,6.6-5.4-.3-.4ZM270.1,460.7l-6.6,5.4.3.4,6.6-5.4-.3-.4ZM257,471.5l-6.6,5.4.3.4,6.6-5.4-.3-.4ZM243.8,482.3l-6.6,5.4.3.4,6.6-5.4-.3-.4ZM230.7,493.1l-6.6,5.4.3.4,6.6-5.4-.3-.4ZM217.6,503.9l-6.6,5.4.3.4,6.6-5.4-.3-.4ZM204.5,514.7l-4.6,3.8,4.7-3.7h0ZM191.3,525.5h-.2c0,0,.3.5.3.5h.2c0,0-.3-.5-.3-.5Z"/>
      <path id="path713" class="st27" d="M141.4,325.8v.5c-.1,0,0,0,0,0v-.5h0ZM150.6,327.7v.2l8.3,1.8v-.3l-8.3-1.7ZM167.3,331.1v.5c-.1,0,8.2,1.7,8.2,1.7v-.5c.1,0-8.2-1.7-8.2-1.7ZM183.9,334.6v.5c-.1,0,8.2,1.7,8.2,1.7v-.5c.1,0-8.2-1.7-8.2-1.7ZM200.6,338v.5c-.1,0,8.2,1.7,8.2,1.7v-.5c.1,0-8.2-1.7-8.2-1.7ZM217.2,341.5v.5c-.1,0,8.2,1.7,8.2,1.7v-.5c.1,0-8.2-1.7-8.2-1.7ZM233.9,344.9v.5c-.1,0,8.2,1.7,8.2,1.7v-.5c.1,0-8.2-1.7-8.2-1.7ZM250.5,348.4v.5c-.1,0,8.2,1.7,8.2,1.7v-.5c.1,0-8.2-1.7-8.2-1.7h0ZM267.2,351.8v.5c-.1,0,8.2,1.7,8.2,1.7v-.5c.1,0-8.2-1.7-8.2-1.7ZM283.8,355.3v.5c-.1,0,8.2,1.7,8.2,1.7v-.5c.1,0-8.2-1.7-8.2-1.7ZM300.4,358.7v.5c-.1,0,8.2,1.7,8.2,1.7v-.5c.1,0-8.2-1.7-8.2-1.7ZM317.1,362.2v.5c-.1,0,8.2,1.7,8.2,1.7v-.5c.1,0-8.2-1.7-8.2-1.7ZM333.7,365.6v.5c-.1,0,8.2,1.7,8.2,1.7v-.5c.1,0-8.2-1.7-8.2-1.7ZM350.4,369.1v.5c-.1,0,8.2,1.7,8.2,1.7v-.5c.1,0-8.2-1.7-8.2-1.7ZM367,372.5v.5c-.1,0,8,1.7,8,1.7v-.2h.2v-.2l-8.3-1.7h0Z"/>
      <path id="path712" class="st27" d="M374.8,375.8l-.3.4.6.5v-.6l-.3-.2h0ZM375.6,376.4v.6l5.5,4.4.3-.4-5.8-4.7h0ZM388.1,386.4l-.3.4,6.7,5.3.3-.4-6.7-5.3ZM401.4,397l-.3.4,6.7,5.3.3-.4-6.7-5.3ZM414.7,407.5l-.3.4,6.7,5.3.3-.4-6.7-5.3ZM428,418.1l-.3.4,6.7,5.3.3-.4-6.7-5.3ZM441.3,428.7l-.3.4,6.7,5.3.3-.4-6.7-5.3ZM454.6,439.3l-.3.4,6.7,5.3.3-.4-6.7-5.3ZM467.9,449.9l-.3.4,6.7,5.3.3-.4-6.7-5.3ZM481.2,460.5l-.3.4,6.7,5.3.3-.4-6.7-5.3ZM494.5,471l-.3.4,6.7,5.3.3-.4-6.7-5.3ZM507.8,481.6l-.3.4,6.7,5.3.3-.4-6.7-5.3ZM521.1,492.2l-.3.4,6.7,5.3.3-.4-6.7-5.3ZM534.4,502.8l-.3.4,6.7,5.3.3-.4-6.7-5.3ZM547.7,513.4l-.3.3,6.7,5.3.3-.4h0c0,0-6.6-5.2-6.6-5.2h0ZM561.3,524.1c0,0-.2.3-.3.4h0l.3-.3h0Z"/>
      <path id="path711" class="st27" d="M375.6,374.5h-.5v8.5h.5v-8.5ZM375.6,391.5h-.5v8.5h.5v-8.5ZM375.7,408.5h-.5v8.5h.5v-8.5ZM375.8,425.5h-.5v8.5h.5v-8.5ZM375.9,442.5h-.5v8.5h.5v-8.5ZM376,459.5h-.5v8.5h.5v-8.5ZM376.1,476.5h-.5v8.5h.5v-8.5ZM376.2,493.5h-.5v8.5h.5v-8.5ZM376.3,510.5h-.5v8.5h.5v-8.5ZM376.4,527.5h-.5v8.5h.5v-8.5ZM376.5,544.5h-.5v8.5h.5v-8.5ZM376.6,561.5h-.5v8.5h.5v-8.5ZM376.7,578.5h-.5v8.5h.5v-8.5ZM376.8,595.5h-.5v8.5h.5v-8.5ZM376.4,614.4v.3h.5v-.3h-.5Z"/>
      <path id="path710" class="st56" d="M372.5,136.2c-35.4.6-71,9.5-104.8,26.6l9.7,19.1c62.1-31.6,129.1-32.5,189.5-3.3l8.2-16.9h-.1l1.1-2.4c-33-15.9-68.2-23.6-103.6-23.1h0Z"/>
      <path id="path709" class="st56" d="M142,326.5c-15.2,70.3,2.2,141.3,49.5,198.7l8.3-6.7,8.3-6.8c-43.7-52.9-59.1-116.8-45.1-181.1l-18.4-4v.5l-2.5-.5h-.1Z"/>
      <path id="path708" class="st56" d="M208.2,511.8l-16.7,13.4c45.1,56.3,110.1,88.9,184.8,88.2v-2.4h0l-.2-19c-68.6.7-126.6-28.5-168-80.2h.1Z"/>
      <path id="path707" class="st56" d="M607.6,320l-2.4.5-18.5,4c14.6,68.1-1.3,132.2-43.1,185.8l15.1,11.8h0c0,0,1.8,1.3,1.8,1.3,45.2-58,62.8-129.4,47-203.3h0Z"/>
      <path id="path706" class="st25" d="M267.3,162.4c-67.2,34.2-112.1,92.6-126.1,164l3.3.7c13.8-70.4,57.9-127.8,124.3-161.6l-1.5-3h0Z"/>
      <path id="path705" class="st59" d="M558.8,521.8c-46.1,58-110.9,89.4-182.4,89.2v3.4c72.5.2,138.3-31.7,185-90.4l-2.7-2.1h0Z"/>
      <path id="path704" class="st62" d="M476.4,158.6l-1.4,3.1c67.8,31.6,114.1,88.3,130.2,158.8l3.3-.8c-16.3-71.5-63.4-129.2-132-161.2h-.1Z"/>
    </g>
    <g id="Stationary_Center">
      <circle id="circle208" class="st44" cx="376.4" cy="375.6" r="111"/>
      <g id="Solutions-2">
        <polygon id="polygon208" class="st14" points="345.9 327.1 377.2 305.8 406.9 327.1 406.9 359.8 376.6 384.3 345.9 359.8 345.9 327.1"/>
        <polygon id="polygon209" class="st16" points="377.2 305.8 345.9 359.8 406.9 359.8 377.2 305.8"/>
        <polyline id="polyline209" class="st16" points="345.9 327.1 376.9 343 376.6 384.3"/>
        <line id="line209" class="st16" x1="376.9" y1="343" x2="406.9" y2="327.1"/>
        <circle id="circle209" class="st1" cx="376.9" cy="305.8" r="10.4"/>
        <circle id="circle210" class="st21" cx="345.9" cy="359.8" r="10.4"/>
        <circle id="circle211" class="st14" cx="345.9" cy="327.1" r="7.3"/>
        <circle id="circle212" class="st14" cx="406.9" cy="327.1" r="7.3"/>
        <circle id="circle213" class="st14" cx="376.9" cy="384.3" r="7.3"/>
        <circle id="circle214" class="st9" cx="406.9" cy="359.8" r="10.4"/>
        <path id="path214" class="st47" d="M376.9,351.3c-4.6,0-8.3-3.8-8.3-8.3s3.8-8.3,8.3-8.3,8.3,3.8,8.3,8.3h0c0,4.6-3.8,8.3-8.3,8.3Z"/>
        <path id="path215" class="st44" d="M376.9,335.6c4.1,0,7.3,3.3,7.3,7.3s-3.3,7.3-7.3,7.3-7.3-3.3-7.3-7.3h0c0-4.1,3.3-7.3,7.3-7.3M376.9,333.7c-5.1,0-9.3,4.1-9.3,9.3s4.1,9.3,9.3,9.3,9.3-4.1,9.3-9.3h0c0-5.1-4.2-9.3-9.3-9.3Z"/>
      </g>
      <path id="path216" class="st52" d="M326.5,410.4c-.3-1.6-1.8-2.9-3.6-2.9-3.3,0-4.6,2.8-4.6,5.7s1.3,5.6,4.6,5.6,3.8-1.6,3.8-3.6h3.4c-.2,3.8-3.3,6.9-7.2,6.7h-.2c-5.1,0-8.2-3.8-8.2-8.7s3.1-8.7,8.2-8.7c3.6-.2,6.7,2.4,7.2,5.9h-3.4,0Z"/>
      <path id="path217" class="st52" d="M332,413.2c.2-3.1,2.9-3.9,5.6-3.9s5.2.5,5.2,3.4v6.2c0,1,.2,1.8.3,2.6h-3.3c-.2-.3-.2-.8-.2-1.1-1.1,1-2.6,1.5-4.1,1.5-2.3,0-4.1-1.1-4.1-3.6,0-5.4,8.2-2.6,8-5.2,0-1.5-1-1.6-2.1-1.6s-2.1.5-2.1,1.8h-3.3.1s0,0,0,0h0ZM339.7,415.6c-.8.5-1.8.7-2.8.7-1,.2-2,.5-2,1.8s1,1.5,2,1.5c1.3.2,2.6-.8,2.6-2.1v-.7l.2-1.1h0Z"/>
      <path id="path218" class="st52" d="M345.4,409.4h3.1v2.3h0c.7-1.5,2.1-2.4,3.8-2.6.2,0,.5,0,.7.2v3.1c-.3,0-.8-.2-1.1-.2-2.4,0-3.3,1.8-3.3,3.9v5.4h-3.3l.2-12.1h-.1Z"/>
      <path id="path219" class="st52" d="M357.1,416.3c.2,2.1,1.1,3.1,2.9,3.1s2.1-.5,2.6-1.5h2.9c-.7,2.4-2.9,4.2-5.6,4.1-3.3.2-5.9-2.3-6-5.6v-.8c-.2-3.3,2.4-6.2,5.7-6.4h.5c4.1,0,6,3.4,5.9,7.2l-9-.2h.1s0,0,0,0h0ZM362.5,414.2c-.3-1.6-1-2.6-2.6-2.6-1.5-.2-2.6,1-2.8,2.4v.2h5.4Z"/>
      <path id="path220" class="st52" d="M368.1,404.9h11.6v3.1h-8v3.8h6.9v2.9h-6.9v6.9h-3.6v-16.7h0Z"/>
      <path id="path221" class="st52" d="M381.3,413.2c.2-3.1,2.9-3.9,5.6-3.9s5.2.5,5.2,3.4v6.2c0,1,.2,1.8.5,2.6h-3.3c-.2-.3-.2-.8-.2-1.1-1.1,1-2.6,1.5-4.1,1.5-2.3,0-4.1-1.1-4.1-3.6,0-5.4,8.2-2.6,8-5.2,0-1.5-1-1.6-2.1-1.6s-2.1.5-2.1,1.8h-3.4s0,0,0,0h0ZM388.8,415.6c-.8.5-1.8.7-2.8.7-1,.2-2,.5-2,1.8s1,1.5,2,1.5c1.3.2,2.6-.8,2.6-2.1v-1.8h.2,0Z"/>
      <path id="path222" class="st52" d="M394.7,404.9h3.3v6h0c.8-1.1,2.3-1.8,3.8-1.8,2.4,0,4.9,2,4.9,6.4s-2.6,6.4-4.9,6.4c-1.5.2-3.1-.5-3.9-1.8h0v1.5h-3.1v-16.7h-.1,0ZM400.6,411.6c-2,0-2.8,1.8-2.8,3.9s.8,3.8,2.8,3.8,2.8-1.8,2.8-3.8-.8-3.9-2.8-3.9Z"/>
      <path id="path223" class="st52" d="M408.7,409.4h3.1v2.3h0c.7-1.5,2.1-2.4,3.8-2.6.2,0,.5,0,.7.2v3.1c-.3,0-.8-.2-1.1-.2-2.4,0-3.3,1.8-3.3,3.9v5.4h-3.3l.2-12.1h-.1Z"/>
      <path id="path224" class="st52" d="M421.1,407.6h-3.3v-2.8h3.3v2.8ZM417.9,409.4h3.3v11.9h-3.3v-11.9Z"/>
      <path id="path225" class="st52" d="M431.9,413.7c0-1.1-1.1-2.1-2.3-2.1h-.2c-2.1,0-2.8,2.1-2.8,3.9s.7,3.8,2.8,3.8,2.6-1,2.6-2.3v-.2h3.1c-.2,2.9-2.8,5.1-5.7,4.9h0c-3.3.2-5.9-2.3-6-5.6v-.7c0-3.8,2.3-6.5,6-6.5s5.4,1.5,5.6,4.6l-3.1.2h0Z"/>
      <path id="path226" class="st52" d="M329.1,432.6h7.5c4.1,0,5.7,2.6,5.7,5.2s-1.6,5.2-5.7,5.2h-3.8v5.9h-3.6v-16.3h-.2.1ZM332.7,440.5h2.8c1.6,0,3.1-.3,3.1-2.4s-1.5-2.4-3.1-2.4h-2.8v4.9h0Z"/>
      <path id="path227" class="st52" d="M344.2,432.6h3.3v16.5h-3.3v-16.5Z"/>
      <path id="path228" class="st52" d="M350,440.9c.2-3.1,2.9-3.9,5.6-3.9s5.2.5,5.2,3.4v6.2c0,1,0,1.8.3,2.6h-3.3c-.2-.3-.2-.8-.2-1.1-1.1,1-2.4,1.6-4.1,1.5-2.3,0-4.1-1.1-4.1-3.6,0-5.4,8.2-2.4,8-5.2,0-1.5-1-1.6-2.1-1.6s-2.1.5-2.1,1.8h-3.3.1ZM357.6,443.4c-.8.5-1.8.7-2.8.7-1,.2-2,.5-2,1.8s1,1.5,2,1.5c1.3.2,2.6-.8,2.6-2.1v-1.8h.2,0Z"/>
      <path id="path229" class="st52" d="M367.6,437.2h2.4v2.1h-2.4v5.9c0,1.1.3,1.5,1.5,1.5s.7,0,1-.2v2.6c-.7.2-1.3.2-2,.2-2,0-3.8-.5-3.8-2.9v-7h-2v-2.1h2v-3.6h3.3v3.6h0Z"/>
      <path id="path230" class="st52" d="M372.3,439.3h-2v-2.1h2v-1c-.2-2,1.5-3.6,3.4-3.6h2.4v2.4c-.3,0-.8,0-1.1-.2-1,0-1.3.3-1.3,1.3v.7h2.3v2.1h-2.3v9.8h-3.3l-.2-9.5h.1Z"/>
      <path id="path231" class="st52" d="M385.1,436.9c3.4,0,6.4,2.6,6.4,6.2s-2.6,6.4-6.2,6.4-6.4-2.6-6.4-6.2v-.2c-.3-3.3,2.1-6,5.4-6.4.3.2.5.2.8.2h0ZM385.1,447c2.3,0,2.9-2,2.9-3.8s-.7-3.9-2.9-3.9-2.9,2-2.9,3.9.7,3.8,2.9,3.8Z"/>
      <path id="path232" class="st52" d="M393.4,437.2h3.1v2.3h0c.7-1.5,2.1-2.6,3.8-2.6s.5,0,.7.2v3.1c-.3,0-.8-.2-1.1-.2-2.4,0-3.3,1.8-3.3,3.9v5.4h-3.3l.2-12.1h-.1Z"/>
      <path id="path233" class="st52" d="M402.5,437.2h3.1v1.6h0c.8-1.3,2.1-2,3.6-2,1.5-.2,2.9.7,3.4,2,.8-1.1,2.1-2,3.6-2,2.1-.3,4.1,1.1,4.4,3.3v9h-3.3v-6.7c0-1.6-.2-2.9-2-2.9s-2.1,1.5-2.1,3.1v6.7h-3.3v-6.9c0-1.5.2-2.9-2-2.9s-2.3.3-2.3,2.8v6.9h-3.3v-11.9h.2q0-.1,0-.1Z"/>
      <path id="path234" class="st52" d="M440.7,407.1c0,1.3-1,2.4-2.4,2.6-1.3,0-2.4-1-2.6-2.4,0-1.3,1-2.4,2.4-2.6h.2c1.3,0,2.4,1.1,2.4,2.4ZM436.5,407.1c0,1,1,1.8,2,1.8s1.8-1,1.8-2-.8-1.8-1.8-1.8-2,.8-2,2ZM438,408.5h-.5v-2.4c.3,0,.7-.2,1-.2s.7,0,.8.2c.1.2.2.3.2.5,0,.3-.2.5-.5.5h0c.2.2.3.3.5.7,0,.2,0,.5.2.7h-.7c-.2-.2-.2-.3-.2-.7s-.2-.3-.5-.3h-.3v1.1h0ZM438,407h.3c.3,0,.5-.2.5-.3s-.2-.3-.5-.3h-.3v.7h0Z"/>
      <path id="path235" class="st52" d="M376.4,266.6c60.2,0,109.1,48.8,109.1,109.1s-48.8,109.1-109.1,109.1-109.1-48.8-109.1-109.1h0c0-60.2,48.8-109.1,109.1-109.1h0M376.4,262.8c-62.4,0-112.8,50.6-112.8,112.8s50.6,112.8,112.8,112.8,112.8-50.6,112.8-112.8h0c0-62.4-50.4-112.8-112.8-112.8h0Z"/>
    </g>
    <g id="CareRecordDivs" class="st58">
      <g id="SpecialtyPractices">
        <path id="path236" class="st65" d="M389.6,147.1h0c0-.4,0-.6-.3-.7-.2,0-.4.2-.4.4,0,.9,2,.6,1.8,2.3,0,1-.7,1.4-1.8,1.3-1,0-1.5-.4-1.5-1.4v-.2h1.2v.2c0,.4.1.6.4.6s.4-.2.4-.4c0-.9-1.9-.6-1.8-2.3,0-.9.6-1.4,1.6-1.3,1,0,1.5.6,1.4,1.5h-1.1,0Z"/>
        <path id="path237" class="st65" d="M392,146l1.8.2c.9,0,1.3.7,1.2,1.5,0,1-.7,1.4-1.6,1.3h-.4v1.7c-.1,0-1.3-.1-1.3-.1l.4-4.6h-.1ZM393.1,148.1h.2c.3,0,.5-.1.5-.6s-.1-.6-.4-.6h-.2v1.2h-.1Z"/>
        <path id="path238" class="st65" d="M396.2,146.4l2.7.3v1c-.1,0-1.6-.2-1.6-.2v.8h1.4c0,.1-.1,1-.1,1h-1.5c0-.1-.1.8-.1.8l1.6.2v1c-.1,0-2.9-.3-2.9-.3l.6-4.6h-.1Z"/>
        <path id="path239" class="st65" d="M401.8,148.4c0-.6,0-.7-.2-.7-.4,0-.4.3-.6,1.5-.1,1.2-.1,1.6.2,1.6s.4-.2.5-1.1h1.2v.5c-.2,1.3-1,1.5-1.8,1.4-1.3-.2-1.6-.8-1.3-2.6.3-1.8.7-2.3,2-2.2,1.1.1,1.4.7,1.3,1.6v.3h-1.2v-.4s-.1.1-.1,0h0Z"/>
        <path id="path240" class="st65" d="M404.3,147.3l1.2.2-.6,4.6-1.2-.2.6-4.6Z"/>
        <path id="path241" class="st65" d="M407.5,147.8l1.5.2.4,4.8-1.3-.2v-.8h-1c0-.1-.2.7-.2.7l-1.3-.2,1.8-4.5h.1ZM408.1,148.8h0l-.6,1.9h.7c0,.1,0-1.9,0-1.9h-.1Z"/>
        <path id="path242" class="st65" d="M411,148.3l1.2.2-.6,3.6,1.5.2-.2,1-2.7-.4.8-4.6h0Z"/>
        <path id="path243" class="st65" d="M414.6,150l-.9-.2.2-1,3,.6-.2,1-.9-.2-.7,3.5-1.2-.2.7-3.5h0Z"/>
        <path id="path244" class="st65" d="M418.1,152.4l-.6-3,1.3.2v1.7h.1l.8-1.5,1.3.2-1.7,2.6-.4,1.8-1.2-.2.4-1.8h0Z"/>
        <path id="path245" class="st65" d="M424.1,150.8l1.8.4c.9.2,1.2.9,1,1.7-.2.9-.8,1.3-1.8,1h-.4c0-.1-.4,1.6-.4,1.6l-1.2-.2,1-4.5ZM424.9,153h.2c.3.1.5,0,.6-.4,0-.4,0-.6-.3-.7h-.2l-.3,1h0Z"/>
        <path id="path246" class="st65" d="M428.3,151.8l1.8.4c.9.2,1.1.8.9,1.5-.1.6-.5.9-1,.8h0c.6.2.6.6.5,1.2v.4c-.1.2-.2.6-.2.6,0,0,0,.1.1.2h0l-1.3-.2c0-.2,0-.7.1-.9v-.3c.2-.5.1-.7-.2-.7h-.3l-.4,1.8-1.2-.3,1.2-4.5ZM429,154h.2c.3.1.6,0,.6-.4.1-.4,0-.6-.4-.7h-.2l-.2,1h0Z"/>
        <path id="path247" class="st65" d="M433.4,153.1l1.5.4v4.8c-.1,0-1.3-.3-1.3-.3v-.8c.1,0-.8-.2-.8-.2l-.3.7-1.2-.3,2.2-4.2h-.1q0,0,0,0h0ZM433.9,154.2h0l-.8,1.8.7.2.2-2h-.1Z"/>
        <path id="path248" class="st65" d="M438.2,155.9c.1-.5.1-.7-.1-.7-.4-.1-.5.2-.8,1.4s-.4,1.5,0,1.6c.3,0,.4-.1.7-1l1.1.3v.3c-.5,1.3-1.3,1.3-2.1,1.1-1.3-.4-1.4-1.1-.9-2.8s1-2.2,2.3-1.8c1,.3,1.3,1,1,1.8v.3l-1.2-.3v-.2c.1,0,0,0,0,0h0Z"/>
        <path id="path249" class="st65" d="M441.1,156.4l-.8-.2.3-1,2.9.9-.3,1-.8-.2-1,3.5-1.2-.4,1-3.5h0s-.1-.1-.1,0h0Z"/>
        <path id="path250" class="st65" d="M444.4,156.3l1.2.4-1.4,4.4-1.2-.4,1.4-4.4Z"/>
        <path id="path251" class="st65" d="M448,158.9c.2-.5.1-.7-.1-.7-.4-.1-.5.2-.9,1.4s-.5,1.5-.1,1.6c.3.1.4-.1.7-1l1.1.4v.3c-.5,1.2-1.3,1.3-2.1,1-1.3-.4-1.3-1.2-.8-2.8.6-1.7,1.2-2.1,2.3-1.8,1,.4,1.2,1,1,1.9v.3c-.1,0-1.2-.4-1.2-.4v-.3h.1Z"/>
        <path id="path252" class="st65" d="M450.7,158.4l2.6.9-.3.9-1.5-.5-.2.7,1.3.5-.3.9-1.3-.5-.3.8,1.5.6-.3.9-2.6-.9,1.4-4.4h0q0,.1,0,.1Z"/>
        <path id="path253" class="st65" d="M455.7,161.6h0c.2-.4.1-.6,0-.7-.2-.1-.4,0-.5.2-.3.8,1.7,1.2,1.1,2.7-.4.9-1,1.2-2.1.7-.9-.4-1.3-.8-1-1.8h0c0-.1,1.2.3,1.2.3h0c-.2.5-.1.7.1.8.2,0,.4,0,.6-.3.3-.8-1.6-1.1-1-2.6.3-.8,1-1.2,2-.8s1.3.9.9,1.9l-1.2-.5h0s-.1.1-.1,0h0Z"/>
      </g>
      <g id="Enterprise">
        <path id="path254" class="st46" d="M301.5,157.9l2.6-.8.3.9-1.5.5.2.7,1.3-.4.3.9-1.3.4.3.8,1.5-.5.3.9-2.7.8-1.5-4.3h.2q0,.1,0,.1Z"/>
        <path id="path255" class="st46" d="M305.3,156.7l1.3-.4,1.6,2.5h0l-.8-2.7,1.1-.3,1.4,4.5-1.3.4-1.6-2.5h0l.8,2.7-1.1.3-1.3-4.4h-.1Z"/>
        <path id="path256" class="st46" d="M310.5,156.1l-.8.2-.3-1,2.9-.8.3,1-.8.2,1,3.5-1.2.4-1.1-3.5h0Z"/>
        <path id="path257" class="st46" d="M313.2,154.3l2.7-.7.2,1-1.5.4.2.8,1.4-.4.2.9-1.4.4.2.9,1.5-.4.2,1-2.7.7-1.2-4.6h.2,0Z"/>
        <path id="path258" class="st46" d="M317.1,153.3l1.8-.5c.9-.2,1.3.2,1.5.9.2.6,0,1-.5,1.3h0c.6,0,.8.2,1,.8v.4c.2.2.2.6.4.6h.2c0,.1-1.2.5-1.2.5-.2-.2-.3-.7-.3-.8v-.3c-.2-.5-.3-.6-.6-.6h-.3l.4,1.9-1.2.3-1.2-4.5h0ZM318.8,154.9h.2c.3-.1.4-.4.4-.7-.1-.4-.3-.5-.6-.4h-.2l.2,1.2h0Z"/>
        <path id="path259" class="st46" d="M321.4,152.2l1.8-.4c.9-.2,1.5.3,1.6,1.1.2.9-.2,1.5-1.2,1.8h-.4c0,.1.4,1.8.4,1.8l-1.2.3-1.1-4.6h.1ZM323,153.9h.2c.3-.1.4-.4.3-.7,0-.4-.3-.5-.6-.4h-.2l.3,1.2h0Z"/>
        <path id="path260" class="st46" d="M325.5,151.2l1.8-.4c.9-.2,1.3.2,1.5.9.1.6,0,1-.6,1.2h0c.6,0,.8.2,1,.8v.4c.1.2.2.6.2.6h.2c0,.1-1.3.4-1.3.4-.2-.2-.2-.7-.3-.8v-.3c-.2-.5-.3-.6-.6-.6h-.3l.4,1.9-1.2.2-.9-4.5h0v.2h.1,0ZM327.1,152.9h.2c.4-.1.4-.4.4-.7s-.2-.5-.6-.4h-.2l.2,1.2h0Z"/>
        <path id="path261" class="st46" d="M329.8,150.3l1.2-.2.9,4.6-1.2.2-.9-4.6Z"/>
        <path id="path262" class="st46" d="M334.2,150.9h0c0-.4-.2-.6-.4-.5-.2,0-.3.2-.3.5.2.9,2,.1,2.3,1.8.2,1-.3,1.5-1.3,1.7s-1.6,0-1.8-1v-.2l1.2-.2h0c0,.5.2.6.5.6s.4-.2.3-.5c-.2-.9-2-.1-2.3-1.7-.2-.9.2-1.5,1.2-1.7s1.6.2,1.7,1.2h-1.1Z"/>
        <path id="path263" class="st46" d="M336.4,149.1l2.7-.4.2,1-1.5.2v.8c.1,0,1.5-.2,1.5-.2l.2.9-1.4.2v.9c.1,0,1.7-.2,1.7-.2l.2,1-2.7.5-.8-4.6h-.1Z"/>
      </g>
      <path id="path264" class="st49" d="M373.4,152.2h-.5v-8.3h.5v8.3Z"/>
    </g>
    <g id="CareAdministrationDivs" class="st58">
      <g id="Services">
        <path id="path2361" data-name="path236" class="st65" d="M150,410.4h0c-.4,0-.6.1-.6.4,0,.2.3.3.5.3.9-.2.1-2.1,1.8-2.3,1-.2,1.5.4,1.7,1.5.2,1,0,1.6-1,1.8h-.2s-.3-1.1-.3-1.1h.2c.4-.1.6-.3.5-.6s-.3-.3-.5-.3c-.9.2-.2,2-1.8,2.3-.9.2-1.5-.3-1.6-1.3-.2-1,.3-1.6,1.2-1.7l.2,1.1h0Z"/>
        <path id="path2371" data-name="path237" class="st65" d="M148.4,408.3l-.2-1.8c-.2-.9.4-1.4,1.2-1.5,1-.2,1.5.4,1.6,1.3v.4c0,0,1.7-.4,1.7-.4,0,0,.2,1.3.2,1.3l-4.6.6h0q0,0,0,0ZM150.2,406.7v-.2c-.1-.3-.3-.5-.7-.4s-.6.2-.5.5v.2s1.2-.3,1.2-.3h0q0,0,0,0Z"/>
        <path id="path2381" data-name="path238" class="st65" d="M147.9,404.1l-.3-2.7,1-.2c0,0,.2,1.6.2,1.6l.8-.2-.3-1.4c0,0,1-.1,1-.1l.3,1.5c0,0,.8,0,.8,0l-.2-1.6,1-.2c0,0,.4,2.9.4,2.9l-4.6.4h0Z"/>
        <path id="path2391" data-name="path239" class="st65" d="M148.6,398.2c-.6.1-.7.2-.6.4,0,.4.4.3,1.6.3,1.2-.2,1.6-.3,1.5-.6s-.3-.3-1.2-.2l-.3-1.2h.5c1.3-.2,1.7.5,1.8,1.3,0,1.3-.4,1.7-2.2,1.8-1.8.1-2.4-.2-2.6-1.5-.1-1.1.4-1.5,1.3-1.6h.3c0,0,.3,1.1.3,1.1h-.4c0,0,.1.2,0,.2h0Z"/>
        <path id="path2401" data-name="path240" class="st65" d="M147,396v-1.2c0,0,4.5-.4,4.5-.4v1.2c0,0-4.5.4-4.5.4Z"/>
        <path id="path2411" data-name="path241" class="st65" d="M146.7,392.8v-1.5c-.1,0,4.5-1.5,4.5-1.5v1.3c0,0-.7.2-.7.2l.2,1c0,0,.7,0,.7,0v1.3c0,0-4.7-.8-4.7-.8h0ZM147.6,392h0l2,.2-.2-.7c0,0-1.9.4-1.9.4h0Z"/>
        <path id="path2421" data-name="path242" class="st65" d="M146.4,389.2v-1.2c0,0,3.6-.2,3.6-.2v-1.5c-.1,0,.9,0,.9,0l.2,2.7-4.7.2h0Z"/>
        <path id="path2431" data-name="path243" class="st65" d="M147.3,385.4v.9s-1,0-1,0v-3.1c0,0,.9,0,.9,0v.9s3.6,0,3.6,0v1.2c0,0-3.5,0-3.5,0h0Z"/>
        <path id="path2441" data-name="path244" class="st65" d="M148.9,381.4l-2.8,1.3v-1.3c0,0,1.6-.4,1.6-.4h0c0,0-1.6-.5-1.6-.5v-1.3c0,0,2.8,1.1,2.8,1.1h1.8s0,1.2,0,1.2h-1.8s0,0,0,0Z"/>
        <path id="path2451" data-name="path245" class="st65" d="M146,375.9v-1.8c0-.9.6-1.4,1.4-1.4.9,0,1.4.5,1.4,1.5v.4s1.7,0,1.7,0v1.2c0,0-4.5,0-4.5,0ZM147.9,374.6v-.2c0-.3-.2-.5-.6-.5-.4,0-.6.1-.6.4v.2s1.1,0,1.1,0h0Z"/>
        <path id="path2461" data-name="path246" class="st65" d="M146,371.6v-1.8c0-.9.5-1.3,1.3-1.2.6,0,1,.3,1,.8h0c0-.6.5-.7,1.1-.8h.4c.2,0,.6,0,.6,0,0,0,0,0,.2-.1h0v1.3c-.1,0-.6.2-.8.1h-.3c-.5,0-.7.1-.6.4v.3c0,0,1.9,0,1.9,0v1.2s-4.7-.2-4.7-.2ZM148,370.4v-.2c0-.3-.2-.6-.6-.5-.4,0-.6.1-.6.5v.2s1.1,0,1.1,0h0Z"/>
        <path id="path2471" data-name="path247" class="st65" d="M146.1,366.3v-1.6c0,0,4.7-1.1,4.7-1.1,0,0,0,1.3,0,1.3l-.8.2c0,0,0,.8,0,.8h.7c0,.1,0,1.4,0,1.4l-4.6-1.2h0q0,.1,0,0h0ZM147.1,365.6h0l1.9.4v-.7s-2,.3-2,.3h0q0,0,0,0Z"/>
        <path id="path2481" data-name="path248" class="st65" d="M147.8,361c-.5,0-.7,0-.7.3,0,.4.3.4,1.5.5s1.6,0,1.6-.4c0-.3-.2-.4-1.1-.5v-1.1s.3,0,.3,0c1.4.2,1.6,1,1.5,1.8-.1,1.4-.8,1.6-2.5,1.5s-2.4-.5-2.3-1.8c0-1,.7-1.5,1.5-1.4h.3c0,0,0,1.2,0,1.2h-.2c0,0,0,0,0,0h0Z"/>
        <path id="path2491" data-name="path249" class="st65" d="M147.6,358.1v.8s-1.1,0-1.1,0l.2-3h1c0,0,0,.9,0,.9l3.6.2v1.3c-.1,0-3.8-.2-3.8-.2h0s0,.1,0,0h0Z"/>
        <path id="path2501" data-name="path250" class="st65" d="M146.8,354.9v-1.3c.1,0,4.7.4,4.7.4v1.3c-.1,0-4.7-.4-4.7-.4Z"/>
        <path id="path2511" data-name="path251" class="st65" d="M148.5,350.8c-.5,0-.7,0-.7.3,0,.4.3.4,1.6.6s1.6.2,1.6-.3c0-.3-.2-.4-1.1-.5v-1.2c.1,0,.4,0,.4,0,1.3.2,1.6,1,1.4,1.8-.1,1.4-.9,1.5-2.6,1.4-1.8-.2-2.3-.7-2.3-1.8.2-1.1.7-1.4,1.6-1.4h.3s-.1,1.2-.1,1.2h-.3c0,0,0,0,0,0h0Z"/>
        <path id="path2521" data-name="path252" class="st65" d="M147.5,348.3l.3-2.7h.9c0,0-.2,1.7-.2,1.7h.7s.2-1.3.2-1.3h.9c0,0-.2,1.5-.2,1.5h.8c0,.1.3-1.5.3-1.5h.9c0,0-.3,2.8-.3,2.8l-4.6-.4h0s0,0,0,0Z"/>
        <path id="path2531" data-name="path253" class="st65" d="M149.5,342.7h0c-.4-.1-.6,0-.7.2,0,.2,0,.4.3.4.8.1.8-1.9,2.4-1.7,1,.2,1.4.7,1.1,1.9-.2,1-.5,1.4-1.5,1.4h0c0,0,0-1.2,0-1.2h0c.5,0,.7,0,.8-.3,0-.2,0-.4-.4-.5-.8-.1-.7,1.8-2.3,1.6-.8-.1-1.4-.7-1.2-1.8s.6-1.5,1.7-1.3l-.2,1.3h0s.1,0,0,0h0Z"/>
      </g>
      <g id="Technology">
        <path id="path2541" data-name="path254" class="st46" d="M180.2,493.9l-1.4-2.4.8-.5.8,1.4.6-.4-.7-1.2.8-.5.7,1.2.7-.5-.8-1.4.8-.5,1.4,2.5-3.9,2.4v-.2s0,0,0,0h0Z"/>
        <path id="path2551" data-name="path255" class="st46" d="M178.2,490.4l-.7-1.2,2.1-2.1h0l-2.5,1.4-.5-1,4.1-2.4.7,1.2-2.1,2.1h0l2.5-1.4.5,1-4,2.2h0c0,0,0,.1,0,.1Z"/>
        <path id="path2561" data-name="path256" class="st46" d="M176.4,485.5l.4.7-.9.5-1.4-2.6.9-.5.4.7,3.2-1.8.7,1.1-3.2,1.9h0Z"/>
        <path id="path2571" data-name="path257" class="st46" d="M174.1,483.3l-1.3-2.5.9-.4.7,1.4.7-.4-.7-1.3.8-.4.7,1.3.8-.4-.7-1.4.9-.4,1.3,2.5-4.2,2.2v-.2s0,0,0,0Z"/>
        <path id="path2581" data-name="path258" class="st46" d="M172.2,479.7l-.9-1.6c-.4-.8,0-1.3.5-1.7.5-.3,1-.2,1.4.2h0c-.1-.6,0-.8.6-1.2h.4c.2-.3.5-.4.5-.6v-.2c0,0,.7,1.1.7,1.1-.2.2-.6.4-.7.5h-.3c-.4.4-.5.5-.5.8v.3c0,0,1.8-.8,1.8-.8l.6,1.1-4.1,2.2h0ZM173.4,477.7v-.2c-.2-.3-.5-.3-.8-.2-.4.2-.4.4-.3.7v.2s1.2-.5,1.2-.5h0Z"/>
        <path id="path2591" data-name="path259" class="st46" d="M170.2,475.7l-.8-1.7c-.4-.8,0-1.5.7-1.8.8-.4,1.5-.1,2,.8v.4c.2,0,1.8-.8,1.8-.8l.6,1.1-4.2,2.1h0q0,0,0,0ZM171.5,473.8v-.2c-.2-.3-.5-.3-.8-.1-.4,0-.4.4-.3.7v.2s1.1-.6,1.1-.6h0Z"/>
        <path id="path2601" data-name="path260" class="st46" d="M168.3,472l-.8-1.7c-.4-.8,0-1.3.5-1.7.6-.2,1-.2,1.3.3h0c-.1-.6,0-.8.6-1.2h.4c.2-.2.5-.4.5-.4v-.2c0,0,.6,1.2.6,1.2-.2.2-.6.4-.7.5h-.3c-.4.4-.5.5-.5.8v.3c0,0,1.8-.8,1.8-.8l.5,1.1-4.2,1.9h.2s0-.1,0-.1h0ZM169.6,470v-.2c-.2-.4-.5-.3-.8-.2s-.4.3-.3.7v.2s1.2-.5,1.2-.5h0Z"/>
        <path id="path2611" data-name="path261" class="st46" d="M166.5,468l-.5-1.1,4.3-1.9.5,1.1-4.3,1.9Z"/>
        <path id="path2621" data-name="path262" class="st46" d="M166.1,463.5h0c-.4,0-.5.3-.4.5,0,.2.3.2.6.2.8-.4-.3-2,1.2-2.6.9-.4,1.5,0,1.9.9s.4,1.6-.6,2h-.2s-.5-1.1-.5-1.1h0c.5-.1.5-.3.5-.6s-.3-.3-.6-.2c-.8.4.3,2-1.1,2.6-.8.4-1.5.1-1.9-.8s-.2-1.6.8-1.9l.2,1.1h0Z"/>
        <path id="path2631" data-name="path263" class="st46" d="M163.8,461.8l-1-2.5.9-.4.5,1.4.8-.2c0,0-.5-1.4-.5-1.4l.8-.4.5,1.3.9-.2c0,0-.6-1.6-.6-1.6l.9-.4,1.1,2.5-4.3,1.8h0c0,0,0,.1,0,.1Z"/>
      </g>
      <path id="path2641" data-name="path264" class="st49" d="M158.6,425v.5c.1,0-8,1.8-8,1.8v-.5c-.1,0,8-1.8,8-1.8Z"/>
    </g>
  </g>
  <g id="Subsections" class="st58">
    <g id="subSectionA_x5F_half" class="st58">
      <path class="st41" d="M113,255.2c45.4-99.5,145.7-168.7,262.1-168.7s216.5,69.1,262,168.5"/>
      <line class="st41" x1="599.4" y1="292.3" x2="637" y2="255"/>
      <line class="st41" x1="150.7" y1="292.2" x2="113.3" y2="254.8"/>
      <path class="st41" d="M150.7,292.2c33.8-91.3,121.5-156.3,224.3-156.3s190.6,65.1,224.4,156.3"/>
    </g>
    <g id="subSectionB_x5F_half" class="st58">
      <path class="st41" d="M112.9,255.2"/>
      <path class="st41" d="M72.9,214.5C130.4,106.2,244.1,32.5,375.1,32.5s244.2,75.2,302.1,182"/>
      <path class="st41" d="M375.1,135.4"/>
      <line class="st41" x1="636.8" y1="254.8" x2="677.2" y2="214.5"/>
      <path class="st41" d="M636.8,254.8"/>
      <line class="st41" x1="113.3" y1="254.8" x2="72.9" y2="214.5"/>
      <path class="st41" d="M599.4,292.3"/>
      <path class="st41" d="M150.7,292.2"/>
      <path class="st41" d="M113.1,253.4c45.4-99.5,145.7-168.7,262.1-168.7s216.5,69.1,262,168.5"/>
    </g>
    <g id="subSectionA">
      <line class="st41" x1="599.4" y1="292.3" x2="637" y2="255"/>
      <line class="st41" x1="150.7" y1="292.2" x2="113.3" y2="254.8"/>
      <path class="st41" d="M150.7,292.2c33.8-91.3,121.5-156.3,224.3-156.3s190.6,65.1,224.4,156.3"/>
      <path class="st41" d="M72.9,214.5C130.4,106.2,244.1,32.5,375.1,32.5s244.2,75.2,302.1,182"/>
      <path class="st41" d="M375.1,135.4"/>
      <line class="st41" x1="636.8" y1="254.8" x2="677.2" y2="214.5"/>
      <path class="st41" d="M636.8,254.8"/>
      <line class="st41" x1="113.3" y1="254.8" x2="72.9" y2="214.5"/>
    </g>
  </g>
  <g id="CareRecords" class="st58">
    <g id="Enterprise1" data-name="Enterprise">
      <g id="myAvatar">
        <path class="st44" d="M137.9,170.4c-14.9-1.6-27.9,10.1-29.1,27.9l-6.6,10.9c-.7,1.1-.3,2.5.8,3.2.2.2.5.3.8.3l4.6.8,1,10.5c.3,2.8,2.5,5.1,5.3,5.4l6.4.6,3.1,13.4,23.5-5.5,1.5-7.3c11.1-13.9,13.4-27,13.2-33.6-.3-14-9.4-24.9-24.4-26.5h-.1Z"/>
        <line class="st29" x1="116.7" y1="194" x2="148.8" y2="183.1"/>
        <line class="st29" x1="152.9" y1="203.9" x2="127.9" y2="179"/>
        <polyline class="st29" points="116.7 194 127.9 179 133.2 210.7 148.8 183.1 152.9 203.9"/>
        <path class="st50" d="M116.7,197.4c-1.9,0-3.4-1.6-3.4-3.5s1.3-3.2,3-3.4h.4c1.9,0,3.4,1.5,3.4,3.4s-1.3,3.2-3,3.4h-.4Z"/>
        <path class="st44" d="M116.7,191.3c1.5,0,2.6,1.3,2.6,2.7s-1,2.4-2.3,2.6h-.3c-1.5,0-2.6-1.3-2.6-2.7s1-2.4,2.3-2.6h.3M116.7,189.8h0c-2.3,0-4.2,1.9-4.2,4.2s1.9,4.2,4.2,4.2,4.2-1.9,4.2-4.2v-.5c-.2-2.1-2-3.7-4.2-3.7h0Z"/>
        <path class="st50" d="M133.2,214.2c-1.9,0-3.4-1.6-3.4-3.5s1.3-3.2,3-3.4h.4c1.9,0,3.4,1.6,3.4,3.5s-1.3,3.2-3,3.4h-.4Z"/>
        <path class="st44" d="M133.2,208.1c1.5,0,2.6,1.3,2.6,2.7s-1,2.4-2.3,2.6h-.3c-1.5,0-2.6-1.3-2.6-2.7s1-2.4,2.3-2.6h.3M133.2,206.6h0c-2.3,0-4.2,1.8-4.3,4.1,0,2.3,1.8,4.2,4.1,4.3h.7c2.3-.3,3.9-2.4,3.7-4.7-.3-2.1-2-3.7-4.2-3.7h0Z"/>
        <path class="st50" d="M127.9,182.5c-1.7,0-3.2-1.3-3.4-3-.2-1.9,1.1-3.6,3-3.8h.4c1.9,0,3.4,1.5,3.4,3.4s-1.3,3.2-3,3.4h-.4Z"/>
        <path class="st44" d="M127.9,176.4c1.5,0,2.6,1.3,2.6,2.7s-1,2.4-2.3,2.6h-.3c-1.5,0-2.6-1.3-2.6-2.8s1-2.3,2.3-2.5h.3M127.9,174.8h-.5c-2.3.3-3.9,2.4-3.7,4.7.3,2.1,2,3.7,4.2,3.7h.5c2.3-.3,4-2.3,3.7-4.6-.2-2.1-2-3.7-4.2-3.7h0Z"/>
        <path class="st50" d="M152.8,207.3c-1.9,0-3.4-1.6-3.4-3.5s1.3-3.2,3-3.4h.4c1.9,0,3.4,1.5,3.4,3.4s-1.3,3.2-3,3.4h-.4Z"/>
        <path class="st44" d="M152.9,201.2c1.5,0,2.6,1.3,2.6,2.7s-1,2.4-2.3,2.6h-.3c-1.5,0-2.6-1.3-2.6-2.8s1-2.3,2.3-2.5h.3M152.8,199.7h-.5c-2.3.3-3.9,2.4-3.7,4.7.3,2.1,2,3.7,4.2,3.7h.5c2.3-.3,3.9-2.4,3.7-4.7-.3-2.1-2-3.7-4.2-3.7Z"/>
        <path class="st50" d="M148.8,186.6c-1.9,0-3.4-1.6-3.3-3.5,0-1.7,1.3-3,2.9-3.3h.4c1.9,0,3.4,1.6,3.4,3.5s-1.3,3.2-3,3.4h-.4,0Z"/>
        <path class="st44" d="M148.8,180.5c1.5,0,2.6,1.3,2.6,2.8s-1,2.3-2.3,2.5h-.3c-1.5,0-2.6-1.3-2.6-2.7s1-2.4,2.3-2.6h.3M148.8,179h0c-2.3,0-4.2,1.9-4.2,4.2s1.9,4.2,4.2,4.2,4.2-1.9,4.2-4.2v-.5c-.2-2.1-2-3.7-4.2-3.7h0Z"/>
        <polygon class="st53" points="120.9 229.9 137 231.7 124 243.3 120.9 229.9"/>
        <line class="st29" x1="120.9" y1="229.9" x2="137" y2="231"/>
        <path class="st29" d="M137.9,170.4c-14.9-1.6-27.9,10.1-29.1,27.9l-6.6,10.9c-.7,1.1-.3,2.5.8,3.2.2.2.5.3.8.3l4.6.8,1,10.5c.3,2.8,2.5,5.1,5.3,5.4l6.4.6,3.1,13.4,23.5-5.5,1.5-7.3c11.1-13.9,13.4-27,13.2-33.6-.3-14-9.4-24.9-24.4-26.5h-.1Z"/>
      </g>
      <g id="myEvolve" class="st58">
        <g>
          <g>
            <path class="st30" d="M234.2,77.1c3.6,0,6.4,2.8,6.4,6s-3.3,9.5-3.3,9.5h-6.1s-3.5-6.1-3.5-9.5,2.9-6,6.4-6h.1Z"/>
            <polygon class="st44" points="234.6 91.1 248.5 98 239.4 162.2 228.7 162.2 219.3 96.9 234.6 91.1"/>
            <polygon class="st54" points="244.9 123.1 223.4 125.6 228.7 162.2 239.4 162.2 244.9 123.1"/>
            <path class="st37" d="M240.8,94.2l7.7,3.8-9.1,64.3h-10.8l-9.4-65.4,8.9-3.3c4.1-1.5,8.7-1.3,12.6.6h.1Z"/>
          </g>
          <g>
            <path class="st30" d="M218.2,81.8c-3.5,0-6.4,2.8-6.4,5.9s3.3,9.4,3.3,9.4h6s3.5-6.1,3.5-9.4-2.9-5.9-6.4-5.9h0Z"/>
            <polygon class="st44" points="208.9 100.8 217.9 96 228.5 99.8 229.7 117.1 236 146.6 224.4 146.6 221.9 162.2 213.7 162.2 211.5 146.3 201.2 146.5 206.2 124.1 208.9 100.8"/>
            <polygon class="st5" points="206.2 124.1 229.7 117.1 236 146.6 201.2 146.5 206.2 124.1"/>
            <path class="st37" d="M208.9,100.8l4.5-2.7c2.9-1.4,6.1-1.6,9.1-.6l5.9,2.3,1.2,17.4,6.3,29.2h-11.6l-2.5,15.9h-8.1l-2.3-15.9h-10.2l5-22.3,2.7-23.3h0Z"/>
            <line class="st37" x1="211.5" y1="146.3" x2="234.1" y2="146.3"/>
          </g>
          <path class="st30" d="M242.2,108.8c3.3,0,6,2.6,6,5.5s-3,8.8-3,8.8h-5.6s-3.3-5.7-3.3-8.8,2.7-5.5,5.9-5.5h0Z"/>
          <polygon class="st44" points="253.1 153.6 247.5 153.9 245.8 162.2 239.8 162.2 238.4 154.3 232 154.2 235.5 123.2 242.4 121.2 248.7 123.7 253.1 153.6"/>
          <polygon class="st54" points="251.4 143.9 233.2 142.4 231.2 154 253.1 153.6 251.4 143.9"/>
          <path class="st37" d="M246.1,122.7l2.7,1,4.3,30.2-21.8.4,4.3-31,3-.9c2.5-.7,5.1-.6,7.5.3Z"/>
          <polygon class="st37" points="247.5 153.9 245.8 162.2 239.8 162.2 238 154.2 247.5 153.9"/>
          <g>
            <path class="st30" d="M230.1,117.9c2.9,0,5.3,2.3,5.3,4.9s-2.7,7.8-2.7,7.8h-5s-2.9-5.1-2.9-7.8,2.4-4.9,5.3-4.9h0Z"/>
            <polygon class="st44" points="230.3 129.6 239.3 133.3 236.3 162.2 225 162.2 221 133.2 230.3 129.6"/>
            <polygon class="st45" points="237.9 146.4 223.4 147.6 225 162.2 236.3 162.2 237.9 146.4"/>
            <path class="st37" d="M234,130.9l5.3,2.5-3,28.9h-11.3l-4-29,5.5-2.6c2.5-.7,5.1-.5,7.5.3h0Z"/>
          </g>
        </g>
      </g>
      <g id="myUnity" class="st58">
        <g>
          <rect class="st30" x="347.8" y="78.6" width="56.4" height="34.9"/>
          <polygon class="st3" points="336.7 113.4 341.6 105.3 348.5 102.5 356.6 106.7 358.9 113.4 336.7 113.4"/>
          <polygon class="st3" points="391 113.4 393.6 105 404 102.5 411.1 107.1 413.4 113.9 391 113.4"/>
          <polygon class="st53" points="348.6 82.3 403.4 82.3 403.4 91.2 348.6 85.9 348.6 82.3"/>
          <polygon class="st30" points="413.6 82.3 338.4 82.3 376 53.6 413.6 82.3"/>
          <path class="st31" d="M388.9,78.1h0c-2.8-2.8-7.4-2.8-10.2,0l-2.8,2.8-2.8-2.8c-2.8-2.8-7.4-2.8-10.2,0-2.8,2.8-2.7,7.4,0,10.2,2.7,2.7,12.9,12.6,12.9,12.6,0,0,10.2-9.9,12.9-12.6s2.8-7.4,0-10.2h.2Z"/>
        </g>
      </g>
      <g id="myInisght" class="st58">
        <polygon class="st36" points="547.8 106.5 525.1 106.5 525.1 83.8 498.8 83.8 498.8 106.5 476.1 106.5 476.1 132.8 498.8 132.8 498.8 155.5 525.1 155.5 525.1 132.8 547.8 132.8 547.8 106.5"/>
        <path class="st35" d="M544.3,111c4,0,7.2,3.1,7.2,6.7s-3.7,10.5-3.7,10.5h-6.7s-3.9-6.8-3.9-10.5,3.2-6.7,7.2-6.7h0Z"/>
        <path class="st44" d="M544.3,127.8c4.8,0,15.8,6.4,15.8,6.4l-3.8,26.5h-24.7l-4-27.8s11.8-5.2,16.6-5.2h.1Z"/>
        <polygon class="st50" points="558 149.5 530.5 154.8 531.7 160.7 556.4 160.7 558 149.5"/>
        <path class="st34" d="M550,129.2l10.1,5-3.8,26.5h-24.7l-4-27.8,11.4-4.3c3.5-1.3,7.5-1.1,10.9.5h0Z"/>
        <path class="st35" d="M523.4,114.9c-3.9,0-7.1,3.1-7.1,6.6s3.7,10.5,3.7,10.5h6.7s3.9-6.8,3.9-10.5-3.2-6.6-7.1-6.6h-.1Z"/>
        <path class="st44" d="M510.8,137s8.4-5.2,12.6-5.2,12.8,6.2,12.8,6.2l-2.9,22.8-20.4.6-2.1-24.3h0Z"/>
        <polygon class="st45" points="512.9 155.6 534.1 149.4 532.6 160.7 512.9 160.7 512.9 155.6"/>
        <path class="st34" d="M510.9,137.6s4-3,7.2-4.5,6.6-1.8,10.2-.7,7.9,5.6,7.9,5.6l-2.9,22.8h-20.4l-2.1-23.1h.1Z"/>
      </g>
      <g id="myVRS" class="st58">
        <polygon class="st44" points="598.6 177.8 598.6 171.9 570.2 171.9 570.2 235.8 648.6 235.8 648.6 177.8 598.6 177.8"/>
        <polygon class="st28" points="598.6 177.8 598.6 171.9 570.2 171.9 570.2 235.8 648.6 235.8 648.6 177.8 598.6 177.8"/>
        <rect class="st35" x="574.9" y="181.7" width="69.2" height="53.7"/>
        <rect class="st5" x="582.6" y="185.8" width="17.6" height="49.6"/>
        <polygon class="st44" points="606.3 190.4 607.1 185.8 657.1 185.8 648.6 235.8 570.2 235.8 577.9 190.4 606.3 190.4"/>
        <polygon class="st53" points="606.5 235.9 648.4 235.9 657.1 185.8 642.7 185.8 606.5 235.9"/>
        <polygon class="st34" points="606.3 190.4 607.1 185.8 657.1 185.8 648.6 235.8 570.2 235.8 577.9 190.4 606.3 190.4"/>
        <polygon class="st36" points="629.5 207.6 620.6 207.4 621.9 198.6 610.6 198.6 609.4 207.1 600.2 206.9 598.7 216.8 607.9 217 606.7 225.6 618 225.6 619.2 217.3 628.1 217.5 629.5 207.6"/>
      </g>
    </g>
    <g id="SpecialtyPractices1" data-name="SpecialtyPractices" class="st58">
      <g id="addictionTreatment" class="st58">
        <g class="st66">
          <g class="st51">
            <g>
              <path class="st39" d="M427.9,86.5c0,26.5-21.5,47.9-47.9,47.9s-47.9-21.4-47.9-47.9,21.5-47.9,47.9-47.9"/>
              <path class="st32" d="M380,38.6c21.5,0,39.7,14.2,45.8,33.7"/>
              <polyline class="st39" points="428.3 68.4 426.2 73.3 421.3 71.2"/>
              <path class="st44" d="M378.7,51.9c4.9,0,9,3.9,9,8.3s-4.6,13.2-4.6,13.2h-8.4s-4.9-8.6-4.9-13.2,4-8.3,9-8.3"/>
              <path class="st39" d="M378.7,51.9c4.9,0,9,3.9,9,8.3s-4.6,13.2-4.6,13.2h-8.4s-4.9-8.6-4.9-13.2,4-8.3,9-8.3h-.1Z"/>
              <path class="st44" d="M378.7,72.9c6,0,19.8,8,19.8,8l-4.7,33.2h-31l-5-34.8s14.8-6.5,20.8-6.5"/>
              <polygon class="st50" points="396.7 94.1 360.8 100.8 362.9 114.2 393.8 114.2 396.7 94.1"/>
              <path class="st39" d="M385.9,74.7l12.7,6.3-4.7,33.2h-31l-5-34.8,14.3-5.4c4.4-1.7,9.4-1.4,13.6.7h.1Z"/>
              <path class="st5" d="M389.2,116.8s-10.4-5.3-3.7-16.4c0,0,5.2-7.9,17.3-10.9,0,0,5.1,11.8,1.8,20.3-3.2,8.5-11,8.8-15.4,7"/>
              <path class="st39" d="M389.2,116.8s-10.4-5.3-3.7-16.4c0,0,5.2-7.9,17.3-10.9,0,0,5.1,11.8,1.8,20.3-3.2,8.5-11,8.8-15.4,7h0Z"/>
              <line class="st39" x1="386.1" y1="122.4" x2="399.8" y2="96.6"/>
              <polyline class="st39" points="394.2 98.8 395.9 104 400.9 103.1"/>
              <polyline class="st39" points="389.8 104.8 391.9 111.5 398.6 110.4"/>
            </g>
          </g>
        </g>
      </g>
      <g id="theraOffice" class="st58">
        <path class="st33" d="M157.4,118.6c4.8,0,8.7,3.8,8.7,8.1s-4.4,12.7-4.4,12.7h-8.2s-4.8-8.3-4.8-12.7,3.9-8.1,8.7-8.1Z"/>
        <path class="st33" d="M170,141l32,15.5-4.3,6-26.3-9.7-1.5,26.1h-24.9l-3.4-34.4,9.4-4.5c4.3-1.6,14.7-1.1,18.8.9h.2Z"/>
        <path class="st33" d="M117.3,176.7c-.7,4.8,2.5,9.1,6.7,9.8s15.3-3.7,15.3-3.7l-.8-7s-7.5-5.9-11.9-6.6-8.5,2.7-9.2,7.4h0Z"/>
        <polygon class="st33" points="138 188 170 188.1 167.5 171.9 136.4 174.4 138 188"/>
        <polygon class="st38" points="174.1 185.2 170 188.1 190 166.6 206.6 159.1 206.6 150.6 177.2 158.6 167.5 171.9 174.1 185.2"/>
        <polygon class="st38" points="170 188.1 211.4 187.5 210.3 180 167.7 172.3 170 188.1"/>
        <rect class="st2" x="113.3" y="187.5" width="100.3" height="6.7"/>
        <polyline class="st33" points="139.3 187.5 174.8 187.5 177.2 180.1 146.3 177"/>
        <polyline class="st33" points="142.5 152.1 154.8 164 177.7 166.6 180.4 160.8 159.8 155.8 154.8 148.8"/>
      </g>
      <g id="gehriMed">
        <g>
          <polyline class="st44" points="599.7 156.2 592.9 161.6 577.8 161.6 577.3 156.3 589.5 156.1 599.8 145.8"/>
          <polygon class="st52" points="593.2 162.3 577 162.3 576.5 155.6 589.2 155.3 599.2 145.2 600.3 146.3 589.8 156.8 578.1 157.1 578.4 160.8 592.6 160.8 599.2 155.6 600.2 156.8 593.2 162.3"/>
        </g>
        <g>
          <g>
            <polygon class="st63" points="546.7 177.2 549.2 188.5 568.8 188.4 578.2 201.1 584.7 200.5 575.2 179 561 177.2 546.7 177.2"/>
            <path class="st52" d="M577.8,201.9l-9.4-12.7h-19.8l-2.8-12.7h15.3l14.7,1.8,10.1,22.9-8,.7h0ZM569.2,187.6l9.4,12.6,5-.4-8.9-20.2-13.8-1.7h-13.2l2.2,9.7h19.3Z"/>
          </g>
          <g>
            <path class="st44" d="M560.6,139.3c-3.5-1.1-7.3.8-8.3,4s.9,12.1.9,12.1l5.4.3s5.4-5,6.5-8.3-1-6.9-4.5-8h0Z"/>
            <path class="st52" d="M559,156.4l-6.3-.3v-.6c-.2-.4-2.1-9.1-1-12.5.5-1.7,1.8-3.2,3.6-4,1.8-.9,3.8-1,5.6-.4h0c1.9.6,3.5,1.8,4.4,3.5,1,1.7,1.2,3.6.6,5.4-1.1,3.4-6.4,8.4-6.7,8.6l-.2.2h0ZM553.9,154.6l4.5.2c1-1,5.2-5.1,6-7.8.4-1.4.3-2.9-.5-4.2s-2-2.3-3.6-2.8h0c-1.5-.5-3.1-.4-4.5.3s-2.4,1.8-2.8,3.1c-.7,2.3.3,8.3.8,11.1h0Z"/>
          </g>
          <g>
            <polygon class="st44" points="560.1 155.6 561.5 177.2 547.8 181.5 546.7 177.2 549.8 153.5 560.1 155.6"/>
            <path class="st52" d="M547.3,182.4l-1.3-5.2h0c0-.1,3.1-24.7,3.1-24.7l11.7,2.4,1.4,22.8-15,4.7h0ZM547.5,177.2l.8,3.3,12.3-3.9-1.3-20.4-9-1.8-2.9,22.8h.1Z"/>
          </g>
          <g>
            <path class="st44" d="M537.7,163l6.8,2.3,1.3,23.2h23.1c0-.1,3.8,5.8,3.8,5.8h-32l-.8-25.8-3.9-1.5s-2.5-.7-1.6-3.1c.8-2.2,3.4-.9,3.4-.9h0Z"/>
            <path class="st52" d="M574,195.1h-34.1l-.8-26-3.4-1.3c-.3,0-1.5-.5-2.1-1.6-.3-.5-.5-1.3,0-2.5.3-.8.8-1.3,1.5-1.6,1.2-.5,2.6,0,2.9.2l7.2,2.5,1.2,23h22.8c0-.1,4.7,7.3,4.7,7.3h0ZM541.3,193.5h29.8l-2.8-4.4h-23.4c0,.1-1.3-23.2-1.3-23.2l-6.4-2.2c-.3-.1-1.2-.4-1.8-.2-.2,0-.4.2-.6.7-.2.5-.2.9,0,1.2.3.5.9.8,1.1.8h0l4.4,1.7.8,25.5h.2Z"/>
          </g>
          <g>
            <path class="st44" d="M544.9,172.7h22.6c1.2,0,2.2,1,2.2,2.2h0c0,1.3-1,2.3-2.2,2.3h-22.4l-.2-4.5h0Z"/>
            <path class="st52" d="M567.6,177.9h-23.1l-.3-6h23.4c1.6,0,2.9,1.3,3,2.9,0,.8-.3,1.6-.8,2.2s-1.3.9-2.1.9h-.1ZM545.9,176.4h21.7c.4,0,.8-.1,1-.4.3-.3.4-.7.4-1.1,0-.8-.7-1.4-1.4-1.4h-21.8v2.9Z"/>
          </g>
          <g>
            <polygon class="st44" points="563.6 177.2 564.4 188.5 567.2 188.4 566.4 177.2 563.6 177.2"/>
            <path class="st52" d="M563.7,189.2l-.9-12.8h4.3l.9,12.8h-4.3ZM564.4,177.9l.7,9.8h1.2l-.7-9.8h-1.2Z"/>
          </g>
          <g>
            <polyline class="st44" points="552.8 162.2 555.2 172.7 570.4 172.8 572.6 168.7 561.1 167.5 560.4 161.2"/>
            <polygon class="st52" points="570.8 173.5 554.6 173.4 552.1 162.4 553.6 162 555.8 171.9 569.9 172 571.4 169.3 560.4 168.2 559.7 161.3 561.2 161.2 561.8 166.8 573.8 168.1 570.8 173.5"/>
          </g>
          <g>
            <rect class="st44" x="564.6" y="194.3" width="3.1" height="10.1"/>
            <path class="st52" d="M568.5,205.2h-4.7v-11.7h4.7v11.7ZM565.4,203.7h1.6v-8.6h-1.6v8.6Z"/>
          </g>
          <g>
            <rect class="st44" x="545.2" y="194.3" width="3.1" height="10.1"/>
            <path class="st52" d="M549.1,205.2h-4.7v-11.7h4.7v11.7ZM545.9,203.7h1.6v-8.6h-1.6v8.6Z"/>
          </g>
        </g>
        <g>
          <polygon class="st67" points="611.5 204.4 598.8 204.4 596 174.1 614.4 174.1 611.5 204.4"/>
          <path class="st52" d="M612.2,205.2h-14.1l-3-31.9h20.1l-3,31.9h0ZM599.5,203.7h11.3l2.7-28.8h-16.8l2.7,28.8h0Z"/>
        </g>
        <g>
          <polygon class="st44" points="599.1 143.7 609.5 143.7 614.5 169 615.1 181.2 594.9 181.2 595.7 170.6 599.1 143.7"/>
          <path class="st52" d="M615.9,181.9h-21.8l.8-11.4,3.5-27.5h11.7l5.1,26,.7,12.9ZM595.7,180.4h18.6l-.6-11.3-4.8-24.6h-9.1l-3.4,26.2-.7,9.7h0Z"/>
        </g>
        <g>
          <path class="st44" d="M598.9,126c3.9-1,7.8,1.2,8.8,4.7.9,3.5-1.2,13.1-1.2,13.1h-6.7s-5.2-5.8-6.2-9.4c-.4-1.4-.2-2.9.3-4.2.9-2,2.7-3.6,5-4.2h0Z"/>
          <path class="st52" d="M607,144.5h-7.6l-.2-.2c-.2-.2-5.4-5.9-6.4-9.7-.4-1.6-.3-3.2.4-4.7,1-2.2,3-4,5.5-4.6,4.2-1.1,8.7,1.3,9.7,5.3.9,3.6-1.2,13-1.2,13.4v.6h-.2ZM600.1,143h5.7c.4-2.1,1.9-9.3,1.1-12.1-.8-3.2-4.4-5.1-7.8-4.2h0c-2,.5-3.7,1.9-4.5,3.8-.5,1.2-.6,2.5-.3,3.7.8,3,4.8,7.7,5.8,8.8h0Z"/>
        </g>
        <polygon class="st52" points="608.2 174.9 606.2 154.5 607.8 154.4 609.6 173.2 614.7 172.9 614.8 174.4 608.2 174.9"/>
        <g>
          <circle class="st44" cx="603.2" cy="152.7" r="1.7"/>
          <path class="st52" d="M603.2,155.2h-.5c-.7-.1-1.2-.5-1.6-1s-.5-1.2-.4-1.9c.3-1.4,1.6-2.2,2.9-2,.7.1,1.2.5,1.6,1,.4.6.5,1.2.4,1.9s-.5,1.2-1,1.6c-.4.3-.9.4-1.4.4h0ZM603.2,151.7c-.5,0-.9.3-1,.8s.2,1,.8,1.1c.3,0,.5,0,.7-.2.2-.1.4-.4.4-.6s0-.5-.2-.7c0-.2-.4-.4-.6-.4h-.2,0Z"/>
        </g>
        <g>
          <line class="st42" x1="605.7" y1="144" x2="603.5" y2="151"/>
          <rect class="st52" x="600.6" y="146.5" width="7.4" height="1.5" transform="translate(281.2 678.7) rotate(-72.4)"/>
        </g>
        <g>
          <line class="st42" x1="601.5" y1="181.6" x2="602.6" y2="204.4"/>
          <rect class="st52" x="601.2" y="181.6" width="1.5" height="22.9" transform="translate(-8.4 28.6) rotate(-2.7)"/>
        </g>
        <polyline class="st67" points="599.2 144.3 601.8 147.7 604.6 144.3"/>
        <polygon class="st52" points="601.8 148.9 598.6 144.8 599.8 143.8 601.9 146.4 604 143.8 605.2 144.8 601.8 148.9"/>
      </g>
    </g>
  </g>
</svg>