<?xml version="1.0" encoding="UTF-8"?>
<svg id="Layer_1" data-name="Layer 1" xmlns="http://www.w3.org/2000/svg" viewBox="0 0 108 108">
  <g id="PlexusServices">
    <g id="plexusCloud">
      <path d="M86.85,41.04c-.44-9.4-8.18-16.9-17.69-16.9-2.51,0-4.9.55-7.06,1.49-3.88-5.86-10.52-9.73-18.07-9.73-10.18,0-18.71,7.04-21.02,16.51-10.81,2.37-18.91,11.98-18.91,23.5,0,12.26,9.18,22.36,21.04,23.85l59.43.21c10.78,0,19.53-8.75,19.53-19.53,0-10.02-7.54-18.26-17.25-19.39Z" fill="#fff" stroke="#044872" stroke-miterlimit="10" stroke-width="1.67"/>
      <path d="M95.51,44.28c2.13,3.12,3.38,6.88,3.38,10.94,0,10.78-8.75,19.53-19.53,19.53l-59.43-.21c-4.18-.53-8-2.13-11.23-4.5,3.81,5.23,9.69,8.87,16.44,9.71l59.43.21c10.78,0,19.53-8.75,19.53-19.53,0-6.72-3.41-12.64-8.58-16.14Z" isolation="isolate" opacity=".12"/>
      <g>
        <circle cx="54.1" cy="63.37" r="28.51" fill="#fff" stroke="#044872" stroke-miterlimit="10" stroke-width="1.67"/>
        <path d="M33.43,83c4.83,5.1,18.01.44,29.43-10.4s16.75-23.75,11.91-28.85" fill="#fff" stroke="#044872" stroke-miterlimit="10" stroke-width="1.67"/>
        <path d="M73.73,84.05c5.1-4.83.44-18.01-10.4-29.43-10.84-11.42-23.76-16.76-28.86-11.92" fill="none" stroke="#044872" stroke-miterlimit="10" stroke-width="1.67"/>
        <path d="M34.47,42.7c-5.1,4.83-.44,18.01,10.4,29.43,10.84,11.42,23.75,16.75,28.85,11.91" fill="none" stroke="#044872" stroke-miterlimit="10" stroke-width="1.67"/>
        <path d="M74.77,43.75c-4.83-5.1-18.01-.44-29.43,10.4s-16.75,23.75-11.91,28.85" fill="none" stroke="#044872" stroke-miterlimit="10" stroke-width="1.67"/>
        <circle cx="34.81" cy="42.7" r="5.53" fill="#84bd00" stroke="#044872" stroke-miterlimit="10" stroke-width="1.67"/>
        <circle cx="70.61" cy="63.37" r="5.53" fill="#00a2c5" stroke="#044872" stroke-miterlimit="10" stroke-width="1.67"/>
        <circle cx="44.33" cy="71.47" r="5.53" fill="#e87722" stroke="#044872" stroke-miterlimit="10" stroke-width="1.67"/>
      </g>
    </g>
  </g>
</svg>