<?xml version="1.0" encoding="UTF-8"?>
<svg id="Layer_1" data-name="Layer 1" xmlns="http://www.w3.org/2000/svg" xmlns:xlink="http://www.w3.org/1999/xlink" viewBox="0 0 108 108">
  <defs>
    <clipPath id="clippath">
      <rect x="5" y="5.13" width="98" height="97.7" fill="none"/>
    </clipPath>
    <clipPath id="clippath-1">
      <rect x="5" y="5.13" width="98" height="97.7" fill="none"/>
    </clipPath>
  </defs>
  <g id="CareRecords">
    <g id="SpecialtyPractices">
      <g id="addictionTreatment">
        <g clip-path="url(#clippath)">
          <g clip-path="url(#clippath-1)">
            <g>
              <path d="M101.8,53.93c0,26.5-21.5,47.9-47.9,47.9S6,80.43,6,53.93,27.5,6.03,53.9,6.03" fill="none" stroke="#044872" stroke-miterlimit="10" stroke-width="1.9"/>
              <path d="M53.9,6.03c21.5,0,39.7,14.2,45.8,33.7" fill="none" stroke="#044872" stroke-dasharray="0 0 7.9 5.9" stroke-miterlimit="10" stroke-width="1.9"/>
              <polyline points="102.2 35.83 100.1 40.73 95.2 38.63" fill="none" stroke="#044872" stroke-miterlimit="10" stroke-width="1.9"/>
              <path d="M52.6,19.33c4.9,0,9,3.9,9,8.3s-4.6,13.2-4.6,13.2h-8.4s-4.9-8.6-4.9-13.2,4-8.3,9-8.3" fill="#fff"/>
              <path d="M52.6,19.33c4.9,0,9,3.9,9,8.3s-4.6,13.2-4.6,13.2h-8.4s-4.9-8.6-4.9-13.2,4-8.3,9-8.3h-.1Z" fill="none" stroke="#044872" stroke-miterlimit="10" stroke-width="1.9"/>
              <path d="M52.6,40.33c6,0,19.8,8,19.8,8l-4.7,33.2h-31l-5-34.8s14.8-6.5,20.8-6.5" fill="#fff"/>
              <polygon points="70.6 61.53 34.7 68.23 36.8 81.63 67.7 81.63 70.6 61.53" fill="#00a2c5"/>
              <path d="M59.8,42.13l12.7,6.3-4.7,33.2h-31l-5-34.8,14.3-5.4c4.4-1.7,9.4-1.4,13.6.7h.1Z" fill="none" stroke="#044872" stroke-miterlimit="10" stroke-width="1.9"/>
              <path d="M63.1,84.23s-10.4-5.3-3.7-16.4c0,0,5.2-7.9,17.3-10.9,0,0,5.1,11.8,1.8,20.3-3.2,8.5-11,8.8-15.4,7" fill="#84bd00"/>
              <path d="M63.1,84.23s-10.4-5.3-3.7-16.4c0,0,5.2-7.9,17.3-10.9,0,0,5.1,11.8,1.8,20.3-3.2,8.5-11,8.8-15.4,7h0Z" fill="none" stroke="#044872" stroke-miterlimit="10" stroke-width="1.9"/>
              <line x1="60" y1="89.83" x2="73.7" y2="64.03" fill="none" stroke="#044872" stroke-miterlimit="10" stroke-width="1.9"/>
              <polyline points="68.1 66.23 69.8 71.43 74.8 70.53" fill="none" stroke="#044872" stroke-miterlimit="10" stroke-width="1.9"/>
              <polyline points="63.7 72.23 65.8 78.93 72.5 77.83" fill="none" stroke="#044872" stroke-miterlimit="10" stroke-width="1.9"/>
            </g>
          </g>
        </g>
      </g>
    </g>
  </g>
</svg>