<?xml version="1.0" encoding="UTF-8"?>
<svg id="Layer_1" data-name="Layer 1" xmlns="http://www.w3.org/2000/svg" viewBox="0 0 108 108">
  <g id="CareRecords">
    <g id="SpecialtyPractices">
      <g id="gehriMed">
        <g>
          <polyline points="79.1 42.17 72.3 47.57 57.2 47.57 56.7 42.27 68.9 42.07 79.2 31.77" fill="#fff"/>
          <polygon points="72.6 48.27 56.4 48.27 55.9 41.57 68.6 41.27 78.6 31.17 79.7 32.27 69.2 42.77 57.5 43.07 57.8 46.77 72 46.77 78.6 41.57 79.6 42.77 72.6 48.27" fill="#044872"/>
        </g>
        <g>
          <g>
            <polygon points="26.1 63.17 28.6 74.47 48.2 74.37 57.6 87.07 64.1 86.47 54.6 64.97 40.4 63.17 26.1 63.17" fill="#71c100"/>
            <path d="M57.2,87.87l-9.4-12.7h-19.8l-2.8-12.7h15.3l14.7,1.8,10.1,22.9-8,.7h-.1ZM48.6,73.57l9.4,12.6,5-.4-8.9-20.2-13.8-1.7h-13.2l2.2,9.7h19.3Z" fill="#044872"/>
          </g>
          <g>
            <path d="M40,25.27c-3.5-1.1-7.3.8-8.3,4s.9,12.1.9,12.1l5.4.3s5.4-5,6.5-8.3-1-6.9-4.5-8h0v-.1Z" fill="#fff"/>
            <path d="M38.4,42.37l-6.3-.3v-.6c-.2-.4-2.1-9.1-1-12.5.5-1.7,1.8-3.2,3.6-4,1.8-.9,3.8-1,5.6-.4h0c1.9.6,3.5,1.8,4.4,3.5,1,1.7,1.2,3.6.6,5.4-1.1,3.4-6.4,8.4-6.7,8.6l-.2.2v.1ZM33.3,40.57l4.5.2c1-1,5.2-5.1,6-7.8.4-1.4.3-2.9-.5-4.2s-2-2.3-3.6-2.8h0c-1.5-.5-3.1-.4-4.5.3s-2.4,1.8-2.8,3.1c-.7,2.3.3,8.3.8,11.1h0l.1.1Z" fill="#044872"/>
          </g>
          <g>
            <polygon points="39.5 41.57 40.9 63.17 27.2 67.47 26.1 63.17 29.2 39.47 39.5 41.57" fill="#fff"/>
            <path d="M26.7,68.37l-1.3-5.2h0c0-.1,3.1-24.7,3.1-24.7l11.7,2.4,1.4,22.8-15,4.7h.1ZM26.9,63.17l.8,3.3,12.3-3.9-1.3-20.4-9-1.8-2.9,22.8h.1Z" fill="#044872"/>
          </g>
          <g>
            <path d="M17.1,48.97l6.8,2.3,1.3,23.2h23.1c0-.1,3.8,5.8,3.8,5.8H20.1l-.8-25.8-3.9-1.5s-2.5-.7-1.6-3.1c.8-2.2,3.4-.9,3.4-.9h-.1Z" fill="#fff"/>
            <path d="M53.4,81.07H19.3l-.8-26-3.4-1.3c-.3,0-1.5-.5-2.1-1.6-.3-.5-.5-1.3,0-2.5.3-.8.8-1.3,1.5-1.6,1.2-.5,2.6,0,2.9.2l7.2,2.5,1.2,23h22.8c0-.1,4.7,7.3,4.7,7.3h.1ZM20.7,79.47h29.8l-2.8-4.4h-23.4c0,.1-1.3-23.2-1.3-23.2l-6.4-2.2c-.3-.1-1.2-.4-1.8-.2-.2,0-.4.2-.6.7-.2.5-.2.9,0,1.2.3.5.9.8,1.1.8h0l4.4,1.7.8,25.5h0l.2.1Z" fill="#044872"/>
          </g>
          <g>
            <path d="M24.3,58.67h22.6c1.2,0,2.2,1,2.2,2.2h0c0,1.3-1,2.3-2.2,2.3h-22.4l-.2-4.5h0Z" fill="#fff"/>
            <path d="M47,63.87h-23.1l-.3-6h23.4c1.6,0,2.9,1.3,3,2.9,0,.8-.3,1.6-.8,2.2s-1.3.9-2.1.9h-.1ZM25.3,62.37h21.7c.4,0,.8-.1,1-.4.3-.3.4-.7.4-1.1,0-.8-.7-1.4-1.4-1.4h-21.8l.1,2.9Z" fill="#044872"/>
          </g>
          <g>
            <polygon points="43 63.17 43.8 74.47 46.6 74.37 45.8 63.17 43 63.17" fill="#fff"/>
            <path d="M43.1,75.17l-.9-12.8h4.3l.9,12.8h-4.3ZM43.8,63.87l.7,9.8h1.2l-.7-9.8h-1.2Z" fill="#044872"/>
          </g>
          <g>
            <polyline points="32.2 48.17 34.6 58.67 49.8 58.77 52 54.67 40.5 53.47 39.8 47.17" fill="#fff"/>
            <polygon points="50.2 59.47 34 59.37 31.5 48.37 33 47.97 35.2 57.87 49.3 57.97 50.8 55.27 39.8 54.17 39.1 47.27 40.6 47.17 41.2 52.77 53.2 54.07 50.2 59.47" fill="#044872"/>
          </g>
          <g>
            <rect x="44" y="80.27" width="3.1" height="10.1" fill="#fff"/>
            <path d="M47.9,91.17h-4.7v-11.7h4.7v11.7ZM44.8,89.67h1.6v-8.6h-1.6v8.6Z" fill="#044872"/>
          </g>
          <g>
            <rect x="24.6" y="80.27" width="3.1" height="10.1" fill="#fff"/>
            <path d="M28.5,91.17h-4.7v-11.7h4.7v11.7ZM25.3,89.67h1.6v-8.6h-1.6v8.6Z" fill="#044872"/>
          </g>
        </g>
        <g>
          <polygon points="90.9 90.37 78.2 90.37 75.4 60.07 93.8 60.07 90.9 90.37" fill="#00a4c9"/>
          <path d="M91.6,91.17h-14.1l-3-31.9h20.1l-3,31.9h0ZM78.9,89.67h11.3l2.7-28.8h-16.8l2.7,28.8h.1Z" fill="#044872"/>
        </g>
        <g>
          <polygon points="78.5 29.67 88.9 29.67 93.9 54.97 94.5 67.17 74.3 67.17 75.1 56.57 78.5 29.67" fill="#fff"/>
          <path d="M95.3,67.87h-21.8l.8-11.4,3.5-27.5h11.7l5.1,26,.7,12.9ZM75.1,66.37h18.6l-.6-11.3-4.8-24.6h-9.1l-3.4,26.2-.7,9.7h0Z" fill="#044872"/>
        </g>
        <g>
          <path d="M78.3,11.97c3.9-1,7.8,1.2,8.8,4.7.9,3.5-1.2,13.1-1.2,13.1h-6.7s-5.2-5.8-6.2-9.4c-.4-1.4-.2-2.9.3-4.2.9-2,2.7-3.6,5-4.2h0Z" fill="#fff"/>
          <path d="M86.4,30.47h-7.6l-.2-.2c-.2-.2-5.4-5.9-6.4-9.7-.4-1.6-.3-3.2.4-4.7,1-2.2,3-4,5.5-4.6,4.2-1.1,8.7,1.3,9.7,5.3.9,3.6-1.2,13-1.2,13.4v.6h-.1l-.1-.1ZM79.5,28.97h5.7c.4-2.1,1.9-9.3,1.1-12.1-.8-3.2-4.4-5.1-7.8-4.2h0c-2,.5-3.7,1.9-4.5,3.8-.5,1.2-.6,2.5-.3,3.7.8,3,4.8,7.7,5.8,8.8h0Z" fill="#044872"/>
        </g>
        <polygon points="87.6 60.87 85.6 40.47 87.2 40.37 89 59.17 94.1 58.87 94.2 60.37 87.6 60.87" fill="#044872"/>
        <g>
          <circle cx="82.6" cy="38.67" r="1.7" fill="#fff"/>
          <path d="M82.6,41.17h-.5c-.7-.1-1.2-.5-1.6-1s-.5-1.2-.4-1.9c.3-1.4,1.6-2.2,2.9-2,.7.1,1.2.5,1.6,1,.4.6.5,1.2.4,1.9s-.5,1.2-1,1.6c-.4.3-.9.4-1.4.4h0ZM82.6,37.67c-.5,0-.9.3-1,.8s.2,1,.8,1.1c.3,0,.5,0,.7-.2.2-.1.4-.4.4-.6s0-.5-.2-.7c-.1-.2-.4-.4-.6-.4h-.2.1Z" fill="#044872"/>
        </g>
        <g>
          <line x1="85.1" y1="29.97" x2="82.9" y2="36.97" fill="none"/>
          <rect x="79.96" y="32.5" width="7.4" height="1.5" transform="translate(26.67 102.95) rotate(-72.4)" fill="#044872"/>
        </g>
        <g>
          <line x1="80.9" y1="67.57" x2="82" y2="90.37" fill="none"/>
          <rect x="80.62" y="67.59" width="1.5" height="22.9" transform="translate(-3.63 3.92) rotate(-2.7)" fill="#044872"/>
        </g>
        <polyline points="78.6 30.27 81.2 33.67 84 30.27" fill="#00a4c9"/>
        <polygon points="81.2 34.87 78 30.77 79.2 29.77 81.3 32.37 83.4 29.77 84.6 30.77 81.2 34.87" fill="#044872"/>
      </g>
    </g>
  </g>
</svg>