<?xml version="1.0" encoding="UTF-8"?>
<svg id="Layer_1" data-name="Layer 1" xmlns="http://www.w3.org/2000/svg" viewBox="0 0 108 108">
  <g id="CareRecords">
    <g id="Enterprise">
      <g id="myAvatar">
        <path d="M60.41,17.87c-14.9-1.6-27.9,10.1-29.1,27.9l-6.6,10.9c-.7,1.1-.3,2.5.8,3.2.2.2.5.3.8.3l4.6.8,1,10.5c.3,2.8,2.5,5.1,5.3,5.4l6.4.6,3.1,13.4,23.5-5.5,1.5-7.3c11.1-13.9,13.4-27,13.2-33.6-.3-14-9.4-24.9-24.4-26.5l-.1-.1Z" fill="#fff"/>
        <line x1="39.21" y1="41.47" x2="71.31" y2="30.57" fill="none" stroke="#044872" stroke-miterlimit="3.3" stroke-width="1.5"/>
        <line x1="75.41" y1="51.37" x2="50.41" y2="26.47" fill="none" stroke="#044872" stroke-miterlimit="3.3" stroke-width="1.5"/>
        <polyline points="39.21 41.47 50.41 26.47 55.71 58.17 71.31 30.57 75.41 51.37" fill="none" stroke="#044872" stroke-miterlimit="3.3" stroke-width="1.5"/>
        <path d="M39.21,44.87c-1.9,0-3.4-1.6-3.4-3.5,0-1.7,1.3-3.2,3-3.4h.4c1.9,0,3.4,1.5,3.4,3.4,0,1.7-1.3,3.2-3,3.4h-.4v.1Z" fill="#00a2c5"/>
        <path d="M39.21,38.77c1.5,0,2.6,1.3,2.6,2.7,0,1.3-1,2.4-2.3,2.6h-.3c-1.5,0-2.6-1.3-2.6-2.7,0-1.3,1-2.4,2.3-2.6h.3M39.21,37.27h0c-2.3,0-4.2,1.9-4.2,4.2s1.9,4.2,4.2,4.2,4.2-1.9,4.2-4.2v-.5c-.2-2.1-2-3.7-4.2-3.7h0Z" fill="#fff"/>
        <path d="M55.71,61.67c-1.9,0-3.4-1.6-3.4-3.5,0-1.7,1.3-3.2,3-3.4h.4c1.9,0,3.4,1.6,3.4,3.5,0,1.7-1.3,3.2-3,3.4h-.4Z" fill="#00a2c5"/>
        <path d="M55.71,55.57c1.5,0,2.6,1.3,2.6,2.7,0,1.3-1,2.4-2.3,2.6h-.3c-1.5,0-2.6-1.3-2.6-2.7,0-1.3,1-2.4,2.3-2.6h.3M55.71,54.07h0c-2.3,0-4.2,1.8-4.3,4.1,0,2.3,1.8,4.2,4.1,4.3h.7c2.3-.3,3.9-2.4,3.7-4.7-.3-2.1-2-3.7-4.2-3.7h0Z" fill="#fff"/>
        <path d="M50.41,29.97c-1.7,0-3.2-1.3-3.4-3-.2-1.9,1.1-3.6,3-3.8h.4c1.9,0,3.4,1.5,3.4,3.4,0,1.7-1.3,3.2-3,3.4h-.4Z" fill="#00a2c5"/>
        <path d="M50.41,23.87c1.5,0,2.6,1.3,2.6,2.7,0,1.3-1,2.4-2.3,2.6h-.3c-1.5,0-2.6-1.3-2.6-2.8,0-1.3,1-2.3,2.3-2.5h.3M50.41,22.27h-.5c-2.3.3-3.9,2.4-3.7,4.7.3,2.1,2,3.7,4.2,3.7h.5c2.3-.3,4-2.3,3.7-4.6-.2-2.1-2-3.7-4.2-3.7v-.1Z" fill="#fff"/>
        <path d="M75.31,54.77c-1.9,0-3.4-1.6-3.4-3.5,0-1.7,1.3-3.2,3-3.4h.4c1.9,0,3.4,1.5,3.4,3.4,0,1.7-1.3,3.2-3,3.4h-.4v.1Z" fill="#00a2c5"/>
        <path d="M75.41,48.67c1.5,0,2.6,1.3,2.6,2.7,0,1.3-1,2.4-2.3,2.6h-.3c-1.5,0-2.6-1.3-2.6-2.8,0-1.3,1-2.3,2.3-2.5h.3M75.31,47.17h-.5c-2.3.3-3.9,2.4-3.7,4.7.3,2.1,2,3.7,4.2,3.7h.5c2.3-.3,3.9-2.4,3.7-4.7-.3-2.1-2-3.7-4.2-3.7Z" fill="#fff"/>
        <path d="M71.31,34.07c-1.9,0-3.4-1.6-3.3-3.5,0-1.7,1.3-3,2.9-3.3h.4c1.9,0,3.4,1.6,3.4,3.5,0,1.7-1.3,3.2-3,3.4h-.4v-.1Z" fill="#00a2c5"/>
        <path d="M71.31,27.97c1.5,0,2.6,1.3,2.6,2.8,0,1.3-1,2.3-2.3,2.5h-.3c-1.5,0-2.6-1.3-2.6-2.7,0-1.3,1-2.4,2.3-2.6h.3M71.31,26.47h0c-2.3,0-4.2,1.9-4.2,4.2s1.9,4.2,4.2,4.2,4.2-1.9,4.2-4.2v-.5c-.2-2.1-2-3.7-4.2-3.7h0Z" fill="#fff"/>
        <polygon points="43.41 77.37 59.51 79.17 46.51 90.77 43.41 77.37" isolation="isolate" opacity=".1"/>
        <line x1="43.41" y1="77.37" x2="59.51" y2="78.47" fill="none" stroke="#044872" stroke-miterlimit="3.3" stroke-width="1.5"/>
        <path d="M60.41,17.87c-14.9-1.6-27.9,10.1-29.1,27.9l-6.6,10.9c-.7,1.1-.3,2.5.8,3.2.2.2.5.3.8.3l4.6.8,1,10.5c.3,2.8,2.5,5.1,5.3,5.4l6.4.6,3.1,13.4,23.5-5.5,1.5-7.3c11.1-13.9,13.4-27,13.2-33.6-.3-14-9.4-24.9-24.4-26.5l-.1-.1Z" fill="none" stroke="#044872" stroke-miterlimit="3.3" stroke-width="1.5"/>
      </g>
    </g>
  </g>
</svg>