<?xml version="1.0" encoding="UTF-8"?>
<svg id="Layer_1" data-name="Layer 1" xmlns="http://www.w3.org/2000/svg" viewBox="0 0 108 108">
  <g id="CareRecords">
    <g id="Enterprise">
      <g id="myEvolve">
        <g>
          <g>
            <path d="M61.24,6.99c3.6,0,6.4,2.8,6.4,6s-3.3,9.5-3.3,9.5h-6.1s-3.5-6.1-3.5-9.5,2.9-6,6.4-6h.1Z" fill="#fff" stroke="#044872" stroke-miterlimit="10" stroke-width="1.5"/>
            <polygon points="61.64 20.99 75.54 27.89 66.44 92.09 55.74 92.09 46.34 26.79 61.64 20.99" fill="#fff"/>
            <polygon points="71.94 52.99 50.44 55.49 55.74 92.09 66.44 92.09 71.94 52.99" fill="#00a1c4"/>
            <path d="M67.84,24.09l7.7,3.8-9.1,64.3h-10.8l-9.4-65.4,8.9-3.3c4.1-1.5,8.7-1.3,12.6.6h.1Z" fill="none" stroke="#044872" stroke-miterlimit="10" stroke-width="1.5"/>
          </g>
          <g>
            <path d="M45.24,11.69c-3.5,0-6.4,2.8-6.4,5.9s3.3,9.4,3.3,9.4h6s3.5-6.1,3.5-9.4-2.9-5.9-6.4-5.9h0Z" fill="#fff" stroke="#044872" stroke-miterlimit="10" stroke-width="1.5"/>
            <polygon points="35.94 30.69 44.94 25.89 55.54 29.69 56.74 46.99 63.04 76.49 51.44 76.49 48.94 92.09 40.74 92.09 38.54 76.19 28.24 76.39 33.24 53.99 35.94 30.69" fill="#fff"/>
            <polygon points="33.24 53.99 56.74 46.99 63.04 76.49 28.24 76.39 33.24 53.99" fill="#84bd00"/>
            <path d="M35.94,30.69l4.5-2.7c2.9-1.4,6.1-1.6,9.1-.6l5.9,2.3,1.2,17.4,6.3,29.2h-11.6l-2.5,15.9h-8.1l-2.3-15.9h-10.2l5-22.3,2.7-23.3h0Z" fill="none" stroke="#044872" stroke-miterlimit="10" stroke-width="1.5"/>
            <line x1="38.54" y1="76.19" x2="61.14" y2="76.19" fill="none" stroke="#044872" stroke-miterlimit="10" stroke-width="1.5"/>
          </g>
          <path d="M69.24,38.69c3.3,0,6,2.6,6,5.5s-3,8.8-3,8.8h-5.6s-3.3-5.7-3.3-8.8,2.7-5.5,5.9-5.5h0Z" fill="#fff" stroke="#044872" stroke-miterlimit="10" stroke-width="1.5"/>
          <polygon points="80.14 83.49 74.54 83.79 72.84 92.09 66.84 92.09 65.44 84.19 59.04 84.09 62.54 53.09 69.44 51.09 75.74 53.59 80.14 83.49" fill="#fff"/>
          <polygon points="78.44 73.79 60.24 72.29 58.24 83.89 80.14 83.49 78.44 73.79" fill="#00a1c4"/>
          <path d="M73.14,52.59l2.7,1,4.3,30.2-21.8.4,4.3-31,3-.9c2.5-.7,5.1-.6,7.5.3Z" fill="none" stroke="#044872" stroke-miterlimit="10" stroke-width="1.5"/>
          <polygon points="74.54 83.79 72.84 92.09 66.84 92.09 65.04 84.09 74.54 83.79" fill="none" stroke="#044872" stroke-miterlimit="10" stroke-width="1.5"/>
          <g>
            <path d="M57.14,47.79c2.9,0,5.3,2.3,5.3,4.9s-2.7,7.8-2.7,7.8h-5s-2.9-5.1-2.9-7.8,2.4-4.9,5.3-4.9h0Z" fill="#fff" stroke="#044872" stroke-miterlimit="10" stroke-width="1.5"/>
            <polygon points="57.34 59.49 66.34 63.19 63.34 92.09 52.04 92.09 48.04 63.09 57.34 59.49" fill="#fff"/>
            <polygon points="64.94 76.29 50.44 77.49 52.04 92.09 63.34 92.09 64.94 76.29" fill="#e87722"/>
            <path d="M61.04,60.79l5.3,2.5-3,28.9h-11.3l-4-29,5.5-2.6c2.5-.7,5.1-.5,7.5.3v-.1Z" fill="none" stroke="#044872" stroke-miterlimit="10" stroke-width="1.5"/>
          </g>
        </g>
      </g>
    </g>
  </g>
</svg>