<?xml version="1.0" encoding="UTF-8"?>
<svg id="Layer_1" data-name="Layer 1" xmlns="http://www.w3.org/2000/svg" viewBox="0 0 108 108">
  <g id="CareRecords">
    <g id="Enterprise">
      <g id="myInisght">
        <path d="M81.03,37.61h-16.87c-1.61,0-2.92-1.31-2.92-2.92v-16.87c0-1.61-1.31-2.92-2.92-2.92h-20.47c-1.61,0-2.92,1.31-2.92,2.92v16.87c0,1.61-1.31,2.92-2.92,2.92H15.16c-1.61,0-2.92,1.31-2.92,2.92v20.47c0,1.61,1.31,2.92,2.92,2.92h16.87c1.61,0,2.92,1.31,2.92,2.92v16.87c0,1.61,1.31,2.92,2.92,2.92h20.47c1.61,0,2.92-1.31,2.92-2.92v-16.87c0-1.61,1.31-2.92,2.92-2.92h16.87c1.61,0,2.92-1.31,2.92-2.92v-20.47c0-1.61-1.31-2.92-2.92-2.92Z" fill="#00a2c5" stroke="#044872" stroke-miterlimit="10" stroke-width="1.6"/>
        <path d="M80.45,42.11c4,0,7.2,3.1,7.2,6.7,0,2.49-1.78,6.57-2.87,8.84-.49,1.01-1.51,1.66-2.63,1.66h-3.16c-1.1,0-2.1-.62-2.6-1.6-1.15-2.24-3.04-6.32-3.04-8.9,0-3.7,3.2-6.7,7.2-6.7h-.1Z" fill="#fff" stroke="#044872" stroke-miterlimit="10" stroke-width="1.6"/>
        <path d="M80.45,58.91c3.61,0,10.72,3.61,14.03,5.41,1.07.58,1.66,1.77,1.49,2.97l-3.16,22.01c-.21,1.44-1.44,2.5-2.89,2.5h-19.65c-1.45,0-2.68-1.07-2.89-2.5l-3.32-23.07c-.19-1.32.54-2.6,1.77-3.11,3.61-1.48,10.96-4.32,14.51-4.32l.1.1Z" fill="#fff"/>
        <path d="M90.13,81.38l-20.59,3.97c-1.59.31-2.63,1.85-2.31,3.44l.14.68c.28,1.36,1.47,2.33,2.86,2.33h19.79c1.45,0,2.68-1.07,2.89-2.5l.66-4.65c.28-1.98-1.47-3.65-3.44-3.27Z" fill="#00a2c5"/>
        <path d="M86.15,60.31l8.21,4.06c1.13.56,1.77,1.78,1.59,3.03l-3.14,21.91c-.21,1.44-1.44,2.5-2.89,2.5h-19.65c-1.45,0-2.68-1.07-2.89-2.5l-3.31-22.98c-.19-1.35.58-2.66,1.86-3.14l9.21-3.47c3.5-1.3,7.5-1.1,10.9.5l.1.1Z" fill="none" stroke="#044872" stroke-miterlimit="10" stroke-width="1.6"/>
        <path d="M59.55,46.01c-3.9,0-7.1,3.1-7.1,6.6,0,2.43,1.78,6.54,2.87,8.83.48,1.02,1.51,1.67,2.64,1.67h3.15c1.1,0,2.1-.62,2.6-1.6,1.15-2.24,3.04-6.32,3.04-8.9,0-3.7-3.2-6.6-7.1-6.6h-.1Z" fill="#fff" stroke="#044872" stroke-miterlimit="10" stroke-width="1.6"/>
        <path d="M46.95,68.11s8.4-5.2,12.6-5.2c3.11,0,8.64,3.4,11.3,5.17.93.61,1.42,1.7,1.28,2.8l-2.36,18.56c-.18,1.42-1.37,2.5-2.81,2.55l-15.16.45c-1.55.05-2.86-1.12-2.99-2.66l-1.86-21.56v-.1Z" fill="#fff"/>
        <path d="M51.14,86.09l14.81-4.33c2.02-.59,3.99,1.09,3.71,3.18l-.57,4.33c-.19,1.45-1.43,2.53-2.89,2.53h-14.23c-1.61,0-2.92-1.31-2.92-2.92h0c0-1.29.85-2.43,2.1-2.8Z" fill="#e87722"/>
        <path d="M47.05,68.71s4-3,7.2-4.5,6.6-1.8,10.2-.7c2.48.76,5.29,3.13,6.8,4.53.69.64,1.03,1.57.91,2.51l-2.39,18.81c-.19,1.46-1.42,2.55-2.89,2.55h-15.17c-1.51,0-2.77-1.15-2.9-2.65l-1.86-20.45.1-.1Z" fill="none" stroke="#044872" stroke-miterlimit="10" stroke-width="1.6"/>
      </g>
    </g>
  </g>
</svg>