<?xml version="1.0" encoding="UTF-8"?>
<svg id="Layer_1" data-name="Layer 1" xmlns="http://www.w3.org/2000/svg" viewBox="0 0 108 108">
  <g id="CareRecords">
    <g id="SpecialtyPractices">
      <g id="theraOffice">
        <path d="M47.95,9.73c4.8,0,8.7,3.8,8.7,8.1,0,3.02-2.18,8.07-3.47,10.81-.55,1.16-1.71,1.89-2.98,1.89h-4.19c-1.22,0-2.35-.67-2.92-1.76-1.4-2.68-3.84-7.8-3.84-10.94,0-4.4,3.9-8.1,8.7-8.1Z" fill="#fff" stroke="#044872" stroke-miterlimit="10" stroke-width="1.8"/>
        <path d="M60.55,32.13l28.48,13.79c1.84.89,2.43,3.23,1.24,4.89l-.56.78c-.86,1.21-2.43,1.69-3.82,1.17l-19.76-7.29c-2.08-.77-4.31.69-4.43,2.9l-1.07,18.55c-.1,1.74-1.54,3.11-3.29,3.11h-18.8c-1.7,0-3.11-1.29-3.28-2.97l-2.88-29.13c-.14-1.38.61-2.7,1.86-3.3l7.13-3.41c.12-.06.25-.11.38-.16,4.41-1.52,14.57-1,18.61.97l.2.1Z" fill="#fff" stroke="#044872" stroke-miterlimit="10" stroke-width="1.8"/>
        <path d="M7.85,67.83c-.7,4.8,2.5,9.1,6.7,9.8,2.95.49,9.31-1.53,12.83-2.78,1.45-.51,2.35-1.96,2.18-3.48l-.35-3.03c-.1-.91-.58-1.74-1.32-2.28-2.28-1.67-7.4-5.2-10.74-5.73-4.4-.7-8.5,2.7-9.2,7.4l-.1.1Z" fill="#fff" stroke="#044872" stroke-miterlimit="10" stroke-width="1.8"/>
        <path d="M31.47,79.14l25.22.08c2.03,0,3.58-1.8,3.27-3.8l-1.44-9.36c-.26-1.71-1.8-2.92-3.52-2.78l-24.63,1.98c-1.86.15-3.23,1.82-3.01,3.67l.86,7.3c.19,1.66,1.6,2.91,3.26,2.91Z" fill="#fff" stroke="#044872" stroke-miterlimit="10" stroke-width="1.8"/>
        <path d="M63.4,73.81c.72,1.46.28,3.22-1.05,4.16l-1.8,1.27,19.55-21.01c.3-.32.66-.58,1.06-.76l14.06-6.35c1.18-.53,1.94-1.71,1.94-3.01v-2.06c0-2.17-2.07-3.75-4.16-3.18l-24.12,6.56c-.72.2-1.36.63-1.8,1.24l-7.84,10.75c-.72.99-.84,2.31-.29,3.41l4.46,8.98Z" fill="#00a2c5" stroke="#044872" stroke-miterlimit="10" stroke-width="1.8"/>
        <path d="M63.44,79.19l34.75-.5c1.99-.03,3.5-1.8,3.21-3.78l-.21-1.43c-.21-1.4-1.28-2.51-2.68-2.77l-35.76-6.46c-2.22-.4-4.17,1.49-3.85,3.72l1.22,8.4c.24,1.64,1.66,2.85,3.31,2.82Z" fill="#00a2c5" stroke="#044872" stroke-miterlimit="10" stroke-width="1.8"/>
        <rect x="3.85" y="78.63" width="100.3" height="6.7" rx="3.3" ry="3.3" fill="#84bd00" stroke="#044872" stroke-miterlimit="10" stroke-width="1.8"/>
        <path d="M29.85,78.63h33.1c1.43,0,2.7-.92,3.14-2.28l.4-1.23c.65-2-.72-4.09-2.81-4.3l-26.83-2.69" fill="#fff" stroke="#044872" stroke-miterlimit="10" stroke-width="1.8"/>
        <path d="M33.05,43.23l11.49,11.12c.52.51,1.2.82,1.92.91l19.43,2.21c1.41.16,2.76-.6,3.36-1.88h0c.88-1.89-.19-4.11-2.21-4.6l-15.5-3.76c-.77-.19-1.45-.64-1.91-1.29l-4.29-6" fill="#fff" stroke="#044872" stroke-miterlimit="10" stroke-width="1.8"/>
      </g>
    </g>
  </g>
</svg>