<?xml version="1.0" encoding="UTF-8"?>
<svg id="CareRecords" xmlns="http://www.w3.org/2000/svg" viewBox="0 0 605.17 582.74">
  <g id="Enterprise">
    <g id="myAvatar">
      <path d="M65.37,138.46c-14.95-1.62-27.87,10.14-29.09,27.88l-6.63,10.86c-.66,1.09-.32,2.51.77,3.17.25.15.52.25.81.3l4.59.78,1,10.47c.27,2.82,2.49,5.06,5.31,5.35l6.35.65,3.1,13.43,23.46-5.46,1.49-7.29c11.15-13.87,13.35-26.97,13.21-33.65-.32-13.97-9.43-24.89-24.38-26.5Z" fill="#fff"/>
      <line x1="44.22" y1="162" x2="76.31" y2="151.18" fill="none" stroke="#044872" stroke-miterlimit="3.33" stroke-width="1.54"/>
      <line x1="80.37" y1="171.94" x2="55.44" y2="147.07" fill="none" stroke="#044872" stroke-miterlimit="3.33" stroke-width="1.54"/>
      <polyline points="44.22 162 55.44 147.07 60.76 178.78 76.31 151.18 80.37 171.94" fill="none" stroke="#044872" stroke-miterlimit="3.33" stroke-width="1.54"/>
      <path d="M44.21,165.43c-1.89-.02-3.41-1.57-3.39-3.47.02-1.72,1.3-3.16,3-3.37.13-.02.27-.02.41-.02,1.89,0,3.43,1.53,3.43,3.43,0,1.74-1.3,3.2-3.03,3.4-.14.02-.28.03-.42.03Z" fill="#00a2c5"/>
      <path d="M44.22,159.34c1.47.04,2.63,1.27,2.58,2.75-.04,1.29-1,2.37-2.27,2.56-.11,0-.21.02-.33.02-1.47-.04-2.63-1.27-2.58-2.75.04-1.29,1-2.37,2.27-2.56h.33M44.22,157.82h0c-2.32,0-4.2,1.87-4.2,4.19s1.87,4.2,4.19,4.2,4.2-1.87,4.2-4.19c0-.17,0-.33-.03-.5-.24-2.12-2.03-3.72-4.16-3.72v.02Z" fill="#fff"/>
      <path d="M60.76,182.21c-1.89-.01-3.42-1.56-3.41-3.45.01-1.72,1.3-3.17,3-3.38.14,0,.27-.02.41-.02,1.89.01,3.42,1.56,3.41,3.45-.01,1.72-1.3,3.17-3,3.38-.13.02-.27.02-.41.02Z" fill="#00a2c5"/>
      <path d="M60.77,176.12c1.47.04,2.63,1.27,2.59,2.74-.04,1.29-1,2.37-2.27,2.56-.11.01-.22.02-.33.02-1.47-.04-2.63-1.27-2.59-2.74.04-1.29,1-2.37,2.27-2.56.11-.01.22-.02.33-.02M60.77,174.59h0c-2.32-.07-4.25,1.76-4.31,4.08-.07,2.32,1.76,4.25,4.08,4.31.08,0,.16,0,.24,0,.16,0,.33,0,.5-.03,2.3-.28,3.94-2.37,3.67-4.67-.25-2.1-2.04-3.69-4.16-3.7h0Z" fill="#fff"/>
      <path d="M55.44,150.5c-1.74,0-3.2-1.3-3.4-3.03-.22-1.88,1.12-3.58,3-3.81,0,0,0,0,0,0,.13-.02.27-.02.41-.02,1.89,0,3.43,1.53,3.43,3.43,0,1.74-1.3,3.2-3.03,3.4-.13.02-.27.03-.41.03Z" fill="#00a2c5"/>
      <path d="M55.45,144.41c1.47.04,2.63,1.27,2.58,2.75-.04,1.29-1,2.37-2.27,2.56-.11,0-.22,0-.33,0-1.47-.05-2.62-1.29-2.57-2.76.05-1.28.99-2.34,2.26-2.54.11-.01.22-.02.33-.02M55.45,142.86h0c-.17,0-.33,0-.5.03-2.3.28-3.94,2.37-3.67,4.67.25,2.1,2.04,3.69,4.16,3.7.17,0,.33,0,.5-.03,2.3-.26,3.96-2.34,3.69-4.64-.24-2.13-2.04-3.73-4.18-3.72Z" fill="#fff"/>
      <path d="M80.37,175.37c-1.89-.01-3.42-1.56-3.4-3.46.01-1.72,1.3-3.16,3-3.38.13-.02.27-.02.41-.02,1.89,0,3.43,1.53,3.43,3.43,0,1.74-1.3,3.2-3.03,3.4-.13.02-.27.03-.41.03Z" fill="#00a2c5"/>
      <path d="M80.38,169.28c1.47.04,2.63,1.27,2.58,2.75-.04,1.29-1,2.37-2.27,2.56-.11.01-.22.02-.33.02-1.47-.05-2.62-1.29-2.57-2.76.05-1.28.99-2.34,2.26-2.54.11-.01.21-.02.32-.02M80.36,167.75h0c-.17,0-.33,0-.5.03-2.3.28-3.94,2.37-3.67,4.67.25,2.1,2.04,3.69,4.16,3.7.17,0,.33,0,.5-.03,2.3-.28,3.94-2.37,3.67-4.67-.25-2.1-2.04-3.69-4.16-3.7Z" fill="#fff"/>
      <path d="M76.3,154.6c-1.89-.06-3.38-1.64-3.31-3.54.05-1.65,1.28-3.03,2.91-3.28.13-.02.27-.03.41-.03,1.89.01,3.42,1.56,3.4,3.46-.01,1.72-1.3,3.16-3,3.38-.14.01-.27.01-.41,0Z" fill="#00a2c5"/>
      <path d="M76.31,148.52c1.47.05,2.62,1.29,2.57,2.76-.05,1.28-.99,2.34-2.26,2.54-.11.01-.21.02-.32.02-1.47-.04-2.63-1.27-2.58-2.75.04-1.29,1-2.37,2.27-2.56h.33M76.33,147h0c-2.32,0-4.19,1.88-4.19,4.19,0,2.32,1.88,4.19,4.19,4.19,2.32,0,4.19-1.88,4.19-4.19,0-.17-.01-.34-.03-.51-.25-2.11-2.04-3.7-4.16-3.7v.02Z" fill="#fff"/>
      <polygon points="48.46 197.93 64.49 199.76 51.56 211.36 48.46 197.93" isolation="isolate" opacity=".12"/>
      <line x1="48.46" y1="197.93" x2="64.49" y2="199.07" fill="none" stroke="#044872" stroke-miterlimit="3.33" stroke-width="1.54"/>
      <path d="M65.37,138.46c-14.95-1.62-27.87,10.14-29.09,27.88l-6.63,10.86c-.66,1.09-.32,2.51.77,3.17.25.15.52.25.81.3l4.59.78,1,10.47c.27,2.82,2.49,5.06,5.31,5.35l6.35.65,3.1,13.43,23.46-5.46,1.49-7.29c11.15-13.87,13.35-26.97,13.21-33.65-.32-13.97-9.43-24.89-24.38-26.5Z" fill="none" stroke="#044872" stroke-miterlimit="3.33" stroke-width="1.54"/>
    </g>
    <g id="myEvolve">
      <g>
        <g>
          <path d="M161.75,45.12c3.56,0,6.44,2.79,6.44,5.99s-3.29,9.46-3.29,9.46h-6.06s-3.53-6.15-3.53-9.46,2.88-5.99,6.44-5.99Z" fill="#fff" stroke="#044872" stroke-miterlimit="10" stroke-width="1.52"/>
          <polygon points="162.11 59.16 176.01 66.01 166.93 130.26 156.18 130.26 146.82 64.91 162.11 59.16" fill="#fff"/>
          <polygon points="172.45 91.15 150.94 93.67 156.18 130.26 166.93 130.26 172.45 91.15" fill="#00a1c4"/>
          <path d="M168.28,62.2l7.73,3.81-9.08,64.25h-10.75l-9.36-65.36,8.85-3.33c4.1-1.54,8.67-1.31,12.61.63Z" fill="none" stroke="#044872" stroke-miterlimit="10" stroke-width="1.52"/>
        </g>
        <g>
          <path d="M145.72,49.88c-3.53,0-6.39,2.77-6.39,5.94s3.27,9.38,3.27,9.38h6.01s3.5-6.1,3.5-9.38-2.87-5.94-6.39-5.94Z" fill="#fff" stroke="#044872" stroke-miterlimit="10" stroke-width="1.52"/>
          <polygon points="136.41 68.83 145.4 64.03 156 67.81 157.19 85.19 163.51 114.67 151.94 114.67 149.41 130.26 141.26 130.26 138.99 114.37 128.77 114.53 133.74 92.1 136.41 68.83" fill="#fff"/>
          <polygon points="133.74 92.1 157.19 85.19 163.51 114.67 128.77 114.53 133.74 92.1" fill="#84bd00"/>
          <path d="M136.41,68.83l4.53-2.69c2.86-1.36,6.13-1.57,9.15-.6l5.9,2.27,1.19,17.38,6.32,29.18h-11.56l-2.53,15.89h-8.14l-2.27-15.89h-10.23l4.97-22.27,2.67-23.27Z" fill="none" stroke="#044872" stroke-miterlimit="10" stroke-width="1.52"/>
          <line x1="138.99" y1="114.37" x2="161.66" y2="114.37" fill="none" stroke="#044872" stroke-miterlimit="10" stroke-width="1.52"/>
        </g>
        <path d="M169.71,76.86c3.29,0,5.96,2.58,5.96,5.54s-3.05,8.75-3.05,8.75h-5.6s-3.26-5.69-3.26-8.75c0-3.06,2.66-5.54,5.95-5.54Z" fill="#fff" stroke="#044872" stroke-miterlimit="10" stroke-width="1.52"/>
        <polygon points="180.61 121.68 175.07 121.97 173.37 130.26 167.3 130.26 165.94 122.33 159.49 122.28 163.07 91.29 169.9 89.26 176.26 91.74 180.61 121.68" fill="#fff"/>
        <polygon points="178.92 111.94 160.69 110.43 158.75 122.05 180.61 121.68 178.92 111.94" fill="#00a1c4"/>
        <path d="M173.61,90.71l2.66,1.04,4.34,30.19-21.85.36,4.31-31,3.03-.9c2.46-.74,5.11-.63,7.51.31Z" fill="none" stroke="#044872" stroke-miterlimit="10" stroke-width="1.52"/>
        <polygon points="175.07 121.97 173.37 130.26 167.3 130.26 165.57 122.22 175.07 121.97" fill="none" stroke="#044872" stroke-miterlimit="10" stroke-width="1.52"/>
        <g>
          <path d="M157.62,85.9c2.94,0,5.32,2.3,5.32,4.94s-2.72,7.81-2.72,7.81h-5s-2.91-5.08-2.91-7.81,2.38-4.94,5.31-4.94Z" fill="#fff" stroke="#044872" stroke-miterlimit="10" stroke-width="1.52"/>
          <polygon points="157.79 97.65 166.78 101.39 163.78 130.26 152.51 130.26 148.53 101.24 157.79 97.65" fill="#fff"/>
          <polygon points="165.43 114.41 150.96 115.61 152.51 130.26 163.78 130.26 165.43 114.41" fill="#e87722"/>
          <path d="M161.48,98.94l5.29,2.45-3,28.87h-11.26l-3.98-29.02,5.48-2.59c2.47-.65,5.07-.55,7.47.29Z" fill="none" stroke="#044872" stroke-miterlimit="10" stroke-width="1.52"/>
        </g>
      </g>
    </g>
    <g id="myUnity">
      <g>
        <rect x="275.31" y="46.61" width="56.41" height="34.87" fill="#fff" stroke="#044872" stroke-miterlimit="10" stroke-width="1.52"/>
        <polygon points="264.22 81.48 269.08 73.31 275.98 70.54 284.14 74.7 286.4 81.48 264.22 81.48" fill="#84bd00" stroke="#044872" stroke-miterlimit="10" stroke-width="1.52"/>
        <polygon points="318.54 81.48 321.09 73.04 331.5 70.54 338.61 75.15 340.87 81.94 318.54 81.48" fill="#84bd00" stroke="#044872" stroke-miterlimit="10" stroke-width="1.52"/>
        <polygon points="276.07 50.33 330.95 50.33 330.95 59.29 276.07 53.93 276.07 50.33" isolation="isolate" opacity=".12"/>
        <polygon points="341.08 50.33 265.94 50.33 303.51 21.69 341.08 50.33" fill="#fff" stroke="#044872" stroke-miterlimit="10" stroke-width="1.52"/>
        <path d="M316.43,46.13h0c-2.81-2.81-7.36-2.81-10.17,0l-2.76,2.76-2.76-2.76c-2.81-2.81-7.36-2.81-10.17,0-2.81,2.81-2.74,7.43,0,10.17,2.74,2.74,12.93,12.62,12.93,12.62,0,0,10.15-9.85,12.92-12.62s2.82-7.37,0-10.17Z" fill="#e87722" stroke="#044872" stroke-miterlimit="10" stroke-width="1.52"/>
      </g>
    </g>
    <g id="myInisght">
      <polygon points="475.35 74.52 452.64 74.52 452.64 51.81 426.3 51.81 426.3 74.52 403.6 74.52 403.6 100.86 426.3 100.86 426.3 123.56 452.64 123.56 452.64 100.86 475.35 100.86 475.35 74.52" fill="#00a2c5" stroke="#044872" stroke-miterlimit="10" stroke-width="1.61"/>
      <path d="M471.83,79c3.96,0,7.16,3.1,7.16,6.65s-3.66,10.5-3.66,10.5h-6.73s-3.92-6.84-3.92-10.5,3.21-6.65,7.16-6.65Z" fill="#fff" stroke="#044872" stroke-miterlimit="10" stroke-width="1.61"/>
      <path d="M471.83,95.8c4.78,0,15.84,6.41,15.84,6.41l-3.75,26.54h-24.7l-3.98-27.77s11.81-5.17,16.59-5.17Z" fill="#fff"/>
      <polygon points="485.49 117.57 458.06 122.85 459.21 128.74 483.91 128.74 485.49 117.57" fill="#00a2c5"/>
      <path d="M477.54,97.2l10.12,4.99-3.75,26.54h-24.7l-3.98-27.77,11.43-4.3c3.55-1.33,7.49-1.14,10.88.54Z" fill="none" stroke="#044872" stroke-miterlimit="10" stroke-width="1.61"/>
      <path d="M450.97,82.91c-3.94,0-7.14,3.09-7.14,6.65s3.65,10.5,3.65,10.5h6.72s3.91-6.82,3.91-10.5-3.2-6.65-7.14-6.65Z" fill="#fff" stroke="#044872" stroke-miterlimit="10" stroke-width="1.61"/>
      <path d="M438.36,105.02s8.43-5.25,12.6-5.25,12.82,6.23,12.82,6.23l-2.94,22.75-20.39.55-2.09-24.28Z" fill="#fff"/>
      <polygon points="440.46 123.62 461.58 117.4 460.16 128.74 440.46 128.74 440.46 123.62" fill="#e87722"/>
      <path d="M438.41,105.62s4.01-3,7.22-4.52,6.6-1.75,10.24-.67,7.92,5.56,7.92,5.56l-2.94,22.75h-20.39l-2.05-23.12Z" fill="none" stroke="#044872" stroke-miterlimit="10" stroke-width="1.61"/>
    </g>
    <g id="myVRS">
      <polygon points="526.15 145.8 526.15 139.95 497.69 139.95 497.69 203.79 576.13 203.79 576.13 145.8 526.15 145.8" fill="#fff"/>
      <polygon points="526.15 145.8 526.15 139.95 497.69 139.95 497.69 203.79 576.13 203.79 576.13 145.8 526.15 145.8" stroke="#044872" stroke-miterlimit="10" stroke-width="1.61"/>
      <rect x="502.38" y="149.75" width="69.16" height="53.65" fill="#fff" stroke="#044872" stroke-miterlimit="10" stroke-width="1.61"/>
      <rect x="510.12" y="153.85" width="17.6" height="49.56" fill="#84bd00"/>
      <polygon points="533.85 158.47 534.65 153.85 584.63 153.85 576.13 203.79 497.69 203.79 505.43 158.47 533.85 158.47" fill="#fff"/>
      <polygon points="533.99 203.93 575.95 203.93 584.63 153.85 570.25 153.85 533.99 203.93" isolation="isolate" opacity=".12"/>
      <polygon points="533.85 158.47 534.65 153.85 584.63 153.85 576.13 203.79 497.69 203.79 505.43 158.47 533.85 158.47" fill="none" stroke="#044872" stroke-miterlimit="10" stroke-width="1.61"/>
      <polygon points="557.05 175.62 548.16 175.41 549.42 166.62 538.15 166.59 536.89 175.13 527.72 174.92 526.25 184.86 535.46 185.07 534.2 193.61 545.5 193.64 546.73 185.31 555.62 185.52 557.05 175.62" fill="#00a2c5" stroke="#044872" stroke-miterlimit="10" stroke-width="1.61"/>
    </g>
  </g>
</svg>