<?xml version="1.0" encoding="UTF-8"?>
<svg id="CareRecords" xmlns="http://www.w3.org/2000/svg" xmlns:xlink="http://www.w3.org/1999/xlink" viewBox="0 0 605.17 582.74">
  <defs>
    <clipPath id="clippath">
      <rect x="258.64" y="5.72" width="98" height="97.71" fill="none"/>
    </clipPath>
    <clipPath id="clippath-1">
      <rect x="258.64" y="5.72" width="98" height="97.71" fill="none"/>
    </clipPath>
  </defs>
  <g id="SpecialtyPractices">
    <g id="addictionTreatment">
      <g clip-path="url(#clippath)">
        <g clip-path="url(#clippath-1)">
          <g>
            <path d="M355.41,54.57c0,26.47-21.45,47.92-47.92,47.92s-47.92-21.45-47.92-47.92,21.46-47.92,47.92-47.92" fill="none" stroke="#044872" stroke-miterlimit="10" stroke-width="1.87"/>
            <path d="M307.49,6.65c21.5,0,39.7,14.16,45.77,33.67" fill="none" stroke="#044872" stroke-dasharray="0 0 7.9 5.92" stroke-miterlimit="10" stroke-width="1.87"/>
            <polyline points="355.78 36.46 353.77 41.29 348.78 39.22" fill="none" stroke="#044872" stroke-miterlimit="10" stroke-width="1.87"/>
            <path d="M306.21,19.92c4.95,0,8.97,3.88,8.97,8.34s-4.59,13.17-4.59,13.17h-8.44s-4.91-8.56-4.91-13.17,4.01-8.34,8.97-8.34" fill="#fff"/>
            <path d="M306.21,19.92c4.95,0,8.97,3.88,8.97,8.34s-4.59,13.17-4.59,13.17h-8.44s-4.91-8.56-4.91-13.17,4.01-8.34,8.97-8.34Z" fill="none" stroke="#044872" stroke-miterlimit="10" stroke-width="1.87"/>
            <path d="M306.21,40.97c5.99,0,19.84,8.03,19.84,8.03l-4.7,33.24h-30.95l-4.98-34.79s14.8-6.48,20.79-6.48" fill="#fff"/>
            <polygon points="324.22 62.13 288.29 68.87 290.41 82.24 321.36 82.24 324.22 62.13" fill="#00a2c5"/>
            <path d="M313.38,42.75l12.68,6.26-4.7,33.24h-30.95l-4.98-34.79,14.32-5.38c4.44-1.67,9.38-1.43,13.63.67Z" fill="none" stroke="#044872" stroke-miterlimit="10" stroke-width="1.87"/>
            <path d="M316.73,84.79s-10.41-5.26-3.74-16.43c0,0,5.22-7.87,17.32-10.89,0,0,5.05,11.82,1.79,20.29-3.25,8.47-11.04,8.83-15.37,7.03" fill="#84bd00"/>
            <path d="M316.73,84.79s-10.41-5.26-3.74-16.43c0,0,5.22-7.87,17.32-10.89,0,0,5.05,11.82,1.79,20.29-3.25,8.47-11.04,8.83-15.37,7.03Z" fill="none" stroke="#044872" stroke-miterlimit="10" stroke-width="1.87"/>
            <line x1="313.64" y1="90.46" x2="327.36" y2="64.62" fill="none" stroke="#044872" stroke-miterlimit="10" stroke-width="1.87"/>
            <polyline points="321.71 66.85 323.47 72.01 328.43 71.16" fill="none" stroke="#044872" stroke-miterlimit="10" stroke-width="1.87"/>
            <polyline points="317.31 72.86 319.41 79.53 326.13 78.4" fill="none" stroke="#044872" stroke-miterlimit="10" stroke-width="1.87"/>
          </g>
        </g>
      </g>
    </g>
    <g id="theraOffice">
      <path d="M84.93,86.65c4.8,0,8.68,3.76,8.68,8.07s-4.44,12.74-4.44,12.74h-8.17s-4.75-8.29-4.75-12.74,3.9-8.07,8.68-8.07Z" fill="#fff" stroke="#044872" stroke-miterlimit="10" stroke-width="1.84"/>
      <path d="M97.49,109.02l32,15.5-4.28,6-26.26-9.65-1.46,26.11h-24.86l-3.41-34.4,9.44-4.5c4.29-1.6,14.69-1.09,18.82.94Z" fill="#fff" stroke="#044872" stroke-miterlimit="10" stroke-width="1.84"/>
      <path d="M44.83,144.71c-.7,4.75,2.46,9.15,6.74,9.78s15.25-3.65,15.25-3.65l-.8-7s-7.53-5.91-11.95-6.56-8.54,2.68-9.24,7.44Z" fill="#fff" stroke="#044872" stroke-miterlimit="10" stroke-width="1.84"/>
      <polygon points="65.48 156.02 97.49 156.14 94.99 139.9 63.9 142.43 65.48 156.02" fill="#fff" stroke="#044872" stroke-miterlimit="10" stroke-width="1.84"/>
      <polygon points="101.66 153.2 97.49 156.14 117.48 134.68 134.08 127.14 134.08 118.66 104.7 126.66 94.99 139.9 101.66 153.2" fill="#00a2c5" stroke="#044872" stroke-miterlimit="10" stroke-width="1.84"/>
      <polygon points="97.49 156.14 138.95 155.53 137.82 148.02 95.22 140.36 97.49 156.14" fill="#00a2c5" stroke="#044872" stroke-miterlimit="10" stroke-width="1.84"/>
      <rect x="40.79" y="155.53" width="100.31" height="6.69" fill="#84bd00" stroke="#044872" stroke-miterlimit="10" stroke-width="1.84"/>
      <polyline points="66.82 155.53 102.3 155.53 104.7 148.18 73.78 145.07" fill="#fff" stroke="#044872" stroke-miterlimit="10" stroke-width="1.84"/>
      <polyline points="69.97 120.18 82.37 132.08 105.19 134.68 107.89 128.88 87.3 123.82 82.35 116.81" fill="#fff" stroke="#044872" stroke-miterlimit="10" stroke-width="1.84"/>
    </g>
    <g id="gehriMed">
      <g>
        <polyline points="527.24 124.22 520.44 129.61 505.28 129.61 504.84 124.38 517.05 124.1 527.29 113.81" fill="#fff"/>
        <polygon points="520.7 130.37 504.57 130.37 504 123.64 516.72 123.34 526.75 113.27 527.83 114.34 517.37 124.86 505.66 125.13 505.97 128.85 520.17 128.85 526.77 123.62 527.72 124.82 520.7 130.37" fill="#044872"/>
      </g>
      <g>
        <g>
          <polygon points="474.27 145.28 476.76 156.5 496.32 156.44 505.72 169.1 512.24 168.54 502.76 146.99 488.5 145.28 474.27 145.28" fill="#71c100"/>
          <path d="M505.36,169.89l-9.42-12.68-19.79.06-2.82-12.74h15.27l14.7,1.77,10.09,22.91-8.01.69h0ZM496.7,155.68l9.38,12.62,5.05-.43-8.88-20.18-13.79-1.66h-13.24l2.15,9.7,19.34-.06h0Z" fill="#044872"/>
        </g>
        <g>
          <path d="M488.15,107.38c-3.54-1.11-7.28.77-8.28,3.95s.92,12.08.92,12.08l5.43.26s5.43-5.02,6.46-8.31-1-6.86-4.54-7.97h0Z" fill="#fff"/>
          <path d="M486.52,124.43l-6.34-.3-.12-.57c-.08-.37-1.95-9.13-.9-12.46.54-1.73,1.85-3.2,3.58-4.04,1.76-.86,3.77-1,5.65-.41h0c1.9.59,3.46,1.84,4.42,3.51.96,1.69,1.18,3.61.62,5.41-1.08,3.45-6.44,8.43-6.67,8.64,0,0-.23.22-.23.22ZM481.42,122.66l4.52.21c1.02-.98,5.18-5.07,6.02-7.77.43-1.38.26-2.88-.49-4.2-.76-1.34-2.02-2.34-3.55-2.82h0c-1.51-.47-3.12-.36-4.54.32-1.36.66-2.38,1.8-2.79,3.13-.71,2.28.26,8.34.82,11.12h0Z" fill="#044872"/>
        </g>
        <g>
          <polygon points="487.64 123.62 489 145.2 475.33 149.51 474.27 145.28 477.29 121.52 487.64 123.62" fill="#fff"/>
          <path d="M474.8,150.48l-1.3-5.16.02-.14,3.13-24.57,11.73,2.38,1.42,22.75s-15,4.74-15,4.74ZM475.04,145.23l.83,3.31,12.32-3.89-1.27-20.4-8.98-1.82-2.9,22.8h0Z" fill="#044872"/>
        </g>
        <g>
          <path d="M465.24,131.07l6.75,2.34,1.26,23.17,23.07-.14,3.77,5.9h-31.95l-.79-25.77-3.9-1.54s-2.54-.66-1.62-3.08c.82-2.15,3.42-.87,3.42-.87h0Z" fill="#fff"/>
          <path d="M501.48,163.1h-34.08l-.8-26.01-3.4-1.34c-.29-.09-1.49-.5-2.06-1.6-.26-.5-.47-1.34-.03-2.47.29-.75.8-1.29,1.47-1.55,1.24-.49,2.63.1,2.94.24l7.19,2.49,1.25,22.95,22.77-.13,4.74,7.42h0ZM468.87,161.58h29.82l-2.8-4.37-23.38.14-1.27-23.38-6.35-2.21c-.29-.14-1.17-.45-1.77-.22-.18.07-.42.22-.6.68-.19.5-.21.9-.04,1.23.26.5.91.78,1.14.85l.08.02,4.37,1.72.78,25.54h0Z" fill="#044872"/>
        </g>
        <g>
          <path d="M472.46,140.71l22.64.08c1.18,0,2.16.94,2.2,2.13h0c.05,1.26-.96,2.3-2.22,2.3l-22.41-.03-.22-4.46h0Z" fill="#fff"/>
          <path d="M495.09,145.98h0l-23.13-.03-.3-5.99,23.44.08c1.6,0,2.9,1.26,2.96,2.86.03.82-.26,1.59-.83,2.18s-1.33.91-2.14.91ZM473.4,144.42l21.68.03h0c.4,0,.77-.16,1.05-.45.28-.29.42-.66.41-1.06-.03-.78-.66-1.39-1.45-1.39l-21.83-.07s.14,2.94.14,2.94Z" fill="#044872"/>
        </g>
        <g>
          <polygon points="491.15 145.2 491.92 156.5 494.69 156.45 493.9 145.21 491.15 145.2" fill="#fff"/>
          <path d="M491.21,157.27l-.88-12.82h4.27l.9,12.75-4.3.07h0ZM491.96,145.97l.67,9.76,1.25-.02-.69-9.74h-1.23Z" fill="#044872"/>
        </g>
        <g>
          <polyline points="480.36 130.22 482.71 140.71 497.88 140.79 500.08 136.72 488.6 135.5 487.96 129.27" fill="#fff"/>
          <polygon points="498.33 141.55 482.1 141.47 479.61 130.39 481.1 130.06 483.32 139.95 497.43 140.02 498.88 137.36 487.91 136.2 487.2 129.34 488.72 129.19 489.29 134.82 501.29 136.09 498.33 141.55" fill="#044872"/>
        </g>
        <g>
          <rect x="492.12" y="162.34" width="3.14" height="10.14" fill="#fff"/>
          <path d="M496.02,173.23h-4.66v-11.66h4.66v11.66ZM492.88,171.71h1.62v-8.62h-1.62v8.62Z" fill="#044872"/>
        </g>
        <g>
          <rect x="472.7" y="162.34" width="3.14" height="10.14" fill="#fff"/>
          <path d="M476.6,173.23h-4.66v-11.66h4.66v11.66ZM473.46,171.71h1.62v-8.62h-1.62v8.62Z" fill="#044872"/>
        </g>
      </g>
      <g>
        <polygon points="539.06 172.47 526.33 172.47 523.52 142.13 541.94 142.13 539.06 172.47" fill="#00a4c9"/>
        <path d="M539.76,173.23h-14.11l-2.95-31.86h20.1l-3.02,31.86h0ZM527.03,171.71h11.34l2.74-28.82h-16.75s2.67,28.82,2.67,28.82Z" fill="#044872"/>
      </g>
      <g>
        <polygon points="526.66 111.78 537.04 111.78 542 137.07 542.64 149.22 522.44 149.22 523.2 138.67 526.66 111.78" fill="#fff"/>
        <path d="M543.44,149.98h-21.82l.82-11.41,3.54-27.54h11.68l5.09,26.01s.68,12.94.68,12.94ZM523.25,148.46h18.58l-.59-11.3-4.82-24.62h-9.1l-3.37,26.2-.7,9.71h0Z" fill="#044872"/>
      </g>
      <g>
        <path d="M526.4,94.01c3.9-1.02,7.85,1.22,8.76,4.72.91,3.5-1.25,13.06-1.25,13.06h-6.67s-5.24-5.77-6.18-9.38c-.38-1.44-.22-2.9.34-4.2.86-1.98,2.66-3.58,5-4.19Z" fill="#fff"/>
        <path d="M534.52,112.54h-7.62l-.22-.25c-.22-.24-5.38-5.94-6.35-9.7-.41-1.56-.27-3.18.38-4.7.98-2.25,3.03-3.98,5.51-4.62,4.22-1.1,8.66,1.31,9.69,5.26.94,3.64-1.15,13.02-1.24,13.42l-.14.59h0ZM527.58,111.02h5.71c.45-2.11,1.86-9.3,1.13-12.1-.82-3.15-4.41-5.06-7.83-4.18h0c-2.02.53-3.7,1.93-4.5,3.76-.52,1.2-.62,2.48-.3,3.7.78,2.99,4.79,7.69,5.78,8.82h0Z" fill="#044872"/>
      </g>
      <polygon points="535.76 142.89 533.76 122.56 535.28 122.42 537.13 141.28 542.27 140.96 542.36 142.48 535.76 142.89" fill="#044872"/>
      <g>
        <circle cx="530.68" cy="120.76" r="1.73" fill="#fff"/>
        <path d="M530.68,123.25c-.16,0-.31-.02-.47-.05-.66-.13-1.22-.5-1.59-1.05s-.51-1.22-.38-1.86c.26-1.35,1.57-2.24,2.91-1.98.66.13,1.22.5,1.59,1.05.38.55.51,1.22.38,1.86s-.5,1.22-1.05,1.59c-.42.29-.9.43-1.39.43h0ZM530.68,119.78c-.46,0-.86.33-.95.79-.1.53.25,1.03.77,1.14.26.05.51,0,.73-.15.22-.14.36-.37.41-.62s0-.51-.15-.73c-.14-.22-.37-.36-.62-.41-.06,0-.12-.02-.18-.02h0Z" fill="#044872"/>
      </g>
      <g>
        <line x1="533.24" y1="112.02" x2="531" y2="119.06" fill="none"/>
        <rect x="528.43" y="114.78" width="7.39" height="1.52" transform="translate(260.85 587.68) rotate(-72.37)" fill="#044872"/>
      </g>
      <g>
        <line x1="529.05" y1="149.59" x2="530.13" y2="172.47" fill="none"/>
        <rect x="528.86" y="149.58" width="1.48" height="22.9" transform="translate(-7.02 25.22) rotate(-2.71)" fill="#044872"/>
      </g>
      <polyline points="526.76 112.33 529.36 115.69 532.12 112.35" fill="#00a4c9"/>
      <polygon points="529.34 116.91 526.16 112.79 527.36 111.86 529.38 114.47 531.54 111.87 532.71 112.84 529.34 116.91" fill="#044872"/>
    </g>
  </g>
</svg>