<?xml version="1.0" encoding="UTF-8"?>
<svg id="Layer_1" data-name="Layer 1" xmlns="http://www.w3.org/2000/svg" xmlns:xlink="http://www.w3.org/1999/xlink" viewBox="0 0 108 108">
  <defs>
    <clipPath id="clippath">
      <circle cx="37.24" cy="31.67" r="22.58" fill="none"/>
    </clipPath>
  </defs>
  <g id="DataSolutions">
    <g id="coreAnalytics">
      <rect x="19.25" y="9.44" width="70.71" height="91.49" fill="#fff"/>
      <path d="M90.85,101.83H18.36V8.55h72.49v93.28h0ZM20.14,100.04h68.92V10.34H20.14v89.7Z" fill="#044872"/>
      <rect x="29.82" y="63.68" width="49.57" height="1.79" fill="#044872"/>
      <rect x="29.82" y="74.6" width="48.33" height="1.79" fill="#044872"/>
      <rect x="29.82" y="52.76" width="49.57" height="1.79" fill="#044872"/>
      <rect x="58.1" y="41.88" width="21.29" height="1.79" fill="#044872"/>
      <rect x="58.1" y="30.97" width="21.29" height="1.79" fill="#044872"/>
      <rect x="58.1" y="20.05" width="21.29" height="1.79" fill="#044872"/>
      <rect x="29.82" y="85.51" width="41.1" height="1.79" fill="#044872"/>
      <path d="M49.67,36.48c0-4.08-3.07-5.48-6.18-6.37-3.07-.82-6.29-1.24-6.37-2.8,0-1.24,1.52-1.48,2.45-1.48.7,0,1.44.16,2.02.54.58.35.93.93.82,1.75h6.41c-.16-4.82-3.61-6.8-7.77-7.11v-2.87h-2.41v2.84c-4.16.31-7.85,2.53-7.85,7.23,0,4.43,3.96,5.4,7.46,6.37,3.81,1.09,4.74,1.44,4.74,2.53,0,1.63-1.71,2.02-2.8,2.02-1.24,0-2.76-.27-3.22-1.59-.16-.43-.23-.93-.23-1.44h-6.92c0,6.25,5.71,7.65,8.7,7.89v2.76h2.41v-2.76c4.47-.31,8.74-2.33,8.74-7.5h0Z" fill="#84bd00"/>
      <g opacity=".12">
        <polygon points="82.73 100.94 18.59 100.94 18.59 9.44 28.81 9.44 82.73 100.94" fill="none"/>
      </g>
      <polyline points="52.12 56.45 75 79.22 84.83 69.43 61.99 46.66" fill="#00a2c5"/>
      <polygon points="75 80.5 51.5 57.11 52.78 55.83 75 77.98 83.55 69.43 61.36 47.28 62.61 46.04 86.07 69.43 75 80.5" fill="#044872"/>
      <path d="M57.71,11.19C46.41-.11,28.11-.11,16.8,11.19c-11.31,11.31-11.31,29.6,0,40.91,11.31,11.31,29.6,11.31,40.91,0h0c11.27-11.27,11.27-29.6,0-40.91Z" fill="#fff"/>
      <path d="M37.24,61.47c-7.65,0-15.27-2.91-21.1-8.7-5.63-5.63-8.74-13.13-8.74-21.1s3.11-15.46,8.74-21.1C21.78,4.94,29.27,1.83,37.24,1.83h0c7.96,0,15.46,3.11,21.1,8.74h0c11.62,11.62,11.62,30.54,0,42.19l-.04.04c-5.83,5.79-13.44,8.66-21.06,8.66h0ZM37.24,3.62c-7.5,0-14.53,2.91-19.81,8.2s-8.2,12.32-8.2,19.81,2.91,14.53,8.2,19.81c10.92,10.92,28.71,10.92,39.67,0h0c10.92-10.92,10.92-28.71,0-39.67-5.32-5.24-12.35-8.16-19.85-8.16h0Z" fill="#044872"/>
      <path d="M48.08,36.17c0-4.55-3.42-6.14-6.92-7.11-3.42-.89-7.03-1.4-7.11-3.11,0-1.4,1.71-1.63,2.76-1.63.78,0,1.59.16,2.25.62.66.39,1.05,1.05.89,1.94h7.15c-.16-5.4-4.04-7.61-8.7-7.96v-3.22h-2.68v3.19c-4.66.35-8.78,2.84-8.78,8.08,0,4.97,4.43,6.06,8.35,7.11,4.27,1.2,5.28,1.59,5.28,2.84,0,1.83-1.9,2.25-3.15,2.25-1.4,0-3.07-.31-3.61-1.79-.16-.47-.27-1.05-.27-1.59h-7.73c0,6.99,6.37,8.55,9.71,8.82v3.07h2.68v-3.07c5.09-.39,9.87-2.64,9.87-8.43h0Z" fill="#84bd00"/>
      <g clip-path="url(#clippath)">
        <g opacity=".12">
          <path d="M24.96,29.34c-2.6,15.19,10.3,26.07,17.56,29.41-15.66-.23-40.17,4-40.17,4L15.91-4.89S62.02,17.49,53.13,14.26c-12-4.31-26.11,3.07-28.17,15.07h0Z" fill="none"/>
        </g>
      </g>
      <path d="M37.24,55.13c-6.02,0-12-2.29-16.59-6.88-4.43-4.43-6.88-10.33-6.88-16.59s2.45-12.16,6.88-16.59c4.43-4.43,10.33-6.88,16.59-6.88s12.12,2.41,16.55,6.84l.04.04h0l.12.12c9.05,9.17,9.01,23.97-.12,33.1-4.55,4.55-10.57,6.84-16.59,6.84h0ZM37.24,9.99c-5.79,0-11.23,2.25-15.35,6.33-4.12,4.08-6.33,9.56-6.33,15.35s2.25,11.23,6.33,15.35c8.47,8.47,22.22,8.47,30.65,0l.62.62-.62-.62c8.43-8.43,8.47-22.14.04-30.61l-.12-.08-.04-.04c-4.04-4.08-9.44-6.29-15.19-6.29h0Z" fill="#044872"/>
    </g>
  </g>
</svg>