<?xml version="1.0" encoding="UTF-8"?>
<svg id="Layer_1" data-name="Layer 1" xmlns="http://www.w3.org/2000/svg" xmlns:xlink="http://www.w3.org/1999/xlink" viewBox="0 0 108 108">
  <defs>
    <clipPath id="clippath">
      <rect x="31.6" y="20.41" width="72.4" height="73.91" fill="none"/>
    </clipPath>
    <clipPath id="clippath-1">
      <rect x="31.6" y="20.41" width="72.4" height="73.91" fill="none"/>
    </clipPath>
    <clipPath id="clippath-2">
      <rect x="31.6" y="20.41" width="72.4" height="73.91" fill="none"/>
    </clipPath>
    <clipPath id="clippath-3">
      <rect x="78.49" y="36.54" width="24.65" height="55.58" fill="none"/>
    </clipPath>
  </defs>
  <g id="DataSolutions">
    <g id="healthPivots">
      <g id="Database">
        <g clip-path="url(#clippath)">
          <g clip-path="url(#clippath-1)">
            <g clip-path="url(#clippath-2)">
              <g>
                <path d="M67.8,21.27c-19.52,0-35.34,5.86-35.34,13.08v46.02c0,7.23,15.82,13.08,35.34,13.08s35.34-5.86,35.34-13.08v-46.02c0-7.22-15.82-13.08-35.34-13.08" fill="#fff"/>
                <path d="M67.8,21.27c-19.52,0-35.34,5.86-35.34,13.08v46.02c0,7.23,15.82,13.08,35.34,13.08s35.34-5.86,35.34-13.08v-46.02c0-7.22-15.82-13.08-35.34-13.08Z" fill="none" stroke="#044872" stroke-miterlimit="10" stroke-width="1.72"/>
                <g opacity=".12">
                  <g clip-path="url(#clippath-3)">
                    <path d="M103.14,81.52s-3.41,9.36-24.65,10.61l9.92-47.23c9.16-.11,14.73-8.36,14.73-8.36v44.98Z"/>
                  </g>
                </g>
                <path d="M32.46,34.36v46.02c0,7.22,15.82,13.08,35.34,13.08s35.34-5.86,35.34-13.08v-46.02" fill="none" stroke="#044872" stroke-miterlimit="10" stroke-width="1.72"/>
                <path d="M103.14,65.48c0,7.22-15.82,13.08-35.34,13.08s-35.34-5.86-35.34-13.08" fill="none" stroke="#044872" stroke-miterlimit="10" stroke-width="1.72"/>
                <path d="M103.14,50.58c0,7.22-15.82,13.08-35.34,13.08s-35.34-5.86-35.34-13.08" fill="none" stroke="#044872" stroke-miterlimit="10" stroke-width="1.72"/>
                <path d="M103.14,34.36c0,7.22-15.82,13.08-35.34,13.08s-35.34-5.86-35.34-13.08,15.82-13.08,35.34-13.08,35.34,5.86,35.34,13.08Z" fill="none" stroke="#044872" stroke-miterlimit="10" stroke-width="1.72"/>
              </g>
            </g>
          </g>
        </g>
      </g>
      <g>
        <g>
          <path d="M60.49,25c0,44.6-27.82,51.54-27.82,51.54h0S4.86,69.59,4.86,25c17.71,0,26.32-8.87,27.64-10.36.1-.11.27-.13.38-.02,1.56,1.42,12.02,10.37,27.61,10.37h0Z" fill="#fff"/>
          <g>
            <path d="M60.49,25c0,44.6-27.82,51.54-27.82,51.54h0S4.86,69.59,4.86,25c17.71,0,26.32-8.87,27.64-10.36.1-.11.27-.13.38-.02,1.56,1.42,12.02,10.37,27.61,10.37h0Z" fill="#fff"/>
            <path d="M32.7,76.73h-.07c-.07-.02-7.09-1.84-14-9.11C7.1,55.49,4.67,37.75,4.67,25v-.19h.19c17.48,0,25.97-8.57,27.5-10.29.08-.09.2-.15.32-.15.13,0,.24.04.33.12,1.89,1.73,12.12,10.33,27.49,10.33h.19v.19c0,12.75-2.42,30.49-13.96,42.62-6.91,7.27-13.93,9.08-14,9.1h-.02ZM5.05,25.18c.02,12.66,2.46,30.18,13.84,42.16,6.55,6.9,13.18,8.83,13.79,9,.61-.16,7.24-2.11,13.79-9,11.38-11.98,13.81-29.5,13.84-42.16-15.4-.07-25.65-8.69-27.56-10.43-.02-.02-.05-.02-.06-.02-.02,0-.04.01-.06.03-1.54,1.73-10.07,10.36-27.59,10.42h0Z" fill="#044872"/>
          </g>
          <path d="M32.78,77.4h-.21l-.11-.03c-.29-.07-7.28-1.88-14.32-9.29C6.45,55.79,4,37.86,4,24.99v-.86h.86c17.19,0,25.5-8.38,26.99-10.07.2-.23.48-.36.79-.38.31-.02.59.09.82.29,1.14,1.04,11.6,10.15,27.04,10.15h.86v.86c0,12.87-2.45,30.8-14.14,43.09-7.04,7.41-14.03,9.22-14.32,9.29l-.1.03h0ZM5.73,25.85c.11,12.45,2.61,29.35,13.59,40.96,6.05,6.39,12.17,8.47,13.36,8.83,1.19-.36,7.32-2.43,13.36-8.83,10.98-11.61,13.48-28.52,13.59-40.96-14.34-.29-24.17-7.84-26.89-10.2-2.32,2.42-10.82,9.94-27.02,10.2h0Z" fill="#044872"/>
        </g>
        <g>
          <polygon points="46.45 40.43 37.74 40.43 37.74 31.71 27.62 31.71 27.62 40.43 18.9 40.43 18.9 50.54 27.62 50.54 27.62 59.26 37.74 59.26 37.74 50.54 46.45 50.54 46.45 40.43" fill="#00a2c5"/>
          <path d="M38.6,60.12h-11.84v-8.72h-8.72v-11.84h8.72v-8.72h11.84v8.72h8.72v11.84h-8.72v8.72ZM28.48,58.4h8.39v-8.72h8.72v-8.39h-8.72v-8.72h-8.39v8.72h-8.72v8.39h8.72s0,8.72,0,8.72Z" fill="#044872"/>
        </g>
      </g>
    </g>
  </g>
</svg>