<?xml version="1.0" encoding="UTF-8"?>
<svg id="Layer_1" data-name="Layer 1" xmlns="http://www.w3.org/2000/svg" xmlns:xlink="http://www.w3.org/1999/xlink" viewBox="0 0 108 108">
  <defs>
    <clipPath id="clippath">
      <path d="M79.76,76.42c-7.06,7.06-18.51,7.07-25.58,0-7.06-7.06-7.07-18.51,0-25.58,7.06-7.06,18.51-7.07,25.58,0,0,0,0,0,0,0,7.06,7.06,7.06,18.51,0,25.57Z" fill="none"/>
    </clipPath>
  </defs>
  <g id="DataSolutions">
    <g id="simpleAnalyzer">
      <rect x="5.53" y="5.08" width="77.27" height="100" fill="#fff"/>
      <line x1="70.9" y1="36.91" x2="16.69" y2="36.91" fill="none" stroke="#044872" stroke-miterlimit="10" stroke-width="2.18"/>
      <line x1="50.58" y1="51.13" x2="16.69" y2="51.13" fill="none" stroke="#044872" stroke-miterlimit="10" stroke-width="2.18"/>
      <line x1="48.53" y1="65.35" x2="16.69" y2="65.35" fill="none" stroke="#044872" stroke-miterlimit="10" stroke-width="2.18"/>
      <rect x="5.53" y="5.08" width="77.27" height="100" fill="none" stroke="#044872" stroke-miterlimit="10" stroke-width="2.18"/>
      <rect x="16.69" y="81.06" width="14.57" height="14.93" fill="#00a2c5"/>
      <rect x="36.51" y="76.16" width="14.57" height="19.83" fill="#e87722"/>
      <rect x="56.33" y="70.67" width="14.57" height="25.32" fill="#84bd00"/>
      <line x1="70.9" y1="22.69" x2="16.69" y2="22.69" fill="none" stroke="#044872" stroke-miterlimit="10" stroke-width="2.18"/>
      <polyline points="78.91 83.5 97.21 101.74 105.08 93.87 86.79 75.64" fill="#00a2c5" stroke="#044872" stroke-miterlimit="10" stroke-width="2.18"/>
      <path d="M83.36,47.24c-9.05-9.05-23.72-9.05-32.78,0s-9.05,23.72,0,32.78c9.05,9.05,23.72,9.05,32.78,0h0c9.05-9.05,9.05-23.72,0-32.78Z" fill="#fff" stroke="#044872" stroke-miterlimit="10" stroke-width="2.18"/>
      <polygon points="78.91 66.13 59.41 66.13 59.41 80.07 69.16 81.72 78.91 77.45 78.91 66.13" fill="#84bd00"/>
      <polygon points="83.37 56.01 50.57 56.01 52.87 52.3 81.07 52.3 83.37 56.01" fill="#044872"/>
      <g clip-path="url(#clippath)">
        <path d="M57.13,61.75c-2.09,12.17,8.23,20.88,14.07,23.55-12.55-.2-32.19,3.22-32.19,3.22l10.85-54.17s36.96,17.93,29.8,15.34c-9.58-3.46-20.88,2.47-22.53,12.06Z" isolation="isolate" opacity=".12"/>
      </g>
      <path d="M79.76,76.42c-7.06,7.06-18.51,7.07-25.58,0-7.06-7.06-7.07-18.51,0-25.58,7.06-7.06,18.51-7.07,25.58,0h0c7.06,7.07,7.06,18.51,0,25.58Z" fill="none" stroke="#044872" stroke-miterlimit="10" stroke-width="2.18"/>
    </g>
  </g>
</svg>