<?xml version="1.0" encoding="UTF-8"?>
<svg id="Layer_1" data-name="Layer 1" xmlns="http://www.w3.org/2000/svg" viewBox="0 0 108 108">
  <g id="DataSolutions">
    <g id="simpleHomeHealth">
      <g>
        <g>
          <g>
            <rect x="18.91" y="53.74" width="64.18" height="39.68" fill="#fff"/>
            <path d="M83.98,94.32H18.02v-41.47h65.97v41.47ZM19.8,92.53h62.39v-37.9H19.8v37.9Z" fill="#044872"/>
          </g>
          <g opacity=".12">
            <polygon points="19.78 54.11 82.22 54.11 82.22 66.55 19.78 62.07 19.78 54.11"/>
          </g>
        </g>
        <g>
          <polygon points="93.74 57.97 8.26 57.97 51 25.38 93.74 57.97" fill="#fff"/>
          <path d="M96.39,58.87H5.61L51,24.26l45.39,34.61ZM10.9,57.08h80.2l-40.11-30.57L10.9,57.08Z" fill="#044872"/>
        </g>
        <g>
          <g>
            <rect x="15.5" y="83.2" width="5.58" height="10.27" fill="#e87722"/>
            <path d="M21.98,94.35h-7.37v-12.06h7.37s0,12.06,0,12.06ZM16.39,92.57h3.8v-8.48h-3.8v8.48Z" fill="#044872"/>
          </g>
          <g>
            <polygon points="7.59 74.07 12.33 66.08 19.08 63.39 27.03 67.44 29.24 74.07 24.29 83.44 12.01 82.74 7.59 74.07" fill="#71c100"/>
            <path d="M24.8,84.36l-13.36-.76-4.89-9.57,5.14-8.67,7.4-2.96,8.65,4.41,2.44,7.33-5.4,10.21h0ZM12.58,81.88l11.19.63,4.5-8.53-1.97-5.91-7.28-3.71-6.08,2.44-4.33,7.29,3.97,7.77h0Z" fill="#044872"/>
          </g>
        </g>
        <g>
          <g>
            <g>
              <rect x="56.53" y="70.08" width="18.18" height="14.65" fill="#fff"/>
              <path d="M75.61,85.63h-19.97v-16.43h19.97v16.43ZM57.42,83.84h16.4v-12.86h-16.4v12.86Z" fill="#044872"/>
            </g>
            <rect x="64.81" y="70.05" width="1.79" height="14.65" fill="#044872"/>
          </g>
          <g>
            <rect x="35.7" y="70.05" width="12.96" height="23.34" fill="#fff"/>
            <path d="M49.57,94.29h-14.75v-25.12h14.75v25.12ZM36.6,92.5h11.18v-21.55h-11.18v21.55Z" fill="#044872"/>
          </g>
        </g>
        <rect x="14.68" y="92.53" width="69.28" height="1.79" fill="#044872"/>
      </g>
      <g>
        <path d="M101.73,40.99h0c-3.92-3.92-10.28-3.92-14.2,0l-3.84,3.84-3.84-3.84c-3.92-3.92-10.28-3.92-14.2,0-3.92,3.92-3.82,10.36,0,14.2,3.82,3.82,18.05,17.63,18.05,17.63,0,0,14.17-13.76,18.04-17.63s3.92-10.28,0-14.2h0Z" fill="#c4a7d1"/>
        <path d="M83.69,74.13l-.66-.64c-.14-.13-14.26-13.84-18.06-17.64-2.04-2.04-3.17-4.78-3.18-7.73,0-2.96,1.12-5.74,3.18-7.81,2.07-2.07,4.84-3.22,7.77-3.22s5.7,1.15,7.77,3.22l3.17,3.17,3.17-3.17c4.28-4.28,11.25-4.28,15.54,0s4.28,11.25,0,15.54c-3.83,3.83-17.91,17.5-18.05,17.64l-.66.64h0ZM72.74,39c-2.43,0-4.71.95-6.42,2.66s-2.64,4-2.63,6.45c0,2.44.95,4.71,2.63,6.4,3.31,3.31,14.52,14.21,17.37,16.97,2.84-2.76,14.02-13.63,17.36-16.97,3.55-3.55,3.55-9.31,0-12.85s-9.31-3.55-12.85,0l-4.52,4.52-4.52-4.52c-1.72-1.72-4-2.66-6.42-2.66h0Z" fill="#044872"/>
      </g>
    </g>
  </g>
</svg>