<?xml version="1.0" encoding="UTF-8"?>
<svg id="Layer_1" data-name="Layer 1" xmlns="http://www.w3.org/2000/svg" viewBox="0 0 108 108">
  <g id="DataSolutions">
    <g id="simpleHospice">
      <g id="House">
        <g>
          <g>
            <g>
              <rect x="19.55" y="50.57" width="59.97" height="37.09" fill="#fff"/>
              <path d="M80.36,88.5H18.71v-38.77h61.65v38.77ZM20.39,86.82h58.28v-35.4H20.39v35.4Z" fill="#044872"/>
            </g>
            <g isolation="isolate" opacity=".1">
              <polygon points="20.35 50.89 78.71 50.89 78.71 62.54 20.35 58.32 20.35 50.89"/>
            </g>
          </g>
          <g>
            <polygon points="88.15 54.55 9.6 54.55 49.53 24.04 88.15 54.55" fill="#fff"/>
            <path d="M90.57,55.39H7.1L49.54,22.97l41.03,32.42ZM12.09,53.71h73.63l-36.19-28.59L12.09,53.71Z" fill="#044872"/>
          </g>
          <g>
            <g>
              <rect x="16.34" y="78.11" width="5.22" height="9.59" fill="#e87722"/>
              <path d="M22.4,88.54h-6.9v-11.28h6.9v11.28ZM17.18,86.86h3.53v-7.91h-3.53v7.91Z" fill="#044872"/>
            </g>
            <g>
              <polygon points="8.95 69.56 13.37 62.09 19.71 59.57 27.14 63.38 29.22 69.56 24.57 78.31 13.09 77.67 8.95 69.56" fill="#84bd00"/>
              <path d="M25.06,79.18l-12.5-.7-4.56-8.95,4.8-8.11,6.96-2.78,8.07,4.14,2.31,6.85-5.08,9.55ZM13.62,76.85l10.46.58,4.23-7.95-1.86-5.51-6.78-3.48-5.72,2.28-4.03,6.82,3.7,7.26h0Z" fill="#044872"/>
            </g>
          </g>
          <g>
            <g>
              <g>
                <rect x="54.71" y="65.83" width="17.02" height="13.69" fill="#fff"/>
                <path d="M72.57,80.36h-18.7v-15.37h18.7v15.37ZM55.55,78.67h15.33v-12h-15.33v12Z" fill="#044872"/>
              </g>
              <rect x="62.42" y="65.83" width="1.69" height="13.65" fill="#044872"/>
            </g>
            <g>
              <rect x="35.24" y="65.83" width="12.12" height="21.8" fill="#fff"/>
              <path d="M48.21,88.46h-13.81v-23.48h13.81v23.48ZM36.09,86.78h10.44v-20.11h-10.44v20.11Z" fill="#044872"/>
            </g>
          </g>
          <rect x="15.62" y="86.82" width="64.7" height="1.69" fill="#044872"/>
        </g>
      </g>
      <g id="Hospice">
        <g>
          <g>
            <path d="M71.49,34.36c-2.37.36-7.66,2.29-7.66,11.48s14.17,29.78,38.61,12.56c-9.27,1.4-12-.6-13.4-2.45,8.55-2.97,6.82-12.92,16.26-16.58-4.34-2.89-20.51-9.19-30.38,2.41-3.57-2.01-3.45-7.43-3.45-7.43h.04,0Z" fill="#fff"/>
            <path d="M84.53,65.9c-3.87,0-7.05-1.03-9.51-2.3-4.52-2.35-7.36-5.88-8.94-8.43-1.97-3.17-3.1-6.57-3.1-9.33,0-4.21,1.07-7.45,3.18-9.64,1.51-1.56,3.25-2.24,4.46-2.53v-.15h.87l.06.85h.74c0,.06-.05,4.34,2.46,6.31,4.35-4.76,10.38-6.96,17.49-6.37,6.29.53,11.59,3.09,13.51,4.37l1.35.9-1.51.59c-4.51,1.75-6.26,4.95-8.12,8.34-1.64,2.99-3.32,6.06-7,7.78,1.54,1.35,4.56,2.39,11.84,1.29l3.53-.54-2.92,2.06c-7.23,5.1-13.39,6.81-18.39,6.81h0ZM70.65,35.4c-2.33.68-5.99,2.93-5.99,10.43,0,4.23,3.54,12.33,11.13,16.27,4.8,2.49,12.58,3.91,23.2-2.47-6.85.47-9.29-1.4-10.64-3.17l-.71-.93,1.1-.38c3.89-1.35,5.52-4.32,7.24-7.46,1.64-2.98,3.46-6.32,7.45-8.41-5.2-2.69-19.14-7.25-27.9,3.05l-.45.53-.61-.34c-2.98-1.67-3.67-5.3-3.84-7.11h0Z" fill="#054972"/>
          </g>
          <path d="M85.25,57.25c-1.66,0-3.23-.29-4.93-.86l.54-1.59c2.65.9,4.97,1,8.02.33l.36,1.65c-1.44.32-2.74.48-3.99.48Z" fill="#054972"/>
          <circle cx="68.88" cy="38.49" r=".88" fill="#00a2c5"/>
          <g>
            <g>
              <path d="M90.89,52.66c-.52-2.57-4.49-3.89-4.49-3.89,0,0-3.13,2.81-2.61,5.34.52,2.57,5.14,6.94,5.14,6.94,0,0,2.49-5.86,1.97-8.43v.04Z" fill="#c4a7d1"/>
              <path d="M89.23,62.49l-.88-.83c-.49-.47-4.82-4.64-5.38-7.39-.61-2.97,2.73-6,2.87-6.13l.36-.33.47.15c.12.04,2.01.83,3.46,2.07.7.6,1.38,1.72,1.59,2.41.17.57.14,1.29.02,2.04-.14.79-.49,2.37-.69,3.15-.5,1.86-1.21,3.43-1.34,3.75l-.47,1.12h0ZM86.6,49.74c-.88.91-2.29,2.74-1.99,4.19.31,1.53,2.52,4.08,4,5.61.72-1.92,1.68-4.97,1.48-6.57l-.03-.15c-.3-1.48-2.3-2.6-3.47-3.08h0Z" fill="#054972"/>
            </g>
            <g>
              <path d="M87.22,40.26c-2.33,1.16-2.65,5.34-2.65,5.34,0,0,3.49,2.33,5.82,1.16s5.46-6.7,5.46-6.7c0,0-6.3-.96-8.63.2h0Z" fill="#c4a7d1"/>
              <path d="M88.91,47.93c-2.33,0-4.68-1.54-4.8-1.63l-.41-.28.04-.49c.01-.19.39-4.67,3.11-6.03h0c2.49-1.25,8.46-.38,9.13-.28l1.21.18-.6,1.06c-.33.59-3.33,5.8-5.82,7.04-.59.29-1.22.41-1.86.41h0ZM85.47,45.16c1.1.62,3.21,1.52,4.54.85,1.39-.69,3.32-3.46,4.45-5.28-2.12-.23-5.49-.41-6.87.28s-1.94,2.89-2.13,4.14Z" fill="#054972"/>
            </g>
            <path d="M86.02,49.21c-2.43-3.97-10.48-13.23-19.83-16.5l.55-1.59c10.56,3.7,18.7,13.92,20.71,17.21l-1.44.88h0Z" fill="#054972"/>
            <g>
              <path d="M81.56,50.57c2.25-1.32,2.17-5.54,2.17-5.54,0,0-3.65-2.01-5.9-.68s-4.86,7.14-4.86,7.14c0,0,6.34.4,8.59-.92h0Z" fill="#c4a7d1"/>
              <path d="M75.16,52.4c-1.14,0-2.01-.05-2.25-.07l-1.21-.08.5-1.11c.28-.62,2.79-6.11,5.2-7.53,2.63-1.55,6.57.58,6.74.67l.43.24v.49c.01.19.07,4.73-2.57,6.28h0c-1.57.93-4.68,1.1-6.83,1.1h0ZM74.29,50.7c2.13.04,5.51-.07,6.85-.86h0c1.29-.76,1.68-3.03,1.74-4.3-1.14-.53-3.32-1.24-4.62-.47-1.34.79-3.01,3.72-3.97,5.63h0Z" fill="#054972"/>
            </g>
          </g>
          <g>
            <path d="M71.49,34.32l1,3.73,3.41-3.69s-2.69-.36-4.42-.04h0Z" fill="#f57f26"/>
            <path d="M72.07,39.74l-1.64-6.09.9-.17c1.84-.34,4.57.02,4.68.03l1.61.22-5.55,6.01h0ZM72.56,35.04l.35,1.31,1.21-1.31c-.49-.02-1.04-.03-1.56,0Z" fill="#054972"/>
          </g>
        </g>
      </g>
    </g>
  </g>
</svg>