<?xml version="1.0" encoding="UTF-8"?>
<svg id="Layer_1" data-name="Layer 1" xmlns="http://www.w3.org/2000/svg" viewBox="0 0 108 108">
  <g id="PopulationHealthManagement">
    <g id="referralManager">
      <path d="M91.37,8.17c4.23,0,7.66,3.32,7.66,7.13s-3.92,11.25-3.92,11.25h-7.21s-4.2-7.32-4.2-11.25,3.43-7.13,7.66-7.13Z" fill="#fff" stroke="#044872" stroke-miterlimit="10" stroke-width="1.96"/>
      <circle cx="91.02" cy="19.36" r="14.99" fill="none" stroke="#044872" stroke-miterlimit="10" stroke-width="1.96"/>
      <path d="M97.49,27.68c-3.64-1.79-7.86-1.99-11.65-.56l-5.9,2.32c5.53,6.12,14.98,6.6,21.11,1.06.25-.23.49-.46.73-.7l-4.28-2.12Z" fill="#81c241" stroke="#044872" stroke-miterlimit="10" stroke-width="1.96"/>
      <path d="M21.35,77.32c4.23,0,7.66,3.32,7.66,7.12s-3.93,11.26-3.93,11.26h-7.2s-4.2-7.32-4.2-11.26,3.43-7.12,7.66-7.12Z" fill="#fff" stroke="#044872" stroke-miterlimit="10" stroke-width="1.96"/>
      <circle cx="21" cy="88.51" r="14.99" fill="none" stroke="#044872" stroke-miterlimit="10" stroke-width="1.96"/>
      <path d="M27.47,96.83c-3.64-1.8-7.86-2.01-11.65-.57l-5.9,2.32c5.54,6.12,15,6.59,21.12,1.05.25-.22.48-.45.71-.69l-4.28-2.11Z" fill="#e87722" stroke="#044872" stroke-miterlimit="10" stroke-width="1.96"/>
      <circle cx="55.48" cy="53.9" r="23.08" fill="#fff" stroke="#044872" stroke-miterlimit="10" stroke-width="1.96"/>
      <path d="M55.93,37.59c4.74,0,8.58,3.72,8.58,7.98s-4.39,12.63-4.39,12.63h-8.09s-4.68-8.2-4.68-12.61,3.84-8,8.58-8Z" fill="#fff" stroke="#044872" stroke-miterlimit="10" stroke-width="1.96"/>
      <path d="M62.79,59.44c-4.07-2.01-8.8-2.24-13.05-.64l-14.7,5.79c5.89,11.29,19.82,15.66,31.11,9.77,3.49-1.82,6.46-4.51,8.62-7.8l.16-1.12-12.13-5.99Z" fill="#00a2c5" stroke="#044872" stroke-miterlimit="10" stroke-width="1.96"/>
      <path d="M20.62,71.52V23.12s-.08-7.63,7.62-7.63h36.88" fill="none" stroke="#044872" stroke-dasharray="8.29 6.22" stroke-miterlimit="10" stroke-width="1.96"/>
      <polyline points="62.89 12.3 66.05 15.46 63.12 18.4" fill="none" stroke="#044872" stroke-miterlimit="10" stroke-width="1.96"/>
      <path d="M90.84,36.54v48.15s.08,7.63-7.62,7.63h-36.88" fill="none" stroke="#044872" stroke-dasharray="8.29 6.22" stroke-miterlimit="10" stroke-width="1.96"/>
      <polyline points="48.61 95.36 45.45 92.2 48.38 89.27" fill="none" stroke="#044872" stroke-miterlimit="10" stroke-width="1.96"/>
    </g>
  </g>
</svg>