<?xml version="1.0" encoding="UTF-8"?>
<svg id="Layer_1" data-name="Layer 1" xmlns="http://www.w3.org/2000/svg" viewBox="0 0 108 108">
  <g id="WorkforceManagement">
    <g id="careRouter">
      <g>
        <g>
          <path d="M74.01,46.92v.08c0,17.46-12.78,31.93-29.49,34.57-1.8.29-3.64.43-5.52.43-9.76,0-18.58-3.99-24.93-10.43-1.93-1.96-3.64-4.15-5.07-6.53-2.73-4.52-4.47-9.71-4.9-15.27-.08-.92-.11-1.84-.11-2.78,0-2.8.33-5.53.95-8.14,3.05-12.79,13.12-22.86,25.91-25.91,2.61-.62,5.34-.95,8.14-.95.93,0,1.86.04,2.77.11,8.42.66,15.99,4.29,21.69,9.85,1.68,1.64,3.21,3.45,4.53,5.41,3.79,5.58,6,12.31,6.02,19.56h0Z" fill="#fff"/>
          <g>
            <path d="M30.86,12.94L4.94,38.85c3.05-12.79,13.12-22.86,25.91-25.91Z" isolation="isolate" opacity=".12"/>
            <path d="M18.87,55.18l-9.86,9.86c-2.73-4.52-4.47-9.71-4.9-15.27l4.68-4.68,10.09,10.09Z" isolation="isolate" opacity=".12"/>
            <path d="M44.89,81.2l-.37.37c-1.8.29-3.64.43-5.52.43-9.76,0-18.58-3.99-24.93-10.43l10.6-10.6,20.22,20.22Z" isolation="isolate" opacity=".12"/>
            <path d="M74.01,46.92l-12.79-12.79,6.77-6.77c3.79,5.58,6,12.31,6.02,19.56h0Z" isolation="isolate" opacity=".12"/>
            <rect x="18.35" y="28.99" width="22.3" height="22.3" transform="translate(-19.74 32.61) rotate(-45)" fill="#84bd00"/>
            <path d="M63.46,21.95l-13.37,13.37-15.77-15.77,7.45-7.45c8.42.66,15.99,4.29,21.69,9.85Z" isolation="isolate" opacity=".12"/>
          </g>
          <path d="M74.01,46.92v.08c0,17.46-12.78,31.93-29.49,34.57-1.8.29-3.64.43-5.52.43-9.76,0-18.58-3.99-24.93-10.43-1.93-1.96-3.64-4.15-5.07-6.53-2.73-4.52-4.47-9.71-4.9-15.27-.08-.92-.11-1.84-.11-2.78,0-2.8.33-5.53.95-8.14,3.05-12.79,13.12-22.86,25.91-25.91,2.61-.62,5.34-.95,8.14-.95.93,0,1.86.04,2.77.11,8.42.66,15.99,4.29,21.69,9.85,1.68,1.64,3.21,3.45,4.53,5.41,3.79,5.58,6,12.31,6.02,19.56h0Z" fill="none"/>
        </g>
        <g>
          <circle cx="28.97" cy="25.03" r="4.82" fill="#e87722" stroke="#044872" stroke-miterlimit="10" stroke-width="2.04"/>
          <line x1="28.97" y1="42.42" x2="28.97" y2="29.84" fill="none" stroke="#044872" stroke-miterlimit="10" stroke-width="2.04"/>
        </g>
      </g>
      <rect x="40.34" y="46.3" width="30.71" height="29.95" transform="translate(-27.02 57.33) rotate(-45)" isolation="isolate" opacity=".12"/>
      <g>
        <polygon points="77.21 67.52 63.59 67.52 65.16 82.43 76.43 82.43 77.21 67.52" fill="#fff"/>
        <polygon points="63.84 69.84 74.6 76.92 76.79 74.97 76.99 71.6 63.84 69.84" isolation="isolate" opacity=".12"/>
        <polygon points="77.21 67.52 63.59 67.52 65.16 82.43 76.43 82.43 77.21 67.52" fill="none" stroke="#044872" stroke-miterlimit="10" stroke-width="2.04"/>
        <path d="M56.49,41l-.05.02c-2.12.63-2.86,2.4-2.39,4.99.47,2.59,2.71,4.78,2.71,4.78l-.26-9.79h0Z" fill="#fff" stroke="#044872" stroke-miterlimit="10" stroke-width="2.04"/>
        <path d="M89.27,44.56l.05.03c1.93,1.07,2.12,3.03,1.26,5.39s-3.6,4.48-3.6,4.48l2.29-9.9Z" fill="#fff" stroke="#044872" stroke-miterlimit="10" stroke-width="2.04"/>
        <path d="M74.85,24.88c-9.11-.99-17.27,5.35-18.16,13.54-.6,5.5.39,16.93,1.1,23.85.35,3.39,2.84,6.15,6.18,6.85l10.29,2.15c3.91.81,7.81-1.43,9.03-5.24,2.34-7.25,5.78-18.54,6.38-24.03.92-8.47-5.72-16.13-14.83-17.12h0Z" fill="#fff" stroke="#044872" stroke-miterlimit="10" stroke-width="2.04"/>
        <path d="M71.33,44.08l-1.76,7.04c-.2.79.4,1.56,1.22,1.56h2.35" fill="#fff" stroke="#044872" stroke-miterlimit="10" stroke-width="2.04"/>
        <polygon points="103.99 96.04 34.92 93.06 34.92 82.43 64.3 75.23 70.42 80.65 76.79 74.97 103.99 82.43 103.99 96.04" fill="#00a2c5" stroke="#044872" stroke-miterlimit="10" stroke-width="2.04"/>
        <g>
          <path d="M49.5,44.15c0-12.91,10.46-23.37,23.37-23.37s23.37,10.46,23.37,23.37c0,1.61-.16,3.19-.47,4.71" fill="none" stroke="#044872" stroke-miterlimit="10" stroke-width="2.04"/>
          <polyline points="79.27 61.17 93.49 60.79 93.51 60.8 95.6 50.79" fill="none" stroke="#044872" stroke-miterlimit="10" stroke-width="2.04"/>
          <rect x="44.48" y="42.66" width="9.79" height="3.23" transform="translate(1.16 89.81) rotate(-85.24)" fill="#044872"/>
          <rect x="90.7" y="48.21" width="9.79" height="3.23" transform="translate(31.45 136.47) rotate(-81.02)" fill="#044872"/>
          <rect x="75.2" y="59.45" width="6.83" height="3.23" transform="translate(-1.71 2.26) rotate(-1.63)" fill="#044872"/>
        </g>
      </g>
    </g>
  </g>
</svg>