<?xml version="1.0" encoding="UTF-8"?>
<svg id="Layer_1" data-name="Layer 1" xmlns="http://www.w3.org/2000/svg" viewBox="0 0 108 108">
  <g id="WorkforceManagement">
    <g id="mobileCaregiver">
      <g>
        <g>
          <ellipse cx="53.75" cy="100.89" rx="28.88" ry="4.55" isolation="isolate" opacity=".12"/>
          <path d="M78.69,32.09c0,13.8-25.04,65.96-25.04,65.96,0,0-25.04-52.16-25.04-65.96S39.86,7.05,53.66,7.05s25.04,11.19,25.04,25.04Z" fill="#0092b2" stroke="#044872" stroke-miterlimit="10" stroke-width="2.08"/>
        </g>
        <g>
          <g>
            <path d="M53.28,24.22c6.73,0,12.19,5.26,12.19,11.33s-6.26,17.83-6.26,17.83h-11.47s-6.69-11.62-6.69-17.88,5.5-11.28,12.23-11.28h0Z" fill="#fff" stroke="#044872" stroke-miterlimit="10" stroke-width="2.08"/>
            <path d="M53.66,98.05l16.88-39.17-7.54-3.7h0c-5.78-2.84-12.47-3.18-18.49-.9l-8.3,3.75" fill="#fff" stroke="#044872" stroke-miterlimit="10" stroke-width="2.08"/>
          </g>
          <g>
            <path d="M50.39,70.45c.05-.62.05-1.28,0-1.94-.43-3.98-3.22-9.01-6.02-8.72-2.37.24-3.98,4.84-4.17,8.49" fill="none" stroke="#044872" stroke-miterlimit="10" stroke-width="2.08"/>
            <rect x="48.75" y="68.55" width="1.9" height="1.9" transform="translate(-21.08 117.35) rotate(-88.5)" fill="#044872"/>
          </g>
          <line x1="44.22" y1="59.78" x2="43.61" y2="55.23" fill="none" stroke="#044872" stroke-miterlimit="10" stroke-width="2.08"/>
          <circle cx="62.19" cy="67.6" r="2.37" fill="#fff" stroke="#044872" stroke-miterlimit="10" stroke-width="2.08"/>
          <line x1="62.19" y1="65.23" x2="63.38" y2="55.23" fill="none" stroke="#044872" stroke-miterlimit="10" stroke-width="2.08"/>
        </g>
        <path d="M78.69,32.09c0,13.8-25.04,65.96-25.04,65.96,0,0-6.92-14.41-13.47-30.11-5.93-14.13-11.57-29.35-11.57-35.89,0-13.8,11.19-25.04,25.04-25.04s25.04,11.24,25.04,25.08Z" fill="none" stroke="#044872" stroke-miterlimit="10" stroke-width="2.08"/>
      </g>
      <g>
        <circle cx="76.56" cy="17.68" r="12.23" fill="#82bc41" stroke="#044872" stroke-miterlimit="10" stroke-width="2.08"/>
        <g>
          <polygon points="74.33 23.7 74.33 19.9 70.54 19.9 70.54 15.45 74.33 15.45 74.33 11.61 78.79 11.61 78.79 15.45 82.63 15.45 82.63 19.9 78.79 19.9 78.79 23.7 74.33 23.7" fill="#fff"/>
          <path d="M77.98,12.41v3.84h3.84v2.8h-3.84v3.84h-2.8v-3.84h-3.84v-2.8h3.84v-3.84h2.8M79.64,10.8h-6.12v3.84h-3.84v6.12h3.84v3.84h6.12v-3.84h3.84v-6.16h-3.84v-3.79h0Z" fill="#044872"/>
        </g>
      </g>
    </g>
  </g>
</svg>